<?xml version="1.0" encoding="UTF-8"?>
<svg id="Livello_2" data-name="Livello 2" xmlns="http://www.w3.org/2000/svg" viewBox="0 0 644.87 165.47">
  <g id="Livello_1-2" data-name="Livello 1">
    <path d="m252.94,135.67c0,4.68.13,9.15-.03,13.61-.33,9.33-3.95,12.96-13.33,12.99-28.98.08-58,.87-86.94-.35-13.58-.57-26.97,1.58-40.5.49-9.07-.73-12.04-2.39-14.91-11.07-1.57-4.74-3.17-9.48-4.47-14.3-.93-3.47-2.84-4.88-6.43-4.83-9.83.13-19.66.16-29.48-.01-3.87-.07-5.72,1.61-6.71,5.18-1.51,5.45-3.29,10.83-5.04,16.21-1.81,5.55-5.71,8.52-11.53,8.62-7.99.13-16,.24-23.98-.04-6.85-.24-9.49-3.36-9.59-10.13-.05-3.41.82-6.58,1.92-9.74C16.85,99.54,31.76,56.78,46.68,14.02c3.09-8.84,5.59-10.7,14.99-10.79,7.33-.07,14.66.09,21.99,0,6.12-.08,10.09,2.71,12.11,8.44,7.15,20.25,14.33,40.49,21.47,60.75,6.75,19.16,13.46,38.33,20.23,57.48.35,1,.3,2.37,1.85,2.75,1.25-1.8.65-3.84.66-5.73.04-35.47.03-70.94.04-106.41,0-2.16-.06-4.34.14-6.49.69-7.51,3.66-10.5,11.13-10.7,7.82-.21,15.66-.19,23.48.02,6.56.17,9.45,3.19,10.37,9.8.62,4.47.84,8.93.83,13.44-.04,29.47-.03,58.95-.01,88.42,0,6.7.39,7.09,7.07,7.1,16.16.04,32.32.05,48.47.07,5.21,0,5.45-.33,3.77-5.49-8.05-24.7-7.82-49.21,2.53-73.17,10.13-23.46,28.05-37.72,53.3-41.93,18.41-3.07,36.67-2.05,53.6,6.74,16.1,8.35,26.32,21.67,30.55,39.36,2.8,11.7-1.18,16.59-13.25,16.66-6,.04-11.99.06-17.99-.06-6-.11-10.4-2.44-12.75-8.48-7.06-18.11-30.27-18.57-41.61-8.68-5.86,5.11-9.69,11.39-11.54,18.86-3.59,14.49-3.55,28.84,3.48,42.34,9.29,17.85,29.16,22.43,44.75,10.66,2.93-2.21,6.9-5.13,6.02-8.44-.78-2.94-5.61-1.08-8.62-1.24-4.15-.21-8.31-.16-12.44-.89-5.87-1.04-8.79-3.63-9.13-9.44-.37-6.3-.39-12.66-.03-18.97.36-6.21,3.69-9.53,10-9.6,18.82-.22,37.64-.16,56.46-.01,5.16.04,8.23,3.09,9.32,8.13.74,3.44.98,6.9.97,10.42-.05,12.13-.02,24.26-.02,37.2,2.38-1.84,2.49-3.91,3.09-5.64,12.46-35.68,24.82-71.4,37.37-107.05,2.96-8.42,5.73-10.13,14.43-10.21,7.16-.07,14.33.19,21.49-.05,7.09-.24,11.1,3.14,13.31,9.63,3.64,10.72,7.55,21.35,11.32,32.02,9.98,28.26,19.95,56.52,29.92,84.78.32.92.73,1.81,2.14,2.68,0-1.85,0-3.71,0-5.56,0-34.14-.03-68.27.04-102.41,0-4.14.43-8.31.96-12.43.66-5.11,3.8-7.98,8.93-8.52,1.65-.17,3.33-.17,4.99-.17,30.98,0,61.97-.04,92.95.01,11.37.02,14.02,2.76,14.11,14.25.04,4.99.13,10-.09,14.98-.34,7.61-3.61,10.87-11.28,10.93-19.32.14-38.64.05-57.97.14-2.35.01-5.67-.88-6.27,2.47-.71,4.01-1.45,8.35.6,12.18.93,1.74,3.34,1.09,5.13,1.1,15.16.04,30.32-.02,45.47.05,11.92.05,15.2,3.33,15.31,15.12.04,4.16.09,8.33-.04,12.49-.29,9.17-3.39,12.33-12.55,12.4-15.66.13-31.32.04-46.97.07-7.07.01-7.34.3-7.38,7.27-.01,2.5,0,5,0,7.49.02,7.81.11,7.92,7.72,7.93,17.66.01,35.31-.01,52.97.02,13.94.03,16.22,2.34,16.26,16.31.01,4,.1,8-.07,11.99-.35,8.11-3.63,11.49-11.72,11.8-6.32.24-12.66.11-18.99.11-24.32,0-48.64,0-72.96,0-4.82,0-9.67.26-14.32-1.52-.88-.34-2.05-.46-2.94-.19-10.13,3.11-20.52,1.41-30.79,1.59-7.46.13-10.6-2.3-13.03-9.28-1.86-5.34-3.49-10.77-5.13-16.19-.95-3.17-2.92-4.54-6.25-4.51-9.99.09-19.99.11-29.98-.01-3.41-.04-5.19,1.42-6.08,4.61-1.48,5.29-3.14,10.53-4.77,15.78-2.08,6.74-5.36,9.57-12.26,9.59-9.81.03-19.59.17-29.43-.54-7.36-.53-14.9.84-22.39.67-4.29-.1-8.31-.63-11.36-4.08-1.42-1.61-2.97-1.6-4.92-.68-33.05,15.62-68.26,7.71-91.6-20.52-.52-.63-.94-1.38-2.92-1.39Zm201.51-64.03c-3.83,5.83-5.28,11.94-7.04,17.95-.48,1.63-.1,3.27,1.78,3.41,3.12.25,6.29.22,9.42,0,1.68-.11,2.02-1.57,1.57-3.03-1.88-6.12-3.82-12.23-5.73-18.35Zm-382.35.05c-.49-.02-.98-.04-1.47-.06-1.34,4.18-2.67,8.37-4.03,12.55-3.01,9.28-2.21,10.18,7.69,9.1,2.75-.3,4.03-1.4,3.19-4.16-1.75-5.82-3.58-11.62-5.38-17.43Z"/>
  </g>
</svg>