<?xml version="1.0" encoding="UTF-8"?>
<svg id="Livello_2" data-name="Livello 2" xmlns="http://www.w3.org/2000/svg" viewBox="0 0 945.67 165.64">
  <g id="Livello_1-2" data-name="Livello 1">
    <g>
      <path d="m629.71,129.04c0-2.13,0-4.25,0-6.38,0-33.81-.02-67.62-.03-101.42,0-1.33-.01-2.67.02-4,.25-11.32,3.05-14.17,14.4-14.2,21.49-.05,42.99-.24,64.47.13,14.67.25,27.66,5.04,37.96,16.17,5.78,6.24,9.32,13.51,10.47,21.69,2.19,15.54.88,30.36-11.62,41.94-1.73,1.6-2.99,3.3-1.09,5.55,8.94,10.56,9.09,23.63,10.29,36.34.76,8.1.89,16.21,3.38,24.13,2.37,7.53-1.75,12.84-9.72,13.05-7.32.19-14.66.17-21.99,0-7.35-.17-10.92-3.07-12.66-10.37-1.93-8.12-2.36-16.46-2.89-24.76-.22-3.34-.53-6.66-1.4-9.87-1.88-6.9-7.6-11.3-15.57-11.82-4.31-.28-8.66.02-12.99-.18-4.02-.19-5.17,1.77-5.13,5.47.11,11.66.07,23.32,0,34.97-.01,2.32-.14,4.68-.58,6.95-1.26,6.61-4.18,9.34-10.8,9.56-7.65.25-15.32.15-22.99.04-5.77-.08-9.74-2.87-11.76-9.1-2.17,8.67-8.52,9.24-15.35,9.23-30.99-.06-61.97,0-92.96-.05-11.38-.02-14.42-3.11-14.44-14.66-.05-32.98-.02-65.95-.03-98.93,0-6.39.01-5.93-6.24-5.58-8.97.51-17.98.27-26.97.36-6.33.06-6.78.48-6.78,6.89-.02,30.64,0,61.29-.04,91.93,0,3.15-.25,6.32-.69,9.44-1.08,7.74-3.95,10.31-11.85,10.5-6.33.16-12.66.11-18.99.05-11.16-.11-14.33-3.21-14.35-14.31-.05-31.48-.03-62.95-.03-94.43q0-10.08-10.07-10.08c-5.66,0-11.33.08-16.99-.02-3.6-.06-4.87,1.43-3.94,4.92.38,1.44.64,2.94.75,4.43.52,6.83-3.26,11.33-10.07,11.5-8.16.2-16.32.05-24.49.03-4.91,0-8.41-2.41-9.99-6.91-3.75-10.71-10.87-16.26-22.45-16.18-12.34.08-20.85,6.35-25.41,16.99-7.68,17.93-7.48,36.03,2.46,53.31,7.83,13.61,25.85,17.58,38.14,8.79,4.04-2.89,6.19-6.97,7.58-11.45,1.93-6.23,6.15-8.73,12.37-8.69,6.83.05,13.66-.12,20.49.04,8.72.21,12.45,3.81,11.56,12.5-2.34,22.85-14.74,39.07-35.87,46.99-26.59,9.97-52.67,7.97-76.68-8.63-5.11-3.54-9.26-8.09-13.28-12.77-.93-1.08-1.44-2.7-3.29-2.78-1.13,1.73.06,3.21.51,4.7.58,1.91,1.49,3.72,2.04,5.63,3.19,11.21-.56,16.28-12.11,16.38-6.83.06-13.66.1-20.49-.05-7.54-.17-10.87-2.8-13.11-9.94-1.6-5.08-3.32-10.13-4.76-15.26-.96-3.4-2.84-4.89-6.45-4.84-9.99.14-19.99.1-29.99.03-3.11-.02-4.87,1.14-5.75,4.27-1.67,5.93-3.79,11.72-5.53,17.63-1.54,5.23-5.27,7.75-10.31,7.92-8.65.3-17.33.34-25.97.03-5.48-.2-8.64-4-8.75-9.61-.05-2.26.25-4.53.43-7.56-5.17,4.14-9.58,8.11-15,10.72-8.71,4.2-17.83,6.55-27.46,6.61-21.49.13-42.98.11-64.47.05-10.16-.03-12.54-2.17-13.82-12.19-.38-2.96-.57-5.97-.57-8.95C0,102.66.02,64.35,0,26.05c0-4.17.18-8.3.75-12.45C1.81,5.89,4.6,3.16,12.54,3.09c15.83-.13,31.65-.16,47.48-.05,12.12.09,24.24-.71,36.2,2.85,29.41,8.75,40.67,43.32,21.68,67.49-1.55,1.98-2.98,3.44-.51,5.84,9.17,8.94,13.66,19.9,13.68,32.71,0,.6.31,1.2.65,2.42,2.59-2.98,3.21-6.26,4.25-9.24,10.75-30.64,21.4-61.31,32.07-91.98,2.77-7.96,5.4-9.95,13.93-10.07,7.16-.1,14.33-.09,21.49,0,8.26.1,11.17,2.31,13.95,10.17,9.22,26.06,18.45,52.11,27.69,78.16.38,1.08.86,2.13,1.49,3.71,1.17-1.38.54-2.48.48-3.48-1.23-22.91,2.57-44.59,16.73-63.32C277.53,10.14,296.34,1.37,318.85.15c15.28-.83,29.86,1.6,43.39,9.18,5.25,2.94,9.59,7.07,14.5,10.87,1.63-2.18.89-4.43,1.12-6.46.85-7.47,3.74-10.58,11.26-10.61,36.32-.12,72.64-.42,108.94.27,6.73.13,13.33.13,20.06,0,32.97-.7,65.96-.39,98.95-.27,7.6.03,10.23,2.42,11.22,9.93.87,6.61.83,13.33.04,19.93-.93,7.76-3.64,10.07-11.51,10.21-9.99.18-19.99.09-29.99.1-9.33.01-18.66.14-27.99-.05-4.42-.09-6.29,1.39-6.29,6.03.01,9.83-.18,9.83,9.78,9.83,14.16,0,28.32-.05,42.48.03,10.97.06,13.88,3.04,13.99,14.04.05,4.83.08,9.66-.05,14.49-.2,7.91-3.35,11.3-11.31,11.42-14.16.21-28.32.05-42.48.13-13.96.08-12.23-1.66-12.32,12.15-.07,10.54-.01,10.54,10.62,10.54,17.66,0,35.32.1,52.98,0,5.68-.03,10.21,1.46,13.44,7.12Zm-568.74-7.04c4.25-.14,8.91.27,13.53-.72,6.6-1.41,10.27-5.15,10.37-10.87.1-5.86-3.18-9.64-9.87-11.31-6.9-1.72-13.92-.8-20.89-.92-8.15-.14-8.15-.03-8.16,8.28,0,.33,0,.67,0,1,.22,16.75-2.18,14.3,15.01,14.53Zm628.87-55.95c4.98-.04,9.98.37,14.84-1.2,6.11-1.98,8.43-5.28,7.98-11.49-.38-5.26-3.89-9.19-9.49-9.94-7.58-1.02-15.22-1.32-22.88-1.09-3.07.09-4.63,1.38-4.61,4.52.03,4.99.04,9.97-.01,14.96-.03,2.88,1.26,4.31,4.2,4.27,3.32-.05,6.65-.01,9.97-.01ZM61.04,43.26s0-.09,0-.14c-3.49,0-6.99.03-10.48,0-2.7-.03-4.9.84-4.49,3.89.58,4.32-2.38,9.3,2.27,12.87.23.18.64.17.97.17,7.98,0,15.99.72,23.92-.4,5.54-.78,8.57-4.11,8.47-8.24-.1-4.31-3.68-7.66-9.19-8.1-3.8-.3-7.65-.06-11.47-.06Zm131.71,49.85c1.81-1.1,7.07,2.36,5.9-3.64-1-5.18-3.02-10.16-4.63-15.22-.29-.91-.57-2.06-1.88-1.88-.95.13-1.19,1.09-1.43,1.86-1.25,3.95-2.42,7.93-3.69,11.88q-2.25,7.01,5.72,7.01Z"/>
      <path d="m806.42,133.48c2.62-7.3,4.97-13.64,7.19-20.03,11.38-32.7,22.76-65.41,34.09-98.13,3.71-10.72,5.68-12.23,16.94-12.29,6.83-.03,13.66.11,20.49.01,6.11-.08,10.11,2.64,12.15,8.38,4.72,13.34,9.49,26.66,14.2,40,10.58,29.99,21.14,59.98,31.69,89.97.66,1.88,1.34,3.77,1.83,5.71,2.39,9.52-1.67,14.87-11.46,14.99-6.83.09-13.66.09-20.49,0-8.28-.12-11.42-2.41-14-10.13-1.69-5.05-3.35-10.12-4.79-15.24-.9-3.2-2.6-4.72-6.02-4.68-10.16.11-20.32.09-30.48.01-3.16-.02-4.91,1.32-5.79,4.32-1.64,5.59-3.45,11.13-5.2,16.69-1.82,5.76-5.75,9.05-11.79,8.93-10.27-.2-20.64,1.56-30.78-1.5-2.93-.88-5.48,1.19-8.27,1.34-9.15.52-18.31.55-27.46,0-4.3-.26-6.93-2.79-8.1-6.97-.69-2.45-.78-4.92-.78-7.42,0-42.79,0-85.58.03-128.38,0-2.16-.03-4.35.3-6.48,1.01-6.69,3.9-9.31,10.65-9.47,6.99-.17,13.99-.14,20.98-.07,10.24.1,13.17,2.93,13.19,13.09.07,35.8.03,71.6.07,107.4,0,2.94-.53,5.98,1.61,9.94Zm67.22-62.04c-.5.02-1,.04-1.5.06-1.35,4.21-2.67,8.43-4.04,12.63-3,9.18-2.55,9.75,7.25,8.96.33-.03.66-.03.99-.06,2.3-.17,3.41-1.4,2.76-3.64-1.75-6-3.63-11.97-5.47-17.95Z"/>
    </g>
  </g>
</svg>