<?xml version="1.0" encoding="UTF-8"?>
<svg id="Livello_2" data-name="Livello 2" xmlns="http://www.w3.org/2000/svg" viewBox="0 0 354.97 229.46">
  <g id="Livello_1-2" data-name="Livello 1">
    <g>
      <path d="m212.82,165.34c-21.15.27-39.59-6.46-54.61-21.59-5.19-5.23-9.14-11.43-12.46-18.02-.57-1.13-.94-2.75-2.65-2.56-1.38.15-1.59,1.56-1.98,2.62-9.48,25.34-29.19,36.74-54.77,39.21-19.77,1.91-38.6-1.64-54.92-13.88-16.53-12.39-26.05-29.22-29.58-49.36C-2.61,76.35.68,52.14,15.41,30.47,28.73,10.89,48.17,1.82,71.34.24c13.65-.94,26.94.81,39.45,6.79,14.19,6.78,24.12,17.46,29.75,32.17.56,1.45.52,3.83,2.54,3.87,1.93.04,2.14-2.28,2.89-3.68C159.62,13.82,181.34,1.4,209.9.17c17.83-.77,34.55,2.93,49.12,13.6,19.74,14.47,28.62,34.94,31,58.66,1.6,15.97-.02,31.63-5.95,46.61-11.47,28.97-36.54,46-67.74,46.28-1.17.01-2.33,0-3.5,0Zm-91.15-65.21v.03c3.49,0,6.99-.13,10.48.03,3.69.17,5.33-1.37,4.78-5.04-1.26-8.46-1.18-16.9.06-25.35.61-4.16-1.21-5.64-5.35-5.51-6.98.23-13.98-.08-20.96.08-6.18.14-10.35-2.61-12.07-8.39-5.4-18.21-29.79-17.99-40.07-7.94-7.98,7.8-10.91,17.45-11.89,27.81-1.48,15.71.55,30.73,12.91,42.28,11.93,11.15,32.54,8.86,37.78-5.08,4.11-10.94,10.84-14.18,21.33-12.93.98.12,1.99.02,2.99.02Zm122.37-17.95c.41-6.86-.52-14.08-3.22-21.01-3.31-8.51-8.3-15.62-17.26-18.9-14.38-5.27-29.19.54-35.85,15.07-8.06,17.6-8.01,35.76,1.09,52.96,10.28,19.44,36.57,20.09,48.4,1.6,5.66-8.85,7.22-18.83,6.84-29.72Z"/>
      <path d="m335.02,198.53c3.02,1.07,5.71.53,8.35.71,7.17.49,10.53,3.59,11.42,10.75.18,1.48.19,2.99.18,4.49-.04,10.11-2.46,13.64-12.53,14.17-17.27.9-34.61,1.39-51.88-.38-6.25-.64-8.42-3.32-8.62-9.52-.44-13.43,6.14-23.59,15.63-32.11,5.19-4.66,10.94-8.71,16.38-13.1,1.55-1.25,2.97-2.68,4.33-4.13,1.5-1.6,2.86-3.38,2.03-5.79-.42-1.2-1.41-2.04-2.71-1.68-2.4.67-3.33,2.73-3.7,4.91-1.14,6.67-5.39,9.24-11.76,10.08-15.88,2.1-22.39-4.81-18.61-20.4,3.3-13.62,11.67-22.47,25.64-24.74,12.27-2,24.44-1.54,34.39,7.51,15.68,14.27,13.74,40.53-3.87,54.46-1.64,1.29-3.78,2.11-4.66,4.76Z"/>
    </g>
  </g>
</svg>