<?xml version="1.0" encoding="UTF-8"?>
<svg id="Livello_2" data-name="Livello 2" xmlns="http://www.w3.org/2000/svg" viewBox="0 0 421.87 159.4">
  <g id="Livello_1-2" data-name="Livello 1">
    <g>
      <path d="m298.75,151.21c-2.5,7.24-7.4,8.16-12.86,8.12-6.16-.05-12.33.06-18.49-.04-8.97-.15-12.87-3.52-14.69-12.45-1.84-9-1.9-18.19-2.77-27.29-1.08-11.16-6.84-16.92-18.03-17.23-3.99-.11-8,.08-11.99-.08-3.66-.14-5.04,1.46-5.01,5.06.1,11.99.04,23.98.02,35.96,0,2,.04,4.01-.21,5.98-.88,6.99-3.72,9.75-10.78,9.95-7.65.22-15.33.23-22.98.01-7.71-.22-11.08-3.5-11.1-11.09-.08-45.62-.09-91.24,0-136.86.02-7.57,3.49-10.93,11.19-10.97,22.98-.1,46-.75,68.94.22,24.19,1.02,45.94,14.82,47.65,45.38.71,12.64-2.43,24.48-11.77,33.89-1.77,1.79-3.89,3.53-1.6,6.34,7.71,9.49,8.7,20.96,9.65,32.47.59,7.12,1.25,14.24,2.03,21.34.21,1.91.54,3.93,2.28,5.78.99-2.06.61-4.03.61-5.9.03-40.79.01-81.59.03-122.38,0-15.16,2.08-17.23,17.37-17.23,29.81-.02,59.63-.03,89.44.02,12.52.02,15.1,2.7,15.15,15.4.02,4.33.12,8.66-.08,12.99-.39,8.55-3.54,11.73-12.12,11.8-18.99.14-37.97.05-56.96.13-2.36,0-5.68-.9-6.38,2.33-.88,4-1.41,8.33.45,12.21.86,1.8,3.29,1.2,5.08,1.21,15.16.03,30.31.03,45.47.03,3.01,0,5.98.16,8.84,1.29,3.04,1.2,4.97,3.29,5.55,6.52,1.36,7.59,1.7,15.22.32,22.84-1.2,6.6-4.14,9.27-10.86,9.34-15.99.15-31.98.08-47.97.12-7.01.02-7.32.34-7.36,7.32-.02,2.83-.02,5.66,0,8.49.05,6.41.45,6.86,6.78,6.88,17.65.03,35.31,0,52.96.02,2.33,0,4.67-.01,6.99.16,5.15.38,8.26,3.19,9.26,8.24,1.57,7.94,1.29,15.9-.11,23.83-.71,4.02-3.19,6.6-7.18,7.37-2.43.47-4.96.58-7.44.58-30.65.04-61.29-.05-91.94.09-6.21.03-11.68-.81-15.39-8.18Zm-69.76-87.94c4.97-.06,9.95.28,14.83-1.15,6.05-1.78,9.32-5.94,8.86-11.52-.45-5.46-4.57-9.6-10.54-10.14-6.93-.63-13.88-1.01-20.86-1.05-4.71-.02-6.87,1.57-6.36,6.36.12,1.15,0,2.32.02,3.48.18,15.99-1.98,13.84,14.05,14.02Z"/>
      <path d="m163.96,79.71c0,21.64.04,43.28-.01,64.93-.03,11.55-3.07,14.6-14.43,14.68-6.16.04-12.32.09-18.48-.04-8.88-.19-12.09-3.28-12.16-12.16-.14-19.81-.07-39.62-.08-59.43,0-14.82.02-29.63-.02-44.45-.02-5.98-.13-5.93-5.32-3.77-3.73,1.55-7.74,1.84-11.77,1.84-16.49-.01-32.97.13-49.46-.08-4.76-.06-6.46,1.53-6.36,6.33.26,12.78-.86,11.6,11.6,11.63,12.66.03,25.31-.06,37.97.07,9.1.1,12.21,3.27,12.48,12.47.15,4.99.1,9.99.03,14.98-.14,9.67-3.63,13.39-13.29,13.52-13.65.19-27.31.07-40.97.08q-7.73,0-7.75,7.77c-.01,12.32.07,24.64-.04,36.96-.1,10.64-3.62,14.15-14.09,14.27-6.49.07-12.99.13-19.48-.05-8-.22-11.48-3.59-12.19-11.53-.16-1.82-.13-3.66-.13-5.49,0-41.62-.01-83.24,0-124.86C.01,2.39,2.15.22,16.94.22c29.64-.02,59.28.02,88.93,0,4.25,0,8.38.21,11.29,3.99,1.24,1.61,2.44,1.43,3.63-.09,2.65-3.4,6.37-3.91,10.33-3.88,6.83.04,13.66-.07,20.48.03,8.97.13,12.26,3.4,12.32,12.53.11,16.31.05,32.63.05,48.94,0,5.99,0,11.99,0,17.98Z"/>
    </g>
  </g>
</svg>