<?xml version="1.0" encoding="UTF-8"?>
<svg id="Livello_2" data-name="Livello 2" xmlns="http://www.w3.org/2000/svg" viewBox="0 0 790.45 165.38">
  <g id="Livello_1-2" data-name="Livello 1">
    <g>
      <path d="m293.96,91.39c0,2.4,0,4.37,0,6.34,0,16.99.1,33.97-.07,50.96-.1,9.68-3.82,13.22-13.45,13.38-5.83.1-11.66.07-17.49.02-11.15-.1-13.96-2.85-14.05-13.86-.07-8.33-.03-16.65-.03-24.98,0-34.47,0-68.94.01-103.41,0-2.66-.05-5.35.31-7.98.75-5.53,3.73-8.53,9.23-8.68,8.99-.25,17.99-.16,26.98-.03,5.53.07,8.59,3.85,11.14,8.13,11.27,18.86,22.53,37.74,33.8,56.6,1.01,1.69,1.75,3.59,3.56,4.83,1.86-1.4,1.05-3.38,1.06-5.03.07-14.99-.22-29.98.11-44.96.41-18.51,2.55-20.25,19.74-19.77,5.16.14,10.33-.06,15.49.18,5.52.27,8.45,2.99,9.65,8.38.72,3.27.95,6.57.94,9.92-.04,12.81-.02,25.61.91,38.66.55-1.75,1.13-3.49,1.64-5.26C393.45,19.96,419.66.27,456.05.03c16.36-.11,31.89,2.61,45.51,12.25,12.63,8.94,20.6,21.15,23.85,36.27,2.29,10.63-1.73,15.44-12.61,15.55-6.33.07-12.66.08-18.99-.05-5.79-.11-10.25-2.32-12.51-8.11-4.05-10.37-12.21-15.3-22.91-15.49-11.15-.19-20.43,4.69-25.68,14.51-9.67,18.1-9.85,36.88-.17,55.03,9.68,18.15,36.21,20.37,48.03,4.46.95-1.28,2.69-2.61,1.98-4.32-.79-1.89-2.94-1.06-4.5-1.1-5.65-.14-11.32.2-16.94-.86-5.63-1.06-8.61-3.52-8.96-9.05-.42-6.63-.45-13.33-.01-19.95.41-6.21,3.89-8.97,10.96-9.08,12.32-.2,24.65-.11,36.98-.11,5.83,0,11.67-.13,17.49.15,6.7.33,9.7,3.21,10.39,9.77,1.97,18.77.4,37.6.86,56.39.14,5.5-.02,10.98-.86,16.43-.89,5.74-3.56,8.76-9.43,9.11-6.14.37-12.32.19-18.47.03-2.91-.08-5.48-1.36-7.46-3.59-1.54-1.73-3.2-2.11-5.3-.84-14.9,8.99-31.11,9.23-47.44,6.19-29.02-5.41-46.93-23.46-56.01-50.99-.71-2.16-1.34-4.35-2.95-6.43,0,6.72.11,13.45-.03,20.17-.18,8.81.72,17.65-.81,26.42-1.02,5.82-3.66,8.8-9.51,9.05-8.31.36-16.65.28-24.97.04-6.02-.17-9.36-4.45-12.25-9.12-12.07-19.55-24.15-39.09-36.25-58.62-.58-.94-.83-2.22-3.11-2.75Z"/>
      <path d="m656.97,123.47c-1.82,6.63-4.14,13.02-7.99,18.67-8.22,12.09-20.46,17.66-34.2,20.6-14.22,3.05-28.48,2.75-42.61-.45-26.86-6.07-41.79-24.06-42.18-51.9-.44-31.47-.17-62.95-.06-94.43.03-9.74,3.28-12.82,13.04-12.94,7.16-.09,14.33-.12,21.49.07,6.4.17,9.28,2.86,10.57,9.13.64,3.12.79,6.26.79,9.44-.01,28.31-.03,56.63.02,84.94.02,12.75,5.38,18.23,17.71,18.35,12.41.12,19.19-6.24,19.23-18.53.11-28.98.04-57.96.07-86.94,0-2.33-.04-4.69.3-6.98.97-6.45,3.74-9.15,10.27-9.36,8.15-.26,16.33-.22,24.48-.02,5.83.15,8.76,2.92,9.99,8.59.71,3.27.9,6.58.89,9.93-.03,25.32.04,50.63-.07,75.94-.02,4.32.37,5.85,5.75,4.95,9.32-1.57,18.94-.95,28.41-.26,4.12.3,7.08,2.73,8.18,6.97,1.69,6.54,4.27,12.56,11.52,14.44,8.85,2.3,17.83,2.66,26.42-1.02,2.89-1.24,5.39-3.71,5.3-7.29-.08-3.36-2.59-5.25-5.31-6.73-6.84-3.74-14.49-4.85-21.93-6.62-12.81-3.05-25.7-5.89-37.11-12.89-10.57-6.49-16.94-15.99-18.6-28.23-2.31-17.1.21-33.04,13.68-45.38,8.46-7.75,18.79-11.84,30.03-13.75,19.53-3.33,38.6-2.53,56.36,7.23,15.75,8.65,23.4,22.74,25.04,40.22.69,7.29-3.08,11.36-10.5,11.72-7.48.36-14.99.27-22.48,0-5.68-.21-9.47-3.02-11.29-8.82-2.47-7.91-8.17-11.8-16.46-12.02-4.99-.13-10.01-.38-14.65,2.13-2.33,1.26-4.11,2.83-4.24,5.69-.13,2.95,1.68,4.54,4.04,5.74,5.55,2.84,11.61,4.04,17.6,5.48,14.72,3.54,29.67,6.31,42.83,14.57,9.64,6.05,15.47,14.71,17.65,25.57,3.96,19.71.29,37.45-15.35,51.39-9.31,8.29-20.64,12.13-32.73,13.6-17.03,2.07-33.96,1.62-50.21-4.75-15.38-6.03-26.6-16.21-31.43-32.52-.35-1.19-.34-2.71-2.28-3.53Z"/>
      <path d="m.02,82.47C.02,60.65-.03,38.83.03,17.02.07,5.83,2.83,3.03,13.87,3.01c30.15-.05,60.31-.02,90.46-.02,4.19,0,8.37,0,11.91,2.79,1,.79,2.21,1.08,3.22.19,4.06-3.62,9.02-2.91,13.8-2.97,5.5-.06,11-.06,16.49.03,9.09.15,12.14,3.23,12.32,12.48.11,5.66.05,11.32.05,16.99,0,22.48,0,44.97,0,67.45,0,1.83-.02,3.66.02,5.5.4,15.42,10.17,22.66,25.05,18.56,6.56-1.81,10.58-5.96,11.9-12.72.65-3.29.84-6.59.83-9.93-.01-27.48-.02-54.96.02-82.44,0-2.66.02-5.35.47-7.96.8-4.65,3.71-7.6,8.47-7.73,8.99-.24,17.99-.23,26.98-.03,5,.11,7.92,3.14,8.8,8,.32,1.79.38,3.64.39,5.47,0,31.64.2,63.29-.11,94.93-.15,15.02-4.91,28.44-16.64,38.71-7.49,6.56-16.3,10.32-25.88,12.28-15.55,3.18-31.06,2.99-46.5-1.06-23.9-6.26-38.55-24.57-38.85-49.38-.26-21.48-.08-42.97-.12-64.45-.01-5.96-.05-5.95-5.73-4.69-3.26.72-6.55,1.08-9.91,1.07-16.49-.05-32.99-.03-49.48-.01-6.32,0-6.64.3-6.64,6.34,0,12.8-.99,11.49,11.58,11.54,12.66.04,25.32-.04,37.98.06,8.79.07,11.57,2.44,12.79,11.26,1,7.29.82,14.63-.61,21.87-.96,4.88-4.4,7.47-10.78,7.79-5.82.29-11.66.14-17.49.15-9,.02-17.99-.03-26.99.02-5.99.03-6.46.52-6.48,6.67-.04,12.66.02,25.31-.04,37.97-.05,11.16-3.15,14.26-14.22,14.36-4.83.04-9.66.03-14.49.01C2.54,162.06.03,159.62.01,145.92c-.03-21.15,0-42.3,0-63.45Z"/>
    </g>
  </g>
</svg>