<?xml version="1.0" encoding="UTF-8"?>
<svg id="Livello_2" data-name="Livello 2" xmlns="http://www.w3.org/2000/svg" viewBox="0 0 309.89 165.29">
  <g id="Livello_1-2" data-name="Livello 1">
    <path d="m45.94,62.03c2.84-7.9,5.24-15.78,9.14-23.12C68.01,14.56,88.75,2.33,115.76.28c14.13-1.07,27.93.79,40.84,7.22,12.89,6.42,22.22,16.16,27.82,29.45.37.89.9,1.71,1.63,3.08,1.3-2.12.8-3.95.87-5.65.33-7.47-.69-14.99.74-22.42,1.09-5.62,4.17-8.32,9.87-8.78,1.16-.09,2.33-.1,3.5-.1,31.48,0,62.96-.04,94.44.02,10.32.02,13.31,3.11,13.41,13.48.05,4.83.08,9.66-.02,14.49-.19,8.8-3.44,12.16-12.14,12.21-18.82.11-37.64.02-56.47.12-2.49.01-6.05-1.13-6.88,2.31-.95,3.97-1.41,8.33.42,12.21.85,1.81,3.29,1.21,5.08,1.22,15.16.03,30.32-.01,45.47.04,11.72.04,15.29,3.55,15.47,15.14.07,4.49.2,9.01-.16,13.48-.62,7.95-4.26,11.32-12.25,11.38-15.99.12-31.98.04-47.97.09-6.03.02-6.49.53-6.55,6.61-.03,3.33.17,6.67-.05,9.99-.3,4.53,1.57,6.2,6.11,6.16,17.99-.16,35.98-.08,53.97-.05,14.78.02,16.92,2.19,16.9,17.19,0,4.65.35,9.32-.48,13.95-.96,5.33-4.22,8.13-9.42,8.82-1.81.24-3.66.23-5.49.23-30.65.01-61.3.04-91.94,0-12-.02-15.38-3.43-15.52-15.48-.08-6.56-.01-13.13-.53-19.78-3.42,6.24-6.63,12.34-11.32,17.55-11.05,12.29-25.19,18.32-41.25,20.12-21.24,2.39-41.26-.98-58.63-14.34-13.07-10.06-21.67-23.29-26.3-39.12-.68-2.33-.71-4.89-2.98-8.01,0,6.5,0,11.89,0,17.28,0,9.49.12,18.99-.07,28.47-.19,9.64-3.85,13.16-13.54,13.29-6.83.09-13.66.16-20.49-.06-7.45-.24-10.84-3.56-11.67-10.99-.22-1.98-.18-3.99-.18-5.99C0,103.47,0,61.84,0,20.22.01,5.24,2.15,3.1,16.96,3.06c5.66-.01,11.33-.08,16.99.07,8.21.22,11.12,2.75,11.75,11.07.49,6.46.22,12.98.24,19.47.03,9.45,0,18.9,0,28.35Zm140.97,20.42c0-5.33.04-10.65-.02-15.98-.02-1.81.1-4.02-2.89-3.27-8.87,2.21-17.91.57-26.84,1.16-7.38.48-11.95-2.61-14.31-9.65-2.5-7.45-8.08-11.58-15.67-13.12-11.78-2.4-24.35,2.92-29.63,13.73-8.92,18.28-9.44,36.95.56,55.08,5.28,9.58,13.82,14.99,24.99,14.5,10.92-.48,18.34-6.06,21.53-16.9,1.34-4.54,4.59-7.53,9.45-7.65,9.63-.22,19.31-1.26,28.86.72,3.03.63,4-.3,3.98-3.12-.03-5.16,0-10.32,0-15.48Z"/>
  </g>
</svg>