<?xml version="1.0" encoding="UTF-8"?>
<svg id="Livello_2" data-name="Livello 2" xmlns="http://www.w3.org/2000/svg" viewBox="0 0 1051.52 165.83">
  <g id="Livello_1-2" data-name="Livello 1">
    <path d="m158.83,107.75c-1.43,2.02-.85,3.88-.86,5.6-.07,11.99.05,23.98-.1,35.97-.12,9.57-3.5,12.82-13.1,12.95-5.66.08-11.33.09-16.99,0-9.87-.15-12.87-3.11-12.97-12.85-.09-8.83-.02-17.65-.06-26.48-.01-2.64.16-5.32-1.61-8.81-1.45,4.83-2.69,8.84-3.87,12.87-2.48,8.47-4.89,16.96-7.4,25.42-2.07,6.99-5.39,9.64-12.62,9.8-6.83.15-13.66.15-20.49.01-7.78-.15-11.17-2.8-13.34-10.28-2.93-10.07-5.74-20.18-8.62-30.26-.53-1.87-1.17-3.71-2.89-5.43,0,6.37.07,12.74-.02,19.11-.08,5.98.5,11.99-.79,17.93-1.22,5.59-3.76,8.45-9.33,8.72-7.81.37-15.66.38-23.47,0-5.85-.28-8.56-3.37-9.38-9.14C.28,148.43,0,143.96,0,139.45.05,101.32.06,63.18,0,25.05c0-4.35.38-8.65.98-12.93C1.7,6.93,4.68,3.56,9.73,3.46c13.15-.26,26.31-.24,39.47,0,5.24.1,7.83,3.89,9.16,8.56,4.21,14.73,8.39,29.46,12.58,44.2,2.05,7.21,4.07,14.42,6.16,21.62.35,1.19.28,2.71,2.56,3.46,1.72-5.86,3.47-11.66,5.12-17.5,4.7-16.67,9.33-33.35,14.05-50.01,2.35-8.3,5.22-10.51,13.92-10.57,10.66-.08,21.32-.1,31.98,0,9.96.1,13.06,3.21,13.16,13.33.12,11.82.02,23.65.07,35.47,0,1.78-.41,3.62.78,6.01C171.45,16.47,199.75-2.81,242.14.68c34.87,2.88,56.04,23.56,65.69,57.21,1.48-1.7.97-3.38.98-4.84.05-11.32-.01-22.65.07-33.97.02-2.64.37-5.3.76-7.92.71-4.81,3.71-7.55,8.43-7.68,8.99-.25,17.98-.26,26.97-.05,4.48.11,7.3,2.89,8.61,7.14.99,3.22,1.14,6.53,1.14,9.88-.02,30.97-.01,61.95,0,92.92q0,8.69,8.47,8.7c14.66.01,29.32-.02,43.98.05,2.48.01,5.23-.2,7.39.74,5.12,2.23,5.28-.28,5.27-4.3-.09-32.47-.06-64.95-.03-97.42,0-2.49.03-5.02.43-7.46,1.27-7.68,4.32-10.33,12.08-10.44,7.49-.11,15-.17,22.49.07,6.83.22,9.2,2.39,10.39,9.11.46,2.6.51,5.3.51,7.95.03,31.47.01,62.95.03,94.42,0,6.98.3,7.18,7.37,7.29,17.48.28,34.97-.68,52.44.55,2.52.18,2.66-1.07,2.5-3.05-2.71-32.92-.84-65.9-1.2-98.85-.19-17.37,5.29-17.94,17.37-17.6,5.83.16,11.67-.08,17.49.15,7.05.28,9.91,3.02,10.78,9.98.27,2.14.21,4.32.21,6.48.02,28.64-.02,57.29.04,85.93.03,14.9,9.45,22.2,23.98,18.76,8.89-2.1,12.93-7.19,12.96-16.94.08-28.31.04-56.62.05-84.93,0-16.99,2.38-19.41,19.11-19.42,5.16,0,10.33-.09,15.49.1,7.51.28,10.49,3.17,11.19,10.65.2,2.15.14,4.33.14,6.49.01,25.81,0,51.62.02,77.44,0,5.92,0,5.54,5.71,4.83,9.6-1.18,19.29-.89,28.92-.15,3.98.31,6.66,2.72,7.85,6.68,1.84,6.12,3.62,12.57,10.82,14.44,9.31,2.43,18.73,3.16,27.83-1.08,2.93-1.36,4.71-3.73,4.61-7.11-.1-3.17-1.98-5.19-4.66-6.59-3.42-1.78-7.11-2.81-10.82-3.81-11.58-3.1-23.41-5.28-34.78-9.15-29.93-10.2-42.19-38.88-28.48-67.42,6.93-14.42,19.6-21.89,34.62-25.46,19.25-4.59,38.5-4.53,56.78,3.79,18,8.19,27.97,22.65,29.44,42.47.59,8.02-2.61,11.42-10.69,11.83-7.31.37-14.66.21-21.98.06-5.61-.11-9.21-3.1-11.22-8.35-4.72-12.36-22.41-17.34-33.02-9.38-4.33,3.25-3.75,8.06,1.56,10.51,8.23,3.8,17.18,5.24,25.93,7.26,8.62,2,17.1,4.34,25.25,7.85,6.98,3,13.23,6.98,18.31,12.7.81.91,1.45,2.73,2.99,2.1,1.45-.59.86-2.35.91-3.61.52-14.85,3.56-29.08,10.68-42.23,13.05-24.09,33.93-35.81,60.73-37.7,14-.99,27.56,1.01,40.34,7.28,11.97,5.88,20.63,14.97,26.68,26.71.51,1,.54,2.49,1.91,2.71,1.27.2,1.55-1.03,1.85-1.94,6.93-20.67,22.98-29.73,43.03-33.28,17.02-3.01,33.93-2.46,50.05,4.48,18.3,7.88,28.16,22.29,30.52,41.82,1.04,8.64-2.8,12.77-11.62,13.08-6.82.24-13.66.11-20.49.02-5.8-.07-9.57-2.94-11.75-8.38-5.02-12.51-21.97-17.26-33.05-9.41-4.1,2.91-3.93,7.52.65,10,5.46,2.96,11.49,4.38,17.51,5.73,12.83,2.88,25.63,5.71,37.69,11.35,20.27,9.47,27.13,27.8,24.71,47.84-2.86,23.76-17.48,39.4-40.88,44.56-19.39,4.28-38.71,3.73-57.61-2.89-12.77-4.47-22.75-12.29-28.91-24.58-1.12-2.22-2.14-5.4-4.76-.94-10.59,17.97-26.71,27.38-47.07,29.96-21.79,2.76-42.22-.62-60.08-14.26-8.71-6.65-15.49-15.05-20.54-24.82-.88-1.71-1.24-3.83-3.12-4.86-1.1.32-1.2,1.2-1.35,2-3.97,21.62-17.59,34.36-38.12,39.7-20.77,5.41-41.6,4.87-61.85-3.02-14.79-5.77-25.13-15.96-30.04-31.3-.39-1.23-.52-2.64-2.05-3.63-1.54,1.41-1.63,3.5-2.22,5.27-5.28,15.93-16.28,26.15-32.01,31.1-17.2,5.41-34.7,5.74-52.26,1.46-13.21-3.22-24.54-9.29-32.21-21-.51-.78-.96-1.81-2.67-1.56-.9,3.59-.31,7.4-.5,11.13-.4,7.72-3.79,11.45-11.48,11.49-29.82.12-59.64-.01-89.45.11-4.31.02-7.44-3.89-10.95-3.68-3.39.2-6.43,3.66-10.56,3.65-29.98-.07-59.97.03-89.95-.08-7.61-.03-11.3-4.13-11.46-12.71-.23-11.99-.06-23.98-.13-35.97-.01-1.73.49-3.56-.74-5.66-10.71,35.79-33.51,56.44-71.43,57.39-40.41,1.01-66.32-18.46-77.81-57.5Zm826.92,17.38c5.02.3,9.99.21,14.59-2.28,6.5-3.52,6.82-9.69.63-13.63-3.43-2.18-7.34-3.1-11.19-4.15-11.88-3.23-24.1-5.24-35.7-9.5-14.15-5.19-25.89-13.03-30.42-28.52-.6-2.05-1.53-3.63-4.2-3.24-8.45,1.23-16.97.2-25.43.67-7.63.43-12.11-2.8-14.64-9.97-3.05-8.66-9.92-12.66-18.82-13.16-13.09-.73-23.39,5.69-28.29,17.9-6.08,15.16-6.27,30.54-.43,45.81,2.62,6.84,7.14,12.37,13.45,16.27,11.98,7.41,30.35,3.45,35.12-10.71,3.12-9.24,5.37-10.48,15.14-10.4,9.44.08,18.82-.23,28.31,1.6,7.54,1.46,15.59.25,23.42.28,11.43.05,12.51.66,16.18,11.48,2.46,7.26,7.63,10.62,14.81,11.48,2.46.29,4.99.05,7.48.05Zm-752.14.08c12.75.05,22.45-6.98,27.14-20.34,5.12-14.59,5.04-29.37.06-44.01-1.96-5.75-5.09-10.89-10.06-14.57-16.02-11.87-36.57-5.45-44.26,14.16-5.47,13.95-5.4,28.43-.93,42.58,4.56,14.42,14.95,22.14,28.06,22.19Z"/>
  </g>
</svg>