<?xml version="1.0" encoding="UTF-8"?>
<svg id="Livello_2" data-name="Livello 2" xmlns="http://www.w3.org/2000/svg" viewBox="0 0 587.67 165.63">
  <g id="Livello_1-2" data-name="Livello 1">
    <path d="m157.89,108.72c0,4.87,0,9.26,0,13.66,0,8.49.06,16.99-.03,25.48-.12,10.92-3.59,14.4-14.34,14.48-5.83.04-11.66.11-17.49-.07-7.29-.23-10.31-2.8-11.39-9.96-1.54-10.26-.37-20.61-.68-30.92-.06-2.07,0-4.14,0-6.21-.43-.05-.85-.09-1.28-.14-1.52,5.18-3.05,10.35-4.57,15.53-2.21,7.51-4.57,14.97-6.57,22.54-1.62,6.1-5.7,8.9-11.59,9.09-7.65.25-15.32.19-22.98.02-5.81-.13-9.6-3.05-11.22-8.83-3.14-11.22-6.45-22.4-9.7-33.59-.36-1.24-.8-2.45-1.45-4.38-1.51,2.94-1.48,5.38-1.49,7.8-.04,9.16.05,18.32-.09,27.48-.12,8.01-3.28,11.33-11.14,11.58-6.66.21-13.33.2-19.99,0-7.05-.21-10-2.83-11.15-9.64-.47-2.77-.71-5.62-.71-8.44C-.01,103.05,0,61.91.02,20.78c0-2.32.04-4.68.41-6.96C1.7,6.11,4.74,3.39,12.46,3.3c10.99-.12,21.99-.13,32.98,0,8.4.1,11.07,2.34,13.38,10.56,6.08,21.64,12.16,43.28,18.25,64.92.31,1.1.38,2.33,1.86,3.33,2.35-4.83,3.32-10.02,4.74-15.02,4.99-17.45,9.78-34.95,14.71-52.42,2.65-9.37,5.22-11.34,14.86-11.4,10.49-.07,20.99-.09,31.48.01,9.92.1,12.93,3.1,13.1,13.41.19,12.15.07,24.31.08,36.47,0,1.32,0,2.64,0,4.85,2.06-1.97,2.24-3.94,2.76-5.63C178.9-6.85,248.26-10.79,281.06,15.51c10.78,8.65,18.48,19.52,23.42,32.39.45,1.18.49,3.03,2.06,3.08,1.62.05,1.76-1.79,2.19-2.97C326.15.13,379.43-8.82,415.01,7.67c19.19,8.89,31.08,24.56,37.5,44.54.53,1.65.35,3.67,2.22,4.87,1.55-1.57.89-3.49.9-5.2.08-11.99-.03-23.98.1-35.97.1-9.47,3.22-12.52,12.68-12.63,7-.09,14,.19,20.99-.07,6.46-.24,10.67,2.76,13.82,8.05,11.31,19.04,22.67,38.05,34.04,57.05.99,1.66,1.63,3.64,3.64,4.64,1.53-1.58.87-3.51.88-5.22.06-15.32.03-30.64.04-45.96,0-1.83-.03-3.67.16-5.49,1.08-10.33,3.95-12.95,14.32-13.03,6.66-.05,13.33-.1,19.99.09,6.42.18,9.44,2.82,10.55,9.1.52,2.93.81,5.95.81,8.93.05,40.63.05,81.27.03,121.9,0,16.64-2.46,19.08-18.99,19.09-4.5,0-9-.09-13.49-.02-6.63.11-11.22-2.74-14.69-8.48-12.15-20.08-24.59-40-36.93-59.97-.49-.8-.72-1.91-2.07-2.02-1.33,1.55-.71,3.45-.71,5.17-.06,16.65,0,33.31-.06,49.96-.04,11.93-3.33,15.25-15.07,15.33-6.16.04-12.33.11-18.49-.07-8.01-.24-11.25-3.37-11.38-11.37-.2-12.32-.08-24.65-.13-36.97,0-1.74.31-3.57-1.12-6.3-2.41,6.98-4.23,13.14-7.26,18.81-13.25,24.82-34.16,37.39-61.99,38.91-17.74.97-34.45-2.19-49.48-12.35-11.84-8-20.09-18.78-25.77-31.71-.6-1.37-1.06-2.81-1.71-4.16-.46-.96-.43-2.6-2.02-2.38-1.09.15-1.21,1.48-1.55,2.39-3.22,8.46-7.43,16.28-13.32,23.27-12.74,15.13-29.29,22.84-48.55,24.7-16.84,1.62-33.27-.34-48.42-8.79-17.38-9.69-27.96-24.7-34.11-43.24-.44-1.33-.18-3.02-2.44-4.36Zm252.94-25.48c.31-8.48-1.16-16.63-4.47-24.38-4.36-10.21-11.8-17.04-23.13-18.13-10.87-1.05-19.81,2.92-26.3,12.05-11.5,16.16-10.69,47.32,1.75,62.69,9.87,12.19,29.1,13.16,40.37,2.15,9.76-9.53,11.28-21.76,11.78-34.38Zm-147-.2c.55-9.53-1.07-18.43-5.46-26.76-5.16-9.77-13.14-15.45-24.28-15.75-10.93-.29-19.51,4.64-24.76,14.07-9.63,17.33-9.77,35.55-1.85,53.33,5,11.22,14.26,17.96,27.37,17.27,12.8-.67,20.71-7.92,25.39-19.36,3.02-7.39,4.12-15.06,3.59-22.8Z"/>
  </g>
</svg>