<?xml version="1.0" encoding="UTF-8"?>
<svg id="Livello_2" data-name="Livello 2" xmlns="http://www.w3.org/2000/svg" viewBox="0 0 666.64 165.75">
  <g id="Livello_1-2" data-name="Livello 1">
    <path d="m411.98,126.71c-1.88.49-2.01,1.38-2.32,2.11-8.8,20.51-24.99,31.62-46.39,35.23-24.79,4.18-47.82-.03-67.42-16.92-8.32-7.17-14.28-16.17-18.74-26.17-.94-2.1-1.77-4.25-3.11-7.5-19.51,46.22-54.14,59.83-99.95,48.08-18.07-4.63-31.18-16.86-40.15-33.15-8.82-16-11.23-33.52-10.86-53-3.63,3.95-6.3,6.75-8.85,9.66-1.17,1.34-.76,2.82.3,4.09,6.61,7.96,8.44,17.62,9.42,27.46,1.11,11.24,1.31,22.53,3.95,33.65,1.89,7.96-1.83,11.86-10.21,12.07-6.99.17-13.99.16-20.99,0-7.76-.18-11.45-3.34-13.27-11.01-2.23-9.45-2.13-19.17-3.19-28.75-1.29-11.54-6.92-16.93-18.6-17.17-3.66-.08-7.34.14-10.99-.08-4.21-.25-5.51,1.65-5.46,5.65.15,12.16.08,24.31.03,36.47-.05,12.03-2.98,14.91-15.15,14.97-6,.03-12,.09-17.99-.06-8.59-.21-11.81-3.31-11.92-11.89-.17-13.82-.09-27.64-.09-41.47,0-30.64-.02-61.28.03-91.93C.07,6.09,2.79,3.32,13.59,3.29c21.66-.05,43.31-.14,64.97.09,11.41.12,21.97,3.45,31.36,10.14,9.78,6.97,15.05,16.65,17.16,28.27.32,1.76.12,3.69,2,5.63,1.24-2.49,2.37-4.78,3.52-7.06C145.01,15.72,165.57,3,192.52.58c19.98-1.79,38.87,2.07,55.2,14.62,10.84,8.32,18.42,19.1,23.38,31.79.58,1.48.5,3.99,2.32,4.05,2.22.07,2.19-2.62,2.79-4.18,20.6-53.49,83.88-55.54,113.66-34.18,7.43,5.33,13.26,12.09,17.39,20.27,1.17,2.33,2.3,4.68,3.96,8.05,1.25-6.33.49-11.58.72-16.78.19-4.48-.44-8.99.74-13.42,1.22-4.55,3.97-7.32,8.82-7.37,8.66-.09,17.33-.24,25.98.04,6.05.19,9.31,3.73,9.49,10.03.24,8.15.11,16.32.16,24.48.01,1.5.04,3,.24,4.48.38,2.92,1.61,3.49,3.75,1.21,5.36-5.69,10.69-11.42,16.14-17.03,6.04-6.21,12.28-12.22,18.27-18.48,3.09-3.23,6.68-4.83,11.08-4.83,9.83,0,19.66-.02,29.48-.01,3.86,0,7.65.8,9.16,4.72,1.54,4,1.3,8.23-1.51,11.85-1.01,1.31-2.26,2.44-3.43,3.63-13.73,14.05-27.44,28.12-41.21,42.13-2.03,2.07-3.5,3.92-1.44,6.88,11.12,16,22.15,32.05,33.24,48.07.44.63,1.18,1.06,2.02,1.8,1.46-2.18.33-4.09.15-5.92-1-9.82,2.68-14.11,12.45-14.23,7-.08,14-.13,20.99.07,6.87.19,9.17,2.08,11.25,8.49,3.59,11.02,8.15,14.42,19.72,14.56,5.49.07,11.01.4,16.31-1.61,3.67-1.39,6.49-3.55,6.75-7.79.26-4.31-2.89-6.09-6.15-7.56-7.96-3.59-16.54-5.06-24.97-7.01-9.27-2.14-18.36-4.76-27.08-8.65-13.86-6.18-22.34-16.53-24.72-31.55-2.37-14.92-.13-28.92,9.52-41.06,6.11-7.68,14.3-12.58,23.52-15.34,23-6.86,45.78-6.93,67.4,4.78,15.67,8.49,22.85,22.79,24.61,39.96.72,7-3.04,11.23-10.07,11.61-7.8.43-15.65.26-23.47.03-4.92-.15-8.13-2.84-10.17-7.52-5.68-13.05-19.18-17.59-31.71-10.97-2.3,1.22-4.24,2.66-4.28,5.61-.05,2.96,1.81,4.48,4.15,5.68,5.4,2.76,11.3,3.93,17.12,5.35,13.08,3.21,26.32,5.75,38.57,11.87,18.09,9.03,25.1,26.04,23.62,45.69-2.27,30.09-24.85,45.55-52.81,48.18-15.45,1.45-30.97.83-45.83-4.91-4.54-1.75-8.92-3.71-12.88-6.53-2.41-1.72-4.3-2.06-4.86,1.61-.74,4.9-4.25,6.78-8.51,6.88-10.15.25-20.32.24-30.47-.03-4.33-.11-7.83-2.34-10.39-6.08-9.49-13.88-19.09-27.69-28.64-41.53-1.51-2.19-2.78-4.6-4.52-6.58-1.72-1.95-2.4-5.97-6.05-4.83-3.52,1.09-4.1,4.74-4.15,7.9-.21,12.49-.14,24.98-.23,37.46-.08,11.08-2.82,13.82-13.93,13.92-6.16.06-12.33.08-18.49-.03-9.37-.16-12.49-3.26-12.67-12.79-.15-7.47-.03-14.94-.03-22.84Zm-.06-44.35c0-5.32.02-10.65,0-15.97,0-2.04-.39-3.73-3.15-3.07-9.7,2.34-19.55.9-29.33,1.09-5.34.1-9.26-2.24-11.07-7.56-2.94-8.62-8.69-14.25-17.91-15.26-10.59-1.17-19.71,1.73-26.23,10.9-4.58,6.45-6.99,13.67-7.7,21.36-1.49,16.13-.31,31.51,12.27,43.96,12.06,11.94,35.32,9.09,40.19-8.72,1.35-4.93,4.72-8.31,9.93-8.51,9.62-.38,19.31-1.29,28.85.64,3.36.68,4.21-.38,4.17-3.38-.07-5.16-.02-10.32-.03-15.48Zm-180.87-.17c.45-6.04-.57-12.46-2.53-18.68-2.97-9.41-8.04-17.3-17.71-20.97-14.83-5.63-30.28.92-36.69,16.12-7.14,16.94-6.92,34.13,1.11,50.81,5.1,10.59,14.05,15.77,25.75,15.77,11.52,0,19.34-6.15,24.62-15.93,4.48-8.3,5.75-17.29,5.45-27.12Zm-172.07-15.86c4.97-.1,9.95.3,14.84-1.09,6.14-1.75,9.45-5.77,9.12-11.34-.33-5.65-4.59-9.9-10.8-10.42-5.61-.47-11.25-.81-16.88-.89-10.08-.14-10.14-.04-10.07,9.96.12,15.65-1.9,13.61,13.79,13.78Z"/>
  </g>
</svg>