<?xml version="1.0" encoding="UTF-8"?>
<svg id="Livello_2" data-name="Livello 2" xmlns="http://www.w3.org/2000/svg" viewBox="0 0 443.89 165.85">
  <g id="Livello_1-2" data-name="Livello 1">
    <g>
      <path d="m133.64,119.58c-1.56,5.05-2.57,9.23-4.12,13.19-5.61,14.36-16.56,23.58-30.76,27.96-24.69,7.61-49.49,7.31-72.84-4.84C8.86,147.03.52,131.94,0,112.77c-.19-7.01,3.36-10.48,10.38-10.66,7.82-.2,15.66-.18,23.48.02,5.69.14,8.83,2.78,10.6,8.19,3.64,11.13,8.42,14.7,20.05,14.83,5.48.06,11.02.5,16.25-1.8,3.21-1.41,5.81-3.3,6.15-7.14.35-3.98-2.05-6.13-5.22-7.69-6.8-3.34-14.21-4.65-21.48-6.42-13.42-3.26-27.05-5.91-38.78-13.93-11.28-7.71-16.78-18.5-17.59-31.99-.94-15.68,2.23-29.85,14.47-40.8C26.9,7.7,37.22,3.72,48.42,1.82c18.99-3.23,37.63-2.59,54.98,6.72,16.65,8.94,25.19,23.23,25.59,42.16.13,6.24-2.97,9.9-9.13,10.23-7.97.42-15.99.35-23.96,0-5.01-.21-8.42-2.89-10.36-7.95-4.75-12.35-20.01-17.33-31.6-10.64-2.22,1.28-4.27,2.94-4.36,5.7-.11,3.12,2.29,4.58,4.72,5.86,6.44,3.39,13.6,4.36,20.52,6.15,7.74,2,15.58,3.67,23.18,6.11,10.74,3.45,20.51,8.68,28.03,18.41,1.41-3.68,1.57-6.91,1.81-10.14,1.52-21.16,8.57-39.89,24.18-54.86C164.19,7.88,179.01,1.87,195.52.43c22.2-1.95,42.79,2.57,60.12,17.62,10.75,9.34,17.4,21.28,21.82,34.62.5,1.52.36,3.3,1.82,4.6,1.14-1.72.55-3.56.6-5.28.42-12.97-.81-25.97.85-38.91.85-6.66,3.78-9.7,10.28-9.88,7.99-.21,15.99-.24,23.98,0,6.97.21,9.83,3.1,10.66,10.1.24,1.98.19,3.99.19,5.99,0,42.13,0,84.26,0,126.39,0,1.33,0,2.67-.04,4-.34,8.99-3.64,12.33-12.59,12.46-7.16.1-14.33.16-21.48-.06-7.24-.23-10.12-3.09-11.03-10.22-1.61-12.61-.42-25.28-.79-37.92-.06-1.92,0-3.85-.45-5.94-10.55,34.74-32.76,55.11-69.66,57.14-34.9,1.92-60.43-12.67-76.17-45.54Zm40.18-36.94c.02,12.46,1.53,19.17,6.27,27.87,10.3,18.88,37.48,20.01,48.06,1.35,10.88-19.18,10.63-39.37-.11-58.57-8.58-15.34-30.19-17.53-42.61-5.09-9.5,9.51-11.73,21.62-11.61,34.44Z"/>
      <path d="m330.89,82.28c0-20.14,0-40.27,0-60.41,0-1.83-.04-3.67.14-5.49,1-10.57,3.91-13.24,14.54-13.32,6.66-.04,13.32-.12,19.97.09,7.48.24,10.45,3.2,11.14,10.69.2,2.15.14,4.32.14,6.49,0,31.45,0,62.9.02,94.35,0,6.98.29,7.25,7.37,7.26,15.65.03,31.29-.04,46.94.06,9.46.06,12.5,3.14,12.68,12.61.09,4.99.09,9.99,0,14.98-.17,8.91-3.6,12.47-12.47,12.52-20.81.11-41.61.06-62.42.07-8.49,0-16.98.09-25.47-.08-7.9-.16-10.68-2.77-11.9-10.47-1.31-8.28-.56-16.61-.64-24.92-.14-14.81-.04-29.62-.04-44.43Z"/>
    </g>
  </g>
</svg>