<?xml version="1.0" encoding="UTF-8"?>
<svg id="Livello_2" data-name="Livello 2" xmlns="http://www.w3.org/2000/svg" viewBox="0 0 397.71 165.6">
  <g id="Livello_1-2" data-name="Livello 1">
    <g>
      <path d="m134.37,120.61c-2.44,8.72-5.52,16.71-11.04,23.64-10.57,13.28-25.2,19-41.33,20.61-15.61,1.55-31.24.95-46.37-4.47C14.27,152.74,2.69,137.57.14,115.29c-.97-8.44,3.12-12.98,11.57-13.11,7.33-.12,14.66,0,21.99,0,5.72,0,9.18,2.72,11.11,8.17,4.44,12.49,8.04,14.89,21.37,14.93,4.81.01,9.68.48,14.31-1.46,3.68-1.54,7.06-3.4,7.16-8,.09-4.47-3.28-6.43-6.69-7.82-8.99-3.65-18.57-5.24-27.93-7.59-8.08-2.03-16.02-4.38-23.67-7.8C7.92,83.03,1.89,64.29,4.35,44.14,6.91,23.18,19.33,10.15,39.26,4.3c20.41-6,40.91-6.17,60.65,2.38,18.05,7.82,27.64,22.41,29.81,41.77.92,8.23-2.73,12.34-10.94,12.72-7.15.33-14.32.17-21.48.05-5.59-.09-9.25-2.95-11.38-8.17-5.16-12.65-21.59-17.43-32.95-9.7-4.52,3.07-4.08,7.92,1.18,10.5,8.01,3.93,16.83,5.17,25.39,7.29,5.81,1.44,11.65,2.86,17.35,4.69,17.49,5.63,31.84,14.7,36.68,34.4.08-1.68.22-3.35.22-5.03.02-25.48,0-50.96.03-76.44,0-2.33-.03-4.69.32-6.97.8-5.27,3.71-8.24,8.95-8.4,8.82-.27,17.66-.26,26.48,0,5.26.15,8.2,3.08,9.01,8.33.38,2.45.36,4.98.36,7.47.03,27.48,0,54.95.05,82.43,0,2.82.16,5.67.56,8.45,1.5,10.33,6.57,14.74,17.07,15.05,10.76.32,17.71-4.8,19.55-14.61.49-2.59.54-5.3.54-7.95.04-27.64.02-55.29.04-82.93,0-2.66-.03-5.36.37-7.97.8-5.24,3.76-8.13,9.05-8.28,8.82-.25,17.65-.2,26.48,0,5,.12,7.92,3.11,8.83,7.97.3,1.62.38,3.31.38,4.97,0,32.31.32,64.62-.15,96.91-.27,18.32-8.01,33.16-24.18,42.78-7.25,4.31-15.28,6.45-23.59,7.71-16.78,2.56-33.23,1.5-49.11-4.73-15.35-6.02-24.91-17.3-29.07-33.21-.45-1.73-.92-3.46-1.38-5.19Z"/>
      <path d="m350.77,73.68c2.19-3.02,1.81-5.58,1.81-8.03.05-16.48-.02-32.96.07-49.44.05-9.94,2.98-12.87,12.78-12.98,6.99-.08,13.99-.11,20.98.08,6.14.17,9.05,2.75,10.52,8.67.69,2.78.77,5.59.77,8.43,0,41.29,0,82.57,0,123.86,0,1.33.02,2.67-.07,3.99-.75,11.04-3.84,13.96-14.93,14.04-5.66.04-11.33-.17-16.98.04-6.49.24-11.15-2.43-14.51-7.89-10.99-17.86-22.06-35.67-33.11-53.49-1.97-3.17-4-6.3-6.16-9.7-1.67,2.23-1.11,4.11-1.12,5.86-.05,16.65,0,33.3-.05,49.94-.04,11.89-3.35,15.19-15.07,15.25-5.99.03-11.99.09-17.98-.05-8.26-.2-11.87-3.72-11.91-12.05-.12-23.81-.08-47.61-.08-71.42,0-20.64-.04-41.29.04-61.93.04-10.75,2.92-13.55,13.69-13.63,6.66-.06,13.33.21,19.98-.05,6.46-.25,10.67,2.76,13.82,8.05,11.3,19.03,22.67,38.03,34.02,57.04,1,1.68,2.11,3.28,3.51,5.44Z"/>
    </g>
  </g>
</svg>