<?xml version="1.0" encoding="UTF-8"?>
<svg id="Livello_2" data-name="Livello 2" xmlns="http://www.w3.org/2000/svg" viewBox="0 0 648.87 169.47">
  <g id="Livello_1-2" data-name="Livello 1">
    <path d="m321.06,2c12.24,0,24.23,2.4,35.63,8.31,16.1,8.35,26.32,21.67,30.55,39.36,2.8,11.7-1.18,16.59-13.25,16.66-2.6.02-5.21.03-7.81.03-3.39,0-6.79-.02-10.18-.08-6-.11-10.4-2.44-12.75-8.48-4.12-10.57-13.74-15.13-23.29-15.13-6.82,0-13.6,2.32-18.32,6.44-5.86,5.11-9.69,11.39-11.54,18.86-3.59,14.49-3.55,28.84,3.48,42.34,5.83,11.19,15.81,17.16,26.29,17.16,6.24,0,12.64-2.11,18.46-6.5,2.93-2.21,6.9-5.13,6.02-8.44-.35-1.32-1.52-1.67-2.98-1.67-1.65,0-3.66.45-5.26.45-.13,0-.26,0-.38,0-4.15-.21-8.31-.16-12.44-.89-5.87-1.04-8.79-3.63-9.13-9.44-.37-6.3-.39-12.66-.03-18.97.36-6.21,3.69-9.53,10-9.6,8.82-.1,17.65-.14,26.48-.14,10,0,19.99.05,29.98.13,5.16.04,8.23,3.09,9.32,8.13.74,3.44.98,6.9.97,10.42-.05,12.13-.02,24.26-.02,37.2,2.38-1.84,2.49-3.91,3.09-5.64,12.46-35.68,24.82-71.4,37.37-107.05,2.96-8.42,5.73-10.13,14.43-10.22.89,0,1.79-.01,2.68-.01,3.9,0,7.8.07,11.7.07,2.37,0,4.73-.02,7.1-.1.23,0,.46-.01.69-.01,6.67,0,10.49,3.37,12.62,9.65,3.64,10.72,7.55,21.35,11.32,32.02,9.98,28.26,19.95,56.52,29.92,84.78.32.92.73,1.81,2.14,2.68,0-1.85,0-3.71,0-5.56,0-34.14-.03-68.27.04-102.41,0-4.14.43-8.31.96-12.43.66-5.11,3.8-7.98,8.93-8.52,1.65-.17,3.33-.17,4.99-.17,17.74,0,35.48-.02,53.21-.02,13.25,0,26.49,0,39.74.03,11.37.02,14.02,2.76,14.11,14.25.04,4.99.13,10-.09,14.98-.34,7.61-3.61,10.87-11.28,10.93-19.32.14-38.64.05-57.97.14h-.04c-.8,0-1.7-.1-2.58-.1-1.69,0-3.26.37-3.65,2.57-.71,4.01-1.45,8.35.6,12.18.53,1,1.56,1.21,2.67,1.21.82,0,1.68-.11,2.44-.11h.02c4.96.01,9.92.01,14.89.01,3.33,0,6.66,0,10,0,6.86,0,13.73,0,20.59.03,11.92.05,15.2,3.33,15.31,15.12.04,4.16.09,8.33-.04,12.49-.29,9.17-3.39,12.33-12.55,12.4-7.5.06-15,.07-22.49.07-5.51,0-11.02,0-16.53,0-2.65,0-5.3,0-7.95,0-7.07.01-7.34.3-7.38,7.28-.01,2.5,0,5,0,7.49.02,7.81.11,7.92,7.72,7.93,4.09,0,8.18,0,12.27,0,6.47,0,12.95,0,19.42,0,7.09,0,14.19,0,21.28.02,13.94.03,16.22,2.34,16.26,16.31.01,4,.1,8-.07,11.99-.35,8.11-3.63,11.49-11.72,11.8-3.03.12-6.06.15-9.1.15-3.25,0-6.5-.03-9.75-.03h-.14c-11.35,0-22.69,0-34.04,0-12.97,0-25.95,0-38.92,0h-.04c-1.07,0-2.15.01-3.22.01-3.74,0-7.46-.15-11.06-1.53-.55-.21-1.21-.34-1.84-.34-.39,0-.76.05-1.1.15-4.98,1.53-10.01,1.9-15.07,1.9-4.69,0-9.39-.32-14.07-.32-.55,0-1.1,0-1.65.01-.19,0-.38,0-.56,0-7.05,0-10.1-2.49-12.47-9.29-1.86-5.34-3.49-10.77-5.12-16.19-.94-3.14-2.87-4.51-6.14-4.51-.04,0-.07,0-.11,0-5.03.05-10.06.07-15.1.07s-9.92-.03-14.88-.08c-.05,0-.09,0-.14,0-3.32,0-5.07,1.46-5.95,4.61-1.48,5.29-3.14,10.53-4.77,15.78-2.08,6.74-5.36,9.57-12.26,9.59-3.2.01-6.41.03-9.61.03-6.6,0-13.2-.09-19.82-.57-1.21-.09-2.42-.12-3.64-.12-5.76,0-11.61.81-17.45.81-.44,0-.87,0-1.31-.01-4.29-.1-8.31-.63-11.36-4.08-.81-.91-1.66-1.31-2.6-1.31-.71,0-1.48.23-2.32.62-11.23,5.31-22.71,7.9-33.89,7.9-21.72,0-42.3-9.78-57.71-28.41-.52-.63-.94-1.38-2.92-1.39,0,4.68.13,9.15-.03,13.61-.33,9.33-3.95,12.96-13.33,12.99-16.61.05-33.23.33-49.84.33-12.38,0-24.74-.15-37.1-.67-1.64-.07-3.28-.1-4.91-.1-9.1,0-18.12.9-27.18.9-2.8,0-5.6-.09-8.41-.31-9.07-.73-12.04-2.39-14.91-11.07-1.57-4.74-3.17-9.48-4.47-14.3-.92-3.41-2.78-4.83-6.25-4.83-.06,0-.12,0-.18,0-5.04.07-10.08.11-15.11.11s-9.58-.04-14.37-.12c-.08,0-.15,0-.23,0-3.72,0-5.51,1.68-6.48,5.18-1.51,5.45-3.29,10.83-5.04,16.21-1.81,5.55-5.71,8.52-11.53,8.62-4.37.07-8.74.13-13.11.13-3.63,0-7.25-.04-10.87-.17-6.85-.23-9.49-3.36-9.59-10.13-.05-3.41.82-6.58,1.92-9.74C18.85,101.54,33.76,58.78,48.68,16.02c3.08-8.84,5.59-10.7,14.99-10.79,1.42-.01,2.83-.02,4.25-.02,4.18,0,8.36.04,12.55.04,1.73,0,3.46,0,5.19-.03.08,0,.16,0,.24,0,5.99,0,9.87,2.79,11.87,8.44,7.15,20.25,14.33,40.49,21.47,60.75,6.75,19.16,13.46,38.33,20.23,57.48.35,1,.3,2.37,1.85,2.75,1.25-1.8.65-3.84.66-5.73.04-35.47.03-70.94.04-106.41,0-2.16-.06-4.34.14-6.49.69-7.51,3.66-10.5,11.13-10.7,3.76-.1,7.53-.15,11.3-.15,4.06,0,8.12.06,12.18.16,6.56.17,9.45,3.19,10.37,9.8.62,4.47.84,8.93.83,13.44-.04,29.47-.03,58.95-.01,88.42,0,6.7.39,7.09,7.07,7.1,16.16.04,32.32.05,48.47.07h.12c5.09,0,5.31-.37,3.64-5.49-8.05-24.7-7.82-49.21,2.53-73.17,10.13-23.46,28.05-37.72,53.3-41.93,6.02-1,12.03-1.57,17.97-1.57M71.32,95.64c1.31,0,2.95-.14,4.97-.36,2.75-.3,4.03-1.4,3.19-4.16-1.75-5.82-3.58-11.62-5.38-17.43-.49-.02-.98-.04-1.47-.06-1.34,4.18-2.67,8.37-4.03,12.55-2.39,7.38-2.37,9.46,2.72,9.46m384.47-.46c1.61,0,3.22-.06,4.82-.17,1.68-.11,2.02-1.57,1.57-3.03-1.88-6.12-3.82-12.23-5.73-18.35-3.83,5.83-5.28,11.94-7.04,17.95-.48,1.63-.1,3.27,1.78,3.41,1.52.12,3.06.18,4.59.18M321.06,0c-5.79,0-11.95.54-18.3,1.6-25.88,4.32-44.31,18.82-54.8,43.11-10.17,23.56-11.05,48.65-2.6,74.58.21.65.66,2.01.79,2.78-.72.09-1.98.09-2.53.09h-11.04c-12.52-.02-25.04-.04-37.55-.07-1.46,0-4.18-.01-4.62-.46-.45-.45-.45-3.18-.45-4.65-.02-27.93-.03-57.98.01-88.42,0-5.07-.27-9.56-.85-13.72-1.08-7.77-4.87-11.33-12.3-11.52-4.12-.11-8.23-.16-12.24-.16s-7.64.05-11.35.15c-8.38.22-12.28,3.97-13.07,12.52-.17,1.83-.16,3.66-.15,5.43,0,.41,0,.83,0,1.24v28.25c0,25.1,0,51.04-.04,76.58-3.27-9.27-6.53-18.55-9.79-27.83-3.02-8.59-6.04-17.18-9.06-25.76-3.9-11.08-7.82-22.15-11.74-33.22-3.25-9.17-6.49-18.35-9.73-27.53-2.29-6.49-6.92-9.78-13.75-9.78h-.27c-1.72.02-3.44.03-5.17.03-2.09,0-4.17-.01-6.26-.02-2.09-.01-4.19-.02-6.28-.02-1.42,0-2.85,0-4.27.02-10.18.1-13.49,2.48-16.86,12.14l-8.23,23.59C26.39,73.85,14.22,108.75,2.03,143.64.99,146.62-.06,150.18,0,154.07c.13,7.99,3.79,11.83,11.53,12.09,3.33.11,6.91.17,10.94.17,4.27,0,8.47-.06,13.14-.13,6.68-.1,11.31-3.56,13.41-10l.44-1.35c1.59-4.87,3.23-9.91,4.63-14.95.78-2.81,1.89-3.71,4.56-3.71h.19c4.62.08,9.33.13,14.41.13,4.75,0,9.7-.04,15.14-.11h.15c2.59,0,3.64.81,4.32,3.35,1.17,4.36,2.61,8.7,4,12.9l.5,1.51c3.2,9.68,7.14,11.67,16.65,12.44,2.66.21,5.47.32,8.57.32,4.57,0,9.19-.23,13.66-.45,4.43-.22,9.02-.45,13.52-.45,1.71,0,3.29.03,4.83.1,10.96.46,22.78.68,37.18.68,9.1,0,18.36-.08,27.31-.17,7.39-.07,15.03-.14,22.54-.16,10.37-.03,14.95-4.49,15.32-14.92.11-3.1.08-6.13.05-9.33,0-.3,0-.61,0-.91,15.47,18.3,36.25,28.37,58.6,28.37,11.69,0,23.38-2.72,34.74-8.09.61-.29,1.1-.43,1.47-.43.19,0,.54,0,1.1.63,3.72,4.2,8.56,4.65,12.82,4.75.45.01.9.01,1.35.01,2.99,0,6-.21,8.91-.41,2.82-.2,5.73-.4,8.53-.4,1.25,0,2.39.04,3.49.12,7.04.51,14.04.58,19.96.58,2.11,0,4.22,0,6.33-.02h3.29c7.65-.04,11.76-3.23,14.16-11.01l.91-2.94c1.31-4.21,2.66-8.56,3.87-12.89.66-2.36,1.67-3.15,4.02-3.15h.11c4.76.06,9.78.09,14.91.09,4.83,0,9.77-.02,15.12-.07h.09c2.4,0,3.55.84,4.22,3.09l.05.16c1.59,5.3,3.24,10.78,5.1,16.11,2.7,7.75,6.6,10.63,14.36,10.63.2,0,.4,0,.6,0,.54,0,1.08-.01,1.62-.01,2.3,0,4.67.08,6.96.16,2.32.08,4.73.16,7.1.16,4.28,0,9.93-.23,15.66-1.98.07-.02.24-.06.51-.06.37,0,.79.08,1.12.2,4.02,1.54,8.19,1.67,11.78,1.67.54,0,1.08,0,1.62,0,.53,0,1.07,0,1.6,0,13.01,0,25.98,0,38.96,0,11.35,0,22.69,0,34.04,0h.14c1.62,0,3.24,0,4.86.02,1.63,0,3.26.02,4.89.02,3.68,0,6.51-.05,9.17-.15,9.04-.35,13.24-4.58,13.64-13.71.14-3.1.11-6.24.09-9.27,0-.94-.01-1.87-.02-2.81-.02-7.16-.6-11.87-3.5-14.79-2.91-2.92-7.61-3.5-14.76-3.51-7.09-.01-14.19-.02-21.28-.02h-9.71s-9.71,0-9.71,0c-4.09,0-8.18,0-12.27,0-2.16,0-4.85,0-5.27-.43-.44-.45-.44-3.13-.45-5.5,0-2.49-.01-4.98,0-7.48.01-1.76.03-4.41.46-4.84.45-.44,3.14-.45,4.93-.45,2.65,0,5.3,0,7.95,0s5.51,0,8.26,0c2.76,0,5.51,0,8.27,0,6.63,0,14.49,0,22.51-.07,10.13-.08,14.2-4.1,14.53-14.34.13-3.92.09-7.9.05-11.74v-.83c-.13-12.89-4.34-17.04-17.31-17.1-7.03-.03-14.05-.03-20.6-.03h-5s-5,0-5,0c-4.96,0-9.92,0-14.88-.01-.46,0-.9.03-1.33.06-.4.03-.78.05-1.13.05-.72,0-.89-.12-.89-.12-1.77-3.3-1.08-7.17-.41-10.92.11-.61.16-.92,1.68-.92.39,0,.8.02,1.23.05.44.03.9.05,1.34.05h.05c8.3-.04,16.75-.04,24.92-.05,10.83,0,22.03-.01,33.05-.09,8.67-.06,12.88-4.14,13.27-12.84.19-4.32.15-8.7.11-12.93l-.02-2.16c-.09-12.58-3.71-16.22-16.1-16.24-13.25-.02-26.49-.03-39.74-.03-11.44,0-22.88,0-34.32,0h-18.9s-.16,0-.16,0c-1.64,0-3.34,0-5.04.18-6.13.65-9.93,4.29-10.7,10.26-.45,3.48-.97,8.06-.98,12.68-.06,26.24-.05,52.92-.05,78.73,0,6.98,0,13.97,0,20.95-4-11.33-8-22.66-12-34-5.39-15.28-10.78-30.56-16.18-45.83-1.29-3.66-2.6-7.3-3.91-10.95-2.47-6.89-5.02-14.01-7.41-21.04-2.51-7.4-7.26-11-14.51-11-.25,0-.5,0-.75.01-2.09.07-4.33.1-7.03.1-1.94,0-3.89-.02-5.83-.03-1.96-.02-3.91-.03-5.87-.03-.9,0-1.8,0-2.7.01-9.75.09-13.1,2.47-16.3,11.55-8.04,22.84-16.13,46.1-23.96,68.58-4.2,12.07-8.4,24.14-12.61,36.2,0-.71,0-1.42,0-2.12,0-9.14-.01-17.77.02-26.51.02-4.07-.32-7.61-1.02-10.85-1.34-6.22-5.34-9.67-11.26-9.71-11.53-.09-21.06-.13-30-.13-9.5,0-18.17.05-26.5.14-7.3.08-11.55,4.16-11.98,11.49-.36,6.28-.35,12.74.03,19.2.39,6.55,3.71,10.03,10.78,11.29,3.23.57,6.46.69,9.59.8,1.03.04,2.06.07,3.1.13.16,0,.32.01.48.01.92,0,1.9-.12,2.84-.24.88-.11,1.71-.21,2.42-.21s.97.11,1.04.14c0,0,0,.02.01.05.52,1.94-2.88,4.51-5.13,6.2l-.17.13c-5.28,3.99-11.25,6.1-17.25,6.1-10.11,0-19.27-6.01-24.52-16.09-6.13-11.78-7.22-25.17-3.32-40.94,1.76-7.13,5.33-12.96,10.91-17.83,4.27-3.73,10.63-5.95,17.01-5.95,10.04,0,18.05,5.18,21.43,13.85,2.5,6.43,7.27,9.61,14.58,9.75,3.06.06,6.4.08,10.21.08,2.61,0,5.22-.01,7.82-.03,6.89-.04,11.28-1.56,13.81-4.79,2.48-3.16,2.93-7.85,1.38-14.34-4.4-18.39-15.02-32.08-31.57-40.67-10.91-5.66-23.21-8.54-36.55-8.54h0ZM71.32,93.64c-1.84,0-2.18-.32-2.19-.32-.32-.51.14-2.71,1.37-6.52.93-2.88,1.86-5.77,2.78-8.65l.06-.17c.14.46.29.92.43,1.38,1.26,4.04,2.56,8.22,3.8,12.34.26.86.14,1.13.14,1.14,0,0-.28.32-1.63.46-2.2.24-3.66.34-4.75.34h0Zm379.92-.65c-.02-.13-.03-.42.09-.85.21-.71.41-1.42.61-2.12,1.12-3.94,2.2-7.72,3.98-11.39l.16.51c1.38,4.4,2.81,8.95,4.19,13.43.06.19.08.34.09.45-1.57.1-3.11.16-4.57.16s-3.02-.06-4.43-.17c-.05,0-.09,0-.11-.02h0Z"/>
  </g>
</svg>