<?xml version="1.0" encoding="UTF-8"?>
<svg id="Livello_2" data-name="Livello 2" xmlns="http://www.w3.org/2000/svg" viewBox="0 0 358.95 233.46">
  <g id="Livello_1-2" data-name="Livello 1">
    <g>
      <path d="m80.09,2c11.27,0,22.24,2.04,32.68,7.03,14.19,6.78,24.12,17.46,29.75,32.17.56,1.45.52,3.83,2.54,3.87.02,0,.03,0,.05,0,1.88,0,2.1-2.3,2.84-3.68C161.6,15.82,183.31,3.4,211.87,2.17c1.49-.06,2.98-.1,4.46-.1,16.16,0,31.31,3.92,44.66,13.7,19.74,14.47,28.62,34.94,31,58.66,1.6,15.97-.02,31.63-5.95,46.61-11.47,28.97-36.54,46-67.74,46.28-.42,0-.85,0-1.27,0-.74,0-1.48,0-2.23,0-.41,0-.82,0-1.23,0-20.64,0-38.65-6.76-53.38-21.6-5.19-5.23-9.14-11.43-12.46-18.02-.54-1.06-.9-2.57-2.39-2.57-.09,0-.17,0-.27.02-1.38.15-1.59,1.56-1.98,2.62-9.48,25.34-29.19,36.74-54.77,39.21-3.29.32-6.56.48-9.8.48-16.18,0-31.52-4.17-45.13-14.37-16.53-12.39-26.05-29.22-29.58-49.36-4.46-25.4-1.17-49.61,13.57-71.29C30.7,12.89,50.15,3.82,73.31,2.24c2.27-.16,4.53-.24,6.78-.24m135.15,125.33c9.07,0,18.21-4.46,23.94-13.43,5.66-8.85,7.22-18.83,6.84-29.72.41-6.86-.52-14.08-3.22-21.01-3.31-8.51-8.3-15.62-17.26-18.9-3.51-1.29-7.05-1.91-10.49-1.91-10.64,0-20.33,6-25.36,16.98-8.06,17.6-8.01,35.76,1.09,52.96,5.29,10.01,14.83,15.04,24.45,15.04m-135.54-.14c8.57,0,16.62-4.16,19.62-12.16,3.56-9.48,9.1-13.18,17.34-13.18,1.27,0,2.6.09,3.99.25.36.04.72.06,1.09.06.63,0,1.27-.04,1.9-.04v.03c2.13,0,4.27-.05,6.4-.05,1.36,0,2.72.02,4.08.08.18,0,.36.01.53.01,3.31,0,4.77-1.56,4.25-5.05-1.26-8.46-1.18-16.9.06-25.35.59-3.99-1.06-5.52-4.85-5.52-.16,0-.33,0-.5,0-2.04.07-4.08.09-6.13.09-3.36,0-6.72-.06-10.08-.06-1.58,0-3.17.01-4.75.05-.15,0-.31,0-.46,0-5.93,0-9.94-2.76-11.61-8.4-3.08-10.37-12.32-14.77-21.61-14.77-7.01,0-14.04,2.5-18.47,6.82-7.98,7.8-10.91,17.45-11.89,27.81-1.48,15.71.55,30.73,12.91,42.28,5.09,4.76,11.77,7.07,18.16,7.07m.39-127.19c-2.25,0-4.57.08-6.91.24C47.92,1.97,28.59,12.44,15.74,31.34,1.68,52.02-2.99,76.49,1.85,104.1c3.73,21.29,13.95,38.32,30.35,50.62,13.07,9.8,28.66,14.77,46.33,14.77,3.23,0,6.59-.17,9.99-.49,13.63-1.32,25.19-5.14,34.35-11.36,9.96-6.77,17.4-16.57,22.1-29.13.07-.2.14-.4.21-.61.05-.15.11-.35.18-.52.1.19.21.43.28.6.1.23.2.45.3.66,3.85,7.65,8.04,13.72,12.82,18.53,14.62,14.72,33.06,22.19,54.8,22.19.42,0,.84,0,1.25,0h1.08s1.12,0,1.12,0c.43,0,.86,0,1.29,0,15.72-.14,30.37-4.54,42.37-12.73,12.03-8.21,21.44-20.24,27.21-34.81,5.75-14.52,7.8-30.51,6.08-47.55-2.68-26.71-13.09-46.36-31.81-60.08C249.24,4.68,234.24.08,216.33.08c-1.49,0-3.02.03-4.55.1-29.95,1.28-52.02,14.83-65.61,40.27-.25.47-.43.95-.61,1.42-.12.32-.3.81-.46,1.09-.12-.29-.24-.77-.32-1.09-.11-.45-.23-.92-.4-1.38-5.77-15.07-16.12-26.26-30.75-33.26C103.45,2.36,92.48,0,80.09,0h0Zm135.15,125.33c-9.58,0-18.06-5.22-22.68-13.97-8.59-16.23-8.94-33.94-1.04-51.19,4.54-9.9,13.34-15.82,23.55-15.82,3.26,0,6.55.6,9.8,1.79,7.3,2.67,12.41,8.31,16.08,17.75,2.47,6.34,3.5,13.12,3.08,20.17,0,.06,0,.13,0,.19.42,11.87-1.65,20.95-6.52,28.57-5.01,7.83-13.33,12.51-22.26,12.51h0Zm-135.54-.14c-6.23,0-12.35-2.38-16.79-6.53-10.24-9.57-14.03-22.1-12.28-40.63,1.1-11.67,4.69-20.11,11.29-26.57,3.95-3.86,10.49-6.26,17.07-6.26,9.85,0,17.21,4.99,19.69,13.33,1.91,6.43,6.59,9.83,13.53,9.83.17,0,.33,0,.5,0,1.41-.03,2.95-.05,4.71-.05s3.35.01,5.02.03c1.69.01,3.37.03,5.06.03,2.38,0,4.34-.03,6.19-.09.15,0,.29,0,.44,0,1.33,0,2.26.23,2.61.64.35.41.44,1.32.26,2.58-1.3,8.79-1.32,17.52-.06,25.94.16,1.07.08,1.88-.22,2.23-.29.34-1.02.53-2.05.53-.14,0-.29,0-.44-.01-1.24-.06-2.56-.08-4.17-.08-1.07,0-2.15.01-3.22.02-.96.01-1.91.02-2.87.02-.1-.02-.21-.03-.31-.03-.34,0-.68.01-1.02.02-.3,0-.59.02-.89.02-.34,0-.61-.01-.85-.04-1.49-.18-2.91-.27-4.23-.27-9.4,0-15.5,4.6-19.21,14.48-2.52,6.7-9.32,10.86-17.75,10.86h0Z"/>
      <path d="m321.99,132.83c8.45,0,16.55,2.11,23.54,8.48,15.68,14.27,13.74,40.53-3.87,54.46-1.64,1.29-3.78,2.11-4.66,4.76,1.67.59,3.24.69,4.75.69.76,0,1.5-.02,2.24-.02.46,0,.91,0,1.36.04,7.17.49,10.53,3.59,11.42,10.75.18,1.48.19,2.99.18,4.49-.04,10.11-2.46,13.64-12.53,14.17-8.82.46-17.65.81-26.48.81s-16.94-.32-25.4-1.19c-6.25-.64-8.42-3.32-8.62-9.52-.44-13.43,6.14-23.59,15.63-32.11,5.19-4.66,10.94-8.71,16.38-13.1,1.55-1.25,2.97-2.68,4.33-4.13,1.5-1.6,2.86-3.38,2.03-5.79-.35-1.01-1.11-1.76-2.11-1.76-.19,0-.39.03-.6.08-2.4.67-3.33,2.73-3.7,4.91-1.14,6.67-5.39,9.24-11.76,10.08-1.85.24-3.58.37-5.18.37-12.08,0-16.77-6.99-13.43-20.77,3.3-13.62,11.67-22.47,25.64-24.74,3.64-.59,7.28-.97,10.84-.97m0-2h0c-3.4,0-7.05.33-11.17,1-14.24,2.32-23.67,11.39-27.26,26.24-1.92,7.95-1.31,13.99,1.82,17.97,2.75,3.5,7.31,5.27,13.56,5.27,1.68,0,3.51-.13,5.44-.38.56-.07,1.14-.16,1.73-.28-2.67,2.08-5.36,4.22-7.9,6.51-11.37,10.22-16.7,21.23-16.3,33.67.24,7.3,3.35,10.72,10.42,11.44,7.89.81,16.26,1.2,25.6,1.2s19.31-.44,26.59-.81c12.08-.63,14.39-6.16,14.43-16.16,0-1.67,0-3.19-.2-4.74-1.01-8.09-5.1-11.94-13.27-12.5-.45-.03-.92-.04-1.49-.04-.38,0-.76,0-1.14.01-.36,0-.73.01-1.1.01-.46,0-.94,0-1.42-.04.37-.3.79-.59,1.25-.89.44-.29.89-.6,1.33-.95,9.28-7.34,14.84-18.26,15.25-29.97.37-10.64-3.74-20.68-11.27-27.54-6.66-6.06-14.8-9-24.89-9h0Zm-4.74,40.82c.24-.75.45-1.57.6-2.45.43-2.5,1.44-3.09,2.26-3.32.04-.01.06-.01.06-.01,0,0,.12.13.22.41.39,1.14,0,2.06-1.6,3.77-.46.49-.98,1.04-1.55,1.6h0Z"/>
    </g>
  </g>
</svg>