<?xml version="1.0" encoding="UTF-8"?>
<svg id="Livello_2" data-name="Livello 2" xmlns="http://www.w3.org/2000/svg" viewBox="0 0 1055.54 169.83">
  <g id="Livello_1-2" data-name="Livello 1">
    <path d="m723.76,2c10.99,0,21.85,2.05,32.39,6.84,18,8.19,27.97,22.65,29.44,42.47.59,8.02-2.61,11.42-10.69,11.83-3.3.17-6.61.22-9.91.22-4.02,0-8.05-.09-12.07-.17-5.61-.11-9.21-3.1-11.22-8.35-3.16-8.27-12.12-13.23-20.88-13.23-4.34,0-8.62,1.22-12.13,3.85-4.33,3.25-3.75,8.06,1.56,10.51,8.23,3.8,17.18,5.24,25.93,7.26,8.62,2,17.1,4.34,25.25,7.84,6.98,3,13.23,6.98,18.31,12.7.69.78,1.26,2.23,2.38,2.23.19,0,.39-.04.61-.13,1.45-.59.86-2.35.91-3.61.52-14.85,3.56-29.08,10.68-42.23,13.05-24.09,33.93-35.81,60.73-37.7,2.24-.16,4.47-.24,6.68-.24,11.64,0,22.92,2.25,33.66,7.52,11.97,5.88,20.63,14.97,26.68,26.71.51,1,.54,2.49,1.91,2.71.09.02.18.02.27.02,1.04,0,1.3-1.12,1.59-1.97,6.93-20.67,22.98-29.73,43.03-33.28,6.27-1.11,12.53-1.74,18.75-1.74,10.64,0,21.13,1.83,31.3,6.21,18.3,7.88,28.16,22.29,30.52,41.82,1.04,8.64-2.8,12.77-11.62,13.08-2.88.1-5.76.13-8.64.13-3.95,0-7.9-.06-11.85-.12-5.8-.07-9.57-2.94-11.75-8.38-3.35-8.34-12.01-13.24-20.69-13.24-4.33,0-8.67,1.22-12.35,3.83-4.1,2.91-3.93,7.52.65,10,5.46,2.96,11.49,4.38,17.51,5.73,12.83,2.88,25.63,5.71,37.69,11.35,20.27,9.47,27.13,27.8,24.71,47.84-2.86,23.76-17.48,39.4-40.88,44.56-8.15,1.8-16.29,2.74-24.39,2.74-11.17,0-22.26-1.8-33.22-5.63-12.77-4.47-22.75-12.29-28.91-24.58-.7-1.41-1.37-3.19-2.43-3.19-.62,0-1.37.61-2.33,2.25-10.59,17.97-26.71,27.38-47.07,29.96-4.58.58-9.09.89-13.54.89-16.72,0-32.43-4.37-46.55-15.15-8.71-6.65-15.49-15.05-20.54-24.82-.88-1.71-1.24-3.83-3.12-4.86-1.1.32-1.2,1.2-1.35,2-3.97,21.62-17.59,34.36-38.12,39.7-8.99,2.34-17.99,3.57-26.94,3.57-11.75,0-23.42-2.11-34.9-6.59-14.79-5.77-25.13-15.96-30.04-31.3-.39-1.23-.52-2.64-2.05-3.63-1.54,1.41-1.63,3.5-2.22,5.27-5.28,15.93-16.28,26.15-32.01,31.1-9.39,2.96-18.88,4.4-28.41,4.4-7.92,0-15.87-.99-23.84-2.94-13.21-3.22-24.54-9.29-32.21-21-.46-.7-.86-1.6-2.17-1.6-.15,0-.32.01-.5.04-.9,3.59-.31,7.4-.5,11.13-.4,7.72-3.79,11.45-11.48,11.49-11.68.05-23.37.06-35.05.06-6.57,0-13.14,0-19.7,0-11.57,0-23.13,0-34.7.05h-.03c-4.19,0-7.25-3.69-10.64-3.69-.09,0-.18,0-.27,0-3.39.2-6.43,3.65-10.54,3.65h-.02c-9.29-.02-18.58-.03-27.86-.03-7.77,0-15.53,0-23.3,0-12.93,0-25.86,0-38.79-.06-7.61-.03-11.3-4.13-11.46-12.71-.23-11.99-.06-23.98-.13-35.97-.01-1.73.49-3.56-.74-5.66-10.71,35.79-33.51,56.44-71.43,57.39-1,.03-1.99.04-2.98.04-38.71,0-63.63-19.46-74.83-57.54-1.43,2.02-.85,3.88-.86,5.6-.07,11.99.05,23.98-.1,35.97-.12,9.57-3.5,12.82-13.1,12.95-2.9.04-5.8.06-8.7.06s-5.53-.02-8.29-.06c-9.87-.15-12.87-3.11-12.97-12.85-.09-8.83-.02-17.65-.06-26.48-.01-2.64.16-5.32-1.61-8.81-1.45,4.83-2.69,8.84-3.87,12.87-2.48,8.47-4.89,16.96-7.4,25.42-2.07,6.99-5.39,9.64-12.62,9.8-3.47.08-6.93.11-10.4.11s-6.72-.03-10.08-.1c-7.78-.15-11.17-2.8-13.34-10.28-2.93-10.07-5.74-20.18-8.62-30.26-.53-1.87-1.17-3.71-2.89-5.43,0,6.37.07,12.74-.02,19.11-.08,5.98.5,11.99-.79,17.93-1.22,5.59-3.76,8.45-9.33,8.72-3.94.19-7.9.28-11.85.28s-7.75-.09-11.62-.27c-5.85-.28-8.56-3.37-9.38-9.14-.63-4.46-.91-8.92-.9-13.44.04-38.14.05-76.27,0-114.41,0-4.35.38-8.65.98-12.93.72-5.18,3.7-8.56,8.75-8.66,6.38-.13,12.76-.19,19.15-.19,6.77,0,13.55.07,20.32.19,5.24.1,7.83,3.89,9.16,8.56,4.21,14.73,8.39,29.46,12.58,44.2,2.05,7.21,4.07,14.42,6.16,21.62.35,1.19.28,2.71,2.56,3.46,1.72-5.86,3.47-11.66,5.11-17.5,4.7-16.67,9.33-33.35,14.05-50.01,2.35-8.3,5.22-10.51,13.92-10.57,5.56-.04,11.12-.07,16.69-.07,5.1,0,10.2.02,15.3.07,9.96.09,13.06,3.21,13.16,13.33.12,11.82.02,23.65.07,35.47,0,1.78-.41,3.62.78,6.01C172.47,21.67,197.5,2.28,234.62,2.28c3.09,0,6.26.13,9.52.4,34.87,2.88,56.04,23.56,65.69,57.21,1.48-1.7.97-3.38.98-4.84.05-11.32-.01-22.65.07-33.97.02-2.64.37-5.3.76-7.92.71-4.81,3.71-7.55,8.43-7.68,4.8-.13,9.61-.2,14.41-.2,4.19,0,8.37.05,12.56.15,4.48.11,7.3,2.89,8.61,7.14.99,3.22,1.14,6.53,1.14,9.88-.02,30.98-.01,61.95,0,92.93q0,8.69,8.47,8.7c2.93,0,5.85,0,8.78,0s5.75,0,8.62,0c8.86,0,17.72,0,26.58.04.06,0,.13,0,.19,0,.69,0,1.39-.01,2.1-.01,1.79,0,3.59.09,5.11.75,1.32.58,2.31.84,3.06.84,2.14,0,2.23-2.15,2.22-5.13-.09-32.47-.06-64.95-.03-97.42,0-2.49.03-5.02.43-7.46,1.27-7.68,4.32-10.33,12.08-10.44,3.67-.05,7.34-.09,11.01-.09s7.65.04,11.48.17c6.83.22,9.2,2.39,10.39,9.11.46,2.6.51,5.3.51,7.95.03,31.47.01,62.95.03,94.42,0,6.98.3,7.18,7.37,7.29,2.42.04,4.84.05,7.26.05,7.75,0,15.5-.15,23.25-.15,7.31,0,14.62.13,21.93.65.16.01.31.02.45.02,2.08,0,2.2-1.21,2.05-3.06-2.71-32.92-.84-65.9-1.2-98.85-.17-15.64,4.25-17.66,13.95-17.66,1.08,0,2.22.02,3.42.06,1.74.05,3.48.06,5.21.06,1.91,0,3.82-.02,5.73-.02,2.18,0,4.37.02,6.55.11,7.05.28,9.91,3.02,10.78,9.98.27,2.14.21,4.32.21,6.48.02,28.64-.02,57.29.04,85.93.03,12.46,6.61,19.6,17.26,19.6,2.09,0,4.34-.27,6.72-.84,8.89-2.1,12.93-7.19,12.96-16.94.08-28.31.04-56.62.05-84.93,0-16.99,2.38-19.41,19.11-19.42,2.46,0,4.91-.02,7.37-.02,2.71,0,5.41.02,8.12.13,7.51.28,10.49,3.17,11.19,10.65.2,2.15.14,4.33.14,6.49.01,25.81,0,51.62.02,77.44,0,4.18,0,5.22,2.01,5.22.84,0,2.02-.18,3.7-.39,4.63-.57,9.28-.8,13.93-.8,5,0,10,.26,14.98.64,3.98.3,6.66,2.72,7.85,6.68,1.84,6.12,3.62,12.57,10.82,14.44,4.53,1.18,9.09,1.96,13.63,1.96,4.78,0,9.53-.87,14.2-3.04,2.93-1.36,4.71-3.73,4.61-7.11-.1-3.17-1.98-5.19-4.66-6.59-3.42-1.78-7.11-2.81-10.82-3.81-11.58-3.1-23.41-5.28-34.78-9.15-29.93-10.2-42.19-38.88-28.48-67.42,6.93-14.42,19.6-21.89,34.62-25.46,8.16-1.94,16.32-3.05,24.4-3.05M235.75,127.21c12.68,0,22.33-7.02,27-20.34,5.12-14.59,5.04-29.37.06-44.01-1.96-5.75-5.09-10.89-10.06-14.57-5.46-4.04-11.44-5.96-17.27-5.96-11.27,0-21.93,7.19-26.99,20.12-5.47,13.95-5.4,28.43-.93,42.58,4.56,14.42,14.95,22.14,28.06,22.19.04,0,.09,0,.13,0m624.84-.2c9.37,0,18.64-4.91,21.83-14.37,3.03-8.98,5.24-10.4,14.33-10.4.27,0,.54,0,.82,0,9.44.08,18.82-.23,28.31,1.6,2.85.55,5.77.72,8.73.72,4.75,0,9.58-.44,14.34-.44.12,0,.23,0,.35,0,11.43.05,12.51.66,16.18,11.48,2.46,7.26,7.63,10.62,14.81,11.48.92.11,1.84.14,2.77.14,1.57,0,3.14-.1,4.71-.1,1.2.07,2.39.12,3.58.12,3.79,0,7.51-.5,11.01-2.4,6.5-3.52,6.82-9.69.63-13.63-3.43-2.18-7.34-3.1-11.19-4.15-11.88-3.23-24.1-5.24-35.7-9.5-14.15-5.19-25.89-13.03-30.42-28.52-.54-1.84-1.35-3.3-3.43-3.3-.24,0-.5.02-.77.06-3.51.51-7.04.63-10.56.63-3.13,0-6.26-.09-9.39-.09-1.83,0-3.65.03-5.48.14-.45.03-.88.04-1.31.04-6.84,0-10.95-3.26-13.33-10.01-3.05-8.66-9.92-12.66-18.82-13.16-.67-.04-1.34-.06-2-.06-12.14,0-21.64,6.37-26.29,17.96-6.08,15.16-6.27,30.54-.43,45.81,2.62,6.84,7.14,12.37,13.45,16.27,3.97,2.46,8.64,3.66,13.29,3.66M723.76,0c-7.84,0-16.21,1.05-24.86,3.11-17.63,4.2-29.39,12.88-35.96,26.54-1.29,2.68-2.36,5.39-3.22,8.1,0-5.11,0-10.22,0-15.33,0-.41,0-.83,0-1.24,0-1.77.02-3.6-.15-5.44-.8-8.53-4.6-12.15-13.11-12.47-3.01-.11-5.96-.13-8.19-.13-1.27,0-2.55,0-3.82.01-1.18,0-2.37.01-3.55.01-8.68,0-14,.63-17.25,3.94-3.24,3.29-3.86,8.68-3.86,17.48,0,8.64,0,17.27,0,25.91,0,19.34,0,39.35-.05,59.02-.03,8.74-3.33,13.08-11.42,15-2.2.52-4.31.78-6.26.78-9.68,0-15.24-6.42-15.26-17.61-.04-18.47-.04-37.24-.04-55.4,0-10.18,0-20.35,0-30.52v-.99c0-1.87.02-3.8-.22-5.74-1-8.01-4.67-11.41-12.68-11.73-2.42-.1-4.81-.11-6.62-.11-.96,0-1.91,0-2.87,0-.95,0-1.9,0-2.86,0-2.07,0-3.66-.02-5.16-.06-1.05-.03-2.28-.06-3.48-.06-5.15,0-9.15.58-11.94,3.4-2.9,2.93-4.1,7.8-4,16.28.12,10.77,0,21.74-.12,32.35-.24,21.84-.5,44.42,1.33,66.64.04.43.04.71.04.9-.03,0-.06,0-.09,0-.1,0-.2,0-.31-.01-6.4-.45-13.21-.65-22.07-.65-3.88,0-7.83.04-11.64.07-3.81.04-7.74.07-11.61.07-2.63,0-4.99-.02-7.23-.05-1.91-.03-4.53-.07-4.97-.5-.43-.42-.43-3.16-.43-4.79,0-12.4,0-24.81,0-37.21,0-19.07,0-38.14-.02-57.21,0-2.66-.05-5.49-.54-8.3-1.36-7.7-4.57-10.51-12.29-10.76-3.53-.11-7.31-.17-11.54-.17-3.99,0-8,.05-11.04.09-8.68.13-12.61,3.52-14.03,12.12-.42,2.54-.46,5.13-.46,7.79v4.64c-.03,30.41-.06,61.86.03,92.79,0,.78,0,2.53-.22,3.12-.27,0-.92-.09-2.25-.67-1.85-.81-3.93-.92-5.9-.92-.36,0-.72,0-1.08,0-.34,0-.68,0-1.01,0h-.18c-9.17-.04-18.53-.04-26.59-.04h-4.31s-4.31,0-4.31,0c-2.93,0-5.85,0-8.78,0-2.83,0-5.5,0-5.97-.49-.49-.51-.5-3.15-.5-6.21v-9.22c0-27.44,0-55.81,0-83.71,0-3.35-.15-6.94-1.23-10.47-1.66-5.4-5.38-8.44-10.47-8.56-4.19-.1-8.43-.15-12.6-.15-4.81,0-9.68.07-14.47.2-5.73.16-9.5,3.58-10.36,9.38-.37,2.48-.76,5.36-.78,8.2-.05,6.36-.05,12.83-.05,19.08,0,3.39,0,6.85,0,10.32-5.01-13.35-12.07-24.15-21.05-32.2-11.39-10.22-26.02-16.13-43.47-17.57-3.3-.27-6.55-.41-9.68-.41-18.96,0-35,5.02-47.69,14.91-10.67,8.32-19.05,20.16-24.99,35.28,0-3.66,0-7.34,0-10.93,0-6.88.01-14-.06-21.01-.11-11.2-4.08-15.21-15.14-15.31-4.88-.05-10.04-.07-15.32-.07s-10.75.02-16.7.07c-9.54.07-13.24,2.88-15.83,12.03-2.53,8.93-5.07,18.02-7.53,26.81-2.17,7.74-4.33,15.47-6.51,23.2-1.12,3.99-2.32,8.04-3.48,11.96-.16.54-.32,1.08-.48,1.61-1.44-4.99-2.88-10.06-4.27-14.97-.58-2.06-1.17-4.12-1.75-6.18l-3.02-10.63c-3.18-11.19-6.36-22.39-9.56-33.58-2.33-8.15-7.29-9.94-11.05-10.01-6.9-.13-13.75-.19-20.36-.19s-12.94.06-19.19.19c-5.8.11-9.8,4-10.69,10.38C.32,18.71,0,23.03,0,27.05c.05,35.76.06,73.18,0,114.4,0,4.82.3,9.31.92,13.72.99,6.99,4.68,10.54,11.26,10.86,3.86.18,7.8.28,11.71.28s7.97-.1,11.95-.28c6.25-.3,9.7-3.47,11.19-10.29,1.01-4.61.94-9.21.87-13.67-.02-1.53-.05-3.11-.03-4.65.04-3.14.05-6.32.04-9.45.75,2.63,1.49,5.26,2.24,7.9,1.73,6.12,3.52,12.45,5.33,18.66,2.43,8.37,6.56,11.55,15.22,11.72,3.41.07,6.81.1,10.12.1,3.51,0,7.03-.04,10.45-.11,8.09-.18,12.16-3.33,14.5-11.23,1.48-4.99,2.94-10.06,4.36-14.97,1.01-3.49,2.02-6.97,3.04-10.46.5-1.72,1.03-3.46,1.56-5.25v.63c.02,3.55.01,7.1.01,10.65,0,5.19,0,10.56.05,15.84.11,10.78,4.02,14.66,14.94,14.82,2.71.04,5.51.06,8.32.06s5.77-.02,8.73-.06c10.72-.15,14.94-4.34,15.07-14.93.08-6.95.08-14.02.07-20.85,0-3.66,0-7.41,0-11.15,12.69,33.16,37.45,49.95,73.71,49.95,1,0,2.01-.01,3.03-.04,34.11-.86,57.67-17.53,70.14-49.59,0,3.15,0,6.3,0,9.38-.01,7.37-.02,14.99.12,22.5.19,9.7,4.71,14.63,13.46,14.67,13.55.05,27.22.06,38.8.06h11.65s11.65,0,11.65,0c9.29,0,18.57,0,27.86.03,2.73,0,4.94-1.16,6.89-2.19,1.37-.72,2.66-1.4,3.79-1.47.05,0,.1,0,.16,0,1.1,0,2.41.71,3.8,1.46,1.94,1.04,4.13,2.23,6.84,2.23,12.09-.05,24.33-.05,34.73-.05h9.85s9.85,0,9.85,0c11.06,0,22.97,0,35.06-.06,8.6-.03,13.01-4.41,13.47-13.38.07-1.36.04-2.72.01-4.03-.03-1.3-.05-2.55.01-3.77,7.19,10.52,17.96,17.41,32.89,21.06,8.14,1.99,16.32,3,24.32,3,9.79,0,19.55-1.51,29.01-4.49,16.73-5.26,27.93-16.16,33.31-32.38.18-.54.31-1.08.44-1.6,0-.02.01-.05.02-.07,0,0,0,0,0,0,4.94,15.45,15.45,26.4,31.22,32.55,11.44,4.46,23.43,6.73,35.63,6.73,8.96,0,18.19-1.22,27.45-3.63,21.88-5.69,35.12-19.17,39.35-40.05.09.2.17.41.27.64.21.51.42,1.03.69,1.55,5.31,10.28,12.41,18.85,21.1,25.49,13.71,10.47,29.33,15.56,47.76,15.56,4.41,0,9.05-.3,13.79-.91,21.75-2.76,38.08-13.16,48.55-30.93.19-.31.34-.56.48-.75.16.3.32.63.44.88.11.23.22.46.33.69,6.08,12.11,16.18,20.72,30.04,25.57,10.89,3.81,22.29,5.74,33.88,5.74,8.08,0,16.43-.94,24.82-2.79,24.42-5.39,39.49-21.82,42.44-46.27,2.78-23.09-6.4-40.81-25.85-49.89-12.09-5.65-25.04-8.55-37.56-11.36l-.54-.12c-6.56-1.47-11.97-2.81-17-5.54-1.56-.85-2.46-1.98-2.54-3.19-.07-1.19.69-2.43,2.09-3.43,3.2-2.26,7.07-3.46,11.2-3.46,8.39,0,15.96,4.82,18.84,11.98,2.53,6.31,7.1,9.55,13.58,9.63l2.12.03c3.2.04,6.5.09,9.75.09s6.08-.04,8.71-.14c5.16-.18,8.79-1.57,11.08-4.25,2.21-2.58,3.03-6.3,2.45-11.06-2.52-20.83-13.19-35.44-31.72-43.42-9.83-4.23-20.63-6.38-32.09-6.38-6.04,0-12.47.59-19.09,1.77-23.38,4.14-37.92,15.3-44.41,34.13-.07-.19-.15-.38-.25-.57-6.43-12.48-15.7-21.76-27.57-27.59-10.44-5.13-22.06-7.73-34.54-7.73-2.23,0-4.52.08-6.82.24-28.53,2.01-49.51,15.04-62.34,38.74-1.94,3.58-3.61,7.28-5.03,11.14-1.76-20-12.3-34.93-30.53-43.23-10.25-4.66-21.42-7.02-33.21-7.02h0Zm23.3,63.96c-3.77-1.07-7.32-1.94-10.45-2.67-1.78-.41-3.58-.8-5.33-1.18-6.8-1.48-13.84-3-20.21-5.95-1.93-.89-3.12-2.17-3.26-3.51-.13-1.22.6-2.5,2.07-3.59,3.01-2.26,6.79-3.45,10.93-3.45,8.51,0,16.33,4.91,19.02,11.95,1.57,4.11,4,6.91,7.24,8.4h0Zm-511.31,61.25h-.13c-12.46-.05-22-7.63-26.16-20.79-4.53-14.32-4.23-28.19.89-41.24,4.56-11.63,14.19-18.85,25.13-18.85,5.6,0,11.15,1.93,16.08,5.57,4.25,3.15,7.31,7.6,9.36,13.61,4.88,14.33,4.86,28.69-.05,42.71-4.36,12.43-13.04,19-25.12,19h0Zm624.84-.2c-4.45,0-8.68-1.16-12.24-3.36-5.9-3.65-10.15-8.79-12.63-15.28-5.63-14.72-5.49-29.64.42-44.35,4.32-10.77,13-16.7,24.44-16.7.62,0,1.25.02,1.88.05,8.72.49,14.45,4.47,17.05,11.83,2.69,7.63,7.67,11.34,15.22,11.34.46,0,.94-.01,1.42-.04,1.6-.09,3.3-.13,5.37-.13,1.55,0,3.13.02,4.66.05,1.55.02,3.15.05,4.73.05,2.97,0,6.88-.07,10.85-.65.17-.03.34-.04.48-.04.52,0,.97,0,1.51,1.86,5.36,18.3,20.63,25.79,31.66,29.84,7.62,2.8,15.58,4.66,23.28,6.45,4.14.97,8.43,1.97,12.58,3.1l1.11.3c3.44.92,6.69,1.8,9.53,3.6,2.34,1.49,3.59,3.31,3.52,5.14-.07,1.85-1.54,3.69-4.03,5.04-2.76,1.49-5.86,2.16-10.06,2.16-1.02,0-2.12-.04-3.46-.12-.04,0-.08,0-.12,0-.81,0-1.63.03-2.42.05-.79.02-1.54.05-2.29.05-.99,0-1.8-.04-2.54-.13-6.91-.83-11.08-4.05-13.15-10.14-3.93-11.58-5.61-12.78-18.06-12.84h-.36c-2.42,0-4.88.11-7.26.22-2.33.11-4.75.22-7.07.22-3.28,0-5.94-.22-8.35-.68-8.23-1.59-16.44-1.61-24.38-1.62-1.43,0-2.86,0-4.29-.02-.29,0-.56,0-.84,0-10.08,0-12.96,2.09-16.22,11.76-2.67,7.91-10.49,13.01-19.94,13.01h0Zm-95.61-59.64c3.71,0,6.99-.07,10.01-.23,4.04-.2,6.95-1.1,9.01-2.79-1.35,6.22-2.14,12.82-2.39,19.86,0,.27,0,.52.02.78-.13-.18-.26-.35-.42-.52-4.86-5.48-11.08-9.8-19.02-13.21-3.89-1.67-7.84-3.07-11.65-4.25.74.12,1.52.19,2.33.2h.54c3.79.09,7.7.17,11.57.17h0Zm-105.16,37.71c-.08-.66-.08-1.95-.09-3.2,0-10.25,0-20.49-.01-30.72.3.86.63,1.72.98,2.56,5.44,12.97,16.76,22.95,31.87,28.1,7.44,2.54,15.16,4.37,22.63,6.15,4.04.96,8.22,1.95,12.28,3.04,3.83,1.03,7.25,2.01,10.41,3.65,2.41,1.25,3.51,2.76,3.58,4.87.07,2.4-1.06,4.12-3.46,5.23-4.12,1.92-8.49,2.85-13.36,2.85-3.93,0-8.23-.62-13.13-1.9-5.95-1.55-7.49-6.7-9.28-12.66l-.13-.43c-1.46-4.86-4.88-7.74-9.62-8.1-5.79-.44-10.6-.65-15.14-.65-5.1,0-9.74.27-14.18.81l-1,.13c-1.02.13-1.84.24-2.38.24h0Z"/>
  </g>
</svg>