<?xml version="1.0" encoding="UTF-8"?>
<svg id="Livello_2" data-name="Livello 2" xmlns="http://www.w3.org/2000/svg" viewBox="0 0 670.64 169.75">
  <g id="Livello_1-2" data-name="Livello 1">
    <path d="m348.53,2c16.48,0,32.24,4.71,43.35,12.68,7.43,5.33,13.26,12.09,17.39,20.27,1.17,2.33,2.3,4.68,3.96,8.05,1.25-6.33.49-11.58.72-16.78.19-4.48-.44-8.99.74-13.42,1.22-4.55,3.97-7.32,8.82-7.37,4.94-.05,9.88-.12,14.82-.12,3.72,0,7.44.04,11.16.16,6.05.19,9.31,3.73,9.49,10.03.24,8.15.11,16.32.16,24.48.01,1.5.04,3,.24,4.48.23,1.71.74,2.61,1.55,2.61.58,0,1.31-.45,2.2-1.4,5.36-5.69,10.69-11.42,16.14-17.03,6.04-6.21,12.28-12.22,18.27-18.48,3.09-3.23,6.68-4.83,11.08-4.83.23,0,.46,0,.69,0,8.03,0,16.06-.01,24.09-.01,1.57,0,3.14,0,4.7,0,3.86,0,7.65.8,9.16,4.72,1.54,4,1.3,8.23-1.51,11.85-1.01,1.31-2.26,2.44-3.43,3.63-13.73,14.05-27.44,28.12-41.21,42.13-2.03,2.07-3.5,3.92-1.44,6.88,11.12,16,22.15,32.05,33.24,48.07.44.63,1.18,1.06,2.02,1.8,1.46-2.18.33-4.09.15-5.92-1-9.82,2.68-14.11,12.45-14.23,3.35-.04,6.71-.07,10.06-.07,3.64,0,7.28.04,10.92.14,6.87.19,9.17,2.08,11.25,8.49,3.59,11.02,8.15,14.42,19.72,14.56,1.6.02,3.21.06,4.81.06,3.88,0,7.74-.25,11.49-1.67,3.67-1.39,6.49-3.55,6.75-7.79.26-4.31-2.89-6.09-6.15-7.56-7.96-3.59-16.54-5.06-24.97-7.01-9.27-2.14-18.36-4.76-27.08-8.65-13.86-6.18-22.34-16.53-24.72-31.55-2.37-14.92-.13-28.92,9.52-41.06,6.11-7.68,14.3-12.58,23.52-15.34,10.01-2.99,19.99-4.69,29.84-4.69,12.77,0,25.35,2.86,37.56,9.46,15.67,8.49,22.85,22.79,24.61,39.96.72,7-3.04,11.23-10.07,11.61-3.51.19-7.04.27-10.56.27-4.3,0-8.61-.11-12.91-.24-4.92-.15-8.13-2.84-10.17-7.52-3.93-9.03-11.61-13.99-20.12-13.99-3.79,0-7.74.98-11.59,3.02-2.3,1.22-4.24,2.66-4.28,5.61-.05,2.96,1.81,4.48,4.15,5.68,5.4,2.76,11.3,3.93,17.12,5.35,13.08,3.21,26.32,5.75,38.57,11.87,18.09,9.03,25.1,26.04,23.62,45.69-2.27,30.09-24.85,45.55-52.81,48.18-4.46.42-8.93.67-13.38.67-10.98,0-21.88-1.49-32.45-5.57-4.54-1.75-8.92-3.71-12.88-6.53-1.06-.76-2.02-1.24-2.81-1.24-1.01,0-1.74.8-2.05,2.85-.74,4.9-4.25,6.78-8.51,6.88-4.92.12-9.84.18-14.76.18-5.24,0-10.47-.07-15.71-.21-4.33-.11-7.83-2.34-10.39-6.08-9.49-13.88-19.09-27.69-28.64-41.53-1.51-2.19-2.78-4.6-4.52-6.58-1.51-1.72-2.22-5.03-4.85-5.03-.36,0-.76.06-1.2.2-3.52,1.09-4.1,4.74-4.15,7.9-.21,12.49-.14,24.98-.23,37.46-.08,11.08-2.82,13.82-13.93,13.92-3.03.03-6.07.05-9.1.05s-6.26-.02-9.39-.07c-9.37-.16-12.49-3.26-12.67-12.79-.15-7.47-.03-14.94-.03-22.84-1.88.49-2.01,1.38-2.32,2.11-8.8,20.51-24.99,31.62-46.39,35.23-5.82.98-11.56,1.5-17.17,1.5-18.26,0-35.26-5.5-50.25-18.43-8.32-7.17-14.28-16.17-18.74-26.17-.94-2.1-1.77-4.25-3.11-7.5-15.13,35.85-39.35,52.08-70.84,52.08-9.11,0-18.83-1.36-29.12-4-18.07-4.63-31.18-16.86-40.15-33.15-8.82-16-11.23-33.52-10.86-53-3.63,3.95-6.3,6.75-8.85,9.66-1.17,1.34-.76,2.82.3,4.09,6.61,7.96,8.44,17.62,9.42,27.46,1.11,11.24,1.31,22.53,3.95,33.65,1.89,7.96-1.83,11.86-10.21,12.07-3.43.09-6.87.13-10.3.13s-7.12-.04-10.69-.13c-7.76-.18-11.45-3.34-13.27-11.01-2.23-9.45-2.13-19.17-3.19-28.75-1.29-11.54-6.92-16.93-18.6-17.17-.59-.01-1.18-.02-1.77-.02-1.76,0-3.51.04-5.27.04-1.32,0-2.64-.02-3.95-.1-.25-.01-.48-.02-.71-.02-3.65,0-4.79,1.91-4.75,5.67.15,12.16.08,24.31.03,36.47-.05,12.03-2.98,14.91-15.15,14.97-3.04.02-6.07.04-9.11.04s-5.92-.02-8.88-.09c-8.59-.21-11.81-3.31-11.92-11.89-.17-13.82-.09-27.64-.09-41.47,0-30.64-.02-61.29.03-91.93.02-10.95,2.74-13.72,13.54-13.74,10.71-.03,21.43-.06,32.15-.06s21.88.04,32.82.15c11.41.12,21.97,3.45,31.36,10.14,9.78,6.97,15.05,16.65,17.16,28.27.32,1.76.12,3.69,2,5.63,1.24-2.49,2.37-4.78,3.52-7.06,12.41-24.64,32.97-37.36,59.92-39.78,3.04-.27,6.06-.41,9.04-.41,16.63,0,32.31,4.39,46.16,15.03,10.84,8.32,18.42,19.1,23.38,31.79.58,1.48.5,3.99,2.32,4.05.03,0,.06,0,.09,0,2.13,0,2.11-2.65,2.7-4.19,12.91-33.54,42.61-46.86,70.31-46.86m-145.55,125.24h0c11.52,0,19.34-6.15,24.62-15.93,4.48-8.3,5.75-17.29,5.45-27.12.45-6.04-.57-12.46-2.53-18.68-2.97-9.41-8.04-17.3-17.71-20.97-3.55-1.35-7.14-2-10.63-2-11.08,0-21.19,6.55-26.06,18.11-7.14,16.94-6.92,34.14,1.11,50.81,5.1,10.59,14.05,15.77,25.75,15.77m145.91-.21c9.72,0,19.19-5.3,22.1-15.94,1.35-4.93,4.72-8.31,9.93-8.51,5.08-.2,10.18-.55,15.27-.55,4.55,0,9.08.28,13.58,1.19.65.13,1.21.2,1.68.2,1.98,0,2.52-1.16,2.49-3.58-.07-5.16-.02-10.32-.03-15.48,0-5.32.02-10.65,0-15.97,0-1.73-.28-3.21-2.05-3.21-.32,0-.68.05-1.1.15-4.49,1.09-9.01,1.36-13.54,1.36s-9.3-.29-13.94-.29c-.62,0-1.23,0-1.85.02-.11,0-.22,0-.33,0-5.18,0-8.97-2.35-10.75-7.56-2.94-8.62-8.69-14.25-17.91-15.26-1.47-.16-2.9-.24-4.31-.24-8.76,0-16.31,3.24-21.92,11.15-4.58,6.45-6.99,13.67-7.7,21.35-1.49,16.13-.31,31.51,12.27,43.96,4.86,4.81,11.53,7.22,18.09,7.22M54.34,68.33c1.26,0,2.73-.02,4.46-.02.69,0,1.42,0,2.19.01.73-.01,1.46-.02,2.19-.02.68,0,1.37,0,2.05,0,3.55,0,7.1-.08,10.6-1.08,6.14-1.75,9.45-5.77,9.12-11.34-.33-5.65-4.59-9.9-10.8-10.42-5.61-.47-11.25-.81-16.88-.89-.98-.01-1.87-.02-2.67-.02-7.41,0-7.46.96-7.39,9.98.1,12.95-1.27,13.79,7.14,13.79M348.53,0c-15.19,0-29.62,3.85-41.73,11.14-13.99,8.42-24.24,20.87-30.45,37-.19.49-.31,1-.43,1.49-.07.3-.18.72-.29,1.05-.08-.27-.15-.58-.2-.81-.12-.53-.25-1.08-.46-1.61-5.26-13.46-13.35-24.45-24.03-32.65C237.6,5.37,221.66.17,203.56.17c-2.99,0-6.09.14-9.22.42-28.45,2.55-49.15,16.3-61.53,40.87-.53,1.05-1.06,2.11-1.59,3.19-.05-.39-.09-.8-.17-1.21-2.35-12.94-8.23-22.6-17.97-29.54-9.61-6.84-20.54-10.38-32.5-10.51-9.75-.1-20.18-.15-32.84-.15-8.55,0-17.1.02-25.66.04l-6.49.02C3.7,3.32.07,7,.05,19.03,0,43.75.01,68.88.02,93.18v17.78c0,3.5,0,7,0,10.5-.02,10.16-.03,20.66.1,30.99.12,9.61,4.14,13.63,13.87,13.87,2.65.06,5.48.09,8.93.09,2.28,0,4.57-.01,6.85-.03h2.27c13.24-.08,17.09-3.88,17.14-16.98v-3.16c.06-10.93.1-22.22-.03-33.34-.02-1.59.2-2.63.66-3.1.36-.36,1.06-.54,2.08-.54.19,0,.39,0,.59.02,1.19.07,2.49.11,4.07.11.89,0,1.77-.01,2.66-.02.87,0,1.74-.02,2.61-.02.58,0,1.15,0,1.73.02,10.64.22,15.46,4.68,16.66,15.4.35,3.16.58,6.41.8,9.55.45,6.38.91,12.98,2.44,19.43,2.03,8.6,6.57,12.35,15.16,12.55,3.61.09,7.22.13,10.73.13s6.97-.04,10.35-.13c5.07-.13,8.69-1.54,10.74-4.21,1.93-2.51,2.39-5.98,1.37-10.32-1.89-7.94-2.52-16.19-3.13-24.16-.23-3.02-.47-6.14-.78-9.22-.07-.75-.15-1.5-.24-2.26,1.68,5.38,3.83,10.4,6.49,15.22,10.01,18.16,23.94,29.64,41.41,34.12,10.51,2.69,20.47,4.06,29.62,4.06,31.91,0,55.7-16.47,70.76-48.97.48,1.16.9,2.18,1.36,3.21,5,11.21,11.3,20,19.26,26.87,14.55,12.55,31.89,18.91,51.56,18.91,5.59,0,11.48-.51,17.5-1.53,21.79-3.67,37.37-14.79,46.36-33.08,0,.34,0,.68,0,1.03-.02,5.38-.05,10.46.05,15.62.21,10.58,4.17,14.57,14.64,14.75,2.93.05,6.02.07,9.42.07,2.71,0,5.61-.01,9.12-.05,12.26-.11,15.83-3.68,15.92-15.9.03-4.56.05-9.13.06-13.69.02-7.79.04-15.84.17-23.75.06-3.64.88-5.44,2.74-6.02.23-.07.43-.11.6-.11.57,0,1.01.62,1.86,2.11.44.77.89,1.56,1.49,2.24,1.05,1.19,1.93,2.58,2.86,4.06.48.77.99,1.56,1.52,2.34,3,4.35,6.01,8.7,9.01,13.04,6.45,9.33,13.12,18.97,19.62,28.49,3.02,4.42,7.16,6.82,11.98,6.95,5.21.14,10.51.21,15.76.21,4.9,0,9.88-.06,14.81-.18,5.83-.14,9.63-3.27,10.44-8.58.09-.58.2-.92.28-1.1.24.08.69.29,1.44.82,4.39,3.13,9.2,5.18,13.32,6.77,9.95,3.84,20.8,5.71,33.17,5.71,4.31,0,8.75-.22,13.57-.68,14.91-1.4,27.76-6.33,37.14-14.25,10.47-8.84,16.35-20.87,17.48-35.76,1.65-21.93-7.12-38.85-24.72-47.63-5.54-2.76-11.29-4.82-17.09-6.52.78.16,1.6.25,2.46.28,4.1.12,8.51.24,12.97.24,3.89,0,7.38-.09,10.67-.27,4.06-.22,7.32-1.64,9.41-4.09,2.07-2.42,2.95-5.78,2.54-9.72-1.99-19.41-10.62-33.38-25.65-41.51-11.9-6.44-24.85-9.71-38.51-9.71-9.57,0-19.8,1.61-30.41,4.77-9.08,2.71-16.59,7.24-22.37,13.5.79-2.85.6-5.95-.6-9.07-2.3-6-8.87-6-11.03-6h-4.71c-4.02,0-8.03,0-12.05,0-4.01,0-8.03,0-12.04,0h-.69c-4.92,0-9.01,1.78-12.52,5.45-3.3,3.44-6.74,6.88-10.06,10.2-2.7,2.69-5.49,5.48-8.19,8.26-4.22,4.34-8.43,8.82-12.5,13.15-1.22,1.3-2.44,2.6-3.66,3.89-.09.1-.18.19-.26.26-.02-.11-.04-.23-.06-.37-.19-1.41-.21-2.93-.22-4.23-.02-2.71-.02-5.43-.01-8.14,0-5.37,0-10.91-.15-16.38-.21-7.38-4.38-11.75-11.43-11.97-3.37-.11-7.04-.16-11.22-.16-3.89,0-7.85.04-11.68.09l-3.17.03c-5.49.06-9.2,3.12-10.73,8.85-.89,3.32-.84,6.6-.79,9.77.02,1.41.04,2.74-.02,4.08-.08,1.75-.04,3.45-.01,5.25.03,1.46.05,2.95.02,4.47-.3-.61-.6-1.21-.9-1.81-4.23-8.4-10.29-15.46-18.01-21-11.57-8.3-27.79-13.05-44.52-13.05h0Zm184.71,119.53c-4.17-6.02-8.33-12.05-12.5-18.08-6.35-9.2-12.93-18.72-19.42-28.06-1.07-1.54-.89-2.19,1.23-4.33,10.91-11.1,21.96-22.42,32.65-33.36l7.79-7.98c-5.77,10.26-7.51,22.05-5.33,35.8,2.44,15.37,11.15,26.49,25.89,33.06,7.71,3.44,16.43,6.22,27.44,8.77,1.56.36,3.12.7,4.69,1.05,6.69,1.47,13.6,2.99,19.91,5.83,3.44,1.55,5.15,2.84,4.98,5.61-.17,2.85-1.81,4.66-5.46,6.04-3.57,1.35-7.29,1.54-10.78,1.54-1.04,0-2.09-.02-3.13-.04-.55,0-1.11-.02-1.66-.03-10.68-.14-14.52-2.97-17.84-13.18-2.39-7.35-5.45-9.66-13.1-9.87-3.35-.09-6.94-.14-10.98-.14-3.66,0-7.31.04-10.09.07-5.46.07-9.28,1.4-11.66,4.07-2.42,2.71-3.32,6.75-2.75,12.36.03.3.08.58.13.86h0Zm93.51-55.17c-4.66-1.31-9.35-2.42-13.97-3.51-2.02-.48-4.04-.96-6.06-1.45-.83-.2-1.65-.4-2.48-.6-5.03-1.2-9.78-2.33-14.2-4.59-2.28-1.17-3.09-2.18-3.06-3.87.03-1.64.84-2.62,3.22-3.87,3.5-1.85,7.09-2.79,10.66-2.79,7.96,0,14.8,4.78,18.28,12.79,1.75,4.01,4.29,6.65,7.6,7.9h0Zm-423.77,62.88v-2c-11.21,0-19.27-4.93-23.94-14.64-7.71-16.02-8.07-32.57-1.07-49.17,4.39-10.42,13.67-16.89,24.22-16.89,3.32,0,6.65.63,9.92,1.87,7.98,3.03,13.23,9.29,16.52,19.7,2.03,6.42,2.85,12.45,2.44,17.93,0,.07,0,.14,0,.21.32,10.63-1.33,18.93-5.21,26.11-5.41,10.01-12.89,14.88-22.86,14.88v2h0Zm145.91-2.21c-6.34,0-12.42-2.42-16.68-6.64-12.56-12.44-13.04-27.71-11.68-42.36.71-7.67,3.18-14.53,7.33-20.38,4.93-6.93,11.56-10.31,20.29-10.3,1.31,0,2.69.08,4.09.23,7.92.87,13.38,5.55,16.23,13.92,1.99,5.83,6.36,8.92,12.64,8.92.12,0,.24,0,.36,0,.6-.01,1.21-.02,1.81-.02,2.29,0,4.64.07,6.91.14,2.3.07,4.68.15,7.04.15,5.64,0,9.96-.44,14.01-1.42.27-.07.46-.09.57-.09.05.18.1.54.1,1.22.02,3.8.01,7.6.01,11.4v4.57c0,1.77,0,3.53,0,5.29,0,3.34-.01,6.8.03,10.21.01.98-.09,1.38-.15,1.53-.06.01-.17.03-.35.03-.33,0-.76-.05-1.28-.16-4.14-.84-8.58-1.23-13.98-1.23-3.61,0-7.26.17-10.79.34-1.52.07-3.04.15-4.56.21-5.81.23-10.11,3.87-11.78,9.98-2.41,8.79-10.33,14.47-20.18,14.47h0ZM54.34,66.33c-1.46,0-4.17,0-4.67-.51-.54-.54-.51-3.32-.48-6.54.01-1.38.03-2.94.01-4.76-.03-3.72-.05-6.65.63-7.34.62-.63,3.42-.63,4.76-.63.79,0,1.67.01,2.64.02,5.01.07,10.49.36,16.74.88,5.17.43,8.7,3.79,8.97,8.54.34,5.78-3.99,8.25-7.68,9.3-3.24.92-6.6,1-10.05,1h-1.02s-1.03,0-1.03,0c-.73,0-1.47,0-2.2.02-.77,0-1.5-.01-2.18-.01-.94,0-1.8,0-2.6.01-.67,0-1.29,0-1.86,0h0Zm69.91,34.37c-1.43-3.81-3.42-7.48-6.22-10.86-.8-.96-.53-1.27-.34-1.5,1.63-1.87,3.35-3.72,5.31-5.84.05,6.54.46,12.57,1.25,18.19h0Z"/>
  </g>
</svg>