<?xml version="1.0" encoding="UTF-8"?>
<svg id="Livello_2" data-name="Livello 2" xmlns="http://www.w3.org/2000/svg" viewBox="0 0 447.89 169.85">
  <g id="Livello_1-2" data-name="Livello 1">
    <g>
      <path d="m207.01,2c18.58,0,35.79,5.16,50.63,18.05,10.75,9.34,17.4,21.28,21.82,34.62.5,1.52.36,3.3,1.82,4.6,1.14-1.72.55-3.56.6-5.28.42-12.97-.81-25.97.85-38.91.85-6.66,3.78-9.7,10.28-9.88,4.09-.11,8.18-.17,12.27-.17s7.81.05,11.71.17c6.97.21,9.82,3.1,10.66,10.1.24,1.97.19,3.99.19,5.99,0,42.13,0,84.26,0,126.39,0,1.33.01,2.67-.04,4-.34,8.99-3.64,12.33-12.59,12.46-3.57.05-7.15.09-10.72.09s-7.18-.04-10.76-.15c-7.24-.23-10.12-3.09-11.03-10.22-1.61-12.61-.42-25.28-.79-37.92-.06-1.92,0-3.85-.45-5.94-10.55,34.74-32.76,55.11-69.66,57.14-2.02.11-4.01.17-5.96.17-31.86,0-55.37-14.74-70.21-45.71-1.56,5.05-2.57,9.23-4.12,13.19-5.61,14.36-16.56,23.58-30.76,27.96-10.72,3.3-21.46,5.12-32.09,5.12-13.86,0-27.53-3.08-40.75-9.95-17.06-8.87-25.4-23.95-25.91-43.13-.19-7.01,3.36-10.48,10.38-10.66,3.74-.09,7.49-.14,11.23-.14,4.08,0,8.17.05,12.25.16,5.69.14,8.83,2.78,10.6,8.19,3.64,11.13,8.42,14.7,20.05,14.83,1.68.02,3.36.07,5.04.07,3.8,0,7.58-.28,11.21-1.88,3.21-1.41,5.81-3.3,6.15-7.14.35-3.98-2.05-6.13-5.22-7.69-6.8-3.34-14.21-4.65-21.48-6.42-13.42-3.26-27.05-5.91-38.78-13.93-11.28-7.71-16.78-18.5-17.59-31.99-.94-15.68,2.23-29.85,14.47-40.8,8.59-7.68,18.91-11.66,30.11-13.57,6.53-1.11,13.03-1.77,19.44-1.77,12.23,0,24.16,2.38,35.54,8.48,16.65,8.94,25.19,23.23,25.59,42.16.13,6.24-2.97,9.9-9.13,10.23-3.81.2-7.63.29-11.45.29-4.17,0-8.35-.11-12.51-.28-5.01-.21-8.42-2.89-10.36-7.95-3.3-8.6-11.71-13.63-20.43-13.63-3.8,0-7.65.95-11.17,2.99-2.22,1.28-4.27,2.94-4.36,5.7-.1,3.12,2.29,4.58,4.72,5.86,6.44,3.39,13.6,4.36,20.52,6.15,7.74,2,15.58,3.67,23.18,6.11,10.74,3.45,20.51,8.68,28.03,18.41,1.41-3.68,1.57-6.91,1.81-10.14,1.52-21.16,8.57-39.89,24.18-54.86,12.18-11.68,27-17.69,43.51-19.13,3.2-.28,6.37-.43,9.49-.43m-.07,125.29c9.09,0,18.09-4.4,23.21-13.42,10.88-19.18,10.63-39.37-.11-58.57-4.85-8.67-13.87-13.14-23.03-13.14-7.05,0-14.18,2.64-19.58,8.05-9.5,9.51-11.73,21.62-11.61,34.44.02,12.46,1.53,19.17,6.27,27.87,5.32,9.75,15.14,14.77,24.86,14.77m.07-127.29c-3.13,0-6.38.15-9.67.43-17.67,1.55-32.72,8.17-44.72,19.68-9.03,8.66-15.56,18.76-19.7,30.55-.96-18.86-9.89-32.94-26.58-41.9C95.41,2.9,83.48.05,69.86.05c-6.21,0-12.68.59-19.77,1.79-12.79,2.18-22.97,6.77-31.11,14.05C7.54,26.12,2.73,39.6,3.85,58.3c.86,14.47,7.07,25.75,18.45,33.52,10.83,7.4,23.28,10.37,35.32,13.23,1.37.33,2.74.65,4.11.99,1.35.33,2.71.64,4.07.95,6,1.38,11.67,2.69,17.01,5.31,3.19,1.57,4.34,3.17,4.11,5.72-.22,2.48-1.61,4.01-4.96,5.49-3.41,1.5-7.01,1.71-10.4,1.71-1,0-2.01-.02-3.02-.04-.67-.01-1.34-.03-2-.03-10.72-.12-14.8-3.14-18.17-13.45-2.08-6.37-6.04-9.41-12.45-9.57-4.14-.1-8.28-.16-12.3-.16-3.8,0-7.59.05-11.28.14-4.13.1-7.28,1.28-9.38,3.49C.89,107.77-.1,110.87,0,114.82c.54,20.44,9.88,35.95,26.98,44.85,12.99,6.75,27.01,10.18,41.67,10.18,10.48,0,21.47-1.75,32.68-5.2,15.35-4.73,26.43-14.81,32.04-29.14,1.06-2.71,1.88-5.54,2.74-8.53,7.18,13.43,16.3,23.76,27.14,30.75,11.89,7.67,26.22,11.56,42.57,11.56,1.98,0,4.03-.06,6.07-.17,18.46-1.01,33.9-6.65,45.89-16.77,9.35-7.89,16.79-18.66,22.18-32.11.02,3.07-.03,6.16-.08,9.17-.12,8.07-.25,16.42.81,24.68,1.06,8.24,4.81,11.71,12.95,11.97,3.32.1,6.86.15,10.82.15s7.59-.05,10.75-.09c9.96-.15,14.18-4.31,14.56-14.38.04-1.18.04-2.36.04-3.5v-.57c0-42.13,0-84.26,0-126.39v-.86c0-1.75.01-3.55-.2-5.36-.96-8.07-4.73-11.62-12.59-11.86-3.79-.12-7.75-.17-11.77-.17s-8.1.06-12.33.17c-7.34.19-11.22,3.89-12.21,11.62-1.07,8.37-.96,16.84-.84,25.03.05,3.36.09,6.81.06,10.24-4.95-13.24-11.85-23.58-21.01-31.54C244.59,6.06,227.6,0,207.01,0h0Zm-79.86,82.39c-6.56-7.3-15.1-12.47-26.55-16.15-5.38-1.73-10.95-3.09-16.32-4.41-2.29-.56-4.65-1.14-6.96-1.74-1.78-.46-3.59-.87-5.34-1.27-5.23-1.19-10.17-2.31-14.75-4.72-2.52-1.33-3.71-2.27-3.65-4.02.05-1.52,1.03-2.69,3.36-4.03,3.08-1.78,6.6-2.72,10.17-2.72,8.26,0,15.72,4.96,18.56,12.35,2.26,5.88,6.35,8.98,12.14,9.23,4.49.19,8.61.28,12.6.28s7.89-.1,11.56-.29c3.33-.18,5.98-1.24,7.85-3.07-.96,4.58-1.62,9.39-1.99,14.43l-.04.53c-.13,1.88-.26,3.7-.64,5.59h0Zm79.79,42.89c-9.63,0-18.48-5.26-23.1-13.72-4.6-8.43-6.01-14.71-6.03-26.92-.14-15.07,3.26-25.25,11.02-33.03,4.81-4.81,11.26-7.46,18.17-7.46,9.08,0,17.04,4.53,21.28,12.12,10.47,18.71,10.51,38.28.12,56.61-4.41,7.77-12.43,12.41-21.47,12.41h0Z"/>
      <path d="m357.28,5.02c3.42,0,6.84.03,10.26.14,7.48.24,10.45,3.2,11.14,10.69.2,2.15.14,4.32.14,6.49,0,31.45,0,62.9.02,94.35,0,6.98.29,7.25,7.37,7.26,3.27,0,6.54,0,9.81,0,4.71,0,9.42,0,14.14,0,7.66,0,15.33,0,22.99.06,9.46.06,12.5,3.14,12.68,12.61.09,4.99.09,9.99,0,14.98-.17,8.91-3.6,12.47-12.47,12.52-11.48.06-22.95.07-34.43.07-8.53,0-17.05,0-25.58,0-.81,0-1.61,0-2.41,0-4.27,0-8.54.02-12.81.02s-8.44-.02-12.65-.1c-7.9-.16-10.68-2.77-11.9-10.47-1.31-8.28-.56-16.61-.64-24.92-.14-14.81-.04-29.62-.04-44.43,0-20.14,0-40.27,0-60.41,0-1.83-.04-3.67.14-5.49,1-10.57,3.91-13.24,14.54-13.32,3.24-.02,6.48-.05,9.71-.05m0-2v2-2c-2.57,0-5.14.02-7.71.04h-2.02c-11.71.09-15.42,3.49-16.52,15.14-.15,1.63-.15,3.26-.15,4.84v.84c0,15.84,0,31.69,0,47.54v12.87c0,4.36,0,8.73-.02,13.09-.02,10.28-.04,20.9.06,31.36.02,2.35-.03,4.75-.07,7.08-.11,5.92-.23,12.05.73,18.13,1.4,8.8,5.02,11.98,13.84,12.16,3.67.07,7.58.11,12.69.11,2.17,0,4.35,0,6.52-.01,2.1,0,4.19-.01,6.29-.01h2.41c4.26,0,8.53,0,12.79,0,4.26,0,8.53,0,12.79,0,10.14,0,22.17,0,34.44-.07,9.94-.05,14.27-4.38,14.46-14.48.1-5.05.1-10.12,0-15.05-.2-10.56-4.18-14.51-14.67-14.57-8.04-.05-16.14-.06-23-.06h-7.07s-7.07,0-7.07,0c-3.27,0-6.54,0-9.81,0-1.79,0-4.49,0-4.94-.44-.43-.43-.43-3.18-.43-4.82,0-18.28-.01-36.56-.01-54.85,0-13.17,0-26.34,0-39.51,0-.42,0-.83,0-1.25,0-1.77.02-3.59-.15-5.42-.78-8.49-4.69-12.23-13.07-12.5-3.05-.1-6.33-.14-10.32-.14h0Z"/>
    </g>
  </g>
</svg>