<?xml version="1.0" encoding="UTF-8"?>
<svg id="Livello_2" data-name="Livello 2" xmlns="http://www.w3.org/2000/svg" viewBox="0 0 401.71 169.6">
  <g id="Livello_1-2" data-name="Livello 1">
    <g>
      <path d="m69.51,2c10.93,0,21.77,2.08,32.4,6.68,18.05,7.82,27.64,22.41,29.81,41.77.92,8.23-2.73,12.34-10.94,12.72-3.15.15-6.31.2-9.46.2-4.01,0-8.01-.08-12.02-.15-5.59-.09-9.25-2.95-11.38-8.17-3.46-8.49-12-13.43-20.67-13.43-4.25,0-8.54,1.19-12.28,3.73-4.52,3.07-4.08,7.92,1.18,10.5,8.01,3.93,16.83,5.17,25.39,7.29,5.81,1.44,11.65,2.86,17.35,4.69,17.49,5.63,31.84,14.7,36.68,34.4.08-1.68.22-3.35.22-5.03.02-25.48,0-50.96.03-76.44,0-2.33-.03-4.69.32-6.97.8-5.27,3.71-8.24,8.95-8.4,4.44-.13,8.88-.2,13.32-.2s8.78.06,13.16.19c5.26.15,8.2,3.08,9.01,8.33.38,2.45.36,4.98.36,7.47.03,27.48,0,54.95.05,82.43,0,2.82.16,5.67.56,8.45,1.5,10.33,6.57,14.74,17.07,15.05.32,0,.63.01.94.01,10.22,0,16.82-5.1,18.61-14.63.49-2.59.54-5.3.54-7.95.04-27.64.02-55.29.04-82.93,0-2.66-.03-5.36.37-7.97.8-5.24,3.76-8.13,9.05-8.28,4.19-.12,8.39-.17,12.59-.17,4.63,0,9.26.06,13.89.17,5,.12,7.92,3.11,8.83,7.97.3,1.62.38,3.31.38,4.97,0,32.31.32,64.62-.15,96.91-.27,18.32-8.01,33.16-24.18,42.78-7.25,4.31-15.28,6.45-23.59,7.71-5.54.84-11.05,1.3-16.5,1.3-11.08,0-21.97-1.85-32.6-6.03-15.35-6.02-24.91-17.3-29.07-33.21-.45-1.73-.92-3.46-1.38-5.19-2.44,8.72-5.52,16.71-11.04,23.64-10.57,13.28-25.2,19-41.33,20.61-4.73.47-9.47.74-14.19.74-10.85,0-21.64-1.44-32.19-5.22-21.36-7.65-32.95-22.81-35.5-45.09-.97-8.44,3.12-12.98,11.57-13.11,2.33-.04,4.67-.05,7-.05,4.91,0,9.83.06,14.74.06.08,0,.16,0,.24,0h0c5.72,0,9.17,2.72,11.11,8.17,4.44,12.49,8.04,14.89,21.37,14.93,1.59,0,3.18.06,4.77.06,3.23,0,6.44-.22,9.54-1.52,3.68-1.54,7.06-3.4,7.16-8,.09-4.47-3.28-6.43-6.69-7.82-8.99-3.65-18.57-5.24-27.93-7.59-8.08-2.03-16.02-4.38-23.67-7.8C9.92,85.03,3.89,66.29,6.35,46.14,8.91,25.18,21.33,12.15,41.26,6.3c9.42-2.77,18.87-4.3,28.25-4.3m0-2c-9.23,0-18.92,1.47-28.81,4.38-10.45,3.07-18.83,8.07-24.9,14.84-6.29,7.02-10.13,16-11.44,26.68-1.36,11.15-.11,21,3.71,29.28,4.33,9.38,11.89,16.53,22.47,21.26,8.54,3.82,17.32,6.24,24,7.92,2.54.64,5.13,1.23,7.64,1.8,6.69,1.52,13.61,3.1,20.03,5.71,4.02,1.63,5.5,3.24,5.44,5.92-.07,3.17-2.05,4.58-5.93,6.2-2.86,1.2-5.91,1.36-8.77,1.36-.82,0-1.63-.01-2.45-.03-.77-.01-1.54-.03-2.31-.03-12.62-.03-15.35-1.94-19.49-13.6-2.27-6.39-6.52-9.5-12.99-9.5h-.25c-2.45,0-4.91-.01-7.36-.03-2.46-.01-4.92-.03-7.38-.03-2.62,0-4.92.02-7.04.05-4.83.08-8.47,1.48-10.82,4.16-2.34,2.67-3.25,6.43-2.71,11.18,2.66,23.22,15.04,38.95,36.81,46.75,10.02,3.59,20.77,5.33,32.86,5.33,4.59,0,9.29-.25,14.38-.75,18.78-1.87,32.74-8.85,42.69-21.35,4.48-5.63,7.31-11.8,9.33-17.67,4.59,15.95,14.63,27.06,29.86,33.04,10.43,4.09,21.64,6.17,33.34,6.17,5.42,0,11.07-.44,16.81-1.32,10.01-1.53,17.74-4.06,24.31-7.97,16.18-9.62,24.88-25,25.16-44.47.34-23.3.27-47,.2-69.91-.03-8.86-.05-18.03-.05-27.04,0-2.12-.13-3.81-.42-5.33-1.11-5.97-5.03-9.47-10.75-9.61-4.97-.11-9.52-.17-13.93-.17s-8.62.06-12.65.17c-6.11.17-10.01,3.72-10.97,9.98-.39,2.55-.39,5.13-.39,7.62v.65c-.01,12.13-.01,24.26-.02,36.38,0,15.52,0,31.03-.03,46.55,0,2.48-.05,5.11-.51,7.58-1.59,8.5-7.35,12.99-16.64,12.99-.29,0-.59,0-.89-.01-9.55-.29-13.8-4.03-15.15-13.34-.36-2.47-.54-5.15-.54-8.17-.02-15.83-.03-31.67-.03-47.51,0-11.64,0-23.28-.01-34.92v-.46c0-2.39,0-4.86-.38-7.31-.98-6.29-4.86-9.85-10.93-10.02-4.4-.13-8.85-.19-13.22-.19s-8.96.07-13.38.2c-6.04.18-9.9,3.77-10.86,10.1-.35,2.27-.35,4.55-.35,6.76v.52c0,10.15-.01,20.3-.02,30.46-.02-.33-.05-.66-.09-1-2.34-20.89-12.77-35.49-31-43.39C92.22,2.3,81.05,0,69.51,0h0Zm24.94,64.42c-3.73-1.05-7.5-1.99-11.18-2.9l-1.25-.31c-2.13-.53-4.31-1.01-6.41-1.48-6.56-1.45-12.76-2.82-18.58-5.67-1.91-.94-3.06-2.23-3.15-3.56-.09-1.22.7-2.45,2.22-3.49,3.26-2.22,7.11-3.39,11.16-3.39,8.28,0,15.85,4.9,18.82,12.19,1.8,4.42,4.61,7.3,8.38,8.61h0Zm16.87.95c3.55,0,6.68-.06,9.56-.2,4.7-.22,8.19-1.62,10.36-4.16,1.49-1.74,2.34-4,2.57-6.75,0,2.85,0,5.7,0,8.56,0,9.59,0,19.17,0,28.76-7.65-15.2-21.98-21.68-34.29-25.64-1.21-.39-2.42-.76-3.65-1.12,1.07.25,2.21.38,3.41.4l1.72.03c3.38.06,6.88.12,10.33.12h0Z"/>
      <path d="m302.17,5.14c6.04,0,10.06,2.97,13.08,8.06,11.3,19.03,22.67,38.03,34.02,57.04,1,1.68,2.11,3.28,3.51,5.44,2.19-3.02,1.81-5.58,1.81-8.03.05-16.48-.02-32.96.07-49.44.05-9.94,2.98-12.87,12.78-12.98,3.22-.04,6.43-.06,9.65-.06,3.78,0,7.56.04,11.33.14,6.14.17,9.05,2.75,10.52,8.67.69,2.78.77,5.59.77,8.43,0,41.29,0,82.57,0,123.86,0,1.33.02,2.67-.07,3.99-.75,11.04-3.84,13.96-14.93,14.04-.56,0-1.13,0-1.69,0-3.18,0-6.36-.06-9.54-.06-1.92,0-3.83.02-5.75.09-.27,0-.53.01-.79.01-6.08,0-10.5-2.67-13.72-7.91-10.99-17.86-22.06-35.67-33.11-53.49-1.97-3.17-4-6.3-6.16-9.7-1.67,2.23-1.11,4.11-1.12,5.86-.05,16.65,0,33.3-.05,49.94-.04,11.89-3.35,15.19-15.07,15.25-3.01.02-6.01.04-9.02.04s-5.98-.02-8.97-.09c-8.26-.2-11.87-3.72-11.91-12.05-.12-23.81-.08-47.61-.08-71.42,0-20.64-.04-41.29.04-61.93.04-10.75,2.92-13.55,13.69-13.63.67,0,1.34,0,2.01,0,3.71,0,7.43.07,11.14.07,2.28,0,4.55-.03,6.83-.11.25,0,.49-.01.73-.01m0-2c-.27,0-.54,0-.81.02-2.01.08-4.15.11-6.75.11-1.85,0-3.7-.02-5.55-.04-1.86-.02-3.73-.04-5.59-.04-.68,0-1.35,0-2.03,0-11.97.1-15.63,3.75-15.68,15.63-.06,16.29-.05,32.85-.04,48.87v13.07c0,5.55,0,11.09,0,16.64,0,17.96-.01,36.53.08,54.79.05,9.35,4.45,13.82,13.87,14.04,2.68.06,5.54.09,9.01.09,2.37,0,4.74-.01,7.1-.03h1.92c12.87-.08,17.01-4.27,17.06-17.26.03-8.52.03-17.18.03-25.55,0-8,0-16.26.03-24.39,0-.27,0-.54-.02-.8,1.24,1.94,2.43,3.8,3.6,5.69l5.51,8.88c9.06,14.61,18.44,29.72,27.6,44.61,3.67,5.96,8.72,8.86,15.43,8.86.28,0,.57,0,.86-.02,1.69-.06,3.49-.09,5.67-.09,1.58,0,3.17.01,4.75.03,1.6.02,3.2.03,4.79.03.57,0,1.14,0,1.71,0,12.14-.1,16.09-3.81,16.91-15.91.08-1.19.08-2.37.08-3.51v-.62s0-48.43,0-48.43c0-25.14,0-50.29,0-75.43,0-2.83-.06-5.84-.83-8.91-1.73-6.95-5.44-9.99-12.41-10.18-3.47-.09-7.2-.14-11.39-.14-2.79,0-5.78.02-9.67.06-10.98.12-14.7,3.9-14.76,14.97-.05,9.5-.05,19.15-.05,28.48,0,6.99,0,13.98-.02,20.97,0,.33,0,.67.01,1,.02,1.01.03,1.95-.14,2.9-.53-.81-1.02-1.57-1.47-2.33l-3.64-6.1c-9.97-16.69-20.28-33.94-30.38-50.93-3.61-6.08-8.45-9.04-14.8-9.04h0Z"/>
    </g>
  </g>
</svg>