<?xml version="1.0" encoding="UTF-8"?>
<svg id="Livello_2" data-name="Livello 2" xmlns="http://www.w3.org/2000/svg" viewBox="0 0 1477.05 142.05">
  <defs>
    <style>
      .cls-1 {
        fill: none;
        stroke: #1d1d1b;
        stroke-miterlimit: 10;
        stroke-width: 8px;
      }
    </style>
  </defs>
  <g id="Livello_1-2" data-name="Livello 1">
    <g>
      <path class="cls-1" d="m10.61,6.52h18.29c3.06,0,5.71,2.1,6.43,5.07l11.72,48.84c2.87,12.4,5.93,31.8,5.93,31.8h.36s3.41-17.61,6.29-30.55l10.9-49.96c.66-3.04,3.35-5.2,6.46-5.2h18.83c3.1,0,5.79,2.16,6.46,5.19l10.9,49.61c2.87,13.12,6.11,30.91,6.11,30.91h.36s3.59-19.41,6.47-32.16l11.55-48.47c.71-2.98,3.37-5.08,6.43-5.08h18.1c4.36,0,7.53,4.15,6.38,8.36l-31.59,115.25c-.79,2.87-3.4,4.86-6.38,4.86h-20.72c-3.11,0-5.79-2.16-6.46-5.2l-12.34-56.43c-2.34-10.24-4.49-23.9-4.49-23.9h-.36s-2.16,13.66-4.31,23.9l-12.34,56.43c-.66,3.04-3.35,5.2-6.46,5.2h-20.9c-2.98,0-5.59-1.99-6.38-4.86L4.24,14.87c-1.15-4.21,2.01-8.36,6.38-8.36Z"/>
      <path class="cls-1" d="m169.06,71.02c0-38.45,24.62-67.02,63.43-67.02s63.61,28.57,63.61,67.02-24.62,67.02-63.61,67.02-63.43-28.57-63.43-67.02Zm94.7,0c0-23.36-10.24-41.33-31.09-41.33s-31.27,17.97-31.27,41.33,10.6,41.15,31.27,41.15,31.09-17.79,31.09-41.15Z"/>
      <path class="cls-1" d="m303.29,71.02c0-38.45,24.62-67.02,63.43-67.02s63.61,28.57,63.61,67.02-24.62,67.02-63.61,67.02-63.43-28.57-63.43-67.02Zm94.7,0c0-23.36-10.24-41.33-31.09-41.33s-31.27,17.97-31.27,41.33,10.6,41.15,31.27,41.15,31.09-17.79,31.09-41.15Z"/>
      <path class="cls-1" d="m442.72,13.13c0-3.65,2.96-6.61,6.61-6.61h48.19c35.58,0,59.48,25.69,59.48,65.05,0,22.64-7.91,40.79-22.28,51.75-10.06,7.55-23,11.68-39.17,11.68h-46.22c-3.65,0-6.61-2.96-6.61-6.61V13.13Zm50.49,95.09c20.84,0,31.62-13.12,31.62-36.66s-11.32-38.45-31.27-38.45h-12.44c-3.65,0-6.61,2.96-6.61,6.61v61.89c0,3.65,2.96,6.61,6.61,6.61h12.08Z"/>
      <path class="cls-1" d="m597.12,6.52h18.29c3.06,0,5.71,2.1,6.43,5.07l11.72,48.84c2.87,12.4,5.93,31.8,5.93,31.8h.36s3.41-17.61,6.29-30.55l10.9-49.96c.66-3.04,3.35-5.2,6.46-5.2h18.83c3.1,0,5.79,2.16,6.46,5.19l10.9,49.61c2.87,13.12,6.11,30.91,6.11,30.91h.36s3.59-19.41,6.47-32.16l11.55-48.47c.71-2.98,3.37-5.08,6.43-5.08h18.1c4.36,0,7.53,4.15,6.38,8.36l-31.59,115.25c-.79,2.87-3.4,4.86-6.38,4.86h-20.72c-3.11,0-5.79-2.16-6.46-5.2l-12.34-56.43c-2.34-10.24-4.49-23.9-4.49-23.9h-.36s-2.16,13.66-4.31,23.9l-12.34,56.43c-.66,3.04-3.35,5.2-6.46,5.2h-20.9c-2.98,0-5.59-1.99-6.38-4.86l-31.59-115.25c-1.15-4.21,2.01-8.36,6.38-8.36Z"/>
      <path class="cls-1" d="m772.95,6.52h18.58c3.65,0,6.61,2.96,6.61,6.61v115.25c0,3.65-2.96,6.61-6.61,6.61h-18.58c-3.65,0-6.61-2.96-6.61-6.61V13.13c0-3.65,2.96-6.61,6.61-6.61Z"/>
      <path class="cls-1" d="m815.76,13.13c0-3.65,2.96-6.61,6.61-6.61h48.19c35.58,0,59.48,25.69,59.48,65.05,0,22.64-7.91,40.79-22.28,51.75-10.06,7.55-23,11.68-39.17,11.68h-46.22c-3.65,0-6.61-2.96-6.61-6.61V13.13Zm50.49,95.09c20.84,0,31.62-13.12,31.62-36.66s-11.32-38.45-31.27-38.45h-12.44c-3.65,0-6.61,2.96-6.61,6.61v61.89c0,3.65,2.96,6.61,6.61,6.61h12.08Z"/>
      <path class="cls-1" d="m949.05,6.52h84.17c3.65,0,6.61,2.96,6.61,6.61v13.01c0,3.65-2.96,6.61-6.61,6.61h-52.36c-3.65,0-6.61,2.96-6.61,6.61v9.78c0,3.65,2.96,6.61,6.61,6.61h43.02c3.65,0,6.61,2.96,6.61,6.61v11.58c0,3.65-2.96,6.61-6.61,6.61h-43.02c-3.65,0-6.61,2.96-6.61,6.61v14.27c0,3.65,2.96,6.61,6.61,6.61h53.44c3.65,0,6.61,2.96,6.61,6.61v13.73c0,3.65-2.96,6.61-6.61,6.61h-85.25c-3.65,0-6.61-2.96-6.61-6.61V13.13c0-3.65,2.96-6.61,6.61-6.61Z"/>
      <path class="cls-1" d="m1082.99,6.52h18.29c3.06,0,5.71,2.1,6.43,5.07l11.72,48.84c2.88,12.4,5.93,31.8,5.93,31.8h.36s3.41-17.61,6.29-30.55l10.9-49.96c.66-3.04,3.35-5.2,6.46-5.2h18.83c3.1,0,5.79,2.16,6.46,5.19l10.9,49.61c2.87,13.12,6.11,30.91,6.11,30.91h.36s3.59-19.41,6.47-32.16l11.55-48.47c.71-2.98,3.37-5.08,6.43-5.08h18.1c4.36,0,7.53,4.15,6.38,8.36l-31.59,115.25c-.79,2.87-3.4,4.86-6.38,4.86h-20.72c-3.11,0-5.79-2.16-6.46-5.2l-12.34-56.43c-2.34-10.24-4.49-23.9-4.49-23.9h-.36s-2.16,13.66-4.31,23.9l-12.34,56.43c-.66,3.04-3.35,5.2-6.46,5.2h-20.9c-2.98,0-5.59-1.99-6.38-4.86l-31.59-115.25c-1.15-4.21,2.01-8.36,6.38-8.36Z"/>
      <path class="cls-1" d="m1258.65,6.52h84.17c3.65,0,6.61,2.96,6.61,6.61v13.01c0,3.65-2.96,6.61-6.61,6.61h-52.36c-3.65,0-6.61,2.96-6.61,6.61v9.78c0,3.65,2.96,6.61,6.61,6.61h43.02c3.65,0,6.61,2.96,6.61,6.61v11.58c0,3.65-2.96,6.61-6.61,6.61h-43.02c-3.65,0-6.61,2.96-6.61,6.61v14.27c0,3.65,2.96,6.61,6.61,6.61h53.44c3.65,0,6.61,2.96,6.61,6.61v13.73c0,3.65-2.96,6.61-6.61,6.61h-85.25c-3.65,0-6.61-2.96-6.61-6.61V13.13c0-3.65,2.96-6.61,6.61-6.61Z"/>
      <path class="cls-1" d="m1364.88,13.13c0-3.65,2.96-6.61,6.61-6.61h55.38c13.3,0,23.18,3.23,30.01,8.8,7.37,6.11,11.14,14.37,11.14,24.62,0,12.76-6.65,20.84-17.97,25.16v.54c14.02,4.31,23,16.17,23,31.44,0,12.94-4.67,22.28-13.12,28.75-7.55,5.93-18.15,9.16-31.62,9.16h-56.82c-3.65,0-6.61-2.96-6.61-6.61V13.13Zm57.32,44.24c9.16,0,15.45-4.49,15.45-12.94s-5.93-12.76-15.27-12.76h-19.44c-3.65,0-6.61,2.96-6.61,6.61v12.47c0,3.65,2.96,6.61,6.61,6.61h19.26Zm2.52,52.11c10.42,0,16.89-5.93,16.89-15.09,0-10.24-7.55-15.45-17.25-15.45h-21.42c-3.65,0-6.61,2.96-6.61,6.61v17.33c0,3.65,2.96,6.61,6.61,6.61h21.78Z"/>
    </g>
  </g>
</svg>