<?xml version="1.0" encoding="utf-8"?>
<!-- Generator: Adobe Illustrator 27.3.1, SVG Export Plug-In . SVG Version: 6.00 Build 0)  -->
<svg version="1.1" id="Livello_2_00000111156873046237559820000012504276180253413554_"
	 xmlns="http://www.w3.org/2000/svg" xmlns:xlink="http://www.w3.org/1999/xlink" x="0px" y="0px" viewBox="0 0 655.1 177.3"
	 style="enable-background:new 0 0 655.1 177.3;" xml:space="preserve">
<style type="text/css">
	.st0{fill:#FFFFFF;stroke:#FFFFFF;stroke-width:2;stroke-miterlimit:10;}
</style>
<g id="Livello_1-2">
	<path class="st0" d="M324.2,6.1c12.2,0,24.2,2.4,35.6,8.3c16.1,8.3,26.3,21.7,30.5,39.4c2.8,11.7-1.2,16.6-13.2,16.7
		c-2.6,0-5.2,0-7.8,0c-3.4,0-6.8,0-10.2-0.1c-6-0.1-10.4-2.4-12.8-8.5c-4.1-10.6-13.7-15.1-23.3-15.1c-6.8,0-13.6,2.3-18.3,6.4
		c-5.9,5.1-9.7,11.4-11.5,18.9c-3.6,14.5-3.5,28.8,3.5,42.3c5.8,11.2,15.8,17.2,26.3,17.2c6.2,0,12.6-2.1,18.5-6.5
		c2.9-2.2,6.9-5.1,6-8.4c-0.4-1.3-1.5-1.7-3-1.7c-1.6,0-3.7,0.4-5.3,0.4c-0.1,0-0.3,0-0.4,0c-4.1-0.2-8.3-0.2-12.4-0.9
		c-5.9-1-8.8-3.6-9.1-9.4c-0.4-6.3-0.4-12.7,0-19c0.4-6.2,3.7-9.5,10-9.6c8.8-0.1,17.6-0.1,26.5-0.1c10,0,20,0.1,30,0.1
		c5.2,0,8.2,3.1,9.3,8.1c0.7,3.4,1,6.9,1,10.4c0,12.1,0,24.3,0,37.2c2.4-1.8,2.5-3.9,3.1-5.6c12.5-35.7,24.8-71.4,37.4-107.1
		c3-8.4,5.7-10.1,14.4-10.2c0.9,0,1.8,0,2.7,0c3.9,0,7.8,0.1,11.7,0.1c2.4,0,4.7,0,7.1-0.1c0.2,0,0.5,0,0.7,0
		c6.7,0,10.5,3.4,12.6,9.6c3.6,10.7,7.5,21.3,11.3,32c10,28.3,20,56.5,29.9,84.8c0.3,0.9,0.7,1.8,2.1,2.7c0-1.9,0-3.7,0-5.6
		c0-34.1,0-68.3,0-102.4c0-4.1,0.4-8.3,1-12.4c0.7-5.1,3.8-8,8.9-8.5c1.7-0.2,3.3-0.2,5-0.2c17.7,0,35.5,0,53.2,0
		c13.2,0,26.5,0,39.7,0c11.4,0,14,2.8,14.1,14.2c0,5,0.1,10-0.1,15c-0.3,7.6-3.6,10.9-11.3,10.9c-19.3,0.1-38.6,0-58,0.1h0
		c-0.8,0-1.7-0.1-2.6-0.1c-1.7,0-3.3,0.4-3.7,2.6c-0.7,4-1.5,8.4,0.6,12.2c0.5,1,1.6,1.2,2.7,1.2c0.8,0,1.7-0.1,2.4-0.1h0
		c5,0,9.9,0,14.9,0c3.3,0,6.7,0,10,0c6.9,0,13.7,0,20.6,0c11.9,0,15.2,3.3,15.3,15.1c0,4.2,0.1,8.3,0,12.5
		c-0.3,9.2-3.4,12.3-12.5,12.4c-7.5,0.1-15,0.1-22.5,0.1c-5.5,0-11,0-16.5,0c-2.7,0-5.3,0-8,0c-7.1,0-7.3,0.3-7.4,7.3
		c0,2.5,0,5,0,7.5c0,7.8,0.1,7.9,7.7,7.9c4.1,0,8.2,0,12.3,0c6.5,0,13,0,19.4,0c7.1,0,14.2,0,21.3,0c13.9,0,16.2,2.3,16.3,16.3
		c0,4,0.1,8-0.1,12c-0.3,8.1-3.6,11.5-11.7,11.8c-3,0.1-6.1,0.1-9.1,0.1c-3.2,0-6.5,0-9.8,0h-0.1c-11.3,0-22.7,0-34,0
		c-13,0-26,0-38.9,0h0c-1.1,0-2.2,0-3.2,0c-3.7,0-7.5-0.1-11.1-1.5c-0.5-0.2-1.2-0.3-1.8-0.3c-0.4,0-0.8,0.1-1.1,0.1
		c-5,1.5-10,1.9-15.1,1.9c-4.7,0-9.4-0.3-14.1-0.3c-0.5,0-1.1,0-1.6,0c-0.2,0-0.4,0-0.6,0c-7,0-10.1-2.5-12.5-9.3
		c-1.9-5.3-3.5-10.8-5.1-16.2c-0.9-3.1-2.9-4.5-6.1-4.5c0,0-0.1,0-0.1,0c-5,0.1-10.1,0.1-15.1,0.1s-9.9,0-14.9-0.1c0,0-0.1,0-0.1,0
		c-3.3,0-5.1,1.5-6,4.6c-1.5,5.3-3.1,10.5-4.8,15.8c-2.1,6.7-5.4,9.6-12.3,9.6c-3.2,0-6.4,0-9.6,0c-6.6,0-13.2-0.1-19.8-0.6
		c-1.2-0.1-2.4-0.1-3.6-0.1c-5.8,0-11.6,0.8-17.5,0.8c-0.4,0-0.9,0-1.3,0c-4.3-0.1-8.3-0.6-11.4-4.1c-0.8-0.9-1.7-1.3-2.6-1.3
		c-0.7,0-1.5,0.2-2.3,0.6c-11.2,5.3-22.7,7.9-33.9,7.9c-21.7,0-42.3-9.8-57.7-28.4c-0.5-0.6-0.9-1.4-2.9-1.4c0,4.7,0.1,9.1,0,13.6
		c-0.3,9.3-3.9,13-13.3,13c-16.6,0.1-33.2,0.3-49.8,0.3c-12.4,0-24.7-0.1-37.1-0.7c-1.6-0.1-3.3-0.1-4.9-0.1
		c-9.1,0-18.1,0.9-27.2,0.9c-2.8,0-5.6-0.1-8.4-0.3c-9.1-0.7-12-2.4-14.9-11.1c-1.6-4.7-3.2-9.5-4.5-14.3c-0.9-3.4-2.8-4.8-6.2-4.8
		c-0.1,0-0.1,0-0.2,0c-5,0.1-10.1,0.1-15.1,0.1s-9.6,0-14.4-0.1c-0.1,0-0.2,0-0.2,0c-3.7,0-5.5,1.7-6.5,5.2
		c-1.5,5.4-3.3,10.8-5,16.2c-1.8,5.6-5.7,8.5-11.5,8.6c-4.4,0.1-8.7,0.1-13.1,0.1c-3.6,0-7.2,0-10.9-0.2c-6.9-0.2-9.5-3.4-9.6-10.1
		c0-3.4,0.8-6.6,1.9-9.7c15-42.8,29.9-85.5,44.8-128.3c3.1-8.8,5.6-10.7,15-10.8c1.4,0,2.8,0,4.2,0c4.2,0,8.4,0,12.6,0
		c1.7,0,3.5,0,5.2,0c0.1,0,0.2,0,0.2,0c6,0,9.9,2.8,11.9,8.4c7.2,20.2,14.3,40.5,21.5,60.8c6.8,19.2,13.5,38.3,20.2,57.5
		c0.4,1,0.3,2.4,1.9,2.8c1.2-1.8,0.6-3.8,0.7-5.7c0-35.5,0-70.9,0-106.4c0-2.2-0.1-4.3,0.1-6.5c0.7-7.5,3.7-10.5,11.1-10.7
		c3.8-0.1,7.5-0.2,11.3-0.2c4.1,0,8.1,0.1,12.2,0.2c6.6,0.2,9.4,3.2,10.4,9.8c0.6,4.5,0.8,8.9,0.8,13.4c0,29.5,0,59,0,88.4
		c0,6.7,0.4,7.1,7.1,7.1c16.2,0,32.3,0.1,48.5,0.1h0.1c5.1,0,5.3-0.4,3.6-5.5c-8.1-24.7-7.8-49.2,2.5-73.2
		c10.1-23.5,28-37.7,53.3-41.9C312.2,6.7,318.2,6.1,324.2,6.1 M74.4,99.8c1.3,0,2.9-0.1,5-0.4c2.8-0.3,4-1.4,3.2-4.2
		c-1.8-5.8-3.6-11.6-5.4-17.4c-0.5,0-1,0-1.5-0.1c-1.3,4.2-2.7,8.4-4,12.6C69.3,97.7,69.4,99.8,74.4,99.8 M458.9,99.3
		c1.6,0,3.2-0.1,4.8-0.2c1.7-0.1,2-1.6,1.6-3c-1.9-6.1-3.8-12.2-5.7-18.3c-3.8,5.8-5.3,11.9-7,17.9c-0.5,1.6-0.1,3.3,1.8,3.4
		C455.8,99.2,457.4,99.3,458.9,99.3 M324.2,4.1c-5.8,0-12,0.5-18.3,1.6C280,10,261.6,24.5,251.1,48.8c-10.2,23.6-11.1,48.7-2.6,74.6
		c0.2,0.7,0.7,2,0.8,2.8c-0.7,0.1-2,0.1-2.5,0.1h-11c-12.5,0-25,0-37.6-0.1c-1.5,0-4.2,0-4.6-0.5c-0.4-0.4-0.4-3.2-0.4-4.7
		c0-27.9,0-58,0-88.4c0-5.1-0.3-9.6-0.9-13.7c-1.1-7.8-4.9-11.3-12.3-11.5c-4.1-0.1-8.2-0.2-12.2-0.2s-7.6,0.1-11.4,0.2
		c-8.4,0.2-12.3,4-13.1,12.5c-0.2,1.8-0.2,3.7-0.1,5.4c0,0.4,0,0.8,0,1.2v28.2c0,25.1,0,51,0,76.6c-3.3-9.3-6.5-18.5-9.8-27.8
		c-3-8.6-6-17.2-9.1-25.8c-3.9-11.1-7.8-22.2-11.7-33.2c-3.2-9.2-6.5-18.3-9.7-27.5c-2.3-6.5-6.9-9.8-13.8-9.8h-0.3
		c-1.7,0-3.4,0-5.2,0c-2.1,0-4.2,0-6.3,0c-2.1,0-4.2,0-6.3,0c-1.4,0-2.8,0-4.3,0C56.6,7.4,53.3,9.8,49.9,19.5l-8.2,23.6
		C29.5,78,17.3,112.9,5.2,147.8c-1,3-2.1,6.5-2,10.4c0.1,8,3.8,11.8,11.5,12.1c3.3,0.1,6.9,0.2,10.9,0.2c4.3,0,8.5-0.1,13.1-0.1
		c6.7-0.1,11.3-3.6,13.4-10l0.4-1.4c1.6-4.9,3.2-9.9,4.6-14.9c0.8-2.8,1.9-3.7,4.6-3.7H62c4.6,0.1,9.3,0.1,14.4,0.1
		c4.8,0,9.7,0,15.1-0.1h0.2c2.6,0,3.6,0.8,4.3,3.4c1.2,4.4,2.6,8.7,4,12.9l0.5,1.5c3.2,9.7,7.1,11.7,16.7,12.4
		c2.7,0.2,5.5,0.3,8.6,0.3c4.6,0,9.2-0.2,13.7-0.4c4.4-0.2,9-0.4,13.5-0.4c1.7,0,3.3,0,4.8,0.1c11,0.5,22.8,0.7,37.2,0.7
		c9.1,0,18.4-0.1,27.3-0.2c7.4-0.1,15-0.1,22.5-0.2c10.4,0,14.9-4.5,15.3-14.9c0.1-3.1,0.1-6.1,0-9.3c0-0.3,0-0.6,0-0.9
		c15.5,18.3,36.2,28.4,58.6,28.4c11.7,0,23.4-2.7,34.7-8.1c0.6-0.3,1.1-0.4,1.5-0.4c0.2,0,0.5,0,1.1,0.6c3.7,4.2,8.6,4.6,12.8,4.8
		c0.5,0,0.9,0,1.4,0c3,0,6-0.2,8.9-0.4c2.8-0.2,5.7-0.4,8.5-0.4c1.2,0,2.4,0,3.5,0.1c7,0.5,14,0.6,20,0.6c2.1,0,4.2,0,6.3,0h3.3
		c7.6,0,11.8-3.2,14.2-11l0.9-2.9c1.3-4.2,2.7-8.6,3.9-12.9c0.7-2.4,1.7-3.1,4-3.1h0.1c4.8,0.1,9.8,0.1,14.9,0.1
		c4.8,0,9.8,0,15.1-0.1h0.1c2.4,0,3.5,0.8,4.2,3.1l0,0.2c1.6,5.3,3.2,10.8,5.1,16.1c2.7,7.8,6.6,10.6,14.4,10.6c0.2,0,0.4,0,0.6,0
		c0.5,0,1.1,0,1.6,0c2.3,0,4.7,0.1,7,0.2c2.3,0.1,4.7,0.2,7.1,0.2c4.3,0,9.9-0.2,15.7-2c0.1,0,0.2-0.1,0.5-0.1
		c0.4,0,0.8,0.1,1.1,0.2c4,1.5,8.2,1.7,11.8,1.7c0.5,0,1.1,0,1.6,0c0.5,0,1.1,0,1.6,0c13,0,26,0,39,0c11.3,0,22.7,0,34,0h0.1
		c1.6,0,3.2,0,4.9,0c1.6,0,3.3,0,4.9,0c3.7,0,6.5-0.1,9.2-0.1c9-0.4,13.2-4.6,13.6-13.7c0.1-3.1,0.1-6.2,0.1-9.3c0-0.9,0-1.9,0-2.8
		c0-7.2-0.6-11.9-3.5-14.8c-2.9-2.9-7.6-3.5-14.8-3.5c-7.1,0-14.2,0-21.3,0h-9.7H593c-4.1,0-8.2,0-12.3,0c-2.2,0-4.8,0-5.3-0.4
		c-0.4-0.4-0.4-3.1-0.5-5.5c0-2.5,0-5,0-7.5c0-1.8,0-4.4,0.5-4.8c0.5-0.4,3.1-0.4,4.9-0.4c2.7,0,5.3,0,8,0s5.5,0,8.3,0
		c2.8,0,5.5,0,8.3,0c6.6,0,14.5,0,22.5-0.1c10.1-0.1,14.2-4.1,14.5-14.3c0.1-3.9,0.1-7.9,0-11.7v-0.8c-0.1-12.9-4.3-17-17.3-17.1
		c-7,0-14,0-20.6,0h-5h-5c-5,0-9.9,0-14.9,0c-0.5,0-0.9,0-1.3,0.1c-0.4,0-0.8,0-1.1,0c-0.7,0-0.9-0.1-0.9-0.1
		c-1.8-3.3-1.1-7.2-0.4-10.9c0.1-0.6,0.2-0.9,1.7-0.9c0.4,0,0.8,0,1.2,0c0.4,0,0.9,0,1.3,0h0c8.3,0,16.8,0,24.9,0
		c10.8,0,22,0,33-0.1c8.7-0.1,12.9-4.1,13.3-12.8c0.2-4.3,0.2-8.7,0.1-12.9l0-2.2C651,11.1,647.3,7.4,635,7.4c-13.2,0-26.5,0-39.7,0
		c-11.4,0-22.9,0-34.3,0H542h-0.2c-1.6,0-3.3,0-5,0.2c-6.1,0.7-9.9,4.3-10.7,10.3c-0.5,3.5-1,8.1-1,12.7c-0.1,26.2,0,52.9,0,78.7
		c0,7,0,14,0,20.9c-4-11.3-8-22.7-12-34c-5.4-15.3-10.8-30.6-16.2-45.8c-1.3-3.7-2.6-7.3-3.9-11c-2.5-6.9-5-14-7.4-21
		c-2.5-7.4-7.3-11-14.5-11c-0.2,0-0.5,0-0.8,0c-2.1,0.1-4.3,0.1-7,0.1c-1.9,0-3.9,0-5.8,0c-2,0-3.9,0-5.9,0c-0.9,0-1.8,0-2.7,0
		c-9.8,0.1-13.1,2.5-16.3,11.6c-8,22.8-16.1,46.1-24,68.6c-4.2,12.1-8.4,24.1-12.6,36.2c0-0.7,0-1.4,0-2.1c0-9.1,0-17.8,0-26.5
		c0-4.1-0.3-7.6-1-10.8c-1.3-6.2-5.3-9.7-11.3-9.7c-11.5-0.1-21.1-0.1-30-0.1c-9.5,0-18.2,0.1-26.5,0.1c-7.3,0.1-11.5,4.2-12,11.5
		c-0.4,6.3-0.4,12.7,0,19.2c0.4,6.6,3.7,10,10.8,11.3c3.2,0.6,6.5,0.7,9.6,0.8c1,0,2.1,0.1,3.1,0.1c0.2,0,0.3,0,0.5,0
		c0.9,0,1.9-0.1,2.8-0.2c0.9-0.1,1.7-0.2,2.4-0.2s1,0.1,1,0.1c0,0,0,0,0,0.1c0.5,1.9-2.9,4.5-5.1,6.2l-0.2,0.1
		c-5.3,4-11.2,6.1-17.2,6.1c-10.1,0-19.3-6-24.5-16.1c-6.1-11.8-7.2-25.2-3.3-40.9c1.8-7.1,5.3-13,10.9-17.8c4.3-3.7,10.6-6,17-6
		c10,0,18,5.2,21.4,13.9c2.5,6.4,7.3,9.6,14.6,9.8c3.1,0.1,6.4,0.1,10.2,0.1c2.6,0,5.2,0,7.8,0c6.9,0,11.3-1.6,13.8-4.8
		c2.5-3.2,2.9-7.9,1.4-14.3c-4.4-18.4-15-32.1-31.6-40.7C349.8,7,337.5,4.2,324.2,4.1L324.2,4.1L324.2,4.1z M74.4,97.8
		c-1.8,0-2.2-0.3-2.2-0.3c-0.3-0.5,0.1-2.7,1.4-6.5c0.9-2.9,1.9-5.8,2.8-8.7l0.1-0.2c0.1,0.5,0.3,0.9,0.4,1.4
		c1.3,4,2.6,8.2,3.8,12.3c0.3,0.9,0.1,1.1,0.1,1.1c0,0-0.3,0.3-1.6,0.5C77,97.7,75.5,97.8,74.4,97.8L74.4,97.8L74.4,97.8z
		 M454.4,97.1c0-0.1,0-0.4,0.1-0.8c0.2-0.7,0.4-1.4,0.6-2.1c1.1-3.9,2.2-7.7,4-11.4l0.2,0.5c1.4,4.4,2.8,8.9,4.2,13.4
		c0.1,0.2,0.1,0.3,0.1,0.4c-1.6,0.1-3.1,0.2-4.6,0.2s-3-0.1-4.4-0.2C454.4,97.1,454.4,97.1,454.4,97.1L454.4,97.1L454.4,97.1z"/>
</g>
</svg>
