<?xml version="1.0" encoding="utf-8"?>
<!-- Generator: Adobe Illustrator 27.3.1, SVG Export Plug-In . SVG Version: 6.00 Build 0)  -->
<svg version="1.1" id="Livello_2_00000028307350177703535790000012498690390398358202_"
	 xmlns="http://www.w3.org/2000/svg" xmlns:xlink="http://www.w3.org/1999/xlink" x="0px" y="0px" viewBox="0 0 958.1 176.8"
	 style="enable-background:new 0 0 958.1 176.8;" xml:space="preserve">
<style type="text/css">
	.st0{fill:#FFFFFF;stroke:#FFFFFF;stroke-width:2;stroke-miterlimit:10;}
</style>
<g id="Livello_1-2">
	<g>
		<path class="st0" d="M330.6,5.6c13.2,0,25.9,2.7,37.8,9.3c5.2,2.9,9.6,7.1,14.5,10.9c1.6-2.2,0.9-4.4,1.1-6.5
			c0.9-7.5,3.7-10.6,11.3-10.6c18.5-0.1,37-0.2,55.5-0.2s35.6,0.1,53.5,0.4c3.4,0.1,6.7,0.1,10,0.1s6.7,0,10.1-0.1
			c16.1-0.3,32.1-0.4,48.2-0.4c16.9,0,33.8,0.1,50.8,0.2c7.6,0,10.2,2.4,11.2,9.9c0.9,6.6,0.8,13.3,0,19.9
			c-0.9,7.8-3.6,10.1-11.5,10.2c-5,0.1-10.1,0.1-15.2,0.1c-4.3,0-8.7,0-13,0c-0.6,0-1.2,0-1.9,0c-5.4,0-10.8,0-16.3,0
			c-3.9,0-7.8,0-11.7-0.1c-0.1,0-0.2,0-0.4,0c-4.2,0-5.9,1.5-5.9,6c0,9.8-0.2,9.8,9.8,9.8c0.6,0,1.2,0,1.9,0c7.1,0,14.3,0,21.4,0
			c6.4,0,12.8,0,19.2,0c11,0.1,13.9,3,14,14c0,4.8,0.1,9.7,0,14.5c-0.2,7.9-3.3,11.3-11.3,11.4c-6.3,0.1-12.7,0.1-19,0.1
			c-4.3,0-8.7,0-13,0c-3.5,0-7,0-10.5,0c-0.4,0-0.7,0-1.1,0c-2.1,0-3.8,0-5.2,0c-7.2,0-6,0.9-6.1,12.2c-0.1,10.5,0,10.5,10.6,10.5
			c11.2,0,22.5,0,33.7,0c6.4,0,12.8,0,19.3-0.1c0.1,0,0.1,0,0.2,0c5.6,0,10.1,1.5,13.3,7.1c0-2.1,0-4.2,0-6.4c0-33.8,0-67.6,0-101.4
			c0-1.3,0-2.7,0-4c0.2-11.3,3-14.2,14.4-14.2c11.6,0,23.2-0.1,34.7-0.1c9.9,0,19.8,0.1,29.7,0.2c14.7,0.2,27.7,5,38,16.2
			c5.8,6.2,9.3,13.5,10.5,21.7c2.2,15.5,0.9,30.4-11.6,41.9c-1.7,1.6-3,3.3-1.1,5.6c8.9,10.6,9.1,23.6,10.3,36.3
			c0.8,8.1,0.9,16.2,3.4,24.1c2.4,7.5-1.8,12.8-9.7,13.1c-3.6,0.1-7.1,0.1-10.7,0.1c-3.8,0-7.5-0.1-11.3-0.1
			c-7.3-0.2-10.9-3.1-12.7-10.4c-1.9-8.1-2.4-16.5-2.9-24.8c-0.2-3.3-0.5-6.7-1.4-9.9c-1.9-6.9-7.6-11.3-15.6-11.8
			c-1.6-0.1-3.2-0.1-4.8-0.1c-1.5,0-2.9,0-4.4,0c-1.3,0-2.5,0-3.8-0.1c-0.2,0-0.3,0-0.5,0c-3.6,0-4.7,1.9-4.6,5.5
			c0.1,11.7,0.1,23.3,0,35c0,2.3-0.1,4.7-0.6,6.9c-1.3,6.6-4.2,9.3-10.8,9.6c-3.5,0.1-7,0.1-10.5,0.1c-4.2,0-8.3-0.1-12.5-0.1
			c-5.8-0.1-9.7-2.9-11.8-9.1c-2.2,8.6-8.4,9.2-15.1,9.2c-0.1,0-0.1,0-0.2,0c-12.2,0-24.4,0-36.5,0c-8,0-16,0-24.1,0
			c-10.8,0-21.5,0-32.3,0c-11.4,0-14.4-3.1-14.4-14.7c0-33,0-65.9,0-98.9c0-4.8,0-5.8-2.7-5.8c-0.9,0-2,0.1-3.5,0.2
			c-5.3,0.3-10.6,0.3-15.9,0.3c-1.9,0-3.7,0-5.5,0s-3.7,0-5.5,0c-6.3,0.1-6.8,0.5-6.8,6.9c0,30.6,0,61.3,0,91.9
			c0,3.1-0.2,6.3-0.7,9.4c-1.1,7.7-4,10.3-11.9,10.5c-3.2,0.1-6.4,0.1-9.6,0.1s-6.3,0-9.4-0.1c-11.2-0.1-14.3-3.2-14.4-14.3
			c0-31.5,0-62.9,0-94.4c0-10,0-10.1-9.9-10.1h-0.2c-3.5,0-7.1,0-10.6,0c-2.1,0-4.2,0-6.4,0c-0.1,0-0.1,0-0.2,0
			c-3.4,0-4.6,1.5-3.7,4.9c0.4,1.4,0.6,2.9,0.8,4.4c0.5,6.8-3.3,11.3-10.1,11.5c-3.2,0.1-6.3,0.1-9.5,0.1c-5,0-10-0.1-15-0.1
			c-4.9,0-8.4-2.4-10-6.9c-3.7-10.6-10.8-16.2-22.2-16.2c-0.1,0-0.1,0-0.2,0c-12.3,0.1-20.9,6.3-25.4,17c-7.7,17.9-7.5,36,2.5,53.3
			c5,8.7,14.2,13.5,23.4,13.5c5.2,0,10.3-1.5,14.8-4.7c4-2.9,6.2-7,7.6-11.4c1.9-6.2,6.1-8.7,12.2-8.7c0.1,0,0.1,0,0.2,0
			c1,0,1.9,0,2.9,0c3.5,0,7.1,0,10.6,0c2.4,0,4.7,0,7,0.1c8.7,0.2,12.5,3.8,11.6,12.5c-2.3,22.8-14.7,39.1-35.9,47
			c-10.6,4-21.1,6.1-31.5,6.1c-15.6,0-30.8-4.7-45.2-14.7c-5.1-3.5-9.3-8.1-13.3-12.8c-0.9-1.1-1.4-2.7-3.3-2.8
			c-1.1,1.7,0.1,3.2,0.5,4.7c0.6,1.9,1.5,3.7,2,5.6c3.2,11.2-0.6,16.3-12.1,16.4c-3.3,0-6.6,0.1-9.9,0.1c-3.5,0-7,0-10.5-0.1
			c-7.5-0.2-10.9-2.8-13.1-9.9c-1.6-5.1-3.3-10.1-4.8-15.3c-0.9-3.4-2.8-4.8-6.3-4.8c-0.1,0-0.1,0-0.2,0c-4.8,0.1-9.6,0.1-14.4,0.1
			c-5.2,0-10.4,0-15.6-0.1c0,0-0.1,0-0.1,0c-3.1,0-4.8,1.2-5.7,4.3c-1.7,5.9-3.8,11.7-5.5,17.6c-1.5,5.2-5.3,7.8-10.3,7.9
			c-4.5,0.2-9.1,0.2-13.6,0.2c-4.1,0-8.2-0.1-12.3-0.2c-5.5-0.2-8.6-4-8.8-9.6c-0.1-2.3,0.2-4.5,0.4-7.6c-5.2,4.1-9.6,8.1-15,10.7
			c-8.7,4.2-17.8,6.6-27.5,6.6c-11.4,0.1-22.9,0.1-34.4,0.1c-10,0-20.1,0-30.1-0.1c-10.2,0-12.5-2.2-13.8-12.2c-0.4-3-0.6-6-0.6-8.9
			c0-38.3,0-76.6,0-114.9c0-4.2,0.2-8.3,0.8-12.5C8,11.4,10.8,8.7,18.7,8.6c9.3-0.1,18.7-0.1,28-0.1c6.5,0,13,0,19.5,0.1
			c0.7,0,1.5,0,2.2,0c2.6,0,5.3,0,7.9,0c8.8,0,17.5,0.3,26.1,2.9c29.4,8.8,40.7,43.3,21.7,67.5c-1.6,2-3,3.4-0.5,5.8
			c9.2,8.9,13.7,19.9,13.7,32.7c0,0.6,0.3,1.2,0.6,2.4c2.6-3,3.2-6.3,4.2-9.2c10.8-30.6,21.4-61.3,32.1-92c2.8-8,5.4-10,13.9-10.1
			c3.5-0.1,7-0.1,10.5-0.1s7.3,0,11,0.1c8.3,0.1,11.2,2.3,13.9,10.2c9.2,26.1,18.4,52.1,27.7,78.2c0.4,1.1,0.9,2.1,1.5,3.7
			c1.2-1.4,0.5-2.5,0.5-3.5c-1.2-22.9,2.6-44.6,16.7-63.3c13.7-18.2,32.5-26.9,55-28.1C326.9,5.6,328.8,5.5,330.6,5.6 M685.9,71.6
			c0,0,0.1,0,0.1,0c1.3,0,2.6,0,3.9,0c2,0,4,0,6,0c0.3,0,0.5,0,0.8,0c1.3,0,2.7,0,4,0c3.4,0,6.8-0.2,10.1-1.2c6.1-2,8.4-5.3,8-11.5
			c-0.4-5.3-3.9-9.2-9.5-9.9c-6-0.8-12-1.2-18.1-1.2c-1.6,0-3.2,0-4.8,0.1c-3.1,0.1-4.6,1.4-4.6,4.5c0,5,0,10,0,15
			C681.8,70.2,683.1,71.6,685.9,71.6 M55.5,65.6C55.5,65.6,55.5,65.6,55.5,65.6L55.5,65.6c4.5,0,9,0.2,13.5,0.2
			c3.5,0,7-0.1,10.5-0.6c5.5-0.8,8.6-4.1,8.5-8.2c-0.1-4.3-3.7-7.7-9.2-8.1c-1.4-0.1-2.9-0.2-4.4-0.2c-2.4,0-4.7,0.1-7.1,0.1v-0.1
			c-2.1,0-4.2,0-6.3,0c-1.4,0-2.8,0-4.2,0c0,0-0.1,0-0.1,0c-2.6,0-4.8,0.9-4.3,3.9c0.6,4.3-2.4,9.3,2.3,12.9
			C54.7,65.6,55.1,65.6,55.5,65.6 M198.9,98.7c0.3-0.2,0.7-0.2,1.1-0.2c0.9,0,2,0.2,2.9,0.2c1.4,0,2.5-0.6,1.9-3.7
			c-1-5.2-3-10.2-4.6-15.2c-0.3-0.8-0.5-1.9-1.6-1.9c-0.1,0-0.2,0-0.3,0c-0.9,0.1-1.2,1.1-1.4,1.9c-1.2,3.9-2.4,7.9-3.7,11.9
			C191.7,96.3,193.6,98.7,198.9,98.7 M61.7,103.8c-0.5,0-0.9,0-1.4,0c-0.9,0-1.6,0-2.3,0c-5.8,0-5.8,0.9-5.8,8.3c0,0.3,0,0.7,0,1
			c0.2,13.6-1.4,14.5,7.2,14.5c1.4,0,3.1,0,5.1,0c0.8,0,1.7,0,2.7,0c0.8,0,1.7,0,2.5,0c0.8,0,1.6,0,2.4,0c2.8,0,5.7-0.1,8.6-0.7
			c6.6-1.4,10.3-5.2,10.4-10.9c0.1-5.9-3.2-9.6-9.9-11.3c-3.4-0.9-6.9-1.1-10.4-1.1C67.7,103.6,64.7,103.8,61.7,103.8 M330.6,3.6
			c-1.9,0-3.8,0-5.7,0.2c-24,1.3-43,11-56.5,28.9c-11.8,15.6-17.5,34.5-17.3,57.7c-8.5-24.1-17.1-48.1-25.6-72.2
			c-3.1-8.7-6.8-11.4-15.8-11.5c-3.7-0.1-7.4-0.1-11-0.1s-7.1,0-10.6,0.1c-9.3,0.1-12.7,2.6-15.8,11.4l-4.2,12.2
			c-9.1,26.2-18.5,53.2-27.8,79.8c-0.2,0.6-0.4,1.2-0.6,1.9c-0.2,0.6-0.4,1.1-0.5,1.7c-0.9-11.8-5.6-21.9-14.1-30.2
			c-0.7-0.7-0.5-1.6,0.4-2.8l0.3-0.3c9.4-12,12.2-27,7.7-41.2C128.8,24.7,117.7,14,103,9.6c-9.2-2.7-18.2-2.9-26.7-2.9
			c-1.3,0-2.6,0-3.9,0c-1.3,0-2.6,0-3.9,0c-0.7,0-1.5,0-2.2,0c-6.2,0-12.8-0.1-19.5-0.1c-8.9,0-18,0-28,0.1C9.9,6.7,6.2,10.1,5,18.9
			c-0.5,3.8-0.8,7.9-0.8,12.7c0,16.1,0,32.2,0,48.3c0,22.2,0,44.4,0,66.6c0,3.1,0.2,6.2,0.6,9.2c1.4,11,4.7,13.9,15.8,13.9
			c11.7,0,21.3,0.1,30.1,0.1c12.5,0,23.8,0,34.4-0.1c9.5-0.1,19.1-2.4,28.3-6.8c4.3-2.1,8-5,11.8-8.1c-0.1,1.1-0.1,2.1-0.1,3.1
			c0.1,6.8,4.3,11.3,10.7,11.6c4,0.1,8.2,0.2,12.4,0.2c4.5,0,9.1-0.1,13.7-0.2c6.1-0.2,10.4-3.5,12.2-9.4c0.8-2.7,1.7-5.4,2.5-8
			c1-3.1,2.1-6.4,3-9.6c0.6-2.2,1.5-2.8,3.7-2.8h0.1c4.6,0,10,0.1,15.6,0.1c5.3,0,10,0,14.4-0.1h0.1c2.5,0,3.6,0.9,4.3,3.4
			c1,3.6,2.2,7.2,3.3,10.8c0.5,1.5,1,3,1.5,4.6c2.5,8.1,6.6,11.1,15,11.3c3.2,0.1,6.7,0.1,10.6,0.1c3.4,0,6.8,0,10-0.1
			c6.5-0.1,10.8-1.6,13.1-4.8c2.4-3.2,2.7-7.8,0.9-14.1c-0.3-1.1-0.7-2.1-1.1-3.1c-0.2-0.5-0.4-0.9-0.5-1.4
			c3.6,4.2,7.6,8.5,12.6,11.9c14.4,10,30,15,46.3,15c10.4,0,21.3-2.1,32.2-6.2c21.9-8.2,34.7-25,37.2-48.7c0.5-4.8-0.3-8.3-2.5-10.8
			c-2.2-2.5-5.8-3.8-11-3.9c-2.1-0.1-4.4-0.1-7.1-0.1c-1.8,0-3.5,0-5.3,0c-1.8,0-3.5,0-5.3,0c-1,0-1.9,0-2.9,0h-0.2
			c-7.3,0-12,3.4-14.1,10.1c-1.5,4.8-3.7,8.2-6.8,10.4c-3.9,2.8-8.6,4.3-13.6,4.3c-8.9,0-17.2-4.8-21.6-12.5
			c-9.3-16.2-10.1-33.5-2.4-51.5c4.4-10.2,12.5-15.7,23.6-15.8h0.2c10.3,0,16.8,4.7,20.3,14.8c1.9,5.3,6.1,8.2,11.9,8.2
			c2.3,0,4.6,0,6.9,0c2.7,0,5.4,0,8.1,0c3.6,0,6.7,0,9.5-0.1c3.8-0.1,7-1.4,9.1-3.8c2.2-2.4,3.2-5.9,2.9-9.9
			c-0.1-1.6-0.4-3.2-0.8-4.8c-0.3-1.3-0.2-1.9-0.1-2c0.1-0.2,0.6-0.4,1.9-0.4h0.2c1.9,0,3.9,0,6.4,0c1.8,0,3.6,0,5.3,0
			c1.8,0,3.5,0,5.3,0h0.2c3.7,0,6.6,0,7.2,0.7c0.7,0.7,0.7,3.5,0.7,7.4c0,9,0,18,0,27c0,22.1,0,44.9,0,67.4c0,12.2,4,16.2,16.3,16.3
			c3,0,6.2,0.1,9.4,0.1c3.6,0,6.7,0,9.6-0.1c8.8-0.2,12.6-3.5,13.8-12.2c0.5-3.3,0.7-6.6,0.7-9.7c0-18.7,0-37.7,0-56.1
			c0-11.9,0-23.9,0-35.8c0-1.3,0-4,0.4-4.4c0.4-0.4,3-0.5,4.4-0.5c1.8,0,3.7,0,5.5,0h2.8h2.8c4.8,0,10.5,0,16-0.3
			c0.4,0,0.8,0,1.2-0.1c0.9-0.1,1.7-0.1,2.2-0.1c0.3,0,0.5,0,0.6,0c0.1,0.6,0.1,2.2,0.1,3.7c0,10.6,0,21.2,0,31.8
			c0,22,0,44.8,0,67.2c0,12.6,4,16.6,16.4,16.7c10.8,0,21.6,0,32.3,0h12h12c10.8,0,23.7,0,36.5,0h0.2c4.5,0,11.5,0,15.3-6.2
			c2.5,4,6.4,6,11.6,6.1c3.9,0.1,8.2,0.1,12.5,0.1c3.9,0,7.4-0.1,10.6-0.2c7.5-0.2,11.2-3.6,12.7-11.2c0.4-2.1,0.6-4.4,0.6-7.3
			c0.1-12.4,0.1-23.6,0-35c0-1.5,0.2-2.5,0.6-2.9c0.3-0.3,1-0.5,2-0.5c0.1,0,0.3,0,0.4,0c1.1,0.1,2.3,0.1,3.9,0.1c0.7,0,1.5,0,2.2,0
			c0.7,0,1.5,0,2.2,0c1.3,0,3,0,4.6,0.1c7.1,0.5,12.1,4.2,13.8,10.3c0.8,2.9,1.1,5.9,1.3,9.5l0.1,1.7c0.5,7.7,1,15.6,2.8,23.4
			c1.9,8.2,6.3,11.7,14.6,11.9c3.9,0.1,7.7,0.1,11.3,0.1s7.3-0.1,10.8-0.1c4.6-0.1,8.3-1.8,10.4-4.8c2-2.9,2.4-6.7,1.1-10.9
			c-1.9-6-2.4-12.1-2.9-18.6c-0.1-1.7-0.3-3.4-0.4-5.1c-0.1-1.3-0.2-2.7-0.4-4.1c-1-11.5-2-23.5-10.4-33.4c-0.6-0.7-0.9-1.1,0.9-2.8
			c14.4-13.4,14.1-30.4,12.2-43.7c-1.2-8.5-4.9-16.2-11-22.8c-10.1-10.9-23.3-16.5-39.4-16.8c-8.8-0.2-18.2-0.2-29.8-0.2
			c-7.1,0-14.3,0-21.2,0.1c-4.5,0-9,0-13.5,0c-8.5,0-12.9,1.7-15,6.8c-1.8-4.8-5.4-6.7-12.1-6.7c-5.4,0-10.8,0-16.2-0.1
			c-11.3,0-23-0.1-34.5-0.1c-18.7,0-34,0.1-48.2,0.4c-3.3,0.1-6.7,0.1-10,0.1c-3.4,0-6.6,0-10-0.1c-15.8-0.3-32.8-0.4-53.5-0.4
			c-13,0-26.3,0-39.1,0.1c-5.5,0-10.9,0.1-16.4,0.1c-8.3,0-12.3,3.7-13.2,12.4c-0.1,0.7-0.1,1.4,0,2.1c0,0.5,0,0.9,0,1.3
			c-0.7-0.5-1.3-1.1-2-1.6c-3.3-2.7-6.8-5.5-10.6-7.7C357.9,6.7,345.2,3.6,330.6,3.6L330.6,3.6L330.6,3.6z M607.9,50.9
			c4.2,0,9.7,0,15.2-0.1c5.3-0.1,8.7-1.2,10.8-4v47.7l0,33.8v0.8c-3.6-3-7.8-3.5-11.3-3.5h-0.2c-5.8,0-11.9,0.1-19.2,0.1
			c-6,0-12,0-18,0c-5.2,0-10.5,0-15.8,0c-4.2,0-7.2,0-7.9-0.8s-0.7-3.8-0.7-7.8c0-1.5,0-2.9,0-4.1c0-2.6,0-5.3,0.4-5.7
			c0.4-0.4,2.9-0.4,3.7-0.4c0.6,0,1.3,0,2,0c0.9,0,2,0,3.1,0c0.3,0,0.7,0,1.1,0c3.5,0,7,0,10.5,0c2.2,0,4.3,0,6.5,0
			c2.2,0,4.3,0,6.5,0c5.6,0,12.3,0,19-0.1c9-0.1,13-4.3,13.3-13.4c0.1-5.1,0.1-10.2,0-14.6c-0.1-12.1-4-15.9-16-16
			c-5.6,0-11.5,0-19.2,0c-3.6,0-7.1,0-10.7,0s-7.1,0-10.7,0h-1.9c-3.7,0-6.5,0-7.2-0.6c-0.6-0.6-0.6-3.3-0.6-6.7v-0.5
			c0-1.6,0.3-2.8,0.8-3.3c0.5-0.5,1.5-0.8,3.1-0.8c0.1,0,0.2,0,0.3,0c3.5,0.1,7.2,0.1,11.8,0.1c2.9,0,5.8,0,8.7,0c2.5,0,5,0,7.5,0
			h1.9c2.2,0,4.3,0,6.5,0S605.7,50.9,607.9,50.9L607.9,50.9L607.9,50.9z M685.9,69.6c-0.6,0-1.3-0.1-1.6-0.4
			c-0.3-0.3-0.5-0.9-0.4-1.8c0-4.5,0-9.4,0-15c0-1.7,0.4-2.4,2.7-2.5c1.6,0,3.2-0.1,4.7-0.1c6.2,0,12.2,0.4,17.8,1.2
			c4.5,0.6,7.4,3.6,7.8,8.1c0.4,5.3-1.3,7.8-6.6,9.4c-2.9,0.9-5.9,1.1-9.5,1.1c-0.7,0-1.3,0-2,0c-0.7,0-1.3,0-2,0
			c-0.3,0-0.5,0-0.8,0c-1,0-2,0-3,0s-2,0-3,0C688.7,69.6,687.3,69.6,685.9,69.6L685.9,69.6L685.9,69.6z M55.5,63.6
			c-1.9-1.6-1.7-3.5-1.4-6.6c0.2-1.5,0.4-3.1,0.2-4.8c0-0.3-0.1-0.9,0.1-1.1c0.2-0.2,0.9-0.5,2.2-0.5h0.1c1.4,0,2.8,0,4.2,0
			c1,0,2.1,0,3.2,0c0.8,0,1.6,0,2.4,0c0.2,0.1,0.5,0.1,0.7,0.1c1.2,0,2.4,0,3.6,0c1.2,0,2.3,0,3.5,0c1.6,0,3,0,4.2,0.1
			c4.3,0.3,7.3,2.8,7.3,6.2c0.1,3.3-2.4,5.6-6.7,6.2c-2.9,0.4-6.2,0.6-10.2,0.6c-2.2,0-4.5-0.1-6.7-0.1
			C60.1,63.7,57.8,63.6,55.5,63.6L55.5,63.6L55.5,63.6z M194,96.5c0.1-0.8,0.6-2.5,1.2-4.2l0-0.1c0.7-2.2,1.4-4.5,2.1-6.6
			c0.5-1.5,0.9-3,1.4-4.4c0.4,1.2,0.8,2.4,1.2,3.6c1.2,3.5,2.4,7.1,3.1,10.6c0.1,0.7,0.1,1.1,0.1,1.3c0,0-0.1,0-0.1,0
			c-0.4,0-0.8-0.1-1.2-0.1c-0.5-0.1-1.1-0.1-1.7-0.1s-1.1,0.1-1.5,0.2C196.6,96.7,194.7,96.7,194,96.5C194,96.5,194,96.5,194,96.5z
			 M61.7,105.8c1.5,0,3.1,0,4.6-0.1c1.5,0,3-0.1,4.5-0.1c2.8,0,6.4,0.1,9.9,1c5.8,1.4,8.4,4.4,8.3,9.3c-0.1,4.7-3,7.7-8.8,8.9
			c-2.8,0.6-5.7,0.6-8.2,0.6h-1.2h-1.2c-0.7,0-1.6,0-2.5,0c-1,0-1.8,0-2.7,0c-1.1,0-2.1,0-3,0c-0.8,0-1.5,0-2.1,0
			c-1.5,0-4.2,0-4.7-0.5c-0.6-0.6-0.5-3.4-0.5-6.6c0-1.6,0-3.3,0-5.4c0-0.2,0-0.4,0-0.7V112c0-2.9,0-5.2,0.4-5.9
			c0.2-0.3,1.3-0.4,3.4-0.4c0.7,0,1.4,0,2.3,0C60.8,105.8,61.2,105.8,61.7,105.8L61.7,105.8L61.7,105.8z"/>
		<path class="st0" d="M788.2,8.6c3.2,0,6.3,0,9.5,0.1c10.2,0.1,13.2,2.9,13.2,13.1c0.1,35.8,0,71.6,0.1,107.4c0,2.9-0.5,6,1.6,9.9
			c2.6-7.3,5-13.6,7.2-20c11.4-32.7,22.8-65.4,34.1-98.1c3.7-10.7,5.7-12.2,16.9-12.3c0.8,0,1.6,0,2.3,0c4.3,0,8.6,0.1,12.9,0.1
			c1.7,0,3.5,0,5.2,0c0.1,0,0.2,0,0.3,0c6,0,9.9,2.7,11.9,8.4c4.7,13.3,9.5,26.7,14.2,40c10.6,30,21.1,60,31.7,90
			c0.7,1.9,1.3,3.8,1.8,5.7c2.4,9.5-1.7,14.9-11.5,15c-3.4,0-6.8,0.1-10.2,0.1s-6.8,0-10.3-0.1c-8.3-0.1-11.4-2.4-14-10.1
			c-1.7-5.1-3.3-10.1-4.8-15.2c-0.9-3.2-2.6-4.7-5.9-4.7c0,0-0.1,0-0.1,0c-5,0.1-10,0.1-15,0.1s-10.3,0-15.5-0.1c0,0-0.1,0-0.1,0
			c-3.1,0-4.8,1.4-5.7,4.3c-1.6,5.6-3.5,11.1-5.2,16.7c-1.8,5.7-5.6,8.9-11.5,8.9c-0.1,0-0.2,0-0.3,0c-0.6,0-1.2,0-1.7,0
			c-4.8,0-9.6,0.3-14.4,0.3s-9.8-0.4-14.7-1.8c-0.5-0.1-1-0.2-1.5-0.2c-2.3,0-4.5,1.4-6.8,1.6c-4.6,0.3-9.2,0.4-13.9,0.4
			s-9.1-0.1-13.6-0.4c-4.3-0.3-6.9-2.8-8.1-7c-0.7-2.4-0.8-4.9-0.8-7.4c0-42.8,0-85.6,0-128.4c0-2.2,0-4.4,0.3-6.5
			c1-6.7,3.9-9.3,10.7-9.5C780.6,8.6,784.4,8.6,788.2,8.6 M876.9,98.9c1.2,0,2.8-0.1,4.7-0.3c0.3,0,0.7,0,1-0.1
			c2.3-0.2,3.4-1.4,2.8-3.6c-1.8-6-3.6-12-5.5-17.9c-0.5,0-1,0-1.5,0.1c-1.3,4.2-2.7,8.4-4,12.6C871.9,97.1,871.7,98.9,876.9,98.9
			 M788.2,6.6c-4.2,0-8,0-11.5,0.1c-7.7,0.2-11.4,3.5-12.6,11.2c-0.3,2.1-0.3,4.2-0.3,6.3v0.5c0,32.7,0,65.4,0,98.1V153
			c0,2.4,0.1,5.1,0.8,8c1.5,5.2,4.9,8.1,9.9,8.4c4.5,0.3,9.1,0.4,13.7,0.4s9.3-0.1,14-0.4c1.4-0.1,2.6-0.5,3.7-0.9
			c1-0.4,2-0.7,2.9-0.7c0.3,0,0.6,0,0.9,0.1c4.4,1.3,9.1,1.9,15.2,1.9c2.4,0,4.9-0.1,7.3-0.2c2.3-0.1,4.8-0.2,7.1-0.2
			c0.6,0,1.1,0,1.7,0c0.1,0,0.2,0,0.3,0c6.5,0,11.3-3.7,13.4-10.3c0.5-1.4,0.9-2.9,1.4-4.3c1.3-4.1,2.6-8.3,3.8-12.4
			c0.6-2.2,1.6-2.9,3.8-2.9h0.1c5.5,0,10.6,0.1,15.5,0.1c5.3,0,10.2,0,15-0.1h0.1c2.3,0,3.3,0.8,4,3.2c1.5,5.4,3.3,10.7,4.8,15.3
			c2.9,8.6,6.7,11.4,15.9,11.5c3.3,0.1,6.8,0.1,10.3,0.1s6.8,0,10.2-0.1c5.5-0.1,9.5-1.7,11.8-4.7c2.4-3.1,2.9-7.4,1.5-12.8
			c-0.5-1.9-1.1-3.7-1.7-5.5l-0.1-0.4c-9.8-27.7-20.8-59.1-31.7-90c-2.6-7.3-5.2-14.6-7.8-21.9c-2.2-6-4.3-12.1-6.4-18.1
			c-2.3-6.5-6.9-9.7-13.8-9.7h-0.3c-1.6,0-3.3,0-5.2,0c-2.2,0-4.3,0-6.5,0c-2.2,0-4.3,0-6.5,0c-0.8,0-1.6,0-2.4,0
			c-12,0.1-14.8,2.1-18.8,13.6c-10,28.9-20.8,60.1-34.1,98.1c-1.5,4.3-3.1,8.6-4.7,13.2c-0.1,0.2-0.2,0.5-0.3,0.7c0-0.5,0-1.1,0-1.6
			c0-0.5,0-1,0-1.5c0-15.9,0-31.8,0-47.8c0-19.5,0-39.8,0-59.6c0-11.2-3.8-15-15.2-15.1C793.9,6.6,791,6.5,788.2,6.6L788.2,6.6
			L788.2,6.6z M874.7,96.7c-0.3-0.9,0.9-4.6,1.5-6.3c1-2.9,1.9-5.8,2.8-8.7c0-0.1,0.1-0.2,0.1-0.3c0.1,0.4,0.3,0.9,0.4,1.4
			c1.3,4.2,2.6,8.5,3.9,12.8c0.2,0.6,0.1,0.8,0.1,0.8c0,0.1-0.3,0.2-1.1,0.3c-0.1,0-0.3,0-0.4,0c-0.2,0-0.4,0-0.6,0
			c-1.6,0.1-3.2,0.2-4.5,0.2C875.3,96.9,874.8,96.7,874.7,96.7L874.7,96.7L874.7,96.7z"/>
	</g>
</g>
</svg>
