<?xml version="1.0" encoding="utf-8"?>
<!-- Generator: Adobe Illustrator 27.3.1, SVG Export Plug-In . SVG Version: 6.00 Build 0)  -->
<svg version="1.1" id="Livello_2_00000069381580527487162320000014064879229923138181_"
	 xmlns="http://www.w3.org/2000/svg" xmlns:xlink="http://www.w3.org/1999/xlink" x="0px" y="0px" viewBox="0 0 366 238"
	 style="enable-background:new 0 0 366 238;" xml:space="preserve">
<style type="text/css">
	.st0{fill:#FFFFFF;stroke:#FFFFFF;stroke-width:2;stroke-miterlimit:10;}
</style>
<g id="Livello_1-2">
	<g>
		<path class="st0" d="M83.6,4.3c11.3,0,22.2,2,32.7,7c14.2,6.8,24.1,17.5,29.7,32.2c0.6,1.5,0.5,3.8,2.5,3.9c0,0,0,0,0.1,0
			c1.9,0,2.1-2.3,2.8-3.7c13.7-25.6,35.4-38,63.9-39.2c1.5-0.1,3-0.1,4.5-0.1c16.2,0,31.3,3.9,44.7,13.7
			c19.7,14.5,28.6,34.9,31,58.7c1.6,16,0,31.6-6,46.6c-11.5,29-36.5,46-67.7,46.3c-0.4,0-0.9,0-1.3,0c-0.7,0-1.5,0-2.2,0
			c-0.4,0-0.8,0-1.2,0c-20.6,0-38.7-6.8-53.4-21.6c-5.2-5.2-9.1-11.4-12.5-18c-0.5-1.1-0.9-2.6-2.4-2.6c-0.1,0-0.2,0-0.3,0
			c-1.4,0.2-1.6,1.6-2,2.6c-9.5,25.3-29.2,36.7-54.8,39.2c-3.3,0.3-6.6,0.5-9.8,0.5c-16.2,0-31.5-4.2-45.1-14.4
			C20.4,143,10.9,126.2,7.3,106C2.9,80.6,6.2,56.4,20.9,34.7C34.2,15.2,53.7,6.1,76.8,4.5C79.1,4.4,81.4,4.3,83.6,4.3 M218.8,129.6
			c9.1,0,18.2-4.5,23.9-13.4c5.7-8.8,7.2-18.8,6.8-29.7c0.4-6.9-0.5-14.1-3.2-21c-3.3-8.5-8.3-15.6-17.3-18.9
			c-3.5-1.3-7.1-1.9-10.5-1.9c-10.6,0-20.3,6-25.4,17c-8.1,17.6-8,35.8,1.1,53C199.6,124.6,209.1,129.6,218.8,129.6 M83.2,129.5
			c8.6,0,16.6-4.2,19.6-12.2c3.6-9.5,9.1-13.2,17.3-13.2c1.3,0,2.6,0.1,4,0.2c0.4,0,0.7,0.1,1.1,0.1c0.6,0,1.3,0,1.9,0v0
			c2.1,0,4.3-0.1,6.4-0.1c1.4,0,2.7,0,4.1,0.1c0.2,0,0.4,0,0.5,0c3.3,0,4.8-1.6,4.2-5.1c-1.3-8.5-1.2-16.9,0.1-25.3
			c0.6-4-1.1-5.5-4.9-5.5c-0.2,0-0.3,0-0.5,0c-2,0.1-4.1,0.1-6.1,0.1c-3.4,0-6.7-0.1-10.1-0.1c-1.6,0-3.2,0-4.8,0.1
			c-0.2,0-0.3,0-0.5,0c-5.9,0-9.9-2.8-11.6-8.4C101,49.9,91.8,45.5,82.5,45.5c-7,0-14,2.5-18.5,6.8c-8,7.8-10.9,17.5-11.9,27.8
			c-1.5,15.7,0.5,30.7,12.9,42.3C70.1,127.1,76.8,129.5,83.2,129.5 M83.6,2.3c-2.2,0-4.6,0.1-6.9,0.2C51.4,4.3,32.1,14.7,19.3,33.6
			C5.2,54.3,0.5,78.8,5.4,106.4c3.7,21.3,14,38.3,30.4,50.6c13.1,9.8,28.7,14.8,46.3,14.8c3.2,0,6.6-0.2,10-0.5
			c13.6-1.3,25.2-5.1,34.3-11.4c10-6.8,17.4-16.6,22.1-29.1c0.1-0.2,0.1-0.4,0.2-0.6c0.1-0.1,0.1-0.3,0.2-0.5
			c0.1,0.2,0.2,0.4,0.3,0.6c0.1,0.2,0.2,0.4,0.3,0.7c3.9,7.6,8,13.7,12.8,18.5c14.6,14.7,33.1,22.2,54.8,22.2c0.4,0,0.8,0,1.2,0h1.1
			h1.1c0.4,0,0.9,0,1.3,0c15.7-0.1,30.4-4.5,42.4-12.7c12-8.2,21.4-20.2,27.2-34.8c5.8-14.5,7.8-30.5,6.1-47.6
			c-2.7-26.7-13.1-46.4-31.8-60.1C252.8,7,237.8,2.4,219.8,2.4c-1.5,0-3,0-4.6,0.1c-29.9,1.3-52,14.8-65.6,40.3
			c-0.2,0.5-0.4,1-0.6,1.4c-0.1,0.3-0.3,0.8-0.5,1.1c-0.1-0.3-0.2-0.8-0.3-1.1c-0.1-0.5-0.2-0.9-0.4-1.4
			c-5.8-15.1-16.1-26.3-30.7-33.3C107,4.6,96,2.3,83.6,2.3L83.6,2.3L83.6,2.3z M218.7,127.6c-9.6,0-18.1-5.2-22.7-14
			c-8.6-16.2-8.9-33.9-1-51.2c4.5-9.9,13.3-15.8,23.6-15.8c3.3,0,6.6,0.6,9.8,1.8c7.3,2.7,12.4,8.3,16.1,17.8
			c2.5,6.3,3.5,13.1,3.1,20.2c0,0.1,0,0.1,0,0.2c0.4,11.9-1.6,20.9-6.5,28.6C236,122.9,227.7,127.6,218.7,127.6L218.7,127.6
			L218.7,127.6z M83.2,127.5c-6.2,0-12.3-2.4-16.8-6.5c-10.2-9.6-14-22.1-12.3-40.6c1.1-11.7,4.7-20.1,11.3-26.6
			c3.9-3.9,10.5-6.3,17.1-6.3c9.8,0,17.2,5,19.7,13.3c1.9,6.4,6.6,9.8,13.5,9.8c0.2,0,0.3,0,0.5,0c1.4,0,2.9-0.1,4.7-0.1s3.3,0,5,0
			c1.7,0,3.4,0,5.1,0c2.4,0,4.3,0,6.2-0.1c0.1,0,0.3,0,0.4,0c1.3,0,2.3,0.2,2.6,0.6c0.4,0.4,0.4,1.3,0.3,2.6
			c-1.3,8.8-1.3,17.5-0.1,25.9c0.2,1.1,0.1,1.9-0.2,2.2c-0.3,0.3-1,0.5-2.1,0.5c-0.1,0-0.3,0-0.4,0c-1.2-0.1-2.6-0.1-4.2-0.1
			c-1.1,0-2.1,0-3.2,0c-1,0-1.9,0-2.9,0c-0.1,0-0.2,0-0.3,0c-0.3,0-0.7,0-1,0c-0.3,0-0.6,0-0.9,0c-0.3,0-0.6,0-0.8,0
			c-1.5-0.2-2.9-0.3-4.2-0.3c-9.4,0-15.5,4.6-19.2,14.5C98.4,123.3,91.6,127.5,83.2,127.5L83.2,127.5L83.2,127.5z"/>
		<path class="st0" d="M325.5,135.1c8.5,0,16.5,2.1,23.5,8.5c15.7,14.3,13.7,40.5-3.9,54.5c-1.6,1.3-3.8,2.1-4.7,4.8
			c1.7,0.6,3.2,0.7,4.8,0.7c0.8,0,1.5,0,2.2,0c0.5,0,0.9,0,1.4,0c7.2,0.5,10.5,3.6,11.4,10.8c0.2,1.5,0.2,3,0.2,4.5
			c0,10.1-2.5,13.6-12.5,14.2c-8.8,0.5-17.6,0.8-26.5,0.8s-16.9-0.3-25.4-1.2c-6.2-0.6-8.4-3.3-8.6-9.5
			c-0.4-13.4,6.1-23.6,15.6-32.1c5.2-4.7,10.9-8.7,16.4-13.1c1.5-1.2,3-2.7,4.3-4.1c1.5-1.6,2.9-3.4,2-5.8c-0.4-1-1.1-1.8-2.1-1.8
			c-0.2,0-0.4,0-0.6,0.1c-2.4,0.7-3.3,2.7-3.7,4.9c-1.1,6.7-5.4,9.2-11.8,10.1c-1.9,0.2-3.6,0.4-5.2,0.4c-12.1,0-16.8-7-13.4-20.8
			c3.3-13.6,11.7-22.5,25.6-24.7C318.3,135.5,321.9,135.1,325.5,135.1 M325.5,133.1L325.5,133.1c-3.4,0-7,0.3-11.2,1
			c-14.2,2.3-23.7,11.4-27.3,26.2c-1.9,7.9-1.3,14,1.8,18c2.8,3.5,7.3,5.3,13.6,5.3c1.7,0,3.5-0.1,5.4-0.4c0.6-0.1,1.1-0.2,1.7-0.3
			c-2.7,2.1-5.4,4.2-7.9,6.5c-11.4,10.2-16.7,21.2-16.3,33.7c0.2,7.3,3.4,10.7,10.4,11.4c7.9,0.8,16.3,1.2,25.6,1.2
			s19.3-0.4,26.6-0.8c12.1-0.6,14.4-6.2,14.4-16.2c0-1.7,0-3.2-0.2-4.7c-1-8.1-5.1-11.9-13.3-12.5c-0.5,0-0.9,0-1.5,0
			c-0.4,0-0.8,0-1.1,0c-0.4,0-0.7,0-1.1,0c-0.5,0-0.9,0-1.4,0c0.4-0.3,0.8-0.6,1.2-0.9c0.4-0.3,0.9-0.6,1.3-0.9
			c9.3-7.3,14.8-18.3,15.2-30c0.4-10.6-3.7-20.7-11.3-27.5C343.7,136.1,335.6,133.1,325.5,133.1L325.5,133.1L325.5,133.1z
			 M320.8,173.9c0.2-0.8,0.5-1.6,0.6-2.4c0.4-2.5,1.4-3.1,2.3-3.3c0,0,0.1,0,0.1,0s0.1,0.1,0.2,0.4c0.4,1.1,0,2.1-1.6,3.8
			C321.8,172.8,321.3,173.4,320.8,173.9L320.8,173.9L320.8,173.9z"/>
	</g>
</g>
</svg>
