<?xml version="1.0" encoding="utf-8"?>
<!-- Generator: Adobe Illustrator 27.3.1, SVG Export Plug-In . SVG Version: 6.00 Build 0)  -->
<svg version="1.1" id="Livello_2_00000015325338818141040870000002179293165530526130_"
	 xmlns="http://www.w3.org/2000/svg" xmlns:xlink="http://www.w3.org/1999/xlink" x="0px" y="0px" viewBox="0 0 434.4 166.7"
	 style="enable-background:new 0 0 434.4 166.7;" xml:space="preserve">
<style type="text/css">
	.st0{fill:#FFFFFF;stroke:#FFFFFF;stroke-width:2;stroke-miterlimit:10;}
</style>
<g id="Livello_1-2">
	<g>
		<path class="st0" d="M227.8,3.6c9.5,0,19,0.1,28.5,0.5c24.2,1,45.9,14.8,47.6,45.4c0.7,12.6-2.4,24.5-11.8,33.9
			c-1.8,1.8-3.9,3.5-1.6,6.3c7.7,9.5,8.7,21,9.6,32.5c0.6,7.1,1.2,14.2,2,21.3c0.2,1.9,0.5,3.9,2.3,5.8c1-2.1,0.6-4,0.6-5.9
			c0-40.8,0-81.6,0-122.4c0-15.2,2.1-17.2,17.4-17.2c14.3,0,28.6,0,42.9,0c15.5,0,31,0,46.5,0c12.5,0,15.1,2.7,15.1,15.4
			c0,4.3,0.1,8.7-0.1,13c-0.4,8.5-3.5,11.7-12.1,11.8c-19,0.1-38,0-57,0.1h0c-0.8,0-1.8-0.1-2.7-0.1c-1.7,0-3.2,0.4-3.6,2.4
			c-0.9,4-1.4,8.3,0.5,12.2c0.5,1.1,1.6,1.3,2.8,1.3c0.8,0,1.6-0.1,2.3-0.1h0c10,0,20.1,0,30.1,0c5.1,0,10.2,0,15.4,0h0
			c3,0,5.9,0.2,8.8,1.3c3,1.2,5,3.3,5.5,6.5c1.4,7.6,1.7,15.2,0.3,22.8c-1.2,6.6-4.1,9.3-10.9,9.3c-16,0.2-32,0.1-48,0.1
			c-7,0-7.3,0.3-7.4,7.3c0,2.8,0,5.7,0,8.5c0,6.4,0.5,6.9,6.8,6.9c9,0,18.1,0,27.1,0c3,0,6,0,9,0c5.6,0,11.2,0,16.9,0
			c2.3,0,4.7,0,7,0.2c5.1,0.4,8.3,3.2,9.3,8.2c1.6,7.9,1.3,15.9-0.1,23.8c-0.7,4-3.2,6.6-7.2,7.4c-2.4,0.5-5,0.6-7.4,0.6
			c-6.3,0-12.6,0-18.9,0c-9.2,0-18.4,0-27.6,0c-15.1,0-30.2,0-45.4,0.1c-0.1,0-0.2,0-0.3,0c-6.1,0-11.5-0.9-15.1-8.2
			c-2.5,7.1-7.2,8.1-12.5,8.1c-0.1,0-0.2,0-0.4,0c-1.2,0-2.4,0-3.6,0c-2.9,0-5.8,0-8.6,0c-2.1,0-4.2,0-6.2,0
			c-9-0.1-12.9-3.5-14.7-12.4c-1.8-9-1.9-18.2-2.8-27.3c-1.1-11.2-6.8-16.9-18-17.2c-1,0-2.1,0-3.1,0c-1.7,0-3.3,0-5,0
			c-1.3,0-2.6,0-3.9-0.1c-0.1,0-0.3,0-0.4,0c-3.3,0-4.6,1.6-4.6,5.1c0.1,12,0,24,0,36c0,2,0,4-0.2,6c-0.9,7-3.7,9.8-10.8,9.9
			c-3.9,0.1-7.8,0.2-11.8,0.2s-7.5-0.1-11.2-0.2c-7.7-0.2-11.1-3.5-11.1-11.1c-0.1-45.6-0.1-91.2,0-136.9c0-7.6,3.5-10.9,11.2-11
			C200.8,3.9,214.3,3.7,227.8,3.6 M228.3,66.9c1.3,0,2.9,0,4.8,0c0.7,0,1.4,0,2.2,0c0.5,0,1,0,1.5,0c0.8,0,1.6,0,2.5,0
			c3.6,0,7.3-0.1,10.9-1.2c6.1-1.8,9.3-5.9,8.9-11.5c-0.5-5.5-4.6-9.6-10.5-10.1c-6.9-0.6-13.9-1-20.9-1c0,0-0.1,0-0.1,0
			c-4.6,0-6.8,1.6-6.3,6.4c0.1,1.2,0,2.3,0,3.5C221.4,66,220,66.9,228.3,66.9 M227.8,1.7c-7.7,0-15.4,0.1-23,0.2
			c-5.7,0.1-11.6,0.1-17.5,0.1c-8.9,0-13.2,4.3-13.2,13c-0.1,44.1-0.1,90.1,0,136.9c0,8.7,4.2,12.8,13,13.1
			c3.7,0.1,7.5,0.2,11.3,0.2s7.9-0.1,11.8-0.2c8-0.2,11.7-3.6,12.7-11.7c0.2-1.8,0.2-3.6,0.2-5.4v-0.8l0-7.2c0-9.4,0.1-19.2,0-28.8
			c0-1.3,0.2-2.2,0.6-2.6c0.3-0.3,1-0.5,2-0.5c0.1,0,0.2,0,0.4,0c1.2,0,2.4,0.1,4,0.1c0.8,0,1.7,0,2.5,0c0.8,0,1.7,0,2.5,0
			c1.2,0,2.1,0,3,0c10,0.3,15.1,5.2,16.1,15.4c0.3,2.8,0.5,5.8,0.7,8.6c0.4,6.2,0.9,12.6,2.1,18.9c2,9.9,6.7,13.9,16.6,14.1
			c1.8,0,3.8,0.1,6.3,0.1c1.4,0,2.9,0,4.3,0s2.9,0,4.3,0c1.2,0,2.4,0,3.6,0h0.4c4.6,0,9.6-0.8,12.8-5.9c4.2,5.5,9.8,6,14.9,6h0.3
			c15.8-0.1,31.8-0.1,45.4-0.1h13.8h13.8c6.3,0,12.6,0,19,0c2.2,0,5-0.1,7.8-0.6c4.8-0.9,7.9-4.1,8.8-9c1.6-8.9,1.6-16.9,0.1-24.6
			c-1.2-6-5-9.4-11.1-9.8c-2.2-0.2-4.5-0.2-6.6-0.2h-0.5c-5.6,0-11.2,0-16.9,0h-9c-9,0-18.1,0-27.1,0c-1.3,0-3.9,0-4.3-0.4
			c-0.4-0.4-0.5-3.1-0.5-4.4c0-3.1,0-6.2,0-8.5c0-1.8,0-4.4,0.5-4.9c0.5-0.5,3.2-0.5,4.9-0.5c5.3,0,10.6,0,16,0
			c10.5,0,21.3,0,32-0.1c7.6-0.1,11.4-3.4,12.8-11c1.3-7.3,1.2-15-0.3-23.6c-0.7-3.8-3-6.5-6.8-8c-3.2-1.3-6.5-1.4-9.5-1.4h0
			c-5.1,0-10.2,0-15.4,0c-11.2,0-21.1,0-30.1,0c-0.4,0-0.8,0-1.2,0c-0.4,0-0.7,0-1.1,0c-0.8,0-1-0.1-1-0.1c-1.6-3.4-1.1-7.5-0.3-11
			c0.1-0.5,0.2-0.9,1.7-0.9c0.4,0,0.8,0,1.3,0c0.5,0,0.9,0.1,1.4,0.1h0c8,0,16.2,0,24.1,0c10.8,0,21.9,0,32.8-0.1
			c9.6-0.1,13.7-4,14.1-13.7c0.2-3.4,0.1-6.9,0.1-10.2c0-1,0-1.9,0-2.9C429.1,5.5,425.6,1.9,412,1.9c-15.5,0-31,0-46.5,0
			c-14.3,0-28.6,0-42.9,0c-16.5,0-19.4,2.9-19.4,19.2c0,4.4,0,8.9,0,13.3c-2.7-8-7.2-14.9-13.3-20.1c-8.6-7.3-20.2-11.5-33.5-12.1
			C247.9,1.8,238.8,1.7,227.8,1.7L227.8,1.7L227.8,1.7z M228.3,64.9c-1.3,0-4.1,0-4.6-0.5c-0.5-0.5-0.5-3.3-0.5-6.5c0-1.5,0-3.1,0-5
			c0-0.4,0-0.8,0-1.2c0-0.8,0.1-1.6-0.1-2.5c-0.2-1.6,0-2.7,0.5-3.2c0.6-0.6,1.8-0.9,3.8-0.9h0.1c6.6,0,13.4,0.4,20.7,1
			c4.9,0.5,8.3,3.7,8.7,8.3c0.4,4.6-2.3,7.9-7.4,9.4c-3.4,1-6.8,1.1-10.3,1.1H238h-1.2c-0.5,0-1,0-1.5,0c-0.7,0-1.5,0-2.2,0
			c-1,0-2,0-2.8,0C229.6,64.9,228.9,64.9,228.3,64.9L228.3,64.9L228.3,64.9z M303.1,132.7c-0.3-3.4-0.6-6.9-0.9-10.6
			c-1-11.6-1.9-23.5-10.1-33.6c-0.9-1.1-0.9-1.3,1.1-3.3l0.4-0.4c4.3-4.3,7.5-9.3,9.6-14.9v0.7C303.2,91.3,303.2,112,303.1,132.7
			L303.1,132.7L303.1,132.7z"/>
		<path class="st0" d="M42,3.9c19.1,0,38.3,0,57.4,0c4.3,0,8.5,0,12.8,0h0c4.2,0,8.3,0.2,11.2,4c0.6,0.8,1.2,1.1,1.8,1.1
			c0.6,0,1.2-0.4,1.9-1.2c2.6-3.3,6.2-3.9,10.1-3.9c0.1,0,0.1,0,0.2,0c1.1,0,2.2,0,3.4,0c3.4,0,6.8,0,10.2,0c2.3,0,4.6,0,6.9,0
			c9,0.1,12.3,3.4,12.3,12.5c0.1,16.3,0.1,32.6,0.1,48.9c0,6,0,12,0,18c0,21.6,0,43.3,0,64.9c0,11.6-3.1,14.6-14.4,14.7
			c-3.1,0-6.2,0-9.4,0s-6.1,0-9.1-0.1c-8.9-0.2-12.1-3.3-12.2-12.2c-0.1-19.8-0.1-39.6-0.1-59.4c0-14.8,0-29.6,0-44.5
			c0-3.7-0.1-5.1-1.3-5.1c-0.8,0-2,0.5-4,1.3c-3.7,1.5-7.7,1.8-11.7,1.8h-0.1c-0.8,0-1.6,0-2.3,0c-8.5,0-17,0-25.5,0
			c-7.2,0-14.4,0-21.6-0.1c-0.1,0-0.2,0-0.2,0c-4.6,0-6.2,1.6-6.1,6.3c0.2,10.9-0.6,11.7,7,11.7c1.2,0,2.5,0,4.1,0
			c0.2,0,0.3,0,0.5,0c2.1,0,4.2,0,6.2,0c4.8,0,9.6,0,14.4,0c5.8,0,11.5,0,17.3,0.1c9.1,0.1,12.2,3.3,12.5,12.5c0.2,5,0.1,10,0,15
			c-0.1,9.7-3.6,13.4-13.3,13.5c-6.1,0.1-12.1,0.1-18.2,0.1c-6.7,0-13.4,0-20.1,0c-0.9,0-1.8,0-2.7,0c-5.2,0-7.7,2.6-7.8,7.8
			c0,12.3,0.1,24.6,0,37c-0.1,10.6-3.6,14.1-14.1,14.3c-3.2,0-6.5,0.1-9.8,0.1s-6.5,0-9.7-0.1c-8-0.2-11.5-3.6-12.2-11.5
			c-0.2-1.8-0.1-3.7-0.1-5.5c0-41.6,0-83.2,0-124.9C6.3,6,8.4,3.9,23.2,3.9C29.4,3.9,35.7,3.9,42,3.9 M41.9,1.9
			c-6.2,0-12.5,0-18.7,0C7.3,1.9,4.3,4.9,4.3,21c0,38.8,0,77.5,0,116.2v8.6v0.9c0,1.6,0,3.2,0.1,4.8c0.8,9,5.2,13.1,14.1,13.4
			c3,0.1,6.2,0.1,9.8,0.1c3.4,0,6.8,0,9.8-0.1c11.6-0.1,16-4.5,16.1-16.2c0.1-8.3,0.1-16.7,0-24.9c0-4,0-8.1,0-12.1
			c0-2.4,0-5,0.4-5.4s2.9-0.4,5.3-0.4h2.7c3.3,0,6.7,0,10,0c3.3,0,6.7,0,10,0c7.3,0,12.9,0,18.2-0.1c10.7-0.2,15.1-4.6,15.3-15.5
			c0.1-4.5,0.1-9.8,0-15.1c-0.3-10.3-4.4-14.3-14.5-14.4c-6.3-0.1-12.6-0.1-17.3-0.1c-2.4,0-4.8,0-7.2,0s-4.8,0-7.2,0
			c-2.1,0-4.2,0-6.2,0h-0.5c-0.8,0-1.6,0-2.4,0c-0.6,0-1.2,0-1.7,0c-1.4,0-4,0-4.4-0.5c-0.5-0.7-0.5-3.2-0.6-6.3c0-0.9,0-1.8,0-2.9
			c0-1.8,0.2-3,0.7-3.5c0.5-0.5,1.6-0.8,3.4-0.8h0.2c6.2,0.1,13.1,0.1,21.6,0.1c4.2,0,8.5,0,12.8,0c4.2,0,8.5,0,12.8,0h2.3h0.1
			c3.8,0,8.2-0.2,12.5-2c0.9-0.4,1.8-0.8,2.5-1c0.1,0.8,0.1,2,0.1,2.9c0,9.8,0,19.8,0,29.4c0,5,0,10,0,15.1c0,5.4,0,10.9,0,16.3
			c0,14.1,0,28.8,0.1,43.1c0.1,10,4,13.9,14.1,14.1c2.7,0.1,5.7,0.1,9.2,0.1c3,0,5.9,0,8.9,0h0.5c12.6-0.1,16.4-4,16.4-16.7
			c0-15.3,0-30.8,0-45.9c0-6.3,0-12.7,0-19c0-6,0-12,0-18c0-4.7,0-9.5,0-14.2c0-11.4,0-23.2-0.1-34.8C172.1,6.2,168,2,157.9,1.9
			c-2.1,0-4.3,0-7,0c-1.7,0-3.4,0-5.1,0c-1.7,0-3.4,0-5.1,0c-1.1,0-2.2,0-3.4,0h-0.2c-4,0-8.5,0.6-11.7,4.7
			c-0.1,0.1-0.2,0.2-0.3,0.3c-0.1-0.1-0.1-0.1-0.2-0.2c-3.4-4.4-8-4.7-12.8-4.7H99.4c-9.6,0-19.1,0-28.7,0S51.5,1.9,41.9,1.9
			L41.9,1.9L41.9,1.9z"/>
	</g>
</g>
</svg>
