<?xml version="1.0" encoding="UTF-8"?>
<svg id="Livello_2" data-name="Livello 2" xmlns="http://www.w3.org/2000/svg" viewBox="0 0 425.87 163.4">
  <defs>
    <style>
      .cls-1 {
        fill: #fff;
      }
    </style>
  </defs>
  <g id="Livello_1-2" data-name="Livello 1">
    <g>
      <path class="cls-1" d="m223.48,2c9.51,0,19.02.12,28.51.53,24.19,1.02,45.94,14.82,47.65,45.38.71,12.64-2.43,24.48-11.77,33.89-1.77,1.79-3.89,3.53-1.6,6.34,7.71,9.49,8.7,20.96,9.65,32.47.59,7.12,1.25,14.24,2.03,21.34.21,1.91.54,3.93,2.28,5.78.99-2.06.61-4.03.61-5.9.03-40.79.01-81.59.03-122.38,0-15.16,2.08-17.23,17.37-17.23,14.3,0,28.6-.01,42.9-.01,15.52,0,31.03,0,46.54.03,12.52.02,15.1,2.7,15.15,15.4.02,4.33.12,8.66-.08,12.99-.39,8.55-3.54,11.73-12.12,11.8-18.99.14-37.97.05-56.96.13h-.04c-.83,0-1.79-.11-2.7-.11-1.66,0-3.19.37-3.65,2.44-.88,4-1.41,8.33.45,12.21.52,1.08,1.61,1.3,2.78,1.3.77,0,1.57-.09,2.28-.09h.02c10.03.02,20.07.03,30.1.03,5.12,0,10.25,0,15.37,0h.05c3,0,5.94.17,8.78,1.29,3.04,1.2,4.97,3.29,5.55,6.52,1.35,7.59,1.7,15.22.32,22.84-1.2,6.59-4.14,9.27-10.86,9.34-15.99.15-31.98.08-47.97.12-7.01.02-7.32.34-7.36,7.32-.02,2.83-.02,5.66,0,8.49.05,6.41.45,6.86,6.78,6.88,9.03.02,18.06.02,27.09.02,3.01,0,6.01,0,9.02,0,5.62,0,11.23,0,16.85,0,2.33,0,4.67-.01,6.99.16,5.15.38,8.26,3.19,9.26,8.24,1.57,7.94,1.29,15.9-.11,23.83-.71,4.02-3.19,6.6-7.18,7.37-2.43.47-4.96.58-7.44.58-6.31,0-12.63,0-18.94,0-9.21,0-18.42,0-27.62,0-15.12,0-30.25.01-45.37.08-.09,0-.19,0-.28,0-6.09,0-11.45-.93-15.1-8.18-2.45,7.09-7.2,8.12-12.51,8.12-.12,0-.23,0-.35,0-1.21,0-2.41-.01-3.62-.01-2.88,0-5.75.02-8.63.02-2.08,0-4.16-.01-6.23-.04-8.97-.15-12.87-3.52-14.69-12.45-1.84-9-1.9-18.19-2.77-27.29-1.08-11.16-6.84-16.92-18.03-17.23-1.03-.03-2.06-.04-3.08-.04-1.67,0-3.34.02-5.01.02-1.3,0-2.6-.01-3.9-.06-.15,0-.29,0-.43,0-3.34,0-4.61,1.61-4.58,5.07.1,11.99.04,23.98.02,35.96,0,2,.04,4.01-.21,5.98-.88,6.99-3.72,9.75-10.78,9.95-3.91.11-7.83.17-11.75.17s-7.49-.05-11.23-.16c-7.71-.22-11.08-3.5-11.1-11.09-.08-45.62-.09-91.24,0-136.86.02-7.57,3.49-10.93,11.19-10.97,13.47-.06,26.96-.31,40.43-.31m.53,63.28c1.33,0,2.91-.02,4.78-.02.69,0,1.42,0,2.2.01.5,0,.99,0,1.49,0,.83,0,1.65,0,2.48,0,3.65,0,7.29-.1,10.87-1.15,6.05-1.78,9.32-5.94,8.86-11.52-.45-5.46-4.57-9.6-10.54-10.14-6.93-.63-13.88-1.01-20.86-1.05-.03,0-.07,0-.1,0-4.64,0-6.76,1.61-6.26,6.36.12,1.15,0,2.32.02,3.48.15,13.13-1.28,14.03,7.07,14.03m-.53-65.28c-7.66,0-15.44.08-22.97.16-5.73.06-11.65.12-17.47.15-8.85.04-13.16,4.28-13.18,12.96-.09,44.08-.09,90.13,0,136.87.02,8.68,4.16,12.84,13.04,13.08,3.72.1,7.52.16,11.29.16s7.87-.06,11.81-.17c8-.23,11.68-3.62,12.71-11.7.23-1.82.23-3.63.22-5.39v-.84s.02-7.17.02-7.17c.02-9.44.05-19.21-.03-28.82-.01-1.27.19-2.15.58-2.55.33-.34,1.01-.51,2-.51.11,0,.23,0,.35,0,1.16.04,2.42.07,3.97.07.84,0,1.68,0,2.52-.01.83,0,1.66-.01,2.49-.01,1.17,0,2.13.01,3.03.04,9.99.27,15.11,5.17,16.09,15.42.27,2.84.47,5.75.66,8.56.42,6.21.86,12.63,2.14,18.93,2.03,9.94,6.69,13.88,16.62,14.05,1.84.03,3.83.05,6.27.05,1.44,0,2.88,0,4.32,0,1.44,0,2.87,0,4.31,0,1.2,0,2.4,0,3.61.01h.37c4.61,0,9.58-.79,12.76-5.94,4.21,5.48,9.81,6,14.85,6h.29c15.84-.07,31.82-.08,45.36-.08h13.81s13.81,0,13.81,0c6.32,0,12.63,0,18.95,0,2.16,0,4.99-.08,7.82-.62,4.79-.93,7.91-4.12,8.77-8.99,1.58-8.91,1.61-16.95.1-24.56-1.19-6-5.02-9.4-11.07-9.85-2.22-.16-4.46-.16-6.62-.16h-.51c-5.62,0-11.24,0-16.85,0h-9.02c-9.03,0-18.06,0-27.09-.02-1.27,0-3.9,0-4.32-.44-.43-.44-.45-3.05-.47-4.45-.03-3.09-.01-6.15,0-8.46,0-1.76.02-4.42.48-4.87.46-.46,3.23-.46,4.89-.47,5.32-.01,10.65-.01,15.97-.01,10.49,0,21.34,0,32.01-.1,7.59-.07,11.42-3.36,12.81-10.98,1.32-7.26,1.22-14.96-.31-23.55-.68-3.82-2.96-6.52-6.78-8.03-3.19-1.26-6.46-1.43-9.52-1.43h-.05c-5.12,0-10.25,0-15.37,0-11.25,0-21.1-.01-30.1-.03-.43,0-.84.02-1.23.05-.38.02-.74.04-1.07.04-.78,0-.96-.13-.97-.13-1.64-3.43-1.08-7.46-.31-10.95.12-.54.19-.87,1.69-.87.41,0,.83.03,1.29.05.46.03.94.06,1.41.06h.05c8.04-.03,16.22-.04,24.12-.04,10.76,0,21.89,0,32.84-.09,9.58-.07,13.66-4.04,14.1-13.71.16-3.42.13-6.89.1-10.23,0-.95-.02-1.9-.02-2.85-.06-13.8-3.58-17.37-17.15-17.39-15.52-.02-31.03-.03-46.55-.03-14.3,0-28.6,0-42.9.01-16.46,0-19.36,2.89-19.37,19.23,0,4.43,0,8.85,0,13.28-2.67-8.04-7.16-14.86-13.32-20.11-8.62-7.35-20.19-11.53-33.47-12.09-8.5-.36-17.59-.53-28.6-.53h0Zm.53,63.28c-1.32,0-4.07,0-4.57-.51-.54-.54-.52-3.31-.5-6.53.01-1.45.02-3.09,0-5.02,0-.38,0-.77.02-1.16.02-.81.05-1.64-.05-2.51-.17-1.58,0-2.66.5-3.22.56-.62,1.82-.93,3.76-.93h.09c6.59.03,13.36.37,20.69,1.04,4.92.45,8.34,3.71,8.73,8.31.38,4.57-2.26,7.92-7.43,9.44-3.36.99-6.79,1.07-10.31,1.07h-1.23s-1.24,0-1.24,0c-.5,0-1.01,0-1.51,0-.74,0-1.47-.01-2.17-.01-1.02,0-1.96,0-2.81.01-.71,0-1.37.01-1.97.01h0Zm74.84,67.78c-.32-3.42-.64-6.94-.94-10.62-.96-11.57-1.94-23.54-10.09-33.56-.87-1.07-.86-1.35,1.11-3.31l.36-.36c4.3-4.33,7.5-9.32,9.57-14.91v.67c0,20.7,0,41.4-.01,62.1h0Z"/>
      <path class="cls-1" d="m37.69,2.21c19.13,0,38.27.01,57.4.01,4.26,0,8.52,0,12.78,0h.04c4.24,0,8.35.22,11.24,3.99.59.77,1.17,1.13,1.75,1.13.63,0,1.25-.43,1.87-1.22,2.59-3.33,6.22-3.88,10.09-3.88.08,0,.15,0,.23,0,1.12,0,2.25,0,3.37,0,3.39,0,6.77-.02,10.16-.02,2.32,0,4.63,0,6.95.04,8.97.13,12.26,3.4,12.32,12.53.11,16.31.05,32.63.05,48.94,0,5.99,0,11.99,0,17.98,0,21.64.04,43.28-.01,64.93-.03,11.55-3.07,14.6-14.43,14.68-3.12.02-6.24.04-9.36.04s-6.08-.02-9.12-.09c-8.88-.19-12.09-3.27-12.16-12.16-.14-19.81-.07-39.62-.08-59.43,0-14.82.02-29.63-.02-44.45-.01-3.72-.06-5.1-1.34-5.1-.78,0-2.02.51-3.99,1.33-3.71,1.54-7.7,1.84-11.7,1.84h-.07c-.78,0-1.57,0-2.35,0-8.51,0-17.01.03-25.52.03-7.2,0-14.39-.02-21.59-.12-.09,0-.17,0-.25,0-4.57,0-6.2,1.62-6.11,6.33.22,10.93-.56,11.65,7,11.65,1.15,0,2.49-.02,4.06-.02.18,0,.35,0,.53,0,2.08,0,4.16,0,6.24,0,4.8,0,9.61,0,14.41,0,5.77,0,11.54.01,17.32.08,9.1.1,12.21,3.27,12.48,12.47.15,4.99.1,9.99.03,14.98-.14,9.67-3.63,13.39-13.29,13.52-6.06.09-12.13.11-18.2.11-6.69,0-13.38-.03-20.07-.03-.9,0-1.8,0-2.7,0q-7.73,0-7.75,7.77c-.01,12.32.07,24.64-.04,36.96-.1,10.64-3.62,14.15-14.09,14.27-3.25.04-6.51.07-9.76.07s-6.48-.03-9.72-.12c-8-.22-11.47-3.59-12.19-11.53-.16-1.82-.13-3.66-.13-5.49,0-41.62-.01-83.24,0-124.86,0-14.98,2.14-17.15,16.94-17.16,6.25,0,12.5,0,18.74,0m0-2c-6.25,0-12.5,0-18.74,0C3.02.22.01,3.27,0,19.38,0,58.13,0,96.87,0,135.62v8.61s0,.87,0,.87c0,1.56-.01,3.18.14,4.8.81,8.99,5.17,13.1,14.13,13.35,2.96.08,6.16.12,9.78.12,3.39,0,6.83-.03,9.78-.07,11.61-.13,15.96-4.53,16.07-16.25.07-8.29.06-16.72.05-24.87,0-4.03-.01-8.07,0-12.1,0-2.45,0-4.99.39-5.38.39-.39,2.91-.39,5.35-.39h2.7c3.34,0,6.69,0,10.03.01,3.35,0,6.69.01,10.04.01,7.3,0,12.92-.03,18.23-.11,10.68-.15,15.1-4.64,15.26-15.49.07-4.54.13-9.83-.03-15.07-.3-10.26-4.36-14.3-14.46-14.41-6.29-.07-12.57-.08-17.34-.08-2.4,0-4.81,0-7.21,0-2.4,0-4.8,0-7.2,0-2.08,0-4.16,0-6.23,0h-.54c-.85,0-1.63,0-2.36,0-.61,0-1.18,0-1.71,0-1.41,0-4.02,0-4.4-.51-.49-.66-.52-3.15-.56-6.32-.01-.87-.02-1.82-.04-2.86-.04-1.78.21-2.96.74-3.5.52-.53,1.62-.79,3.37-.79h.23c6.25.08,13.11.12,21.61.12,4.25,0,8.51,0,12.76-.02,4.25,0,8.5-.02,12.76-.02h2.35s.07,0,.07,0c3.79,0,8.24-.24,12.46-1.99.92-.38,1.85-.77,2.49-.99.06.79.06,1.97.07,2.92.03,9.8.02,19.76.02,29.4,0,5.02,0,10.03,0,15.05,0,5.44,0,10.87,0,16.31,0,14.14-.02,28.76.08,43.14.07,9.97,4.03,13.93,14.11,14.15,2.74.06,5.74.09,9.17.09,2.97,0,5.94-.02,8.91-.04h.46c12.55-.09,16.38-3.98,16.41-16.68.03-15.3.03-30.85.02-45.89,0-6.35,0-12.69,0-19.04,0-5.99.01-11.99,0-17.98,0-4.74,0-9.47,0-14.21,0-11.39.02-23.16-.06-34.75-.07-10.17-4.21-14.37-14.29-14.52-2.06-.03-4.28-.04-6.98-.04-1.7,0-3.39,0-5.09.01-1.69,0-3.38.01-5.07.01-1.12,0-2.24,0-3.36,0h-.24c-3.98,0-8.47.55-11.67,4.65-.11.14-.21.25-.28.32-.05-.05-.11-.13-.18-.22C117.36.59,112.74.22,107.91.22h-12.83c-9.57,0-19.13,0-28.7,0-9.57,0-19.13,0-28.7,0h0Z"/>
    </g>
  </g>
</svg>