<?xml version="1.0" encoding="utf-8"?>
<!-- Generator: Adobe Illustrator 27.3.1, SVG Export Plug-In . SVG Version: 6.00 Build 0)  -->
<svg version="1.1" id="Livello_2_00000127021573295200679720000012663139018623675276_"
	 xmlns="http://www.w3.org/2000/svg" xmlns:xlink="http://www.w3.org/1999/xlink" x="0px" y="0px" viewBox="0 0 809.6 174.7"
	 style="enable-background:new 0 0 809.6 174.7;" xml:space="preserve">
<style type="text/css">
	.st0{fill:#FFFFFF;stroke:#FFFFFF;stroke-width:2;stroke-miterlimit:10;}
</style>
<g id="Livello_1-2">
	<g>
		<path class="st0" d="M466.5,4.7c16,0,31.2,2.8,44.6,12.2c12.6,8.9,20.6,21.2,23.8,36.3c2.3,10.6-1.7,15.4-12.6,15.5
			c-2.8,0-5.7,0.1-8.5,0.1c-3.5,0-7,0-10.5-0.1c-5.8-0.1-10.2-2.3-12.5-8.1c-4-10.4-12.2-15.3-22.9-15.5c-0.2,0-0.4,0-0.6,0
			c-10.9,0-19.9,4.9-25.1,14.5c-9.7,18.1-9.9,36.9-0.2,55c5.3,10,15.7,15.1,26,15.1c8.4,0,16.8-3.5,22.1-10.7c1-1.3,2.7-2.6,2-4.3
			c-0.4-1-1.2-1.2-2.1-1.2c-0.7,0-1.5,0.2-2.2,0.2c0,0-0.1,0-0.1,0c-5.6-0.1-11.3,0.2-16.9-0.9s-8.6-3.5-9-9.1
			c-0.4-6.6-0.5-13.3,0-19.9c0.4-6.2,3.9-9,11-9.1c6.5-0.1,13.1-0.1,19.6-0.1c5.6,0,11.3,0,16.9,0c0.1,0,0.3,0,0.5,0
			c2.8,0,5.6,0,8.4,0c3,0,6.1,0,9.1,0.2c6.7,0.3,9.7,3.2,10.4,9.8c2,18.8,0.4,37.6,0.9,56.4c0.1,5.5,0,11-0.9,16.4
			c-0.9,5.7-3.6,8.8-9.4,9.1c-2.7,0.2-5.3,0.2-8,0.2c-3.5,0-7-0.1-10.5-0.2c-2.9-0.1-5.5-1.4-7.5-3.6c-0.9-1-1.9-1.6-3-1.6
			c-0.7,0-1.5,0.2-2.3,0.8c-9.6,5.8-19.7,7.9-30,7.9c-5.8,0-11.6-0.7-17.4-1.8c-29-5.4-46.9-23.5-56-51c-0.7-2.2-1.3-4.3-3-6.4
			c0,6.7,0.1,13.4,0,20.2c-0.2,8.8,0.7,17.6-0.8,26.4c-1,5.8-3.7,8.8-9.5,9.1c-4,0.2-8.1,0.2-12.2,0.2c-4.3,0-8.5-0.1-12.8-0.2
			c-6-0.2-9.4-4.4-12.2-9.1c-12.1-19.6-24.1-39.1-36.2-58.6c-0.6-0.9-0.8-2.2-3.1-2.8c0,2.4,0,4.4,0,6.3c0,17,0.1,34-0.1,51
			c-0.1,9.7-3.8,13.2-13.5,13.4c-2.9,0.1-5.7,0.1-8.6,0.1s-5.9,0-8.9-0.1c-11.1-0.1-14-2.9-14-13.9c-0.1-8.3,0-16.6,0-25
			c0-34.5,0-68.9,0-103.4c0-2.7,0-5.4,0.3-8c0.8-5.5,3.7-8.5,9.2-8.7c4.1-0.1,8.3-0.2,12.4-0.2c4.9,0,9.7,0.1,14.5,0.1
			c5.5,0.1,8.6,3.8,11.1,8.1c11.3,18.9,22.5,37.7,33.8,56.6c1,1.7,1.8,3.6,3.6,4.8c1.9-1.4,1-3.4,1.1-5c0.1-15-0.2-30,0.1-45
			c0.4-17,2.2-19.8,15.7-19.8c1.2,0,2.6,0,4,0.1c1.7,0.1,3.4,0.1,5.1,0.1c1.1,0,2.2,0,3.3,0c2.4,0,4.8,0,7.1,0.1
			c5.5,0.3,8.5,3,9.6,8.4c0.7,3.3,1,6.6,0.9,9.9c0,12.8,0,25.6,0.9,38.7c0.5-1.7,1.1-3.5,1.6-5.3c10-34.9,36.2-54.6,72.6-54.8
			C465.9,4.7,466.2,4.7,466.5,4.7 M466.5,2.7c-0.3,0-0.6,0-0.9,0c-18.6,0.1-34.5,5.1-47.4,14.8c-11.6,8.7-20.1,20.9-25.4,36.1
			c-0.3-9.1-0.4-18.2-0.3-27.5c0-4-0.3-7.3-1-10.4c-1.4-6.4-5.2-9.6-11.5-9.9c-2.5-0.1-4.9-0.1-7.2-0.1h-1.6h-1.6
			c-1.5,0-3.3,0-5-0.1c-1.6,0-2.9-0.1-4.1-0.1c-15.2,0-17.3,4.4-17.7,21.8c-0.2,9.4-0.2,19.1-0.1,28.4c0,5.5,0,11.1,0,16.7
			c0,0.3,0,0.6,0,0.9c-0.1-0.2-0.2-0.3-0.3-0.5c-0.2-0.4-0.4-0.8-0.7-1.2c-6.1-10.3-12.3-20.5-18.4-30.8
			c-5.1-8.6-10.3-17.2-15.4-25.8c-2.7-4.4-6.3-9-12.8-9.1c-4.4-0.1-9.5-0.1-14.6-0.1c-4.6,0-8.7,0.1-12.5,0.2
			c-6.4,0.2-10.2,3.8-11.1,10.4c-0.3,2.5-0.3,5-0.3,7.4v0.9c0,30.2,0,60.5,0,90.7v12.7c0,2.3,0,4.6,0,6.9c0,5.9,0,12,0,18.1
			c0.1,12,3.8,15.7,16,15.8c3.6,0,6.3,0.1,8.9,0.1c3.1,0,5.9,0,8.6-0.1c10.8-0.2,15.3-4.6,15.4-15.4c0.1-12,0.1-24.2,0.1-36
			c0-5,0-10,0-15v-1.6c12.5,20.2,24.2,39.1,35.6,57.7c3.2,5.1,7,9.9,13.9,10.1c4.8,0.1,9,0.2,12.9,0.2c4.4,0,8.4-0.1,12.2-0.2
			c6.5-0.3,10.2-3.7,11.4-10.7c1.1-6.3,1-12.6,0.9-18.7c0-2.6-0.1-5.4,0-8c0.1-3.4,0.1-6.9,0.1-10.3c10,27.7,29,44.3,56.6,49.5
			c6.5,1.2,12.3,1.8,17.8,1.8c11.7,0,21.9-2.7,31.1-8.2c0.5-0.3,0.9-0.5,1.3-0.5c0.2,0,0.7,0,1.5,0.9c2.4,2.7,5.5,4.2,8.9,4.3h0.5
			c3.3,0.1,6.7,0.2,10,0.2c3,0,5.6-0.1,8.1-0.2c6.5-0.4,10.2-3.9,11.3-10.8c0.8-4.9,1-10.3,0.9-16.8c-0.2-6.8-0.1-13.8,0-20.5
			c0.2-11.8,0.4-24-0.9-36.1c-0.8-7.6-4.6-11.2-12.3-11.6c-3.4-0.2-6.7-0.2-9.2-0.2c-1.4,0-2.8,0-4.2,0c-1.4,0-2.8,0-4.2,0h-0.4
			c-2.8,0-5.6,0-8.5,0c-2.8,0-5.6,0-8.5,0c-5.4,0-12.5,0-19.6,0.1c-8.2,0.1-12.4,3.7-12.9,10.9c-0.4,6.4-0.4,13.2,0,20.2
			c0.2,3.9,1.6,9.2,10.6,10.9c4.4,0.8,8.7,0.8,12.9,0.8c1.4,0,2.9,0,4.3,0.1h0.2c0.4,0,0.9,0,1.3-0.1c0.4,0,0.7-0.1,1-0.1
			c0.1,0,0.2,0,0.3,0c0,0.3-0.6,1-1,1.4c-0.3,0.3-0.5,0.6-0.8,0.9c-4.7,6.3-12.1,9.9-20.5,9.9c-10.3,0-19.6-5.4-24.2-14.1
			c-9.4-17.5-9.3-35.4,0.2-53.2c4.6-8.7,12.9-13.5,23.3-13.5c0.2,0,0.4,0,0.6,0c10.4,0.2,17.5,5,21.1,14.2c2.4,6.1,7.2,9.2,14.3,9.4
			c3.3,0.1,6.8,0.1,10.5,0.1c2.6,0,5.4,0,8.5-0.1c6.2-0.1,10.4-1.6,12.8-4.7c2.4-3,3-7.4,1.7-13.3c-3.4-15.7-11.7-28.3-24.6-37.5
			C500.1,6.7,485.6,2.7,466.5,2.7L466.5,2.7L466.5,2.7z"/>
		<path class="st0" d="M734.2,4.6c12.7,0,25,2.5,36.8,9c15.8,8.6,23.4,22.7,25,40.2c0.7,7.3-3.1,11.4-10.5,11.7
			c-3.5,0.2-7,0.2-10.5,0.2c-4,0-8-0.1-12-0.2c-5.7-0.2-9.5-3-11.3-8.8c-2.5-7.9-8.2-11.8-16.5-12c-1.3,0-2.6-0.1-3.8-0.1
			c-3.7,0-7.3,0.3-10.8,2.2c-2.3,1.3-4.1,2.8-4.2,5.7c-0.1,3,1.7,4.5,4,5.7c5.5,2.8,11.6,4,17.6,5.5c14.7,3.5,29.7,6.3,42.8,14.6
			c9.6,6.1,15.5,14.7,17.7,25.6c4,19.7,0.3,37.5-15.3,51.4c-9.3,8.3-20.6,12.1-32.7,13.6c-5.7,0.7-11.4,1.1-17.1,1.1
			c-11.2,0-22.3-1.6-33.1-5.9c-15.4-6-26.6-16.2-31.4-32.5c-0.3-1.2-0.3-2.7-2.3-3.5c-1.8,6.6-4.1,13-8,18.7
			c-8.2,12.1-20.5,17.7-34.2,20.6c-6.7,1.4-13.4,2.1-20.1,2.1c-7.5,0-15.1-0.9-22.5-2.6c-26.9-6.1-41.8-24.1-42.2-51.9
			c-0.4-31.5-0.2-63-0.1-94.4c0-9.7,3.3-12.8,13-12.9c3.3,0,6.6-0.1,9.9-0.1c3.9,0,7.8,0,11.6,0.1c6.4,0.2,9.3,2.9,10.6,9.1
			c0.6,3.1,0.8,6.3,0.8,9.4c0,28.3,0,56.6,0,84.9c0,12.8,5.4,18.2,17.7,18.4c0.1,0,0.2,0,0.3,0c12.2,0,18.8-6.4,18.9-18.5
			c0.1-29,0-58,0.1-86.9c0-2.3,0-4.7,0.3-7c1-6.4,3.7-9.1,10.3-9.4c4-0.1,8-0.2,12-0.2s8.3,0.1,12.5,0.2c5.8,0.2,8.8,2.9,10,8.6
			c0.7,3.3,0.9,6.6,0.9,9.9c0,25.3,0,50.6-0.1,75.9c0,3.5,0.2,5.2,3.3,5.2c0.7,0,1.5-0.1,2.5-0.2c4.3-0.7,8.7-1,13-1
			c5.1,0,10.3,0.3,15.4,0.7c4.1,0.3,7.1,2.7,8.2,7c1.7,6.5,4.3,12.6,11.5,14.4c4.2,1.1,8.4,1.7,12.6,1.7c4.7,0,9.3-0.8,13.9-2.8
			c2.9-1.2,5.4-3.7,5.3-7.3c-0.1-3.4-2.6-5.2-5.3-6.7c-6.8-3.7-14.5-4.8-21.9-6.6c-12.8-3.1-25.7-5.9-37.1-12.9
			c-10.6-6.5-16.9-16-18.6-28.2c-2.3-17.1,0.2-33,13.7-45.4c8.5-7.8,18.8-11.8,30-13.8C721.2,5.3,727.7,4.7,734.2,4.6 M734.2,2.7
			c-6.3,0-12.8,0.6-19.9,1.8c-12.8,2.2-23,6.8-31,14.2c-6.3,5.7-10.6,12.5-12.9,20.5c0-4.3,0-8.6,0-12.9c0-4.1-0.3-7.3-0.9-10.4
			c-1.4-6.7-5.3-10-11.9-10.2c-4.4-0.1-8.5-0.2-12.5-0.2s-8.2,0.1-12.1,0.2c-7.4,0.2-11,3.5-12.2,11.1c-0.3,2.2-0.3,4.4-0.3,6.5v0.8
			c0,10.1,0,20.1,0,30.2c0,18.6,0,37.8-0.1,56.7c0,11-5.7,16.5-16.9,16.5h-0.3c-11.3-0.1-15.7-4.7-15.7-16.3c0-26.6,0-53.7,0-79.9
			v-5c0-2.7-0.1-6.2-0.8-9.8C585,9.2,581.3,6,574.1,5.8c-3.6-0.1-7.5-0.1-11.7-0.1c-3,0-6.1,0-9.9,0.1c-10.9,0.1-15,4.2-15,14.9
			c0,6.1,0,12.3-0.1,18.4c-0.1,24.9-0.2,50.7,0.1,76.1c0.2,14.3,4.1,26.2,11.6,35.4c7.5,9.1,18.3,15.3,32.1,18.5
			c7.7,1.7,15.4,2.6,23,2.6c6.9,0,13.8-0.7,20.5-2.2c16.7-3.6,27.9-10.4,35.4-21.4c2.8-4.1,5-8.8,7-14.9c4.8,15.4,15.7,26.4,32.4,33
			c10.3,4,21.4,6,33.9,6c5.5,0,11.1-0.4,17.3-1.1c14-1.7,25.1-6.3,33.8-14.1c15-13.4,20.4-31.3,16-53.3C798.2,92,791.9,83,782,76.7
			c-6.8-4.3-14.2-7.1-21.6-9.3c0.8,0.2,1.7,0.2,2.6,0.3c4.4,0.2,8.3,0.2,12,0.2s7.2-0.1,10.6-0.2c4.3-0.2,7.7-1.6,9.8-4.1
			c2.1-2.4,3-5.7,2.6-9.8C796.2,34.5,787.5,20.5,772,12C760.6,5.8,748.3,2.7,734.2,2.7L734.2,2.7L734.2,2.7z M757.6,66.6
			c-4.5-1.3-9.1-2.3-13.6-3.4c-1.8-0.4-3.6-0.8-5.5-1.3c-0.8-0.2-1.6-0.4-2.3-0.6c-5.2-1.2-10.2-2.4-14.8-4.8c-2.5-1.3-3-2.5-3-3.9
			c0.1-1.7,0.9-2.8,3.2-4c3.2-1.7,6.6-2,9.8-2c1.1,0,2.2,0,3.2,0.1l0.6,0c7.7,0.2,12.4,3.7,14.6,10.6
			C751.3,62,753.9,65.1,757.6,66.6L757.6,66.6L757.6,66.6z M671.6,105.5c-0.8,0-1-0.1-1-0.1c-0.2-0.2-0.3-1.2-0.3-3.1
			c0-9.9,0.1-19.9,0.1-29.8c2.8,9.7,8.9,17.4,18.1,23.1c11.1,6.8,23.7,9.8,35.8,12.7l1.9,0.4c1.5,0.4,3,0.7,4.5,1
			c6,1.3,11.7,2.6,16.9,5.4c3,1.7,4.2,3.1,4.3,5c0.1,3.3-2.8,4.9-4.1,5.4c-4.1,1.8-8.4,2.6-13.1,2.6c-3.8,0-7.7-0.6-12.1-1.7
			c-6-1.6-8.4-6.3-10.1-13c-1.3-5-4.9-8.1-10-8.5c-5.5-0.4-10.5-0.7-15.5-0.7s-9.3,0.3-13.3,1C672.8,105.4,672.1,105.5,671.6,105.5
			L671.6,105.5L671.6,105.5z"/>
		<path class="st0" d="M150.2,7.6c3.1,0,6.1,0,9.1,0.1c9.1,0.2,12.1,3.2,12.3,12.5c0.1,5.7,0.1,11.3,0.1,17c0,22.5,0,45,0,67.4
			c0,1.8,0,3.7,0,5.5c0.3,12.6,6.9,19.7,17.3,19.7c2.4,0,5-0.4,7.7-1.1c6.6-1.8,10.6-6,11.9-12.7c0.6-3.3,0.8-6.6,0.8-9.9
			c0-27.5,0-55,0-82.4c0-2.7,0-5.4,0.5-8c0.8-4.7,3.7-7.6,8.5-7.7c4.6-0.1,9.2-0.2,13.9-0.2c4.4,0,8.8,0.1,13.1,0.2
			c5,0.1,7.9,3.1,8.8,8c0.3,1.8,0.4,3.6,0.4,5.5c0,31.6,0.2,63.3-0.1,94.9c-0.1,15-4.9,28.4-16.6,38.7c-7.5,6.6-16.3,10.3-25.9,12.3
			c-7.1,1.4-14.2,2.2-21.3,2.2c-8.4,0-16.8-1.1-25.2-3.3c-23.9-6.3-38.6-24.6-38.8-49.4c-0.3-21.5-0.1-43-0.1-64.4
			c0-4.1,0-5.4-1.9-5.4c-0.8,0-2.1,0.3-3.9,0.7c-3.2,0.7-6.5,1.1-9.8,1.1c0,0-0.1,0-0.1,0c-8.2,0-16.3,0-24.5,0s-16.6,0-25,0
			c-6.3,0-6.6,0.3-6.6,6.3c0,10.8-0.7,11.6,6.6,11.6c1.2,0,2.6,0,4.3,0c0.2,0,0.4,0,0.6,0c3.3,0,6.5,0,9.8,0c3.8,0,7.6,0,11.4,0
			c5.6,0,11.2,0,16.8,0.1c8.8,0.1,11.6,2.4,12.8,11.3c1,7.3,0.8,14.6-0.6,21.9c-1,4.9-4.4,7.5-10.8,7.8c-2.9,0.1-5.8,0.2-8.6,0.2
			s-5.5,0-8.2,0c-0.2,0-0.4,0-0.6,0c-1.6,0-3.1,0-4.7,0c-4.1,0-8.2,0-12.2,0c-3.4,0-6.7,0-10.1,0c-6,0-6.5,0.5-6.5,6.7
			c0,12.7,0,25.3,0,38c0,11.2-3.2,14.3-14.2,14.4c-2.5,0-4.9,0-7.4,0s-4.7,0-7.1,0c-13.9,0-16.4-2.5-16.4-16.2c0-21.2,0-42.3,0-63.4
			c0-21.8,0-43.6,0-65.4c0-11.2,2.8-14,13.8-14c13.9,0,27.8,0,41.7,0c16.3,0,32.5,0,48.8,0c4.2,0,8.4,0,11.9,2.8
			c0.6,0.4,1.2,0.7,1.8,0.7c0.5,0,0.9-0.2,1.4-0.6c3-2.7,6.5-3,10.1-3c1,0,2.1,0,3.1,0c0.2,0,0.4,0,0.6,0
			C145.3,7.6,147.7,7.6,150.2,7.6 M150.2,5.6c-2.4,0-4.9,0-7.4,0c-0.2,0-0.4,0-0.6,0c-0.5,0-1,0-1.5,0c-0.5,0-1.1,0-1.6,0
			c-3.6,0-7.8,0.3-11.4,3.5c0,0-0.1,0.1-0.1,0.1c0,0-0.3-0.1-0.6-0.3c-4.1-3.2-8.9-3.2-13.2-3.2c-7.9,0-15.8,0-23.7,0
			c-8.3,0-16.7,0-25,0c-16.4,0-29.6,0-41.7,0c-12.1,0-15.8,3.7-15.8,16c0,15.4,0,31.1,0,46.3c0,6.4,0,12.8,0,19.2v11.4
			c0,17.1,0,34.7,0,52c0,6.9,0.6,11.7,3.6,14.6c3,2.9,7.9,3.5,14.8,3.6c2.4,0,4.7,0,7.1,0c2.4,0,4.9,0,7.4,0
			c12.2-0.1,16.1-4.1,16.2-16.4c0-6.9,0-13.9,0-20.7c0-5.8,0-11.5,0-17.3c0-1.1,0-3.8,0.4-4.2c0.4-0.4,3-0.4,4.1-0.4
			c3.4,0,6.7,0,10.1,0c2,0,4.1,0,6.1,0s4.1,0,6.1,0c1.6,0,3.1,0,4.7,0h0.6c1.4,0,2.7,0,4.1,0c1.4,0,2.8,0,4.1,0c2.4,0,5.5,0,8.7-0.2
			c7.2-0.4,11.5-3.5,12.6-9.4c1.5-7.4,1.7-15,0.6-22.5c-1.3-9.8-4.9-12.9-14.8-13c-5.9-0.1-11.8-0.1-16.8-0.1h-5.7h-5.7
			c-3.3,0-6.5,0-9.8,0h-0.7c-0.9,0-1.8,0-2.5,0c-0.7,0-1.2,0-1.8,0c-1.1,0-3.7,0-4.1-0.4c-0.5-0.5-0.5-3.3-0.5-6.5
			c0-0.8,0-1.7,0-2.6c0-1.2,0-3.6,0.3-4c0.4-0.3,3-0.3,4.3-0.3c8.3,0,16.6,0,24.9,0c9,0,17,0,24.5,0h0.1c3.4,0,6.8-0.4,10.2-1.1
			c1.4-0.3,2.5-0.6,3.2-0.6c0.1,0.7,0.1,2.1,0.1,3.3c0,7.2,0,14.5,0,21.6c0,14-0.1,28.6,0.1,42.8c0.3,25.6,15.4,44.8,40.3,51.3
			c8.4,2.2,17.1,3.3,25.7,3.3c7.1,0,14.4-0.8,21.7-2.2c10.8-2.2,19.5-6.4,26.8-12.7c11.3-9.9,17.2-23.4,17.3-40.2
			c0.2-23.3,0.2-46.9,0.1-69.8c0-8.4,0-16.7,0-25.1c0-1.7,0-3.8-0.4-5.8c-1.1-6-5-9.5-10.7-9.6c-4.5-0.1-8.9-0.2-13.2-0.2
			c-4.7,0-9.4,0.1-13.9,0.2C212.9,6,209,9.5,208,15.2c-0.5,2.9-0.5,5.9-0.5,8.3c0,29.9,0,59.8,0,82.4c0,3.7-0.2,6.8-0.8,9.6
			c-1.2,5.9-4.6,9.6-10.5,11.2c-2.6,0.7-5,1.1-7.2,1.1c-9.4,0-15-6.5-15.3-17.8c0-1.3,0-2.7,0-4.1v-1.4V79.1c0-14,0-28,0-42
			c0-1.5,0-2.9,0-4.4c0-4.1,0-8.4-0.1-12.6c-0.2-10.4-4.1-14.3-14.3-14.4C156.4,5.6,153.3,5.6,150.2,5.6L150.2,5.6L150.2,5.6z"/>
	</g>
</g>
</svg>
