<?xml version="1.0" encoding="UTF-8"?>
<svg id="Livello_2" data-name="Livello 2" xmlns="http://www.w3.org/2000/svg" viewBox="0 0 313.89 169.29">
  <defs>
    <style>
      .cls-1 {
        fill: #fff;
      }
    </style>
  </defs>
  <g id="Livello_1-2" data-name="Livello 1">
    <path class="cls-1" d="m125.1,2c11.56,0,22.83,2.2,33.5,7.51,12.89,6.42,22.22,16.16,27.82,29.45.37.89.9,1.71,1.63,3.08,1.3-2.12.8-3.95.87-5.65.33-7.47-.69-14.99.74-22.42,1.09-5.62,4.17-8.32,9.87-8.78,1.16-.09,2.33-.1,3.5-.1,17.32,0,34.64-.01,51.96-.01,14.16,0,28.32,0,42.48.03,10.32.02,13.31,3.11,13.41,13.48.05,4.83.08,9.66-.02,14.49-.19,8.8-3.44,12.16-12.14,12.21-18.82.11-37.64.02-56.47.12h-.04c-.98,0-2.12-.17-3.19-.17-1.65,0-3.14.41-3.64,2.49-.95,3.97-1.41,8.33.42,12.21.51,1.09,1.61,1.31,2.78,1.31.77,0,1.57-.09,2.28-.09h.02c5.49.01,10.98.01,16.46.01,2.5,0,4.99,0,7.49,0,7.17,0,14.35,0,21.52.03,11.72.04,15.29,3.55,15.47,15.14.07,4.49.2,9.01-.16,13.48-.62,7.95-4.26,11.32-12.25,11.38-8.31.06-16.61.07-24.92.07-2.82,0-5.65,0-8.47,0-4.86,0-9.72,0-14.58.02-6.03.02-6.49.52-6.55,6.61-.03,3.33.17,6.67-.05,9.99-.3,4.47,1.53,6.16,5.96,6.16.05,0,.1,0,.16,0,8.3-.07,16.6-.09,24.9-.09,9.69,0,19.38.03,29.07.04,14.78.02,16.92,2.19,16.9,17.19,0,4.65.35,9.32-.48,13.95-.96,5.33-4.22,8.13-9.42,8.82-1.81.24-3.66.23-5.49.23-17.97,0-35.94.02-53.91.02-12.68,0-25.36,0-38.04-.02-12-.02-15.38-3.43-15.52-15.48-.08-6.56-.01-13.13-.53-19.78-3.42,6.24-6.63,12.34-11.32,17.55-11.05,12.29-25.19,18.32-41.25,20.12-4.11.46-8.18.71-12.19.71-16.7,0-32.44-4.28-46.44-15.05-13.07-10.06-21.67-23.29-26.3-39.12-.68-2.32-.71-4.89-2.98-8.01,0,6.5,0,11.89,0,17.28,0,9.49.12,18.99-.07,28.47-.19,9.64-3.85,13.16-13.54,13.29-3.42.05-6.85.09-10.27.09s-6.81-.04-10.21-.15c-7.45-.24-10.84-3.56-11.67-10.99-.22-1.98-.18-3.99-.18-5.99,0-41.63-.02-83.26,0-124.88,0-14.98,2.14-17.12,16.95-17.15,2.77,0,5.53-.03,8.3-.03s5.79.02,8.69.1c8.21.22,11.12,2.75,11.75,11.07.49,6.46.22,12.98.24,19.47.03,9.45,0,18.9,0,28.35,2.84-7.9,5.24-15.78,9.14-23.12C70.01,16.56,90.75,4.33,117.76,2.28c2.46-.19,4.91-.28,7.34-.28m-1.37,124.9c.46,0,.91-.01,1.38-.03,10.92-.48,18.34-6.06,21.53-16.9,1.34-4.54,4.59-7.53,9.45-7.65,5.14-.12,10.3-.47,15.45-.47,4.49,0,8.97.27,13.41,1.19.6.12,1.11.19,1.56.19,1.81,0,2.43-1.05,2.42-3.31-.03-5.16,0-10.32,0-15.48,0-5.33.04-10.65-.02-15.98-.02-1.56.07-3.42-1.83-3.42-.3,0-.65.05-1.06.15-3.9.97-7.83,1.2-11.77,1.2-3.49,0-6.99-.18-10.48-.18-1.53,0-3.06.03-4.59.13-.5.03-.98.05-1.45.05-6.54,0-10.66-3.13-12.86-9.7-2.5-7.45-8.08-11.58-15.67-13.12-1.87-.38-3.77-.57-5.65-.57-9.95,0-19.54,5.2-23.98,14.29-8.92,18.28-9.44,36.95.56,55.08,5.06,9.18,13.12,14.53,23.61,14.53M125.1,0c-2.44,0-4.96.1-7.49.29-28.5,2.16-49.46,15.51-62.29,39.68-2.12,4-3.83,8.19-5.37,12.39,0-5.51,0-11.14-.01-16.69,0-1.77.01-3.53.03-5.3.04-4.69.09-9.53-.27-14.31-.7-9.28-4.28-12.66-13.69-12.91-2.56-.07-5.25-.1-8.74-.1-1.67,0-3.35,0-5.02.01-1.09,0-2.19,0-3.28.01C3.02,3.1.01,6.14,0,22.21,0,63.15,0,102.99.01,147.1v.84c0,1.75-.01,3.56.19,5.37.93,8.44,5.25,12.5,13.59,12.77,3.12.1,6.48.15,10.28.15,3.27,0,6.48-.03,10.3-.09,10.8-.15,15.3-4.56,15.51-15.25.13-6.68.11-13.47.09-20.03,0-2.83-.02-5.66-.02-8.48,0-1.88,0-3.75,0-5.68,5.04,15.2,13.79,27.68,26.06,37.11,13.53,10.41,29.12,15.47,47.66,15.47,3.98,0,8.16-.24,12.41-.72,17.84-2.01,31.75-8.8,42.51-20.77,3.28-3.65,5.81-7.62,8.2-11.8.09,3.01.11,6,.14,8.94,0,1.26.02,2.52.03,3.78.15,13.2,4.41,17.45,17.52,17.46,12.68.02,25.36.02,38.04.02,13.93,0,27.87,0,41.8-.01h12.11s.14,0,.14,0c1.82,0,3.71,0,5.6-.25,6.2-.82,10.05-4.43,11.13-10.45.67-3.73.61-7.45.54-11.04-.02-1.09-.04-2.18-.04-3.26.01-7.83-.54-12.64-3.47-15.62-2.94-2.99-7.69-3.56-15.42-3.57-3.24,0-6.47-.01-9.71-.02-6.46-.01-12.91-.03-19.37-.03-9.61,0-17.52.03-24.91.09h-.14c-1.71,0-2.84-.28-3.36-.84-.5-.54-.7-1.61-.6-3.18.15-2.2.11-4.4.08-6.53-.02-1.17-.04-2.39-.03-3.57.01-1.22.04-3.77.46-4.2.42-.42,2.99-.43,4.09-.43,4.86-.01,9.72-.02,14.58-.02h4.24s4.24,0,4.24,0c7.53,0,16.29,0,24.93-.07,9-.07,13.53-4.27,14.23-13.23.32-4.07.25-8.18.19-12.17l-.02-1.5c-.19-12.75-4.6-17.07-17.46-17.11-7.48-.03-15.03-.03-21.53-.03h-3.74s-3.74,0-3.74,0c-5.49,0-10.97,0-16.46-.01-.43,0-.84.02-1.23.05-.38.02-.73.04-1.07.04-.77,0-.95-.13-.96-.13-1.32-2.81-1.41-6.27-.3-10.92.14-.59.23-.95,1.7-.95.47,0,.97.04,1.51.08.55.04,1.12.09,1.68.09h.06c9.09-.05,18.33-.05,27.28-.05,9.57,0,19.46,0,29.19-.06,9.69-.06,13.91-4.29,14.13-14.17.11-4.96.07-9.91.02-14.55-.12-11.54-4.01-15.44-15.41-15.46-12.44-.02-25.94-.03-42.48-.03-9.59,0-19.18,0-28.78,0-7.73,0-15.46,0-23.19,0-1.1,0-2.39,0-3.65.11-6.6.53-10.42,3.93-11.67,10.39-.97,5-.87,10.03-.77,14.89.05,2.24.09,4.56.03,6.82-5.82-12.12-15.05-21.39-27.47-27.57-10.28-5.12-21.85-7.72-34.39-7.72h0Zm-1.37,124.9c-9.43,0-16.99-4.67-21.86-13.5-9.32-16.91-9.49-34.82-.51-53.23,3.9-8,12.61-13.17,22.18-13.17,1.76,0,3.53.18,5.25.53,7.27,1.48,12.04,5.45,14.17,11.8,2.5,7.44,7.32,11.06,14.76,11.06.51,0,1.04-.02,1.58-.05,1.34-.09,2.8-.13,4.46-.13s3.48.05,5.19.09c1.73.04,3.52.09,5.29.09,3.35,0,7.77-.14,12.25-1.26.14-.04.26-.06.35-.07.04.34.05.84.05,1.17v.26c.05,3.81.04,7.7.03,11.46,0,1.5,0,3,0,4.5,0,1.41,0,2.82,0,4.23,0,3.69-.01,7.5.01,11.26,0,.78-.08,1.14-.13,1.28-.06.01-.15.02-.29.02-.3,0-.69-.05-1.15-.15-4.05-.84-8.44-1.23-13.82-1.23-3.14,0-6.32.13-9.4.26-2,.08-4.07.17-6.09.21-5.54.13-9.66,3.44-11.32,9.08-2.89,9.82-9.51,15.02-19.7,15.46-.44.02-.87.03-1.29.03h0Z"/>
  </g>
</svg>