<?xml version="1.0" encoding="utf-8"?>
<!-- Generator: Adobe Illustrator 27.3.1, SVG Export Plug-In . SVG Version: 6.00 Build 0)  -->
<svg version="1.1" id="Livello_2_00000010289077180081022640000017528061634181370045_"
	 xmlns="http://www.w3.org/2000/svg" xmlns:xlink="http://www.w3.org/1999/xlink" x="0px" y="0px" viewBox="0 0 322.3 175.7"
	 style="enable-background:new 0 0 322.3 175.7;" xml:space="preserve">
<style type="text/css">
	.st0{fill:#FFFFFF;stroke:#FFFFFF;stroke-width:2;stroke-miterlimit:10;}
</style>
<g id="Livello_1-2">
	<path class="st0" d="M129.3,5.2c11.6,0,22.8,2.2,33.5,7.5c12.9,6.4,22.2,16.2,27.8,29.5c0.4,0.9,0.9,1.7,1.6,3.1
		c1.3-2.1,0.8-4,0.9-5.7c0.3-7.5-0.7-15,0.7-22.4c1.1-5.6,4.2-8.3,9.9-8.8c1.2-0.1,2.3-0.1,3.5-0.1c17.3,0,34.6,0,52,0
		c14.2,0,28.3,0,42.5,0c10.3,0,13.3,3.1,13.4,13.5c0,4.8,0.1,9.7,0,14.5c-0.2,8.8-3.4,12.2-12.1,12.2c-18.8,0.1-37.6,0-56.5,0.1h0
		c-1,0-2.1-0.2-3.2-0.2c-1.6,0-3.1,0.4-3.6,2.5c-0.9,4-1.4,8.3,0.4,12.2c0.5,1.1,1.6,1.3,2.8,1.3c0.8,0,1.6-0.1,2.3-0.1h0
		c5.5,0,11,0,16.5,0c2.5,0,5,0,7.5,0c7.2,0,14.4,0,21.5,0c11.7,0,15.3,3.6,15.5,15.1c0.1,4.5,0.2,9-0.2,13.5
		c-0.6,7.9-4.3,11.3-12.2,11.4c-8.3,0.1-16.6,0.1-24.9,0.1c-2.8,0-5.6,0-8.5,0c-4.9,0-9.7,0-14.6,0c-6,0-6.5,0.5-6.6,6.6
		c0,3.3,0.2,6.7-0.1,10c-0.3,4.5,1.5,6.2,6,6.2c0.1,0,0.1,0,0.2,0c8.3-0.1,16.6-0.1,24.9-0.1c9.7,0,19.4,0,29.1,0
		c14.8,0,16.9,2.2,16.9,17.2c0,4.6,0.4,9.3-0.5,13.9c-1,5.3-4.2,8.1-9.4,8.8c-1.8,0.2-3.7,0.2-5.5,0.2c-18,0-35.9,0-53.9,0
		c-12.7,0-25.4,0-38,0c-12,0-15.4-3.4-15.5-15.5c-0.1-6.6,0-13.1-0.5-19.8c-3.4,6.2-6.6,12.3-11.3,17.6
		c-11.1,12.3-25.2,18.3-41.2,20.1c-4.1,0.5-8.2,0.7-12.2,0.7c-16.7,0-32.4-4.3-46.4-15.1c-13.1-10.1-21.7-23.3-26.3-39.1
		c-0.7-2.3-0.7-4.9-3-8c0,6.5,0,11.9,0,17.3c0,9.5,0.1,19-0.1,28.5c-0.2,9.6-3.8,13.2-13.5,13.3c-3.4,0.1-6.8,0.1-10.3,0.1
		s-6.8,0-10.2-0.1c-7.4-0.2-10.8-3.6-11.7-11c-0.2-2-0.2-4-0.2-6c0-41.6,0-83.3,0-124.9c0-15,2.1-17.1,17-17.2c2.8,0,5.5,0,8.3,0
		s5.8,0,8.7,0.1c8.2,0.2,11.1,2.8,11.8,11.1c0.5,6.5,0.2,13,0.2,19.5c0,9.5,0,18.9,0,28.3c2.8-7.9,5.2-15.8,9.1-23.1
		C74.2,19.8,95,7.5,122,5.5C124.4,5.3,126.9,5.2,129.3,5.2 M127.9,130.1c0.5,0,0.9,0,1.4,0c10.9-0.5,18.3-6.1,21.5-16.9
		c1.3-4.5,4.6-7.5,9.4-7.7c5.1-0.1,10.3-0.5,15.4-0.5c4.5,0,9,0.3,13.4,1.2c0.6,0.1,1.1,0.2,1.6,0.2c1.8,0,2.4-1.1,2.4-3.3
		c0-5.2,0-10.3,0-15.5c0-5.3,0-10.7,0-16c0-1.6,0.1-3.4-1.8-3.4c-0.3,0-0.6,0.1-1.1,0.2c-3.9,1-7.8,1.2-11.8,1.2
		c-3.5,0-7-0.2-10.5-0.2c-1.5,0-3.1,0-4.6,0.1c-0.5,0-1,0.1-1.4,0.1c-6.5,0-10.7-3.1-12.9-9.7c-2.5-7.5-8.1-11.6-15.7-13.1
		c-1.9-0.4-3.8-0.6-5.7-0.6c-9.9,0-19.5,5.2-24,14.3c-8.9,18.3-9.4,36.9,0.6,55.1C109.4,124.7,117.5,130.1,127.9,130.1 M129.3,3.2
		c-2.4,0-5,0.1-7.5,0.3C93.3,5.6,72.4,19,59.5,43.2c-2.1,4-3.8,8.2-5.4,12.4c0-5.5,0-11.1,0-16.7c0-1.8,0-3.5,0-5.3
		c0-4.7,0.1-9.5-0.3-14.3C53.2,10,49.6,6.6,40.2,6.3c-2.6-0.1-5.2-0.1-8.7-0.1c-1.7,0-3.4,0-5,0c-1.1,0-2.2,0-3.3,0
		c-16,0-19,3.1-19,19.1c0,40.9,0,80.8,0,124.9v0.8c0,1.8,0,3.6,0.2,5.4c0.9,8.4,5.2,12.5,13.6,12.8c3.1,0.1,6.5,0.1,10.3,0.1
		c3.3,0,6.5,0,10.3-0.1c10.8-0.1,15.3-4.6,15.5-15.2c0.1-6.7,0.1-13.5,0.1-20c0-2.8,0-5.7,0-8.5c0-1.9,0-3.8,0-5.7
		c5,15.2,13.8,27.7,26.1,37.1c13.5,10.4,29.1,15.5,47.7,15.5c4,0,8.2-0.2,12.4-0.7c17.8-2,31.8-8.8,42.5-20.8
		c3.3-3.6,5.8-7.6,8.2-11.8c0.1,3,0.1,6,0.1,8.9c0,1.3,0,2.5,0,3.8c0.1,13.2,4.4,17.4,17.5,17.5c12.7,0,25.4,0,38,0
		c13.9,0,27.9,0,41.8,0h12.1h0.1c1.8,0,3.7,0,5.6-0.2c6.2-0.8,10-4.4,11.1-10.4c0.7-3.7,0.6-7.4,0.5-11c0-1.1,0-2.2,0-3.3
		c0-7.8-0.5-12.6-3.5-15.6c-2.9-3-7.7-3.6-15.4-3.6c-3.2,0-6.5,0-9.7,0c-6.5,0-12.9,0-19.4,0c-9.6,0-17.5,0-24.9,0.1H245
		c-1.7,0-2.8-0.3-3.4-0.8c-0.5-0.5-0.7-1.6-0.6-3.2c0.1-2.2,0.1-4.4,0.1-6.5c0-1.2,0-2.4,0-3.6c0-1.2,0-3.8,0.5-4.2
		c0.4-0.4,3-0.4,4.1-0.4c4.9,0,9.7,0,14.6,0h4.2h4.2c7.5,0,16.3,0,24.9-0.1c9-0.1,13.5-4.3,14.2-13.2c0.3-4.1,0.2-8.2,0.2-12.2
		l0-1.5c-0.2-12.8-4.6-17.1-17.5-17.1c-7.5,0-15,0-21.5,0h-3.7h-3.7c-5.5,0-11,0-16.5,0c-0.4,0-0.8,0-1.2,0c-0.4,0-0.7,0-1.1,0
		c-0.8,0-0.9-0.1-1-0.1c-1.3-2.8-1.4-6.3-0.3-10.9c0.1-0.6,0.2-1,1.7-1c0.5,0,1,0,1.5,0.1c0.6,0,1.1,0.1,1.7,0.1h0.1
		c9.1,0,18.3,0,27.3,0c9.6,0,19.5,0,29.2-0.1c9.7-0.1,13.9-4.3,14.1-14.2c0.1-5,0.1-9.9,0-14.5c-0.1-11.5-4-15.4-15.4-15.5
		c-12.4,0-25.9,0-42.5,0c-9.6,0-19.2,0-28.8,0c-7.7,0-15.5,0-23.2,0c-1.1,0-2.4,0-3.6,0.1c-6.6,0.5-10.4,3.9-11.7,10.4
		c-1,5-0.9,10-0.8,14.9c0.1,2.2,0.1,4.6,0,6.8c-5.8-12.1-15.1-21.4-27.5-27.6C153.4,5.8,141.9,3.2,129.3,3.2L129.3,3.2L129.3,3.2z
		 M127.9,128.1c-9.4,0-17-4.7-21.9-13.5c-9.3-16.9-9.5-34.8-0.5-53.2c3.9-8,12.6-13.2,22.2-13.2c1.8,0,3.5,0.2,5.2,0.5
		c7.3,1.5,12,5.5,14.2,11.8c2.5,7.4,7.3,11.1,14.8,11.1c0.5,0,1,0,1.6-0.1c1.3-0.1,2.8-0.1,4.5-0.1s3.5,0.1,5.2,0.1
		c1.7,0,3.5,0.1,5.3,0.1c3.4,0,7.8-0.1,12.2-1.3c0.1,0,0.3-0.1,0.4-0.1c0,0.3,0.1,0.8,0.1,1.2v0.3c0.1,3.8,0,7.7,0,11.5
		c0,1.5,0,3,0,4.5c0,1.4,0,2.8,0,4.2c0,3.7,0,7.5,0,11.3c0,0.8-0.1,1.1-0.1,1.3c-0.1,0-0.1,0-0.3,0c-0.3,0-0.7-0.1-1.1-0.2
		c-4.1-0.8-8.4-1.2-13.8-1.2c-3.1,0-6.3,0.1-9.4,0.3c-2,0.1-4.1,0.2-6.1,0.2c-5.5,0.1-9.7,3.4-11.3,9.1c-2.9,9.8-9.5,15-19.7,15.5
		C128.8,128.1,128.4,128.1,127.9,128.1L127.9,128.1L127.9,128.1z"/>
</g>
</svg>
