<?xml version="1.0" encoding="utf-8"?>
<!-- Generator: Adobe Illustrator 27.3.1, SVG Export Plug-In . SVG Version: 6.00 Build 0)  -->
<svg version="1.1" id="Livello_2_00000130623984165107902250000016042300346963543717_"
	 xmlns="http://www.w3.org/2000/svg" xmlns:xlink="http://www.w3.org/1999/xlink" x="0px" y="0px" viewBox="0 0 1064.5 172.8"
	 style="enable-background:new 0 0 1064.5 172.8;" xml:space="preserve">
<style type="text/css">
	.st0{fill:#FFFFFF;stroke:#FFFFFF;stroke-width:2;stroke-miterlimit:10;}
</style>
<g id="Livello_1-2">
	<path class="st0" d="M728.2,5c11,0,21.8,2.1,32.4,6.8c18,8.2,28,22.6,29.4,42.5c0.6,8-2.6,11.4-10.7,11.8c-3.3,0.2-6.6,0.2-9.9,0.2
		c-4,0-8-0.1-12.1-0.2c-5.6-0.1-9.2-3.1-11.2-8.3c-3.2-8.3-12.1-13.2-20.9-13.2c-4.3,0-8.6,1.2-12.1,3.8c-4.3,3.2-3.8,8.1,1.6,10.5
		c8.2,3.8,17.2,5.2,25.9,7.3c8.6,2,17.1,4.3,25.2,7.8c7,3,13.2,7,18.3,12.7c0.7,0.8,1.3,2.2,2.4,2.2c0.2,0,0.4,0,0.6-0.1
		c1.5-0.6,0.9-2.3,0.9-3.6c0.5-14.8,3.6-29.1,10.7-42.2c13-24.1,33.9-35.8,60.7-37.7c2.2-0.2,4.5-0.2,6.7-0.2
		c11.6,0,22.9,2.2,33.7,7.5c12,5.9,20.6,15,26.7,26.7c0.5,1,0.5,2.5,1.9,2.7c0.1,0,0.2,0,0.3,0c1,0,1.3-1.1,1.6-2
		c6.9-20.7,23-29.7,43-33.3c6.3-1.1,12.5-1.7,18.8-1.7c10.6,0,21.1,1.8,31.3,6.2c18.3,7.9,28.2,22.3,30.5,41.8
		c1,8.6-2.8,12.8-11.6,13.1c-2.9,0.1-5.8,0.1-8.6,0.1c-3.9,0-7.9-0.1-11.8-0.1c-5.8-0.1-9.6-2.9-11.8-8.4
		c-3.3-8.3-12-13.2-20.7-13.2c-4.3,0-8.7,1.2-12.3,3.8c-4.1,2.9-3.9,7.5,0.7,10c5.5,3,11.5,4.4,17.5,5.7
		c12.8,2.9,25.6,5.7,37.7,11.3c20.3,9.5,27.1,27.8,24.7,47.8c-2.9,23.8-17.5,39.4-40.9,44.6c-8.2,1.8-16.3,2.7-24.4,2.7
		c-11.2,0-22.3-1.8-33.2-5.6c-12.8-4.5-22.8-12.3-28.9-24.6c-0.7-1.4-1.4-3.2-2.4-3.2c-0.6,0-1.4,0.6-2.3,2.2
		c-10.6,18-26.7,27.4-47.1,30c-4.6,0.6-9.1,0.9-13.5,0.9c-16.7,0-32.4-4.4-46.5-15.1c-8.7-6.6-15.5-15.1-20.5-24.8
		c-0.9-1.7-1.2-3.8-3.1-4.9c-1.1,0.3-1.2,1.2-1.3,2c-4,21.6-17.6,34.4-38.1,39.7c-9,2.3-18,3.6-26.9,3.6c-11.8,0-23.4-2.1-34.9-6.6
		c-14.8-5.8-25.1-16-30-31.3c-0.4-1.2-0.5-2.6-2-3.6c-1.5,1.4-1.6,3.5-2.2,5.3c-5.3,15.9-16.3,26.1-32,31.1
		c-9.4,3-18.9,4.4-28.4,4.4c-7.9,0-15.9-1-23.8-2.9c-13.2-3.2-24.5-9.3-32.2-21c-0.5-0.7-0.9-1.6-2.2-1.6c-0.2,0-0.3,0-0.5,0
		c-0.9,3.6-0.3,7.4-0.5,11.1c-0.4,7.7-3.8,11.4-11.5,11.5c-11.7,0.1-23.4,0.1-35,0.1c-6.6,0-13.1,0-19.7,0c-11.6,0-23.1,0-34.7,0.1
		h0c-4.2,0-7.2-3.7-10.6-3.7c-0.1,0-0.2,0-0.3,0c-3.4,0.2-6.4,3.6-10.5,3.6h0c-9.3,0-18.6,0-27.9,0c-7.8,0-15.5,0-23.3,0
		c-12.9,0-25.9,0-38.8-0.1c-7.6,0-11.3-4.1-11.5-12.7c-0.2-12-0.1-24-0.1-36c0-1.7,0.5-3.6-0.7-5.7c-10.7,35.8-33.5,56.4-71.4,57.4
		c-1,0-2,0-3,0c-38.7,0-63.6-19.5-74.8-57.5c-1.4,2-0.9,3.9-0.9,5.6c-0.1,12,0.1,24-0.1,36c-0.1,9.6-3.5,12.8-13.1,12.9
		c-2.9,0-5.8,0.1-8.7,0.1s-5.5,0-8.3-0.1c-9.9-0.1-12.9-3.1-13-12.9c-0.1-8.8,0-17.6-0.1-26.5c0-2.6,0.2-5.3-1.6-8.8
		c-1.4,4.8-2.7,8.8-3.9,12.9c-2.5,8.5-4.9,17-7.4,25.4c-2.1,7-5.4,9.6-12.6,9.8c-3.5,0.1-6.9,0.1-10.4,0.1s-6.7,0-10.1-0.1
		c-7.8-0.1-11.2-2.8-13.3-10.3c-2.9-10.1-5.7-20.2-8.6-30.3c-0.5-1.9-1.2-3.7-2.9-5.4c0,6.4,0.1,12.7,0,19.1c-0.1,6,0.5,12-0.8,17.9
		c-1.2,5.6-3.8,8.4-9.3,8.7c-3.9,0.2-7.9,0.3-11.9,0.3s-7.8-0.1-11.6-0.3c-5.8-0.3-8.6-3.4-9.4-9.1c-0.6-4.5-0.9-8.9-0.9-13.4
		c0-38.1,0-76.3,0-114.4c0-4.4,0.4-8.6,1-12.9c0.7-5.2,3.7-8.6,8.8-8.7c6.4-0.1,12.8-0.2,19.1-0.2c6.8,0,13.6,0.1,20.3,0.2
		c5.2,0.1,7.8,3.9,9.2,8.6c4.2,14.7,8.4,29.5,12.6,44.2c2.1,7.2,4.1,14.4,6.2,21.6c0.3,1.2,0.3,2.7,2.6,3.5
		c1.7-5.9,3.5-11.7,5.1-17.5c4.7-16.7,9.3-33.3,14.1-50c2.3-8.3,5.2-10.5,13.9-10.6c5.6,0,11.1-0.1,16.7-0.1c5.1,0,10.2,0,15.3,0.1
		c10,0.1,13.1,3.2,13.2,13.3c0.1,11.8,0,23.6,0.1,35.5c0,1.8-0.4,3.6,0.8,6C176.9,24.7,202,5.3,239.1,5.3c3.1,0,6.3,0.1,9.5,0.4
		c34.9,2.9,56,23.6,65.7,57.2c1.5-1.7,1-3.4,1-4.8c0-11.3,0-22.6,0.1-34c0-2.6,0.4-5.3,0.8-7.9c0.7-4.8,3.7-7.6,8.4-7.7
		c4.8-0.1,9.6-0.2,14.4-0.2c4.2,0,8.4,0,12.6,0.1c4.5,0.1,7.3,2.9,8.6,7.1c1,3.2,1.1,6.5,1.1,9.9c0,31,0,61.9,0,92.9
		c0,5.8,2.8,8.7,8.5,8.7c2.9,0,5.9,0,8.8,0s5.8,0,8.6,0c8.9,0,17.7,0,26.6,0c0.1,0,0.1,0,0.2,0c0.7,0,1.4,0,2.1,0
		c1.8,0,3.6,0.1,5.1,0.8c1.3,0.6,2.3,0.8,3.1,0.8c2.1,0,2.2-2.1,2.2-5.1c-0.1-32.5-0.1-64.9,0-97.4c0-2.5,0-5,0.4-7.5
		c1.3-7.7,4.3-10.3,12.1-10.4c3.7-0.1,7.3-0.1,11-0.1s7.6,0,11.5,0.2c6.8,0.2,9.2,2.4,10.4,9.1c0.5,2.6,0.5,5.3,0.5,7.9
		c0,31.5,0,63,0,94.4c0,7,0.3,7.2,7.4,7.3c2.4,0,4.8,0.1,7.3,0.1c7.8,0,15.5-0.2,23.2-0.2c7.3,0,14.6,0.1,21.9,0.7
		c0.2,0,0.3,0,0.5,0c2.1,0,2.2-1.2,2-3.1c-2.7-32.9-0.8-65.9-1.2-98.8c-0.2-15.6,4.2-17.7,14-17.7c1.1,0,2.2,0,3.4,0.1
		c1.7,0.1,3.5,0.1,5.2,0.1c1.9,0,3.8,0,5.7,0c2.2,0,4.4,0,6.5,0.1c7,0.3,9.9,3,10.8,10c0.3,2.1,0.2,4.3,0.2,6.5
		c0,28.6,0,57.3,0,85.9c0,12.5,6.6,19.6,17.3,19.6c2.1,0,4.3-0.3,6.7-0.8c8.9-2.1,12.9-7.2,13-16.9c0.1-28.3,0-56.6,0-84.9
		c0-17,2.4-19.4,19.1-19.4c2.5,0,4.9,0,7.4,0c2.7,0,5.4,0,8.1,0.1c7.5,0.3,10.5,3.2,11.2,10.6c0.2,2.1,0.1,4.3,0.1,6.5
		c0,25.8,0,51.6,0,77.4c0,4.2,0,5.2,2,5.2c0.8,0,2-0.2,3.7-0.4c4.6-0.6,9.3-0.8,13.9-0.8c5,0,10,0.3,15,0.6c4,0.3,6.7,2.7,7.8,6.7
		c1.8,6.1,3.6,12.6,10.8,14.4c4.5,1.2,9.1,2,13.6,2c4.8,0,9.5-0.9,14.2-3c2.9-1.4,4.7-3.7,4.6-7.1c-0.1-3.2-2-5.2-4.7-6.6
		c-3.4-1.8-7.1-2.8-10.8-3.8c-11.6-3.1-23.4-5.3-34.8-9.2c-29.9-10.2-42.2-38.9-28.5-67.4c6.9-14.4,19.6-21.9,34.6-25.5
		C712,6.1,720.2,5,728.2,5 M240.2,130.2c12.7,0,22.3-7,27-20.3c5.1-14.6,5-29.4,0.1-44c-2-5.8-5.1-10.9-10.1-14.6
		c-5.5-4-11.4-6-17.3-6c-11.3,0-21.9,7.2-27,20.1c-5.5,13.9-5.4,28.4-0.9,42.6c4.6,14.4,14.9,22.1,28.1,22.2
		C240.1,130.2,240.2,130.2,240.2,130.2 M865,130c9.4,0,18.6-4.9,21.8-14.4c3-9,5.2-10.4,14.3-10.4c0.3,0,0.5,0,0.8,0
		c9.4,0.1,18.8-0.2,28.3,1.6c2.8,0.6,5.8,0.7,8.7,0.7c4.8,0,9.6-0.4,14.3-0.4c0.1,0,0.2,0,0.3,0c11.4,0.1,12.5,0.7,16.2,11.5
		c2.5,7.3,7.6,10.6,14.8,11.5c0.9,0.1,1.8,0.1,2.8,0.1c1.6,0,3.1-0.1,4.7-0.1c1.2,0.1,2.4,0.1,3.6,0.1c3.8,0,7.5-0.5,11-2.4
		c6.5-3.5,6.8-9.7,0.6-13.6c-3.4-2.2-7.3-3.1-11.2-4.2c-11.9-3.2-24.1-5.2-35.7-9.5c-14.2-5.2-25.9-13-30.4-28.5
		c-0.5-1.8-1.3-3.3-3.4-3.3c-0.2,0-0.5,0-0.8,0.1c-3.5,0.5-7,0.6-10.6,0.6c-3.1,0-6.3-0.1-9.4-0.1c-1.8,0-3.7,0-5.5,0.1
		c-0.5,0-0.9,0-1.3,0c-6.8,0-11-3.3-13.3-10c-3-8.7-9.9-12.7-18.8-13.2c-0.7,0-1.3-0.1-2-0.1c-12.1,0-21.6,6.4-26.3,18
		c-6.1,15.2-6.3,30.5-0.4,45.8c2.6,6.8,7.1,12.4,13.5,16.3C855.8,128.8,860.4,130,865,130 M728.2,3c-7.8,0-16.2,1.1-24.9,3.1
		c-17.6,4.2-29.4,12.9-36,26.5c-1.3,2.7-2.4,5.4-3.2,8.1c0-5.1,0-10.2,0-15.3c0-0.4,0-0.8,0-1.2c0-1.8,0-3.6-0.2-5.4
		c-0.8-8.5-4.6-12.1-13.1-12.5c-3-0.1-6-0.1-8.2-0.1c-1.3,0-2.5,0-3.8,0c-1.2,0-2.4,0-3.5,0c-8.7,0-14,0.6-17.2,3.9
		c-3.2,3.3-3.9,8.7-3.9,17.5c0,8.6,0,17.3,0,25.9c0,19.3,0,39.3,0,59c0,8.7-3.3,13.1-11.4,15c-2.2,0.5-4.3,0.8-6.3,0.8
		c-9.7,0-15.2-6.4-15.3-17.6c0-18.5,0-37.2,0-55.4c0-10.2,0-20.3,0-30.5v-1c0-1.9,0-3.8-0.2-5.7c-1-8-4.7-11.4-12.7-11.7
		c-2.4-0.1-4.8-0.1-6.6-0.1c-1,0-1.9,0-2.9,0c-1,0-1.9,0-2.9,0c-2.1,0-3.7,0-5.2-0.1c-1,0-2.3-0.1-3.5-0.1c-5.2,0-9.2,0.6-11.9,3.4
		c-2.9,2.9-4.1,7.8-4,16.3c0.1,10.8,0,21.7-0.1,32.3c-0.2,21.8-0.5,44.4,1.3,66.6c0,0.4,0,0.7,0,0.9c0,0-0.1,0-0.1,0
		c-0.1,0-0.2,0-0.3,0c-6.4-0.4-13.2-0.7-22.1-0.7c-3.9,0-7.8,0-11.6,0.1c-3.8,0-7.7,0.1-11.6,0.1c-2.6,0-5,0-7.2-0.1
		c-1.9,0-4.5-0.1-5-0.5c-0.4-0.4-0.4-3.2-0.4-4.8c0-12.4,0-24.8,0-37.2c0-19.1,0-38.1,0-57.2c0-2.7,0-5.5-0.5-8.3
		c-1.4-7.7-4.6-10.5-12.3-10.8c-3.5-0.1-7.3-0.2-11.5-0.2c-4,0-8,0.1-11,0.1c-8.7,0.1-12.6,3.5-14,12.1c-0.4,2.5-0.5,5.1-0.5,7.8
		v4.6c0,30.4-0.1,61.9,0,92.8c0,0.8,0,2.5-0.2,3.1c-0.3,0-0.9-0.1-2.2-0.7c-1.9-0.8-3.9-0.9-5.9-0.9c-0.4,0-0.7,0-1.1,0
		c-0.3,0-0.7,0-1,0h-0.2c-9.2,0-18.5,0-26.6,0h-4.3h-4.3c-2.9,0-5.9,0-8.8,0c-2.8,0-5.5,0-6-0.5c-0.5-0.5-0.5-3.2-0.5-6.2v-9.2
		c0-27.4,0-55.8,0-83.7c0-3.4-0.1-6.9-1.2-10.5c-1.7-5.4-5.4-8.4-10.5-8.6c-4.2-0.1-8.4-0.2-12.6-0.2c-4.8,0-9.7,0.1-14.5,0.2
		c-5.7,0.2-9.5,3.6-10.4,9.4c-0.4,2.5-0.8,5.4-0.8,8.2c0,6.4,0,12.8,0,19.1c0,3.4,0,6.8,0,10.3c-5-13.3-12.1-24.1-21-32.2
		c-11.4-10.2-26-16.1-43.5-17.6c-3.3-0.3-6.6-0.4-9.7-0.4c-19,0-35,5-47.7,14.9c-10.7,8.3-19.1,20.2-25,35.3c0-3.7,0-7.3,0-10.9
		c0-6.9,0-14-0.1-21c-0.1-11.2-4.1-15.2-15.1-15.3c-4.9-0.1-10-0.1-15.3-0.1s-10.8,0-16.7,0.1c-9.5,0.1-13.2,2.9-15.8,12
		c-2.5,8.9-5.1,18-7.5,26.8c-2.2,7.7-4.3,15.5-6.5,23.2c-1.1,4-2.3,8-3.5,12c-0.2,0.5-0.3,1.1-0.5,1.6c-1.4-5-2.9-10.1-4.3-15
		c-0.6-2.1-1.2-4.1-1.8-6.2l-3-10.6c-3.2-11.2-6.4-22.4-9.6-33.6c-2.3-8.1-7.3-9.9-11-10C48.9,6.3,42,6.2,35.4,6.2
		S22.5,6.3,16.2,6.4c-5.8,0.1-9.8,4-10.7,10.4C4.8,21.7,4.5,26,4.5,30c0.1,35.8,0.1,73.2,0,114.4c0,4.8,0.3,9.3,0.9,13.7
		c1,7,4.7,10.5,11.3,10.9c3.9,0.2,7.8,0.3,11.7,0.3s8-0.1,12-0.3c6.2-0.3,9.7-3.5,11.2-10.3c1-4.6,0.9-9.2,0.9-13.7
		c0-1.5,0-3.1,0-4.6c0-3.1,0-6.3,0-9.4c0.8,2.6,1.5,5.3,2.2,7.9c1.7,6.1,3.5,12.4,5.3,18.7c2.4,8.4,6.6,11.6,15.2,11.7
		c3.4,0.1,6.8,0.1,10.1,0.1c3.5,0,7,0,10.4-0.1c8.1-0.2,12.2-3.3,14.5-11.2c1.5-5,2.9-10.1,4.4-15c1-3.5,2-7,3-10.5
		c0.5-1.7,1-3.5,1.6-5.2v0.6c0,3.5,0,7.1,0,10.7c0,5.2,0,10.6,0.1,15.8c0.1,10.8,4,14.7,14.9,14.8c2.7,0,5.5,0.1,8.3,0.1
		s5.8,0,8.7-0.1c10.7-0.1,14.9-4.3,15.1-14.9c0.1-6.9,0.1-14,0.1-20.9c0-3.7,0-7.4,0-11.2c12.7,33.2,37.4,50,73.7,50c1,0,2,0,3,0
		c34.1-0.9,57.7-17.5,70.1-49.6c0,3.2,0,6.3,0,9.4c0,7.4,0,15,0.1,22.5c0.2,9.7,4.7,14.6,13.5,14.7c13.5,0.1,27.2,0.1,38.8,0.1h11.6
		h11.6c9.3,0,18.6,0,27.9,0c2.7,0,4.9-1.2,6.9-2.2c1.4-0.7,2.7-1.4,3.8-1.5c0,0,0.1,0,0.2,0c1.1,0,2.4,0.7,3.8,1.5
		c1.9,1,4.1,2.2,6.8,2.2c12.1-0.1,24.3-0.1,34.7-0.1h9.9h9.9c11.1,0,23,0,35.1-0.1c8.6,0,13-4.4,13.5-13.4c0.1-1.4,0-2.7,0-4
		c0-1.3,0-2.6,0-3.8c7.2,10.5,18,17.4,32.9,21.1c8.1,2,16.3,3,24.3,3c9.8,0,19.5-1.5,29-4.5c16.7-5.3,27.9-16.2,33.3-32.4
		c0.2-0.5,0.3-1.1,0.4-1.6c0,0,0-0.1,0-0.1l0,0c4.9,15.4,15.5,26.4,31.2,32.6c11.4,4.5,23.4,6.7,35.6,6.7c9,0,18.2-1.2,27.5-3.6
		c21.9-5.7,35.1-19.2,39.3-40.1c0.1,0.2,0.2,0.4,0.3,0.6c0.2,0.5,0.4,1,0.7,1.6c5.3,10.3,12.4,18.9,21.1,25.5
		c13.7,10.5,29.3,15.6,47.8,15.6c4.4,0,9-0.3,13.8-0.9c21.8-2.8,38.1-13.2,48.5-30.9c0.2-0.3,0.3-0.6,0.5-0.8
		c0.2,0.3,0.3,0.6,0.4,0.9c0.1,0.2,0.2,0.5,0.3,0.7c6.1,12.1,16.2,20.7,30,25.6c10.9,3.8,22.3,5.7,33.9,5.7c8.1,0,16.4-0.9,24.8-2.8
		c24.4-5.4,39.5-21.8,42.4-46.3c2.8-23.1-6.4-40.8-25.8-49.9c-12.1-5.7-25-8.6-37.6-11.4l-0.5-0.1c-6.6-1.5-12-2.8-17-5.5
		c-1.6-0.8-2.5-2-2.5-3.2c-0.1-1.2,0.7-2.4,2.1-3.4c3.2-2.3,7.1-3.5,11.2-3.5c8.4,0,16,4.8,18.8,12c2.5,6.3,7.1,9.5,13.6,9.6l2.1,0
		c3.2,0,6.5,0.1,9.8,0.1s6.1,0,8.7-0.1c5.2-0.2,8.8-1.6,11.1-4.2c2.2-2.6,3-6.3,2.4-11.1c-2.5-20.8-13.2-35.4-31.7-43.4
		c-9.8-4.2-20.6-6.4-32.1-6.4c-6,0-12.5,0.6-19.1,1.8C949.5,9,935,20.2,928.5,39c-0.1-0.2-0.2-0.4-0.2-0.6
		c-6.4-12.5-15.7-21.8-27.6-27.6c-10.4-5.1-22.1-7.7-34.5-7.7c-2.2,0-4.5,0.1-6.8,0.2c-28.5,2-49.5,15-62.3,38.7
		c-1.9,3.6-3.6,7.3-5,11.1c-1.8-20-12.3-34.9-30.5-43.2C751.2,5.4,740,3,728.2,3L728.2,3L728.2,3z M751.5,67
		c-3.8-1.1-7.3-1.9-10.5-2.7c-1.8-0.4-3.6-0.8-5.3-1.2c-6.8-1.5-13.8-3-20.2-6c-1.9-0.9-3.1-2.2-3.3-3.5c-0.1-1.2,0.6-2.5,2.1-3.6
		c3-2.3,6.8-3.5,10.9-3.5c8.5,0,16.3,4.9,19,12C745.9,62.7,748.3,65.5,751.5,67L751.5,67L751.5,67z M240.2,128.2h-0.1
		c-12.5,0-22-7.6-26.2-20.8c-4.5-14.3-4.2-28.2,0.9-41.2c4.6-11.6,14.2-18.8,25.1-18.8c5.6,0,11.1,1.9,16.1,5.6
		c4.2,3.2,7.3,7.6,9.4,13.6c4.9,14.3,4.9,28.7,0,42.7C261,121.6,252.3,128.2,240.2,128.2L240.2,128.2L240.2,128.2z M865,128
		c-4.5,0-8.7-1.2-12.2-3.4c-5.9-3.7-10.2-8.8-12.6-15.3c-5.6-14.7-5.5-29.6,0.4-44.3c4.3-10.8,13-16.7,24.4-16.7c0.6,0,1.2,0,1.9,0
		c8.7,0.5,14.5,4.5,17,11.8c2.7,7.6,7.7,11.3,15.2,11.3c0.5,0,0.9,0,1.4,0c1.6-0.1,3.3-0.1,5.4-0.1c1.5,0,3.1,0,4.7,0.1
		c1.5,0,3.2,0.1,4.7,0.1c3,0,6.9-0.1,10.8-0.7c0.2,0,0.3,0,0.5,0c0.5,0,1,0,1.5,1.9c5.4,18.3,20.6,25.8,31.7,29.8
		c7.6,2.8,15.6,4.7,23.3,6.4c4.1,1,8.4,2,12.6,3.1l1.1,0.3c3.4,0.9,6.7,1.8,9.5,3.6c2.3,1.5,3.6,3.3,3.5,5.1c-0.1,1.8-1.5,3.7-4,5
		c-2.8,1.5-5.9,2.2-10.1,2.2c-1,0-2.1,0-3.5-0.1c0,0-0.1,0-0.1,0c-0.8,0-1.6,0-2.4,0.1c-0.8,0-1.5,0.1-2.3,0.1c-1,0-1.8,0-2.5-0.1
		c-6.9-0.8-11.1-4.1-13.2-10.1c-3.9-11.6-5.6-12.8-18.1-12.8h-0.4c-2.4,0-4.9,0.1-7.3,0.2c-2.3,0.1-4.8,0.2-7.1,0.2
		c-3.3,0-5.9-0.2-8.3-0.7c-8.2-1.6-16.4-1.6-24.4-1.6c-1.4,0-2.9,0-4.3,0c-0.3,0-0.6,0-0.8,0c-10.1,0-13,2.1-16.2,11.8
		C882.3,122.9,874.5,128,865,128L865,128L865,128z M769.4,68.4c3.7,0,7-0.1,10-0.2c4-0.2,7-1.1,9-2.8c-1.3,6.2-2.1,12.8-2.4,19.9
		c0,0.3,0,0.5,0,0.8c-0.1-0.2-0.3-0.3-0.4-0.5c-4.9-5.5-11.1-9.8-19-13.2c-3.9-1.7-7.8-3.1-11.7-4.2c0.7,0.1,1.5,0.2,2.3,0.2h0.5
		C761.7,68.3,765.6,68.4,769.4,68.4L769.4,68.4L769.4,68.4z M664.3,106.1c-0.1-0.7-0.1-1.9-0.1-3.2c0-10.2,0-20.5,0-30.7
		c0.3,0.9,0.6,1.7,1,2.6c5.4,13,16.8,22.9,31.9,28.1c7.4,2.5,15.2,4.4,22.6,6.2c4,1,8.2,1.9,12.3,3c3.8,1,7.2,2,10.4,3.7
		c2.4,1.2,3.5,2.8,3.6,4.9c0.1,2.4-1.1,4.1-3.5,5.2c-4.1,1.9-8.5,2.9-13.4,2.9c-3.9,0-8.2-0.6-13.1-1.9c-6-1.6-7.5-6.7-9.3-12.7
		l-0.1-0.4c-1.5-4.9-4.9-7.7-9.6-8.1c-5.8-0.4-10.6-0.7-15.1-0.7c-5.1,0-9.7,0.3-14.2,0.8l-1,0.1C665.6,105.9,664.8,106,664.3,106.1
		L664.3,106.1L664.3,106.1z"/>
</g>
</svg>
