<?xml version="1.0" encoding="UTF-8"?>
<svg id="Livello_2" data-name="Livello 2" xmlns="http://www.w3.org/2000/svg" viewBox="0 0 591.67 169.63">
  <defs>
    <style>
      .cls-1 {
        fill: #fff;
      }
    </style>
  </defs>
  <g id="Livello_1-2" data-name="Livello 1">
    <path class="cls-1" d="m235.18,2c18.02,0,35.53,5.61,47.87,15.51,10.78,8.65,18.48,19.52,23.42,32.39.45,1.18.49,3.03,2.06,3.08.02,0,.05,0,.07,0,1.56,0,1.7-1.81,2.12-2.97,12.19-33.5,41.94-47.94,70.89-47.94,12.42,0,24.7,2.66,35.38,7.61,19.19,8.89,31.08,24.56,37.5,44.54.53,1.65.35,3.67,2.22,4.87,1.55-1.57.89-3.49.9-5.2.08-11.99-.03-23.98.1-35.97.1-9.47,3.22-12.52,12.68-12.63,1-.01,2-.02,3-.02,3.65,0,7.3.06,10.94.06,2.35,0,4.7-.03,7.04-.11.24,0,.48-.01.71-.01,6.06,0,10.08,2.97,13.1,8.07,11.31,19.04,22.67,38.05,34.04,57.05.99,1.66,1.63,3.64,3.64,4.64,1.53-1.58.87-3.51.88-5.22.06-15.32.03-30.64.04-45.96,0-1.83-.03-3.67.16-5.49,1.08-10.33,3.95-12.95,14.32-13.03,3.04-.02,6.08-.04,9.12-.04,3.63,0,7.25.03,10.87.13,6.42.18,9.44,2.82,10.55,9.1.52,2.93.81,5.95.81,8.93.05,40.63.05,81.27.03,121.9,0,16.64-2.46,19.08-18.99,19.09-.08,0-.17,0-.26,0-3.13,0-6.26-.05-9.39-.05-1.28,0-2.56,0-3.85.03-.13,0-.25,0-.38,0-6.43,0-10.91-2.85-14.31-8.48-12.15-20.08-24.59-40-36.93-59.97-.49-.8-.72-1.91-2.07-2.02-1.33,1.55-.71,3.45-.71,5.17-.06,16.65,0,33.31-.06,49.96-.04,11.93-3.33,15.25-15.07,15.33-3.06.02-6.13.05-9.19.05s-6.2-.03-9.3-.12c-8.01-.24-11.25-3.37-11.38-11.37-.2-12.32-.08-24.65-.13-36.97,0-1.74.31-3.57-1.12-6.3-2.41,6.98-4.23,13.14-7.26,18.82-13.25,24.82-34.16,37.39-61.99,38.91-2,.11-3.99.17-5.96.17-15.53,0-30.18-3.5-43.52-12.52-11.84-8-20.09-18.78-25.77-31.71-.6-1.37-1.06-2.81-1.71-4.16-.43-.9-.43-2.4-1.73-2.4-.09,0-.18,0-.28.02-1.09.15-1.21,1.48-1.55,2.39-3.22,8.46-7.43,16.28-13.32,23.27-12.74,15.13-29.29,22.84-48.55,24.7-3.51.34-7.01.52-10.47.52-13.16,0-25.96-2.62-37.94-9.31-17.38-9.69-27.96-24.7-34.11-43.24-.44-1.33-.18-3.02-2.44-4.36,0,4.87,0,9.26,0,13.66,0,8.49.06,16.99-.03,25.48-.12,10.92-3.59,14.4-14.34,14.48-2.91.02-5.82.05-8.73.05s-5.84-.03-8.76-.12c-7.29-.23-10.31-2.8-11.39-9.96-1.54-10.26-.37-20.61-.68-30.92-.06-2.07,0-4.14,0-6.21-.43-.05-.85-.09-1.28-.14-1.52,5.18-3.05,10.35-4.57,15.53-2.21,7.51-4.57,14.97-6.57,22.54-1.62,6.1-5.7,8.9-11.59,9.09-3.66.12-7.33.17-11,.17-3.99,0-7.99-.06-11.98-.15-5.81-.13-9.6-3.05-11.22-8.83-3.14-11.22-6.45-22.4-9.7-33.59-.36-1.24-.8-2.45-1.45-4.38-1.51,2.94-1.48,5.38-1.49,7.8-.04,9.16.05,18.32-.09,27.48-.12,8.01-3.28,11.33-11.14,11.58-3.29.1-6.58.15-9.87.15s-6.75-.05-10.11-.15c-7.05-.21-10-2.83-11.15-9.64-.47-2.77-.71-5.62-.71-8.44-.04-41.13-.04-82.27-.01-123.4,0-2.32.04-4.68.41-6.96,1.27-7.71,4.31-10.42,12.03-10.51,5.66-.06,11.33-.1,16.99-.1,5.33,0,10.66.03,15.99.09,8.4.1,11.07,2.34,13.38,10.56,6.08,21.64,12.16,43.28,18.25,64.92.31,1.1.38,2.33,1.86,3.32,2.35-4.83,3.32-10.02,4.74-15.02,4.99-17.45,9.78-34.95,14.71-52.42,2.65-9.37,5.22-11.34,14.86-11.4,5.44-.03,10.88-.06,16.32-.06,5.06,0,10.11.02,15.17.07,9.92.1,12.93,3.1,13.1,13.41.19,12.15.07,24.31.08,36.47,0,1.32,0,2.64,0,4.85,2.06-1.97,2.24-3.94,2.76-5.63C174.04,17.43,205.31,2,235.18,2m-.14,125.26c.59,0,1.2-.02,1.81-.05,12.8-.67,20.71-7.92,25.39-19.36,3.02-7.39,4.12-15.06,3.59-22.8.55-9.53-1.07-18.43-5.46-26.76-5.16-9.77-13.14-15.45-24.28-15.75-.31,0-.62-.01-.92-.01-10.49,0-18.74,4.91-23.84,14.09-9.63,17.33-9.77,35.55-1.85,53.33,4.77,10.7,13.41,17.32,25.56,17.32m146.81.02c6.96,0,13.95-2.53,19.21-7.66,9.76-9.53,11.28-21.76,11.78-34.38.31-8.48-1.16-16.63-4.47-24.38-4.36-10.21-11.8-17.04-23.13-18.13-1.14-.11-2.25-.16-3.34-.16-9.37,0-17.14,4.04-22.96,12.21-11.5,16.16-10.69,47.32,1.75,62.69,5.27,6.51,13.2,9.82,21.16,9.82M235.18,0c-16.3,0-31.61,4.38-44.29,12.66-13.35,8.72-23.32,21.68-28.99,37.63,0-2.05,0-4.1.01-6.15.02-8.35.04-16.99-.09-25.49-.18-11.38-3.99-15.26-15.08-15.37-4.76-.05-9.73-.07-15.19-.07-4.86,0-10.05.02-16.33.06-10.58.07-13.87,2.59-16.77,12.85-2.06,7.3-4.13,14.72-6.13,21.9-2.79,10.01-5.68,20.36-8.58,30.52-.37,1.31-.72,2.65-1.06,3.94-.59,2.27-1.19,4.58-1.96,6.83-6-21.33-11.99-42.65-17.98-63.98-2.59-9.22-6.02-11.91-15.28-12.02-5.23-.06-10.62-.09-16.02-.09s-11.27.03-17.01.1C5.81,3.4,1.89,6.82.46,15.49.05,17.95.02,20.44.02,22.78,0,56.63-.02,101.25.03,146.18c0,2.96.25,5.91.74,8.77,1.33,7.79,5.11,11.06,13.07,11.3,3.42.1,6.84.16,10.18.16s6.68-.05,9.94-.16c8.91-.28,12.94-4.46,13.08-13.55.09-5.98.09-12.05.08-17.93,0-3.02,0-6.04,0-9.06.48,1.65.96,3.3,1.44,4.94,2.41,8.27,4.91,16.82,7.27,25.26,1.84,6.58,6.37,10.13,13.1,10.29,4.41.1,8.34.15,12.02.15,3.93,0,7.55-.06,11.07-.17,7.03-.23,11.68-3.89,13.46-10.58,1.39-5.26,2.99-10.58,4.54-15.72.68-2.25,1.36-4.51,2.02-6.77l1.99-6.76c.02,2.65-.04,5.32-.09,7.92-.14,6.64-.28,13.51.74,20.31,1.22,8.13,4.95,11.4,13.3,11.66,2.62.08,5.43.12,8.83.12,2.3,0,4.59-.02,6.89-.04h1.85c11.93-.1,16.2-4.4,16.33-16.47.06-5.93.05-11.95.04-17.77,0-2.58-.01-5.15,0-7.73v-4.57c6.93,18.34,17.95,31.54,33.58,40.25,11.54,6.43,24.27,9.56,38.92,9.56,3.43,0,7.02-.18,10.67-.53,20.58-1.98,37.36-10.53,49.89-25.4,5.59-6.63,10.03-14.37,13.59-23.65.32.68.59,1.39.89,2.14.24.62.49,1.26.77,1.9,6.17,14.05,14.84,24.7,26.48,32.57,12.81,8.65,27.41,12.86,44.64,12.86,1.97,0,4.02-.06,6.07-.17,28.92-1.58,50.33-15.02,63.65-39.96,1.86-3.48,3.28-7.16,4.62-11,0,3.44,0,6.88,0,10.32,0,7.94-.01,16.14.12,24.22.15,9.07,4.14,13.06,13.32,13.34,2.78.08,5.76.12,9.36.12,2.47,0,4.93-.02,7.4-.04h1.81c12.87-.1,17.01-4.31,17.06-17.33.03-8.27.03-16.68.03-24.81,0-8.24,0-16.77.03-25.15,0-.22,0-.44-.02-.65,2.8,4.54,5.61,9.07,8.42,13.61,9.1,14.68,18.5,29.87,27.59,44.89,3.85,6.35,9.09,9.44,16.03,9.44.14,0,.27,0,.41,0,1.27-.02,2.54-.03,3.81-.03,1.56,0,3.12.01,4.68.02,1.57.01,3.14.02,4.71.02h.26c17.64-.01,20.98-3.37,20.99-21.09.03-48.71.02-86.3-.03-121.91,0-3.01-.29-6.13-.84-9.27-1.28-7.23-5.12-10.54-12.46-10.75-3.26-.09-6.73-.14-10.93-.14-3.01,0-6.03.02-9.04.04h-.09c-11.44.08-15.1,3.41-16.29,14.82-.18,1.7-.18,3.39-.17,5.03v.67c0,4.84,0,9.68,0,14.52,0,10.3,0,20.96-.04,31.43,0,.39.02.76.05,1.12-.06-.11-.12-.23-.19-.35-.21-.39-.42-.8-.67-1.21-12.66-21.16-23.29-38.95-34.04-57.04-3.61-6.09-8.46-9.05-14.82-9.05-.26,0-.52,0-.79.01-2.06.08-4.28.11-6.97.11-1.82,0-3.63-.02-5.45-.03-1.83-.02-3.66-.03-5.49-.03-1.01,0-2.02,0-3.02.02-10.57.13-14.54,4.09-14.65,14.61-.07,6.7-.07,13.5-.07,20.08,0,4.37,0,8.86-.02,13.32-7.14-20.51-19.85-35.11-37.79-43.43C406.85,2.76,394.32.06,381.63.06c-15.64,0-30.43,4.05-42.79,11.71-13.79,8.55-24.16,21.53-29.98,37.55-.08.23-.16.48-.23.73-.08-.29-.16-.58-.28-.88-5.14-13.38-13.23-24.56-24.04-33.23-12.64-10.13-30.54-15.95-49.12-15.95h0Zm-.14,125.26c-10.82,0-19.03-5.58-23.74-16.13-7.94-17.81-7.34-35.15,1.77-51.54,4.75-8.54,12.39-13.06,22.09-13.06.29,0,.58,0,.87.01,9.97.27,17.56,5.21,22.56,14.68,4.07,7.71,5.79,16.12,5.24,25.71,0,.08,0,.17,0,.25.53,7.66-.63,15.03-3.44,21.91-4.75,11.61-12.48,17.54-23.65,18.12-.57.03-1.14.04-1.7.04h0Zm146.81.02c-7.79,0-14.94-3.31-19.61-9.07-5.65-6.98-9.08-17.86-9.41-29.84-.33-11.97,2.49-23.06,7.73-30.43,5.37-7.54,12.54-11.37,21.33-11.37,1.02,0,2.08.05,3.15.16,9.86.95,17.09,6.65,21.48,16.93,3.16,7.4,4.61,15.31,4.31,23.52-.46,11.63-1.69,23.77-11.17,33.02-4.69,4.57-11.01,7.09-17.81,7.09h0Z"/>
  </g>
</svg>