<?xml version="1.0" encoding="utf-8"?>
<!-- Generator: Adobe Illustrator 27.3.1, SVG Export Plug-In . SVG Version: 6.00 Build 0)  -->
<svg version="1.1" id="Livello_2_00000017499831216592791710000002205586636647458716_"
	 xmlns="http://www.w3.org/2000/svg" xmlns:xlink="http://www.w3.org/1999/xlink" x="0px" y="0px" viewBox="0 0 601 176.3"
	 style="enable-background:new 0 0 601 176.3;" xml:space="preserve">
<style type="text/css">
	.st0{fill:#FFFFFF;stroke:#FFFFFF;stroke-width:2;stroke-miterlimit:10;}
</style>
<g id="Livello_1-2">
	<path class="st0" d="M239.9,5.3c18,0,35.5,5.6,47.9,15.5c10.8,8.6,18.5,19.5,23.4,32.4c0.5,1.2,0.5,3,2.1,3.1c0,0,0,0,0.1,0
		c1.6,0,1.7-1.8,2.1-3c12.2-33.5,41.9-47.9,70.9-47.9c12.4,0,24.7,2.7,35.4,7.6c19.2,8.9,31.1,24.6,37.5,44.5
		c0.5,1.7,0.4,3.7,2.2,4.9c1.5-1.6,0.9-3.5,0.9-5.2c0.1-12,0-24,0.1-36c0.1-9.5,3.2-12.5,12.7-12.6c1,0,2,0,3,0
		c3.6,0,7.3,0.1,10.9,0.1c2.4,0,4.7,0,7-0.1c0.2,0,0.5,0,0.7,0c6.1,0,10.1,3,13.1,8.1c11.3,19,22.7,38,34,57c1,1.7,1.6,3.6,3.6,4.6
		c1.5-1.6,0.9-3.5,0.9-5.2c0.1-15.3,0-30.6,0-46c0-1.8,0-3.7,0.2-5.5c1.1-10.3,4-12.9,14.3-13c3,0,6.1,0,9.1,0c3.6,0,7.2,0,10.9,0.1
		c6.4,0.2,9.4,2.8,10.5,9.1c0.5,2.9,0.8,6,0.8,8.9c0,40.6,0,81.3,0,121.9c0,16.6-2.5,19.1-19,19.1c-0.1,0-0.2,0-0.3,0
		c-3.1,0-6.3-0.1-9.4-0.1c-1.3,0-2.6,0-3.8,0c-0.1,0-0.2,0-0.4,0c-6.4,0-10.9-2.9-14.3-8.5c-12.2-20.1-24.6-40-36.9-60
		c-0.5-0.8-0.7-1.9-2.1-2c-1.3,1.6-0.7,3.4-0.7,5.2c-0.1,16.7,0,33.3-0.1,50c0,11.9-3.3,15.2-15.1,15.3c-3.1,0-6.1,0.1-9.2,0.1
		s-6.2,0-9.3-0.1c-8-0.2-11.2-3.4-11.4-11.4c-0.2-12.3-0.1-24.6-0.1-37c0-1.7,0.3-3.6-1.1-6.3c-2.4,7-4.2,13.1-7.3,18.8
		c-13.2,24.8-34.2,37.4-62,38.9c-2,0.1-4,0.2-6,0.2c-15.5,0-30.2-3.5-43.5-12.5c-11.8-8-20.1-18.8-25.8-31.7
		c-0.6-1.4-1.1-2.8-1.7-4.2c-0.4-0.9-0.4-2.4-1.7-2.4c-0.1,0-0.2,0-0.3,0c-1.1,0.2-1.2,1.5-1.5,2.4c-3.2,8.5-7.4,16.3-13.3,23.3
		c-12.7,15.1-29.3,22.8-48.6,24.7c-3.5,0.3-7,0.5-10.5,0.5c-13.2,0-26-2.6-37.9-9.3c-17.4-9.7-28-24.7-34.1-43.2
		c-0.4-1.3-0.2-3-2.4-4.4c0,4.9,0,9.3,0,13.7c0,8.5,0.1,17,0,25.5c-0.1,10.9-3.6,14.4-14.3,14.5c-2.9,0-5.8,0.1-8.7,0.1
		s-5.8,0-8.8-0.1c-7.3-0.2-10.3-2.8-11.4-10c-1.5-10.3-0.4-20.6-0.7-30.9c-0.1-2.1,0-4.1,0-6.2c-0.4-0.1-0.8-0.1-1.3-0.1
		c-1.5,5.2-3.1,10.4-4.6,15.5c-2.2,7.5-4.6,15-6.6,22.5c-1.6,6.1-5.7,8.9-11.6,9.1c-3.7,0.1-7.3,0.2-11,0.2c-4,0-8-0.1-12-0.1
		c-5.8-0.1-9.6-3.1-11.2-8.8c-3.1-11.2-6.5-22.4-9.7-33.6c-0.4-1.2-0.8-2.4-1.5-4.4c-1.5,2.9-1.5,5.4-1.5,7.8c0,9.2,0,18.3-0.1,27.5
		c-0.1,8-3.3,11.3-11.1,11.6c-3.3,0.1-6.6,0.1-9.9,0.1s-6.8-0.1-10.1-0.1c-7.1-0.2-10-2.8-11.1-9.6c-0.5-2.8-0.7-5.6-0.7-8.4
		c0-41.1,0-82.3,0-123.4c0-2.3,0-4.7,0.4-7c1.3-7.7,4.3-10.4,12-10.5c5.7-0.1,11.3-0.1,17-0.1c5.3,0,10.7,0,16,0.1
		c8.4,0.1,11.1,2.3,13.4,10.6c6.1,21.6,12.2,43.3,18.3,64.9c0.3,1.1,0.4,2.3,1.9,3.3c2.3-4.8,3.3-10,4.7-15c5-17.5,9.8-35,14.7-52.4
		c2.7-9.4,5.2-11.3,14.9-11.4c5.4,0,10.9-0.1,16.3-0.1c5.1,0,10.1,0,15.2,0.1c9.9,0.1,12.9,3.1,13.1,13.4
		c0.2,12.1,0.1,24.3,0.1,36.5c0,1.3,0,2.6,0,4.8c2.1-2,2.2-3.9,2.8-5.6C178.7,20.8,210,5.3,239.9,5.3 M239.7,130.6
		c0.6,0,1.2,0,1.8-0.1c12.8-0.7,20.7-7.9,25.4-19.4c3-7.4,4.1-15.1,3.6-22.8c0.5-9.5-1.1-18.4-5.5-26.8
		c-5.2-9.8-13.1-15.5-24.3-15.8c-0.3,0-0.6,0-0.9,0c-10.5,0-18.7,4.9-23.8,14.1c-9.6,17.3-9.8,35.5-1.9,53.3
		C218.9,124,227.6,130.6,239.7,130.6 M386.5,130.6c7,0,14-2.5,19.2-7.7c9.8-9.5,11.3-21.8,11.8-34.4c0.3-8.5-1.2-16.6-4.5-24.4
		c-4.4-10.2-11.8-17-23.1-18.1c-1.1-0.1-2.2-0.2-3.3-0.2c-9.4,0-17.1,4-23,12.2c-11.5,16.2-10.7,47.3,1.8,62.7
		C370.6,127.3,378.6,130.6,386.5,130.6 M239.9,3.3c-16.3,0-31.6,4.4-44.3,12.7c-13.4,8.7-23.3,21.7-29,37.6c0-2,0-4.1,0-6.2
		c0-8.3,0-17-0.1-25.5c-0.2-11.4-4-15.3-15.1-15.4c-4.8-0.1-9.7-0.1-15.2-0.1c-4.9,0-10,0-16.3,0.1c-10.6,0.1-13.9,2.6-16.8,12.9
		c-2.1,7.3-4.1,14.7-6.1,21.9c-2.8,10-5.7,20.4-8.6,30.5c-0.4,1.3-0.7,2.7-1.1,3.9c-0.6,2.3-1.2,4.6-2,6.8c-6-21.3-12-42.7-18-64
		c-2.6-9.2-6-11.9-15.3-12c-5.2-0.1-10.6-0.1-16-0.1s-11.3,0-17,0.1c-8.6,0.1-12.5,3.5-14,12.2c-0.4,2.5-0.4,5-0.4,7.3
		c0,33.8,0,78.5,0,123.4c0,3,0.2,5.9,0.7,8.8c1.3,7.8,5.1,11.1,13.1,11.3c3.4,0.1,6.8,0.2,10.2,0.2s6.7-0.1,9.9-0.2
		c8.9-0.3,12.9-4.5,13.1-13.6c0.1-6,0.1-12.1,0.1-17.9c0-3,0-6,0-9.1c0.5,1.6,1,3.3,1.4,4.9c2.4,8.3,4.9,16.8,7.3,25.3
		c1.8,6.6,6.4,10.1,13.1,10.3c4.4,0.1,8.3,0.1,12,0.1c3.9,0,7.6-0.1,11.1-0.2c7-0.2,11.7-3.9,13.5-10.6c1.4-5.3,3-10.6,4.5-15.7
		c0.7-2.2,1.4-4.5,2-6.8l2-6.8c0,2.7,0,5.3-0.1,7.9c-0.1,6.6-0.3,13.5,0.7,20.3c1.2,8.1,4.9,11.4,13.3,11.7c2.6,0.1,5.4,0.1,8.8,0.1
		c2.3,0,4.6,0,6.9,0h1.9c11.9-0.1,16.2-4.4,16.3-16.5c0.1-5.9,0.1-11.9,0-17.8c0-2.6,0-5.2,0-7.7v-4.6c6.9,18.3,17.9,31.5,33.6,40.3
		c11.5,6.4,24.3,9.6,38.9,9.6c3.4,0,7-0.2,10.7-0.5c20.6-2,37.4-10.5,49.9-25.4c5.6-6.6,10-14.4,13.6-23.7c0.3,0.7,0.6,1.4,0.9,2.1
		c0.2,0.6,0.5,1.3,0.8,1.9c6.2,14.1,14.8,24.7,26.5,32.6c12.8,8.6,27.4,12.9,44.6,12.9c2,0,4-0.1,6.1-0.2c28.9-1.6,50.3-15,63.6-40
		c1.9-3.5,3.3-7.2,4.6-11c0,3.4,0,6.9,0,10.3c0,7.9,0,16.1,0.1,24.2c0.1,9.1,4.1,13.1,13.3,13.3c2.8,0.1,5.8,0.1,9.4,0.1
		c2.5,0,4.9,0,7.4,0h1.8c12.9-0.1,17-4.3,17.1-17.3c0-8.3,0-16.7,0-24.8c0-8.2,0-16.8,0-25.2c0-0.2,0-0.4,0-0.7
		c2.8,4.5,5.6,9.1,8.4,13.6c9.1,14.7,18.5,29.9,27.6,44.9c3.8,6.4,9.1,9.4,16,9.4c0.1,0,0.3,0,0.4,0c1.3,0,2.5,0,3.8,0
		c1.6,0,3.1,0,4.7,0c1.6,0,3.1,0,4.7,0h0.3c17.6,0,21-3.4,21-21.1c0-48.7,0-86.3,0-121.9c0-3-0.3-6.1-0.8-9.3
		c-1.3-7.2-5.1-10.5-12.5-10.8c-3.3-0.1-6.7-0.1-10.9-0.1c-3,0-6,0-9,0H563c-11.4,0.1-15.1,3.4-16.3,14.8c-0.2,1.7-0.2,3.4-0.2,5
		v0.7c0,4.8,0,9.7,0,14.5c0,10.3,0,21,0,31.4c0,0.4,0,0.8,0,1.1c-0.1-0.1-0.1-0.2-0.2-0.3c-0.2-0.4-0.4-0.8-0.7-1.2
		c-12.7-21.2-23.3-39-34-57c-3.6-6.1-8.5-9.1-14.8-9.1c-0.3,0-0.5,0-0.8,0c-2.1,0.1-4.3,0.1-7,0.1c-1.8,0-3.6,0-5.5,0
		c-1.8,0-3.7,0-5.5,0c-1,0-2,0-3,0c-10.6,0.1-14.5,4.1-14.6,14.6c-0.1,6.7-0.1,13.5-0.1,20.1c0,4.4,0,8.9,0,13.3
		c-7.1-20.5-19.9-35.1-37.8-43.4c-11-5-23.6-7.7-36.3-7.7c-15.6,0-30.4,4.1-42.8,11.7c-13.8,8.5-24.2,21.5-30,37.5
		c-0.1,0.2-0.2,0.5-0.2,0.7c-0.1-0.3-0.2-0.6-0.3-0.9c-5.1-13.4-13.2-24.6-24-33.2C276.4,9.2,258.5,3.3,239.9,3.3L239.9,3.3
		L239.9,3.3z M239.7,128.6c-10.8,0-19-5.6-23.7-16.1c-7.9-17.8-7.3-35.2,1.8-51.5c4.8-8.5,12.4-13.1,22.1-13.1c0.3,0,0.6,0,0.9,0
		c10,0.3,17.6,5.2,22.6,14.7c4.1,7.7,5.8,16.1,5.2,25.7c0,0.1,0,0.2,0,0.2c0.5,7.7-0.6,15-3.4,21.9c-4.8,11.6-12.5,17.5-23.6,18.1
		C240.9,128.6,240.3,128.6,239.7,128.6L239.7,128.6L239.7,128.6z M386.5,128.6c-7.8,0-14.9-3.3-19.6-9.1c-5.6-7-9.1-17.9-9.4-29.8
		c-0.3-12,2.5-23.1,7.7-30.4c5.4-7.5,12.5-11.4,21.3-11.4c1,0,2.1,0,3.1,0.2c9.9,1,17.1,6.7,21.5,16.9c3.2,7.4,4.6,15.3,4.3,23.5
		c-0.5,11.6-1.7,23.8-11.2,33C399.7,126.1,393.3,128.6,386.5,128.6L386.5,128.6L386.5,128.6z"/>
</g>
</svg>
