<?xml version="1.0" encoding="utf-8"?>
<!-- Generator: Adobe Illustrator 27.3.1, SVG Export Plug-In . SVG Version: 6.00 Build 0)  -->
<svg version="1.1" id="Livello_2_00000031893395230630572180000012660920451042122881_"
	 xmlns="http://www.w3.org/2000/svg" xmlns:xlink="http://www.w3.org/1999/xlink" x="0px" y="0px" viewBox="0 0 679.8 176.1"
	 style="enable-background:new 0 0 679.8 176.1;" xml:space="preserve">
<style type="text/css">
	.st0{fill:#FFFFFF;stroke:#FFFFFF;stroke-width:2;stroke-miterlimit:10;}
</style>
<g id="Livello_1-2">
	<path class="st0" d="M353.1,5.2c16.5,0,32.2,4.7,43.4,12.7c7.4,5.3,13.3,12.1,17.4,20.3c1.2,2.3,2.3,4.7,4,8
		c1.2-6.3,0.5-11.6,0.7-16.8c0.2-4.5-0.4-9,0.7-13.4c1.2-4.6,4-7.3,8.8-7.4c4.9-0.1,9.9-0.1,14.8-0.1c3.7,0,7.4,0,11.2,0.2
		c6,0.2,9.3,3.7,9.5,10c0.2,8.1,0.1,16.3,0.2,24.5c0,1.5,0,3,0.2,4.5c0.2,1.7,0.7,2.6,1.5,2.6c0.6,0,1.3-0.5,2.2-1.4
		c5.4-5.7,10.7-11.4,16.1-17c6-6.2,12.3-12.2,18.3-18.5c3.1-3.2,6.7-4.8,11.1-4.8c0.2,0,0.5,0,0.7,0c8,0,16.1,0,24.1,0
		c1.6,0,3.1,0,4.7,0c3.9,0,7.7,0.8,9.2,4.7c1.5,4,1.3,8.2-1.5,11.9c-1,1.3-2.3,2.4-3.4,3.6c-13.7,14.1-27.4,28.1-41.2,42.1
		c-2,2.1-3.5,3.9-1.4,6.9c11.1,16,22.1,32,33.2,48.1c0.4,0.6,1.2,1.1,2,1.8c1.5-2.2,0.3-4.1,0.2-5.9c-1-9.8,2.7-14.1,12.5-14.2
		c3.3,0,6.7-0.1,10.1-0.1c3.6,0,7.3,0,10.9,0.1c6.9,0.2,9.2,2.1,11.2,8.5c3.6,11,8.2,14.4,19.7,14.6c1.6,0,3.2,0.1,4.8,0.1
		c3.9,0,7.7-0.2,11.5-1.7c3.7-1.4,6.5-3.6,6.8-7.8c0.3-4.3-2.9-6.1-6.2-7.6c-8-3.6-16.5-5.1-25-7c-9.3-2.1-18.4-4.8-27.1-8.7
		c-13.9-6.2-22.3-16.5-24.7-31.5c-2.4-14.9-0.1-28.9,9.5-41.1c6.1-7.7,14.3-12.6,23.5-15.3c10-3,20-4.7,29.8-4.7
		c12.8,0,25.3,2.9,37.6,9.5c15.7,8.5,22.8,22.8,24.6,40c0.7,7-3,11.2-10.1,11.6c-3.5,0.2-7,0.3-10.6,0.3c-4.3,0-8.6-0.1-12.9-0.2
		c-4.9-0.2-8.1-2.8-10.2-7.5c-3.9-9-11.6-14-20.1-14c-3.8,0-7.7,1-11.6,3c-2.3,1.2-4.2,2.7-4.3,5.6c0,3,1.8,4.5,4.2,5.7
		c5.4,2.8,11.3,3.9,17.1,5.3c13.1,3.2,26.3,5.8,38.6,11.9c18.1,9,25.1,26,23.6,45.7c-2.3,30.1-24.8,45.6-52.8,48.2
		c-4.5,0.4-8.9,0.7-13.4,0.7c-11,0-21.9-1.5-32.5-5.6c-4.5-1.8-8.9-3.7-12.9-6.5c-1.1-0.8-2-1.2-2.8-1.2c-1,0-1.7,0.8-2,2.9
		c-0.7,4.9-4.2,6.8-8.5,6.9c-4.9,0.1-9.8,0.2-14.8,0.2c-5.2,0-10.5-0.1-15.7-0.2c-4.3-0.1-7.8-2.3-10.4-6.1
		c-9.5-13.9-19.1-27.7-28.6-41.5c-1.5-2.2-2.8-4.6-4.5-6.6c-1.5-1.7-2.2-5-4.9-5c-0.4,0-0.8,0.1-1.2,0.2c-3.5,1.1-4.1,4.7-4.1,7.9
		c-0.2,12.5-0.1,25-0.2,37.5c-0.1,11.1-2.8,13.8-13.9,13.9c-3,0-6.1,0.1-9.1,0.1s-6.3,0-9.4-0.1c-9.4-0.2-12.5-3.3-12.7-12.8
		c-0.1-7.5,0-14.9,0-22.8c-1.9,0.5-2,1.4-2.3,2.1c-8.8,20.5-25,31.6-46.4,35.2c-5.8,1-11.6,1.5-17.2,1.5c-18.3,0-35.3-5.5-50.2-18.4
		c-8.3-7.2-14.3-16.2-18.7-26.2c-0.9-2.1-1.8-4.2-3.1-7.5c-15.1,35.8-39.4,52.1-70.8,52.1c-9.1,0-18.8-1.4-29.1-4
		c-18.1-4.6-31.2-16.9-40.1-33.1c-8.8-16-11.2-33.5-10.9-53c-3.6,3.9-6.3,6.8-8.8,9.7c-1.2,1.3-0.8,2.8,0.3,4.1
		c6.6,8,8.4,17.6,9.4,27.5c1.1,11.2,1.3,22.5,3.9,33.7c1.9,8-1.8,11.9-10.2,12.1c-3.4,0.1-6.9,0.1-10.3,0.1s-7.1,0-10.7-0.1
		c-7.8-0.2-11.4-3.3-13.3-11c-2.2-9.4-2.1-19.2-3.2-28.8c-1.3-11.5-6.9-16.9-18.6-17.2c-0.6,0-1.2,0-1.8,0c-1.8,0-3.5,0-5.3,0
		c-1.3,0-2.6,0-4-0.1c-0.2,0-0.5,0-0.7,0c-3.7,0-4.8,1.9-4.8,5.7c0.2,12.2,0.1,24.3,0,36.5c0,12-3,14.9-15.1,15c-3,0-6.1,0-9.1,0
		s-5.9,0-8.9-0.1c-8.6-0.2-11.8-3.3-11.9-11.9c-0.2-13.8-0.1-27.6-0.1-41.5c0-30.6,0-61.3,0-91.9c0-10.9,2.7-13.7,13.5-13.7
		c10.7,0,21.4-0.1,32.2-0.1s21.9,0,32.8,0.1c11.4,0.1,22,3.4,31.4,10.1c9.8,7,15.1,16.6,17.2,28.3c0.3,1.8,0.1,3.7,2,5.6
		c1.2-2.5,2.4-4.8,3.5-7.1c12.4-24.6,33-37.4,59.9-39.8c3-0.3,6.1-0.4,9-0.4c16.6,0,32.3,4.4,46.2,15c10.8,8.3,18.4,19.1,23.4,31.8
		c0.6,1.5,0.5,4,2.3,4c0,0,0.1,0,0.1,0c2.1,0,2.1-2.7,2.7-4.2C295.7,18.5,325.4,5.2,353.1,5.2 M207.5,130.4L207.5,130.4
		c11.5,0,19.3-6.2,24.6-15.9c4.5-8.3,5.8-17.3,5.4-27.1c0.4-6-0.6-12.5-2.5-18.7c-3-9.4-8-17.3-17.7-21c-3.6-1.3-7.1-2-10.6-2
		c-11.1,0-21.2,6.5-26.1,18.1c-7.1,16.9-6.9,34.1,1.1,50.8C186.9,125.2,195.8,130.4,207.5,130.4 M353.5,130.2
		c9.7,0,19.2-5.3,22.1-15.9c1.4-4.9,4.7-8.3,9.9-8.5c5.1-0.2,10.2-0.6,15.3-0.6c4.5,0,9.1,0.3,13.6,1.2c0.6,0.1,1.2,0.2,1.7,0.2
		c2,0,2.5-1.2,2.5-3.6c-0.1-5.2,0-10.3,0-15.5c0-5.3,0-10.7,0-16c0-1.7-0.3-3.2-2-3.2c-0.3,0-0.7,0.1-1.1,0.2
		c-4.5,1.1-9,1.4-13.5,1.4s-9.3-0.3-13.9-0.3c-0.6,0-1.2,0-1.9,0c-0.1,0-0.2,0-0.3,0c-5.2,0-9-2.3-10.8-7.6
		c-2.9-8.6-8.7-14.2-17.9-15.3c-1.5-0.2-2.9-0.2-4.3-0.2c-8.8,0-16.3,3.2-21.9,11.1c-4.6,6.5-7,13.7-7.7,21.3
		c-1.5,16.1-0.3,31.5,12.3,44C340.2,127.8,346.9,130.2,353.5,130.2 M58.9,71.5c1.3,0,2.7,0,4.5,0c0.7,0,1.4,0,2.2,0
		c0.7,0,1.5,0,2.2,0c0.7,0,1.4,0,2.1,0c3.6,0,7.1-0.1,10.6-1.1c6.1-1.8,9.4-5.8,9.1-11.3c-0.3-5.7-4.6-9.9-10.8-10.4
		c-5.6-0.5-11.2-0.8-16.9-0.9c-1,0-1.9,0-2.7,0c-7.4,0-7.5,1-7.4,10C51.9,70.7,50.5,71.5,58.9,71.5 M353.1,3.2
		c-15.2,0-29.6,3.8-41.7,11.1c-14,8.4-24.2,20.9-30.5,37c-0.2,0.5-0.3,1-0.4,1.5c-0.1,0.3-0.2,0.7-0.3,1c-0.1-0.3-0.1-0.6-0.2-0.8
		c-0.1-0.5-0.2-1.1-0.5-1.6c-5.3-13.5-13.4-24.5-24-32.7C242.2,8.6,226.3,3.4,208.2,3.4c-3,0-6.1,0.1-9.2,0.4
		c-28.4,2.5-49.1,16.3-61.5,40.9c-0.5,1-1.1,2.1-1.6,3.2c-0.1-0.4-0.1-0.8-0.2-1.2c-2.4-12.9-8.2-22.6-18-29.5
		c-9.6-6.8-20.5-10.4-32.5-10.5C75.4,6.5,65,6.4,52.3,6.4c-8.5,0-17.1,0-25.7,0l-6.5,0C8.3,6.5,4.7,10.2,4.6,22.2
		c0,24.7,0,49.8,0,74.1v17.8c0,3.5,0,7,0,10.5c0,10.2,0,20.7,0.1,31c0.1,9.6,4.1,13.6,13.9,13.9c2.6,0.1,5.5,0.1,8.9,0.1
		c2.3,0,4.6,0,6.9,0h2.3c13.2-0.1,17.1-3.9,17.1-17v-3.2c0.1-10.9,0.1-22.2,0-33.3c0-1.6,0.2-2.6,0.7-3.1c0.4-0.4,1.1-0.5,2.1-0.5
		c0.2,0,0.4,0,0.6,0c1.2,0.1,2.5,0.1,4.1,0.1c0.9,0,1.8,0,2.7,0c0.9,0,1.7,0,2.6,0c0.6,0,1.2,0,1.7,0c10.6,0.2,15.5,4.7,16.7,15.4
		c0.3,3.2,0.6,6.4,0.8,9.5c0.4,6.4,0.9,13,2.4,19.4c2,8.6,6.6,12.4,15.2,12.6c3.6,0.1,7.2,0.1,10.7,0.1s7,0,10.3-0.1
		c5.1-0.1,8.7-1.5,10.7-4.2c1.9-2.5,2.4-6,1.4-10.3c-1.9-7.9-2.5-16.2-3.1-24.2c-0.2-3-0.5-6.1-0.8-9.2c-0.1-0.8-0.1-1.5-0.2-2.3
		c1.7,5.4,3.8,10.4,6.5,15.2c10,18.2,23.9,29.6,41.4,34.1c10.5,2.7,20.5,4.1,29.6,4.1c31.9,0,55.7-16.5,70.8-49
		c0.5,1.2,0.9,2.2,1.4,3.2c5,11.2,11.3,20,19.3,26.9c14.5,12.6,31.9,18.9,51.6,18.9c5.6,0,11.5-0.5,17.5-1.5
		c21.8-3.7,37.4-14.8,46.4-33.1c0,0.3,0,0.7,0,1c0,5.4,0,10.5,0,15.6c0.2,10.6,4.2,14.6,14.6,14.8c2.9,0.1,6,0.1,9.4,0.1
		c2.7,0,5.6,0,9.1-0.1c12.3-0.1,15.8-3.7,15.9-15.9c0-4.6,0-9.1,0.1-13.7c0-7.8,0-15.8,0.2-23.8c0.1-3.6,0.9-5.4,2.7-6
		c0.2-0.1,0.4-0.1,0.6-0.1c0.6,0,1,0.6,1.9,2.1c0.4,0.8,0.9,1.6,1.5,2.2c1,1.2,1.9,2.6,2.9,4.1c0.5,0.8,1,1.6,1.5,2.3
		c3,4.3,6,8.7,9,13c6.5,9.3,13.1,19,19.6,28.5c3,4.4,7.2,6.8,12,6.9c5.2,0.1,10.5,0.2,15.8,0.2c4.9,0,9.9-0.1,14.8-0.2
		c5.8-0.1,9.6-3.3,10.4-8.6c0.1-0.6,0.2-0.9,0.3-1.1c0.2,0.1,0.7,0.3,1.4,0.8c4.4,3.1,9.2,5.2,13.3,6.8c10,3.8,20.8,5.7,33.2,5.7
		c4.3,0,8.8-0.2,13.6-0.7c14.9-1.4,27.8-6.3,37.1-14.2c10.5-8.8,16.3-20.9,17.5-35.8c1.7-21.9-7.1-38.8-24.7-47.6
		c-5.5-2.8-11.3-4.8-17.1-6.5c0.8,0.2,1.6,0.2,2.5,0.3c4.1,0.1,8.5,0.2,13,0.2c3.9,0,7.4-0.1,10.7-0.3c4.1-0.2,7.3-1.6,9.4-4.1
		c2.1-2.4,3-5.8,2.5-9.7c-2-19.4-10.6-33.4-25.7-41.5c-11.9-6.4-24.8-9.7-38.5-9.7c-9.6,0-19.8,1.6-30.4,4.8
		c-9.1,2.7-16.6,7.2-22.4,13.5c0.8-2.9,0.6-5.9-0.6-9.1c-2.3-6-8.9-6-11-6H538c-4,0-8,0-12,0c-4,0-8,0-12,0h-0.7
		c-4.9,0-9,1.8-12.5,5.4c-3.3,3.4-6.7,6.9-10.1,10.2c-2.7,2.7-5.5,5.5-8.2,8.3c-4.2,4.3-8.4,8.8-12.5,13.2c-1.2,1.3-2.4,2.6-3.7,3.9
		c-0.1,0.1-0.2,0.2-0.3,0.3c0-0.1,0-0.2-0.1-0.4c-0.2-1.4-0.2-2.9-0.2-4.2c0-2.7,0-5.4,0-8.1c0-5.4,0-10.9-0.1-16.4
		c-0.2-7.4-4.4-11.8-11.4-12c-3.4-0.1-7-0.2-11.2-0.2c-3.9,0-7.9,0-11.7,0.1l-3.2,0c-5.5,0.1-9.2,3.1-10.7,8.9
		c-0.9,3.3-0.8,6.6-0.8,9.8c0,1.4,0,2.7,0,4.1c-0.1,1.8,0,3.5,0,5.3c0,1.5,0,3,0,4.5c-0.3-0.6-0.6-1.2-0.9-1.8
		c-4.2-8.4-10.3-15.5-18-21C386.1,7.9,369.9,3.2,353.1,3.2L353.1,3.2L353.1,3.2z M537.8,122.7c-4.2-6-8.3-12.1-12.5-18.1
		c-6.3-9.2-12.9-18.7-19.4-28.1c-1.1-1.5-0.9-2.2,1.2-4.3c10.9-11.1,22-22.4,32.7-33.4l7.8-8c-5.8,10.3-7.5,22.1-5.3,35.8
		c2.4,15.4,11.2,26.5,25.9,33.1c7.7,3.4,16.4,6.2,27.4,8.8c1.6,0.4,3.1,0.7,4.7,1.1c6.7,1.5,13.6,3,19.9,5.8c3.4,1.6,5.2,2.8,5,5.6
		c-0.2,2.8-1.8,4.7-5.5,6c-3.6,1.3-7.3,1.5-10.8,1.5c-1,0-2.1,0-3.1,0c-0.5,0-1.1,0-1.7,0c-10.7-0.1-14.5-3-17.8-13.2
		c-2.4-7.3-5.5-9.7-13.1-9.9c-3.3-0.1-6.9-0.1-11-0.1c-3.7,0-7.3,0-10.1,0.1c-5.5,0.1-9.3,1.4-11.7,4.1c-2.4,2.7-3.3,6.8-2.8,12.4
		C537.7,122.1,537.8,122.4,537.8,122.7L537.8,122.7L537.8,122.7z M631.3,67.5c-4.7-1.3-9.3-2.4-14-3.5c-2-0.5-4-1-6.1-1.5
		c-0.8-0.2-1.7-0.4-2.5-0.6c-5-1.2-9.8-2.3-14.2-4.6c-2.3-1.2-3.1-2.2-3.1-3.9c0-1.6,0.8-2.6,3.2-3.9c3.5-1.8,7.1-2.8,10.7-2.8
		c8,0,14.8,4.8,18.3,12.8C625.5,63.7,628,66.3,631.3,67.5L631.3,67.5L631.3,67.5z M207.6,130.4v-2c-11.2,0-19.3-4.9-23.9-14.6
		c-7.7-16-8.1-32.6-1.1-49.2c4.4-10.4,13.7-16.9,24.2-16.9c3.3,0,6.6,0.6,9.9,1.9c8,3,13.2,9.3,16.5,19.7c2,6.4,2.9,12.4,2.4,17.9
		c0,0.1,0,0.1,0,0.2c0.3,10.6-1.3,18.9-5.2,26.1c-5.4,10-12.9,14.9-22.9,14.9L207.6,130.4L207.6,130.4L207.6,130.4z M353.5,128.2
		c-6.3,0-12.4-2.4-16.7-6.6c-12.6-12.4-13-27.7-11.7-42.4c0.7-7.7,3.2-14.5,7.3-20.4c4.9-6.9,11.6-10.3,20.3-10.3
		c1.3,0,2.7,0.1,4.1,0.2c7.9,0.9,13.4,5.5,16.2,13.9c2,5.8,6.4,8.9,12.6,8.9c0.1,0,0.2,0,0.4,0c0.6,0,1.2,0,1.8,0
		c2.3,0,4.6,0.1,6.9,0.1c2.3,0.1,4.7,0.2,7,0.2c5.6,0,10-0.4,14-1.4c0.3-0.1,0.5-0.1,0.6-0.1c0,0.2,0.1,0.5,0.1,1.2
		c0,3.8,0,7.6,0,11.4v4.6c0,1.8,0,3.5,0,5.3c0,3.3,0,6.8,0,10.2c0,1-0.1,1.4-0.1,1.5c-0.1,0-0.2,0-0.4,0c-0.3,0-0.8-0.1-1.3-0.2
		c-4.1-0.8-8.6-1.2-14-1.2c-3.6,0-7.3,0.2-10.8,0.3c-1.5,0.1-3,0.2-4.6,0.2c-5.8,0.2-10.1,3.9-11.8,10
		C371.2,122.5,363.3,128.2,353.5,128.2L353.5,128.2L353.5,128.2z M58.9,69.5c-1.5,0-4.2,0-4.7-0.5c-0.5-0.5-0.5-3.3-0.5-6.5
		c0-1.4,0-2.9,0-4.8c0-3.7,0-6.7,0.6-7.3c0.6-0.6,3.4-0.6,4.8-0.6c0.8,0,1.7,0,2.6,0c5,0.1,10.5,0.4,16.7,0.9c5.2,0.4,8.7,3.8,9,8.5
		c0.3,5.8-4,8.2-7.7,9.3c-3.2,0.9-6.6,1-10.1,1h-1h-1c-0.7,0-1.5,0-2.2,0c-0.8,0-1.5,0-2.2,0c-0.9,0-1.8,0-2.6,0
		C60.1,69.5,59.5,69.5,58.9,69.5L58.9,69.5L58.9,69.5z M128.8,103.9c-1.4-3.8-3.4-7.5-6.2-10.9c-0.8-1-0.5-1.3-0.3-1.5
		c1.6-1.9,3.3-3.7,5.3-5.8C127.6,92.2,128.1,98.3,128.8,103.9L128.8,103.9L128.8,103.9z"/>
</g>
</svg>
