<?xml version="1.0" encoding="utf-8"?>
<!-- Generator: Adobe Illustrator 27.3.1, SVG Export Plug-In . SVG Version: 6.00 Build 0)  -->
<svg version="1.1" id="Livello_2_00000098204424168361626530000014666271280390991764_"
	 xmlns="http://www.w3.org/2000/svg" xmlns:xlink="http://www.w3.org/1999/xlink" x="0px" y="0px" viewBox="0 0 452.1 175.1"
	 style="enable-background:new 0 0 452.1 175.1;" xml:space="preserve">
<style type="text/css">
	.st0{fill:#FFFFFF;stroke:#FFFFFF;stroke-width:2;stroke-miterlimit:10;}
</style>
<g id="Livello_1-2">
	<g>
		<path class="st0" d="M209.4,4.6c18.6,0,35.8,5.2,50.6,18c10.8,9.3,17.4,21.3,21.8,34.6c0.5,1.5,0.4,3.3,1.8,4.6
			c1.1-1.7,0.5-3.6,0.6-5.3c0.4-13-0.8-26,0.9-38.9c0.9-6.7,3.8-9.7,10.3-9.9c4.1-0.1,8.2-0.2,12.3-0.2s7.8,0.1,11.7,0.2
			c7,0.2,9.8,3.1,10.7,10.1c0.2,2,0.2,4,0.2,6c0,42.1,0,84.3,0,126.4c0,1.3,0,2.7,0,4c-0.3,9-3.6,12.3-12.6,12.5
			c-3.6,0.1-7.1,0.1-10.7,0.1s-7.2,0-10.8-0.1c-7.2-0.2-10.1-3.1-11-10.2c-1.6-12.6-0.4-25.3-0.8-37.9c-0.1-1.9,0-3.8-0.5-5.9
			c-10.5,34.7-32.8,55.1-69.7,57.1c-2,0.1-4,0.2-6,0.2c-31.9,0-55.4-14.7-70.2-45.7c-1.6,5.1-2.6,9.2-4.1,13.2
			c-5.6,14.4-16.6,23.6-30.8,28c-10.7,3.3-21.5,5.1-32.1,5.1c-13.9,0-27.5-3.1-40.7-9.9c-17.1-8.9-25.4-23.9-25.9-43.1
			c-0.2-7,3.4-10.5,10.4-10.7c3.7-0.1,7.5-0.1,11.2-0.1c4.1,0,8.2,0.1,12.2,0.2c5.7,0.1,8.8,2.8,10.6,8.2c3.6,11.1,8.4,14.7,20,14.8
			c1.7,0,3.4,0.1,5,0.1c3.8,0,7.6-0.3,11.2-1.9c3.2-1.4,5.8-3.3,6.2-7.1c0.3-4-2.1-6.1-5.2-7.7c-6.8-3.3-14.2-4.7-21.5-6.4
			c-13.4-3.3-27-5.9-38.8-13.9C14.5,85.1,9,74.3,8.2,60.8C7.3,45.1,10.4,31,22.7,20c8.6-7.7,18.9-11.7,30.1-13.6
			c6.5-1.1,13-1.8,19.4-1.8c12.2,0,24.2,2.4,35.5,8.5c16.7,8.9,25.2,23.2,25.6,42.2c0.1,6.2-3,9.9-9.1,10.2
			c-3.8,0.2-7.6,0.3-11.4,0.3c-4.2,0-8.3-0.1-12.5-0.3c-5-0.2-8.4-2.9-10.4-7.9C86.6,49,78.2,44,69.5,44c-3.8,0-7.6,1-11.2,3
			c-2.2,1.3-4.3,2.9-4.4,5.7c-0.1,3.1,2.3,4.6,4.7,5.9c6.4,3.4,13.6,4.4,20.5,6.1c7.7,2,15.6,3.7,23.2,6.1
			c10.7,3.4,20.5,8.7,28,18.4c1.4-3.7,1.6-6.9,1.8-10.1c1.5-21.2,8.6-39.9,24.2-54.9c12.2-11.7,27-17.7,43.5-19.1
			C203.1,4.8,206.3,4.6,209.4,4.6 M209.3,129.9c9.1,0,18.1-4.4,23.2-13.4c10.9-19.2,10.6-39.4-0.1-58.6c-4.9-8.7-13.9-13.1-23-13.1
			c-7.1,0-14.2,2.6-19.6,8c-9.5,9.5-11.7,21.6-11.6,34.4c0,12.5,1.5,19.2,6.3,27.9C189.8,124.9,199.6,129.9,209.3,129.9 M209.4,2.6
			c-3.1,0-6.4,0.2-9.7,0.4C182.1,4.6,167,11.2,155,22.7c-9,8.7-15.6,18.8-19.7,30.6c-1-18.9-9.9-32.9-26.6-41.9
			C97.8,5.5,85.9,2.7,72.2,2.7c-6.2,0-12.7,0.6-19.8,1.8c-12.8,2.2-23,6.8-31.1,14.1C9.9,28.7,5.1,42.2,6.2,60.9
			c0.9,14.5,7.1,25.8,18.5,33.5c10.8,7.4,23.3,10.4,35.3,13.2c1.4,0.3,2.7,0.7,4.1,1c1.3,0.3,2.7,0.6,4.1,0.9c6,1.4,11.7,2.7,17,5.3
			c3.2,1.6,4.3,3.2,4.1,5.7c-0.2,2.5-1.6,4-5,5.5c-3.4,1.5-7,1.7-10.4,1.7c-1,0-2,0-3,0c-0.7,0-1.3,0-2,0
			c-10.7-0.1-14.8-3.1-18.2-13.4c-2.1-6.4-6-9.4-12.5-9.6c-4.1-0.1-8.3-0.2-12.3-0.2c-3.8,0-7.6,0.1-11.3,0.1
			c-4.1,0.1-7.3,1.3-9.4,3.5c-2.1,2.2-3.1,5.3-3,9.2c0.5,20.4,9.9,35.9,27,44.8c13,6.8,27,10.2,41.7,10.2c10.5,0,21.5-1.8,32.7-5.2
			c15.3-4.7,26.4-14.8,32-29.1c1.1-2.7,1.9-5.5,2.7-8.5c7.2,13.4,16.3,23.8,27.1,30.8c11.9,7.7,26.2,11.6,42.6,11.6
			c2,0,4-0.1,6.1-0.2c18.5-1,33.9-6.6,45.9-16.8c9.4-7.9,16.8-18.7,22.2-32.1c0,3.1,0,6.2-0.1,9.2c-0.1,8.1-0.2,16.4,0.8,24.7
			c1.1,8.2,4.8,11.7,13,12c3.3,0.1,6.9,0.1,10.8,0.1s7.6-0.1,10.8-0.1c10-0.1,14.2-4.3,14.6-14.4c0-1.2,0-2.4,0-3.5v-0.6
			c0-42.1,0-84.3,0-126.4V23c0-1.8,0-3.5-0.2-5.4c-1-8.1-4.7-11.6-12.6-11.9c-3.8-0.1-7.8-0.2-11.8-0.2s-8.1,0.1-12.3,0.2
			C288,6,284.1,9.7,283.1,17.4c-1.1,8.4-1,16.8-0.8,25c0,3.4,0.1,6.8,0.1,10.2c-5-13.2-11.9-23.6-21-31.5C247,8.7,230,2.6,209.4,2.6
			L209.4,2.6L209.4,2.6z M129.5,85c-6.6-7.3-15.1-12.5-26.6-16.2c-5.4-1.7-10.9-3.1-16.3-4.4c-2.3-0.6-4.7-1.1-7-1.7
			c-1.8-0.5-3.6-0.9-5.3-1.3c-5.2-1.2-10.2-2.3-14.7-4.7c-2.5-1.3-3.7-2.3-3.7-4c0-1.5,1-2.7,3.4-4c3.1-1.8,6.6-2.7,10.2-2.7
			c8.3,0,15.7,5,18.6,12.3c2.3,5.9,6.3,9,12.1,9.2c4.5,0.2,8.6,0.3,12.6,0.3s7.9-0.1,11.6-0.3c3.3-0.2,6-1.2,7.9-3.1
			c-1,4.6-1.6,9.4-2,14.4l0,0.5C130.1,81.3,129.9,83.1,129.5,85L129.5,85L129.5,85z M209.3,127.9c-9.6,0-18.5-5.3-23.1-13.7
			c-4.6-8.4-6-14.7-6-26.9c-0.1-15.1,3.3-25.2,11-33c4.8-4.8,11.3-7.5,18.2-7.5c9.1,0,17,4.5,21.3,12.1
			c10.5,18.7,10.5,38.3,0.1,56.6C226.4,123.3,218.4,127.9,209.3,127.9L209.3,127.9L209.3,127.9z"/>
		<path class="st0" d="M359.7,7.6c3.4,0,6.8,0,10.3,0.1c7.5,0.2,10.5,3.2,11.1,10.7c0.2,2.1,0.1,4.3,0.1,6.5c0,31.5,0,62.9,0,94.4
			c0,7,0.3,7.2,7.4,7.3c3.3,0,6.5,0,9.8,0c4.7,0,9.4,0,14.1,0c7.7,0,15.3,0,23,0.1c9.5,0.1,12.5,3.1,12.7,12.6c0.1,5,0.1,10,0,15
			c-0.2,8.9-3.6,12.5-12.5,12.5c-11.5,0.1-23,0.1-34.4,0.1c-8.5,0-17,0-25.6,0c-0.8,0-1.6,0-2.4,0c-4.3,0-8.5,0-12.8,0
			s-8.4,0-12.6-0.1c-7.9-0.2-10.7-2.8-11.9-10.5c-1.3-8.3-0.6-16.6-0.6-24.9c-0.1-14.8,0-29.6,0-44.4c0-20.1,0-40.3,0-60.4
			c0-1.8,0-3.7,0.1-5.5c1-10.6,3.9-13.2,14.5-13.3C353.2,7.7,356.4,7.6,359.7,7.6 M359.7,5.6v2V5.6c-2.6,0-5.1,0-7.7,0h-2
			c-11.7,0.1-15.4,3.5-16.5,15.1c-0.1,1.6-0.1,3.3-0.1,4.8v0.8c0,15.8,0,31.7,0,47.5v12.9c0,4.4,0,8.7,0,13.1
			c0,10.3,0,20.9,0.1,31.4c0,2.4,0,4.8-0.1,7.1c-0.1,5.9-0.2,12.1,0.7,18.1c1.4,8.8,5,12,13.8,12.2c3.7,0.1,7.6,0.1,12.7,0.1
			c2.2,0,4.4,0,6.5,0c2.1,0,4.2,0,6.3,0h2.4c4.3,0,8.5,0,12.8,0s8.5,0,12.8,0c10.1,0,22.2,0,34.4-0.1c9.9-0.1,14.3-4.4,14.5-14.5
			c0.1-5.1,0.1-10.1,0-15.1c-0.2-10.6-4.2-14.5-14.7-14.6c-8-0.1-16.1-0.1-23-0.1h-7.1h-7.1c-3.3,0-6.5,0-9.8,0
			c-1.8,0-4.5,0-4.9-0.4c-0.4-0.4-0.4-3.2-0.4-4.8c0-18.3,0-36.6,0-54.8c0-13.2,0-26.3,0-39.5c0-0.4,0-0.8,0-1.2
			c0-1.8,0-3.6-0.1-5.4c-0.8-8.5-4.7-12.2-13.1-12.5C366.9,5.7,363.6,5.7,359.7,5.6L359.7,5.6L359.7,5.6z"/>
	</g>
</g>
</svg>
