<?xml version="1.0" encoding="utf-8"?>
<!-- Generator: Adobe Illustrator 27.3.1, SVG Export Plug-In . SVG Version: 6.00 Build 0)  -->
<svg version="1.1" id="Livello_2_00000021085074800436448220000018186049523364722878_"
	 xmlns="http://www.w3.org/2000/svg" xmlns:xlink="http://www.w3.org/1999/xlink" x="0px" y="0px" viewBox="0 0 405.7 176"
	 style="enable-background:new 0 0 405.7 176;" xml:space="preserve">
<style type="text/css">
	.st0{fill:#FFFFFF;stroke:#FFFFFF;stroke-width:2;stroke-miterlimit:10;}
</style>
<g id="Livello_1-2">
	<g>
		<path class="st0" d="M71.5,5.2c10.9,0,21.8,2.1,32.4,6.7c18.1,7.8,27.6,22.4,29.8,41.8c0.9,8.2-2.7,12.3-10.9,12.7
			c-3.2,0.2-6.3,0.2-9.5,0.2c-4,0-8-0.1-12-0.2c-5.6-0.1-9.2-3-11.4-8.2c-3.5-8.5-12-13.4-20.7-13.4c-4.2,0-8.5,1.2-12.3,3.7
			c-4.5,3.1-4.1,7.9,1.2,10.5c8,3.9,16.8,5.2,25.4,7.3c5.8,1.4,11.7,2.9,17.3,4.7c17.5,5.6,31.8,14.7,36.7,34.4
			c0.1-1.7,0.2-3.3,0.2-5c0-25.5,0-51,0-76.4c0-2.3,0-4.7,0.3-7c0.8-5.3,3.7-8.2,8.9-8.4c4.4-0.1,8.9-0.2,13.3-0.2s8.8,0.1,13.2,0.2
			c5.3,0.1,8.2,3.1,9,8.3c0.4,2.5,0.4,5,0.4,7.5c0,27.5,0,55,0.1,82.4c0,2.8,0.2,5.7,0.6,8.4c1.5,10.3,6.6,14.7,17.1,15
			c0.3,0,0.6,0,0.9,0c10.2,0,16.8-5.1,18.6-14.6c0.5-2.6,0.5-5.3,0.5-7.9c0-27.6,0-55.3,0-82.9c0-2.7,0-5.4,0.4-8
			c0.8-5.2,3.8-8.1,9.1-8.3c4.2-0.1,8.4-0.2,12.6-0.2c4.6,0,9.3,0.1,13.9,0.2c5,0.1,7.9,3.1,8.8,8c0.3,1.6,0.4,3.3,0.4,5
			c0,32.3,0.3,64.6-0.1,96.9c-0.3,18.3-8,33.2-24.2,42.8c-7.2,4.3-15.3,6.4-23.6,7.7c-5.5,0.8-11.1,1.3-16.5,1.3
			c-11.1,0-22-1.9-32.6-6c-15.4-6-24.9-17.3-29.1-33.2c-0.4-1.7-0.9-3.5-1.4-5.2c-2.4,8.7-5.5,16.7-11,23.6
			c-10.6,13.3-25.2,19-41.3,20.6c-4.7,0.5-9.5,0.7-14.2,0.7c-10.8,0-21.6-1.4-32.2-5.2c-21.4-7.6-33-22.8-35.5-45.1
			c-1-8.4,3.1-13,11.6-13.1c2.3,0,4.7-0.1,7-0.1c4.9,0,9.8,0.1,14.7,0.1c0.1,0,0.2,0,0.2,0l0,0c5.7,0,9.2,2.7,11.1,8.2
			c4.4,12.5,8,14.9,21.4,14.9c1.6,0,3.2,0.1,4.8,0.1c3.2,0,6.4-0.2,9.5-1.5c3.7-1.5,7.1-3.4,7.2-8c0.1-4.5-3.3-6.4-6.7-7.8
			c-9-3.7-18.6-5.2-27.9-7.6c-8.1-2-16-4.4-23.7-7.8c-21.4-9.6-27.5-28.3-25-48.4c2.6-21,15-34,34.9-39.8
			C52.7,6.7,62.1,5.2,71.5,5.2 M71.5,3.2c-9.2,0-18.9,1.5-28.8,4.4c-10.5,3.1-18.8,8.1-24.9,14.8c-6.3,7-10.1,16-11.4,26.7
			c-1.4,11.2-0.1,21,3.7,29.3c4.3,9.4,11.9,16.5,22.5,21.3c8.5,3.8,17.3,6.2,24,7.9c2.5,0.6,5.1,1.2,7.6,1.8
			c6.7,1.5,13.6,3.1,20,5.7c4,1.6,5.5,3.2,5.4,5.9c-0.1,3.2-2.1,4.6-5.9,6.2c-2.9,1.2-5.9,1.4-8.8,1.4c-0.8,0-1.6,0-2.4,0
			c-0.8,0-1.5,0-2.3,0c-12.6,0-15.3-1.9-19.5-13.6c-2.3-6.4-6.5-9.5-13-9.5h-0.2c-2.5,0-4.9,0-7.4,0c-2.5,0-4.9,0-7.4,0
			c-2.6,0-4.9,0-7,0.1c-4.8,0.1-8.5,1.5-10.8,4.2c-2.3,2.7-3.2,6.4-2.7,11.2c2.7,23.2,15,38.9,36.8,46.8c10,3.6,20.8,5.3,32.9,5.3
			c4.6,0,9.3-0.2,14.4-0.8c18.8-1.9,32.7-8.9,42.7-21.4c4.5-5.6,7.3-11.8,9.3-17.7c4.6,15.9,14.6,27.1,29.9,33
			c10.4,4.1,21.6,6.2,33.3,6.2c5.4,0,11.1-0.4,16.8-1.3c10-1.5,17.7-4.1,24.3-8c16.2-9.6,24.9-25,25.2-44.5
			c0.3-23.3,0.3-47,0.2-69.9c0-8.9,0-18,0-27c0-2.1-0.1-3.8-0.4-5.3c-1.1-6-5-9.5-10.8-9.6c-5-0.1-9.5-0.2-13.9-0.2
			s-8.6,0.1-12.6,0.2c-6.1,0.2-10,3.7-11,10c-0.4,2.6-0.4,5.1-0.4,7.6v0.6c0,12.1,0,24.3,0,36.4c0,15.5,0,31,0,46.5
			c0,2.5-0.1,5.1-0.5,7.6c-1.6,8.5-7.4,13-16.6,13c-0.3,0-0.6,0-0.9,0c-9.6-0.3-13.8-4-15.1-13.3c-0.4-2.5-0.5-5.2-0.5-8.2
			c0-15.8,0-31.7,0-47.5c0-11.6,0-23.3,0-34.9v-0.5c0-2.4,0-4.9-0.4-7.3c-1-6.3-4.9-9.9-10.9-10c-4.4-0.1-8.9-0.2-13.2-0.2
			s-9,0.1-13.4,0.2c-6,0.2-9.9,3.8-10.9,10.1c-0.4,2.3-0.4,4.6-0.4,6.8V24c0,10.1,0,20.3,0,30.5c0-0.3-0.1-0.7-0.1-1
			c-2.3-20.9-12.8-35.5-31-43.4C94.2,5.5,83.1,3.2,71.5,3.2C71.5,3.2,71.5,3.2,71.5,3.2z M96.5,67.6c-3.7-1.1-7.5-2-11.2-2.9
			L84,64.4c-2.1-0.5-4.3-1-6.4-1.5c-6.6-1.5-12.8-2.8-18.6-5.7c-1.9-0.9-3.1-2.2-3.2-3.6c-0.1-1.2,0.7-2.5,2.2-3.5
			c3.3-2.2,7.1-3.4,11.2-3.4c8.3,0,15.8,4.9,18.8,12.2C89.9,63.4,92.7,66.3,96.5,67.6L96.5,67.6L96.5,67.6z M113.3,68.6
			c3.6,0,6.7-0.1,9.6-0.2c4.7-0.2,8.2-1.6,10.4-4.2c1.5-1.7,2.3-4,2.6-6.7c0,2.8,0,5.7,0,8.6c0,9.6,0,19.2,0,28.8
			c-7.7-15.2-22-21.7-34.3-25.6c-1.2-0.4-2.4-0.8-3.7-1.1c1.1,0.2,2.2,0.4,3.4,0.4l1.7,0C106.4,68.5,109.9,68.6,113.3,68.6
			L113.3,68.6L113.3,68.6z"/>
		<path class="st0" d="M304.2,8.3c6,0,10.1,3,13.1,8.1c11.3,19,22.7,38,34,57c1,1.7,2.1,3.3,3.5,5.4c2.2-3,1.8-5.6,1.8-8
			c0-16.5,0-33,0.1-49.4c0-9.9,3-12.9,12.8-13c3.2,0,6.4-0.1,9.6-0.1c3.8,0,7.6,0,11.3,0.1c6.1,0.2,9,2.8,10.5,8.7
			c0.7,2.8,0.8,5.6,0.8,8.4c0,41.3,0,82.6,0,123.9c0,1.3,0,2.7-0.1,4c-0.8,11-3.8,14-14.9,14c-0.6,0-1.1,0-1.7,0
			c-3.2,0-6.4-0.1-9.5-0.1c-1.9,0-3.8,0-5.8,0.1c-0.3,0-0.5,0-0.8,0c-6.1,0-10.5-2.7-13.7-7.9c-11-17.9-22.1-35.7-33.1-53.5
			c-2-3.2-4-6.3-6.2-9.7c-1.7,2.2-1.1,4.1-1.1,5.9c0,16.7,0,33.3,0,49.9c0,11.9-3.4,15.2-15.1,15.2c-3,0-6,0-9,0s-6,0-9-0.1
			c-8.3-0.2-11.9-3.7-11.9-12.1c-0.1-23.8-0.1-47.6-0.1-71.4c0-20.6,0-41.3,0-61.9c0-10.8,2.9-13.6,13.7-13.6c0.7,0,1.3,0,2,0
			c3.7,0,7.4,0.1,11.1,0.1c2.3,0,4.5,0,6.8-0.1C303.7,8.4,303.9,8.4,304.2,8.3 M304.2,6.4c-0.3,0-0.5,0-0.8,0
			c-2,0.1-4.1,0.1-6.8,0.1c-1.9,0-3.7,0-5.5,0c-1.9,0-3.7,0-5.6,0c-0.7,0-1.4,0-2,0c-12,0.1-15.6,3.8-15.7,15.6
			c-0.1,16.3,0,32.8,0,48.9V84c0,5.6,0,11.1,0,16.6c0,18,0,36.5,0.1,54.8c0,9.4,4.5,13.8,13.9,14c2.7,0.1,5.5,0.1,9,0.1
			c2.4,0,4.7,0,7.1,0h1.9c12.9-0.1,17-4.3,17.1-17.3c0-8.5,0-17.2,0-25.5c0-8,0-16.3,0-24.4c0-0.3,0-0.5,0-0.8
			c1.2,1.9,2.4,3.8,3.6,5.7l5.5,8.9c9.1,14.6,18.4,29.7,27.6,44.6c3.7,6,8.7,8.9,15.4,8.9c0.3,0,0.6,0,0.9,0
			c1.7-0.1,3.5-0.1,5.7-0.1c1.6,0,3.2,0,4.8,0c1.6,0,3.2,0,4.8,0c0.6,0,1.1,0,1.7,0c12.1-0.1,16.1-3.8,16.9-15.9
			c0.1-1.2,0.1-2.4,0.1-3.5v-0.6V101c0-25.1,0-50.3,0-75.4c0-2.8-0.1-5.8-0.8-8.9c-1.7-7-5.4-10-12.4-10.2
			c-3.5-0.1-7.2-0.1-11.4-0.1c-2.8,0-5.8,0-9.7,0.1c-11,0.1-14.7,3.9-14.8,15c0,9.5,0,19.1,0,28.5c0,7,0,14,0,21c0,0.3,0,0.7,0,1
			c0,1,0,1.9-0.1,2.9c-0.5-0.8-1-1.6-1.5-2.3l-3.6-6.1c-10-16.7-20.3-33.9-30.4-50.9C315.4,9.3,310.5,6.3,304.2,6.4L304.2,6.4
			L304.2,6.4z"/>
	</g>
</g>
</svg>
