<?xml version="1.0" encoding="UTF-8"?>
<svg id="Livello_2" data-name="Livello 2" xmlns="http://www.w3.org/2000/svg" viewBox="0 0 648.87 169.47">
  <defs>
    <style>
      .cls-1 {
        fill: #fff;
      }
    </style>
  </defs>
  <g id="Livello_1-2" data-name="Livello 1">
    <g>
      <path class="cls-1" d="m315.56,168.47c-22.37,0-43.13-10.22-58.48-28.78l-.14-.17c-.28-.34-.49-.61-1.01-.75,0,1.09.01,2.17.02,3.24.03,3.2.06,6.21-.05,9.29-.35,9.88-4.5,13.93-14.32,13.96-7.51.02-15.15.09-22.53.16-8.95.08-18.2.17-27.3.17-14.39,0-26.2-.21-37.15-.68-1.56-.07-3.15-.1-4.87-.1-4.53,0-9.12.23-13.57.45-4.45.22-9.06.45-13.61.45-3.07,0-5.85-.1-8.49-.32-9.32-.75-12.71-2.47-15.78-11.76l-.5-1.5c-1.39-4.19-2.82-8.52-3.99-12.86-.79-2.94-2.27-4.09-5.28-4.09h-.16c-5.44.07-10.39.11-15.13.11-5.07,0-9.77-.04-14.38-.12h-.21c-3.12,0-4.62,1.2-5.52,4.44-1.39,5.01-3.02,10.03-4.61,14.88l-.45,1.38c-1.95,5.99-6.26,9.21-12.47,9.31-4.66.07-8.87.13-13.13.13-4.01,0-7.58-.06-10.9-.17-7.18-.25-10.44-3.67-10.56-11.11-.06-3.73.96-7.19,1.98-10.08,12.72-36.43,25.43-72.86,38.13-109.29l6.62-18.99c3.22-9.23,6.2-11.37,15.92-11.46,1.42-.01,2.84-.02,4.25-.02,2.09,0,4.19.01,6.28.02,2.09.01,4.18.02,6.27.02,1.73,0,3.46,0,5.18-.03h.25c6.37,0,10.68,3.06,12.81,9.11,3.26,9.24,6.53,18.48,9.8,27.72,3.9,11.01,7.79,22.02,11.67,33.03,3.02,8.56,6.03,17.13,9.04,25.69,3.72,10.6,7.45,21.2,11.19,31.79.08.24.15.5.22.76.1.41.18.7.29.9.28-.85.21-1.79.13-2.84-.04-.5-.07-.99-.07-1.48.03-26.06.03-52.13.04-78.19v-28.21s0-1.24,0-1.24c0-1.75-.02-3.56.15-5.34.74-8.04,4.24-11.4,12.1-11.61,3.71-.1,7.52-.15,11.33-.15,4,0,8.1.06,12.21.16,6.93.18,10.32,3.37,11.34,10.66.57,4.11.85,8.56.84,13.58-.04,30.4-.03,60.46,0,88.42q0,6.09,6.07,6.1c12.53.03,25.06.04,37.58.06h11.01c.97.01,3.24.01,3.52-.36.29-.4-.46-2.7-.83-3.81-8.37-25.69-7.51-50.55,2.57-73.88,10.35-23.96,28.53-38.26,54.05-42.52,6.3-1.05,12.41-1.58,18.14-1.58,13.36,0,25.17,2.76,36.09,8.42,16.28,8.45,26.73,21.91,31.06,40.01,1.48,6.17,1.09,10.58-1.19,13.49-2.33,2.97-6.47,4.37-13.03,4.41-2.6.02-5.21.03-7.82.03-3.8,0-7.14-.03-10.2-.08-6.85-.13-11.33-3.11-13.67-9.11-3.54-9.07-11.89-14.49-22.36-14.49-6.71,0-13.15,2.26-17.66,6.2-5.66,4.94-9.44,11.11-11.23,18.34-3.96,16.01-2.85,29.63,3.4,41.64,5.42,10.41,14.92,16.63,25.41,16.63,6.22,0,12.39-2.18,17.85-6.3l.17-.13c2.61-1.97,6.18-4.66,5.49-7.26-.12-.45-.39-.93-2.02-.93-.77,0-1.67.11-2.54.22-.92.11-1.86.23-2.72.23-.15,0-.29,0-.43-.01-1.04-.05-2.07-.09-3.11-.13-3.09-.11-6.29-.22-9.45-.78-6.53-1.16-9.6-4.36-9.95-10.36-.38-6.42-.39-12.84-.03-19.08.39-6.82,4.19-10.47,10.99-10.55,8.33-.1,16.99-.14,26.48-.14,8.95,0,18.48.04,30,.13,5.4.04,9.06,3.21,10.29,8.92.68,3.16,1.01,6.64.99,10.63-.03,8.71-.03,17.43-.02,26.45v8.11c.39-.71.6-1.44.81-2.19.11-.39.22-.77.35-1.14,4.49-12.85,8.96-25.7,13.44-38.56,7.82-22.46,15.9-45.68,23.93-68.5,3.05-8.66,6.06-10.79,15.37-10.88.9,0,1.79-.01,2.69-.01,1.95,0,3.91.02,5.86.03,1.95.02,3.9.03,5.84.03,2.72,0,4.96-.03,7.07-.1.24,0,.48-.01.72-.01,6.77,0,11.21,3.38,13.57,10.33,2.39,7.04,4.94,14.17,7.41,21.06,1.31,3.65,2.61,7.3,3.91,10.95,5.44,15.4,29.92,84.78,29.92,84.78.06.18.12.34.19.5v-26.29c0-25.95-.01-52.78.04-79.17.01-4.56.52-9.11.97-12.55.71-5.46,4.19-8.8,9.81-9.39,1.65-.17,3.32-.17,4.94-.17,0,0,41.74-.02,53.21-.02,13.3,0,26.59,0,39.89.03,11.91.02,15.01,3.15,15.1,15.25l.02,2.17c.04,4.22.08,8.58-.11,12.87-.36,8.16-4.15,11.82-12.27,11.88-11.02.08-22.23.08-33.06.09-8.3,0-16.61,0-24.91.05-.45,0-.89-.02-1.33-.05-.43-.02-.86-.05-1.29-.05-1.76,0-2.43.44-2.67,1.75-.66,3.73-1.42,7.96.5,11.53.19.35.54.68,1.79.68.39,0,.8-.03,1.2-.06.43-.03.85-.06,1.24-.06,4.97.01,9.93.01,14.88.01h10.04c6.86,0,13.72,0,20.58.03,12.38.05,16.19,3.82,16.31,16.11v.85c.05,3.82.08,7.78-.04,11.67-.31,9.79-3.86,13.29-13.54,13.37-8.01.06-15.88.07-22.52.07h-16.5c-2.65,0-5.31,0-7.96,0q-6.35.01-6.38,6.28c-.01,2.5,0,4.99,0,7.48,0,3.29.01,5.46.73,6.2.68.7,2.52.73,5.98.73,4.09,0,31.69,0,31.69,0,7.09,0,14.19,0,21.28.02,14.48.03,17.22,2.78,17.26,17.3,0,.93,0,1.85.02,2.78.02,3.03.05,6.17-.09,9.25-.38,8.61-4.17,12.43-12.68,12.76-2.65.1-5.47.15-9.14.15-1.62,0-3.25,0-4.88-.02-1.62,0-3.24-.02-4.86-.02,0,0-22.82,0-34.16,0-12.98,0-25.96,0-38.94,0h-3.25c-3.67.01-7.57-.11-11.42-1.59-.45-.17-.99-.27-1.48-.27-.3,0-.58.04-.8.11-5.6,1.72-11.15,1.94-15.36,1.94-2.36,0-4.76-.08-7.07-.16-2.3-.08-4.67-.16-6.99-.16-.55,0-1.09,0-1.64.01-.2,0-.39,0-.58,0-7.34,0-10.85-2.61-13.41-9.96-1.85-5.31-3.5-10.77-5.09-16.05l-.05-.17c-.81-2.7-2.31-3.8-5.18-3.8-5.43.05-10.37.07-15.2.07-5.13,0-10.14-.03-14.9-.08h-.12c-2.81,0-4.21,1.09-4.99,3.88-1.2,4.31-2.55,8.64-3.85,12.83l-.92,2.97c-2.25,7.29-6.08,10.27-13.21,10.29h-3.28c-2.12.02-4.23.03-6.35.03-5.9,0-12.88-.07-19.89-.58-1.12-.08-2.29-.12-3.56-.12-2.84,0-5.77.2-8.6.4-2.89.2-5.88.41-8.84.41-.44,0-.89,0-1.33-.01-4.04-.09-8.64-.51-12.09-4.41-.59-.67-1.16-.97-1.85-.97-.52,0-1.14.17-1.89.53-11.22,5.3-22.77,7.99-34.32,7.99ZM72.26,78.07c-.9,2.81-1.8,5.61-2.7,8.42-1.03,3.19-1.98,6.39-1.23,7.42.36.49,1.34.73,2.99.73h0c1.14,0,2.6-.1,4.86-.35,1.26-.14,2.05-.44,2.36-.91.26-.4.26-1.06-.02-1.98-1.25-4.15-2.53-8.28-3.82-12.41l-1.35-4.33h0l-1.09,3.41Zm383.9-2.04c-2.54,4.47-3.87,9.16-5.17,13.71-.2.71-.4,1.41-.61,2.12-.21.74-.2,1.39.05,1.75.06.08.23.34.85.39,1.44.11,2.96.17,4.51.17s3.12-.06,4.76-.17c.49-.03.62-.22.67-.29.2-.29.2-.84.02-1.45-1.37-4.46-2.77-8.91-4.17-13.36l-.9-2.88Z"/>
      <path d="m321.06,2c12.24,0,24.23,2.4,35.63,8.31,16.1,8.35,26.32,21.67,30.55,39.36,2.8,11.7-1.18,16.59-13.25,16.66-2.6.02-5.21.03-7.81.03-3.39,0-6.78-.02-10.18-.08-6-.11-10.4-2.44-12.75-8.48-4.12-10.57-13.74-15.13-23.29-15.13-6.82,0-13.6,2.32-18.32,6.44-5.86,5.11-9.69,11.39-11.54,18.86-3.59,14.49-3.55,28.84,3.48,42.34,5.83,11.19,15.81,17.16,26.29,17.16,6.24,0,12.64-2.11,18.46-6.5,2.93-2.21,6.9-5.13,6.02-8.44-.35-1.32-1.52-1.67-2.98-1.67-1.65,0-3.66.45-5.26.45-.13,0-.26,0-.38,0-4.15-.21-8.31-.16-12.44-.89-5.87-1.04-8.79-3.63-9.13-9.44-.37-6.3-.39-12.66-.03-18.97.36-6.21,3.69-9.53,10-9.6,8.82-.1,17.65-.14,26.48-.14,10,0,19.99.05,29.98.13,5.16.04,8.23,3.09,9.32,8.13.74,3.44.98,6.9.97,10.42-.05,12.13-.02,24.26-.02,37.2,2.38-1.84,2.49-3.91,3.09-5.64,12.46-35.68,24.82-71.4,37.37-107.05,2.96-8.42,5.73-10.13,14.43-10.22.89,0,1.79-.01,2.68-.01,3.9,0,7.8.07,11.7.07,2.37,0,4.73-.02,7.1-.1.23,0,.46-.01.69-.01,6.67,0,10.49,3.37,12.62,9.65,3.64,10.72,7.55,21.35,11.32,32.02,9.98,28.26,19.95,56.52,29.92,84.78.32.92.73,1.81,2.14,2.68v-5.56c0-34.14-.03-68.27.04-102.41,0-4.14.43-8.31.96-12.43.66-5.11,3.8-7.98,8.93-8.52,1.65-.17,3.33-.17,4.99-.17,17.74,0,35.48-.02,53.21-.02,13.25,0,26.49,0,39.74.03,11.37.02,14.02,2.76,14.11,14.25.04,4.99.13,10-.09,14.98-.34,7.61-3.61,10.87-11.28,10.93-19.32.14-38.65.05-57.97.14h-.04c-.8,0-1.7-.1-2.58-.1-1.69,0-3.26.37-3.65,2.57-.71,4.01-1.45,8.35.6,12.18.53,1,1.56,1.21,2.67,1.21.82,0,1.68-.11,2.44-.11h.02c4.96.01,9.92.01,14.89.01,3.33,0,6.66,0,10,0,6.87,0,13.73,0,20.59.03,11.92.05,15.2,3.33,15.31,15.12.04,4.16.09,8.33-.04,12.49-.29,9.17-3.39,12.33-12.54,12.4-7.5.06-15,.07-22.49.07-5.51,0-11.02,0-16.53,0-2.65,0-5.3,0-7.95,0-7.07.01-7.34.3-7.38,7.28-.01,2.5,0,5,0,7.49.02,7.81.11,7.92,7.72,7.93,4.09,0,8.18,0,12.27,0,6.47,0,12.95,0,19.42,0,7.09,0,14.19,0,21.28.02,13.94.03,16.22,2.34,16.26,16.31.01,4,.1,8-.07,11.99-.35,8.11-3.63,11.49-11.72,11.8-3.03.12-6.06.15-9.1.15-3.25,0-6.5-.03-9.75-.03h-.14c-11.35,0-22.69,0-34.04,0-12.97,0-25.95,0-38.92,0h-.04c-1.07,0-2.15.01-3.22.01-3.74,0-7.46-.15-11.06-1.53-.55-.21-1.21-.34-1.84-.34-.39,0-.76.05-1.1.15-4.98,1.53-10.01,1.9-15.07,1.9-4.69,0-9.39-.32-14.07-.32-.55,0-1.1,0-1.65.01-.19,0-.38,0-.56,0-7.05,0-10.1-2.49-12.47-9.29-1.86-5.34-3.49-10.77-5.12-16.19-.94-3.14-2.87-4.51-6.14-4.51-.04,0-.07,0-.11,0-5.03.05-10.06.07-15.1.07s-9.92-.03-14.88-.08c-.05,0-.09,0-.14,0-3.32,0-5.07,1.46-5.95,4.61-1.48,5.29-3.14,10.53-4.77,15.78-2.08,6.74-5.36,9.57-12.26,9.59-3.21.01-6.41.03-9.61.03-6.6,0-13.2-.09-19.82-.57-1.21-.09-2.42-.12-3.64-.12-5.76,0-11.61.81-17.45.81-.44,0-.87,0-1.31-.01-4.29-.1-8.31-.63-11.36-4.08-.81-.91-1.66-1.31-2.6-1.31-.71,0-1.48.23-2.32.62-11.23,5.31-22.71,7.9-33.89,7.9-21.72,0-42.3-9.78-57.71-28.41-.52-.63-.94-1.38-2.92-1.39,0,4.68.13,9.15-.03,13.61-.33,9.33-3.95,12.96-13.33,12.99-16.61.05-33.23.33-49.84.33-12.38,0-24.74-.15-37.1-.67-1.64-.07-3.28-.1-4.91-.1-9.1,0-18.12.9-27.18.9-2.8,0-5.6-.09-8.41-.31-9.07-.73-12.04-2.39-14.91-11.07-1.57-4.74-3.17-9.48-4.47-14.3-.92-3.41-2.78-4.83-6.25-4.83-.06,0-.12,0-.18,0-5.04.07-10.08.11-15.11.11s-9.58-.04-14.37-.12c-.08,0-.15,0-.23,0-3.72,0-5.51,1.68-6.48,5.18-1.51,5.45-3.29,10.83-5.04,16.21-1.81,5.55-5.71,8.52-11.53,8.62-4.37.07-8.74.13-13.11.13-3.63,0-7.25-.04-10.87-.17-6.85-.23-9.49-3.36-9.59-10.13-.05-3.41.82-6.58,1.92-9.74C18.85,101.54,33.76,58.78,48.68,16.02c3.08-8.84,5.59-10.7,14.99-10.79,1.42-.01,2.83-.02,4.25-.02,4.18,0,8.36.04,12.55.04,1.73,0,3.46,0,5.19-.03.08,0,.16,0,.24,0,5.99,0,9.87,2.79,11.87,8.44,7.15,20.25,14.33,40.49,21.47,60.75,6.75,19.16,13.46,38.33,20.23,57.48.35,1,.3,2.37,1.85,2.75,1.25-1.8.65-3.84.66-5.73.04-35.47.03-70.94.04-106.41,0-2.16-.06-4.34.14-6.49.69-7.51,3.66-10.5,11.13-10.7,3.76-.1,7.53-.15,11.3-.15,4.06,0,8.12.06,12.18.16,6.56.17,9.45,3.19,10.37,9.8.62,4.47.84,8.93.83,13.44-.04,29.47-.03,58.95-.01,88.42,0,6.7.4,7.09,7.07,7.1,16.16.04,32.31.05,48.47.07h.12c5.09,0,5.31-.37,3.64-5.49-8.05-24.7-7.82-49.21,2.53-73.17,10.13-23.46,28.05-37.72,53.3-41.93,6.02-1,12.03-1.57,17.97-1.57M71.32,95.64c1.31,0,2.95-.14,4.97-.36,2.75-.3,4.03-1.4,3.19-4.16-1.75-5.82-3.58-11.62-5.38-17.43-.49-.02-.98-.04-1.47-.06-1.34,4.18-2.67,8.37-4.03,12.55-2.39,7.38-2.37,9.46,2.72,9.46m384.47-.46c1.61,0,3.22-.06,4.82-.17,1.68-.11,2.02-1.57,1.57-3.03-1.88-6.12-3.82-12.23-5.73-18.35-3.83,5.83-5.28,11.94-7.04,17.95-.48,1.63-.1,3.27,1.78,3.41,1.52.12,3.06.18,4.59.18M321.06,0c-5.79,0-11.95.54-18.3,1.6-25.88,4.32-44.31,18.82-54.8,43.11-10.17,23.56-11.05,48.65-2.6,74.58.21.65.66,2.01.79,2.78-.72.09-1.98.09-2.53.09h-11.04c-12.52-.02-25.04-.04-37.55-.07-1.46,0-4.18-.01-4.62-.46-.45-.45-.45-3.18-.45-4.65-.02-28.07-.03-58.21.01-88.42,0-5.08-.27-9.56-.85-13.72-1.08-7.77-4.87-11.32-12.3-11.52-4.12-.11-8.23-.16-12.24-.16s-7.64.05-11.35.15c-8.38.22-12.28,3.97-13.07,12.52-.17,1.83-.16,3.66-.15,5.43,0,.41,0,.83,0,1.24v28c0,25.18,0,51.21-.04,76.83-3.29-9.34-6.58-18.68-9.86-28.02-2.99-8.52-5.99-17.05-8.99-25.57-3.91-11.08-7.83-22.16-11.75-33.24-3.24-9.17-6.49-18.34-9.73-27.51-2.29-6.49-6.92-9.78-13.75-9.78h-.27c-1.72.02-3.44.03-5.17.03-2.09,0-4.17-.01-6.26-.02-2.09-.01-4.19-.02-6.28-.02-1.42,0-2.85,0-4.27.02-10.18.1-13.49,2.48-16.86,12.14l-8.23,23.59C26.39,73.85,14.22,108.75,2.03,143.64.99,146.62-.06,150.19,0,154.07c.13,7.99,3.79,11.83,11.52,12.1,3.33.11,6.91.17,10.94.17,4.27,0,8.47-.06,13.14-.13,6.68-.1,11.31-3.56,13.41-10l.45-1.39c1.58-4.86,3.22-9.89,4.62-14.91.78-2.81,1.89-3.71,4.56-3.71h.19c4.62.08,9.33.13,14.41.13,4.75,0,9.7-.04,15.14-.11h.15c2.59,0,3.64.81,4.32,3.35,1.17,4.37,2.61,8.71,4,12.92l.49,1.49c3.2,9.68,7.14,11.67,16.65,12.44,2.66.21,5.47.32,8.57.32,4.57,0,9.19-.23,13.66-.45,4.43-.22,9.02-.45,13.52-.45,1.71,0,3.29.03,4.83.1,10.96.46,22.78.68,37.18.68,9.1,0,18.36-.08,27.31-.17,7.39-.07,15.03-.14,22.54-.16,10.37-.03,14.95-4.49,15.32-14.92.11-3.1.08-6.13.05-9.34,0-.3,0-.61,0-.91,15.47,18.3,36.25,28.37,58.6,28.37,11.69,0,23.38-2.72,34.74-8.09.61-.29,1.1-.43,1.47-.43.19,0,.54,0,1.1.63,3.72,4.2,8.56,4.65,12.82,4.75.45.01.9.01,1.35.01,2.99,0,6-.21,8.91-.41,2.82-.2,5.73-.4,8.53-.4,1.25,0,2.39.04,3.49.12,7.04.51,14.04.58,19.96.58,2.11,0,4.22,0,6.33-.02h3.29c7.65-.04,11.76-3.23,14.16-11.01l.92-2.97c1.3-4.2,2.65-8.54,3.86-12.86.66-2.36,1.67-3.15,4.02-3.15h.11c4.76.06,9.78.09,14.91.09,4.83,0,9.77-.02,15.12-.07h.09c2.4,0,3.55.84,4.22,3.09l.04.14c1.6,5.31,3.25,10.79,5.11,16.13,2.7,7.75,6.6,10.63,14.36,10.63.2,0,.4,0,.6,0,.54,0,1.08-.01,1.62-.01,2.31,0,4.67.08,6.96.16,2.32.08,4.73.16,7.1.16,4.28,0,9.93-.23,15.66-1.98.08-.02.24-.06.51-.06.37,0,.79.08,1.12.2,4.02,1.54,8.19,1.67,11.78,1.67.54,0,1.08,0,1.62,0,.53,0,1.07,0,1.6,0,13.01,0,25.98,0,38.96,0,11.35,0,22.69,0,34.04,0h.14c1.62,0,3.24,0,4.86.02,1.63,0,3.26.02,4.89.02,3.68,0,6.51-.05,9.17-.15,9.04-.35,13.24-4.58,13.64-13.71.14-3.11.11-6.24.09-9.28,0-.93-.01-1.87-.02-2.8-.02-7.16-.6-11.87-3.5-14.79-2.91-2.92-7.61-3.5-14.76-3.51-7.09-.01-14.19-.02-21.28-.02h-9.71s-9.71,0-9.71,0c-4.09,0-8.18,0-12.27,0-2.16,0-4.85,0-5.27-.43-.44-.45-.44-3.13-.45-5.5,0-2.49-.01-4.98,0-7.48.01-1.76.03-4.41.46-4.84.45-.44,3.14-.45,4.93-.45,2.65,0,5.3,0,7.95,0s5.51,0,8.26,0c2.76,0,5.51,0,8.27,0,6.63,0,14.49,0,22.51-.07,10.13-.08,14.2-4.1,14.53-14.34.13-3.92.09-7.89.05-11.73v-.84c-.13-12.89-4.34-17.04-17.31-17.1-7.03-.03-14.05-.03-20.6-.03h-5s-5,0-5,0c-4.96,0-9.92,0-14.88-.01-.46,0-.9.03-1.33.06-.4.03-.78.05-1.13.05-.72,0-.89-.12-.89-.12-1.77-3.3-1.08-7.17-.41-10.92.11-.61.16-.92,1.68-.92.39,0,.8.02,1.23.05.44.03.9.05,1.34.05h.05c8.3-.04,16.75-.04,24.92-.05,10.83,0,22.03-.01,33.05-.09,8.67-.06,12.88-4.14,13.27-12.84.19-4.32.15-8.69.11-12.92l-.02-2.17c-.09-12.58-3.71-16.22-16.1-16.24-13.25-.02-26.49-.03-39.74-.03-11.44,0-22.88,0-34.32,0h-18.9s-.16,0-.16,0c-1.64,0-3.34,0-5.04.18-6.13.65-9.93,4.29-10.7,10.26-.45,3.48-.97,8.07-.98,12.68-.06,26.23-.05,52.9-.05,78.68,0,7,0,13.99,0,20.99-3.99-11.3-7.97-22.59-11.96-33.89-5.4-15.31-10.81-30.63-16.22-45.94-1.29-3.66-2.6-7.32-3.91-10.98-2.47-6.88-5.01-13.99-7.4-21.02-2.51-7.4-7.26-11-14.51-11-.25,0-.5,0-.75.01-2.09.07-4.33.1-7.03.1-1.94,0-3.89-.02-5.83-.03-1.96-.02-3.91-.03-5.87-.03-.9,0-1.8,0-2.7.01-9.75.09-13.1,2.47-16.3,11.55-8.04,22.86-16.14,46.13-23.98,68.63-4.2,12.05-8.39,24.1-12.6,36.15,0-.7,0-1.41,0-2.1,0-9.15-.01-17.78.02-26.52.02-4.07-.32-7.62-1.01-10.85-1.34-6.22-5.35-9.67-11.26-9.71-11.53-.09-21.06-.13-30-.13-9.5,0-18.17.05-26.5.14-7.3.08-11.55,4.16-11.98,11.49-.36,6.29-.35,12.75.03,19.2.39,6.55,3.71,10.03,10.78,11.29,3.23.57,6.46.69,9.59.8,1.03.04,2.06.07,3.1.13.16,0,.32.01.48.01.92,0,1.9-.12,2.84-.24.88-.11,1.71-.21,2.42-.21s.97.11,1.04.14c0,0,0,.02.01.05.52,1.94-2.88,4.51-5.13,6.2l-.17.13c-5.29,3.99-11.25,6.1-17.25,6.1-10.11,0-19.27-6.01-24.52-16.09-6.13-11.78-7.22-25.17-3.32-40.94,1.74-7.03,5.41-13.03,10.91-17.83,4.27-3.73,10.63-5.95,17.01-5.95,10.04,0,18.04,5.18,21.43,13.85,2.5,6.43,7.27,9.61,14.58,9.75,3.06.06,6.4.08,10.21.08,2.61,0,5.22-.01,7.83-.03,6.89-.04,11.28-1.56,13.81-4.79,2.48-3.16,2.93-7.85,1.38-14.34-4.4-18.39-15.02-32.08-31.57-40.67-10.91-5.66-23.21-8.54-36.55-8.54h0ZM71.32,93.64c-1.84,0-2.19-.32-2.19-.32-.32-.51.14-2.71,1.37-6.52.94-2.9,1.87-5.81,2.8-8.72l.04-.11c.14.44.27.88.41,1.31,1.26,4.06,2.57,8.27,3.82,12.41.26.86.14,1.13.14,1.14,0,0-.28.32-1.63.46-2.19.24-3.66.34-4.75.34h0Zm379.92-.65c-.02-.13-.03-.42.09-.85.21-.71.41-1.42.61-2.13,1.12-3.94,2.2-7.72,3.98-11.39l.17.56c1.38,4.39,2.8,8.92,4.17,13.39.06.19.08.34.09.45-1.57.1-3.11.16-4.57.16s-3.02-.06-4.43-.17c-.05,0-.09,0-.11-.02h0Z"/>
    </g>
  </g>
</svg>