<?xml version="1.0" encoding="UTF-8"?>
<svg id="Livello_2" data-name="Livello 2" xmlns="http://www.w3.org/2000/svg" viewBox="0 0 949.67 169.64">
  <defs>
    <style>
      .cls-1 {
        fill: #fff;
      }
    </style>
  </defs>
  <g id="Livello_1-2" data-name="Livello 1">
    <g>
      <g>
        <path class="cls-1" d="m325.36,168.64c-16.11,0-31.5-5-45.75-14.86-5.35-3.7-9.59-8.42-13.47-12.94-.27-.31-.49-.64-.71-.96-.46-.68-.79-1.13-1.25-1.34-.15.61.09,1.23.46,2.12.16.39.32.77.44,1.16.26.87.6,1.72.96,2.62.39.98.79,1.98,1.09,3.03,1.71,6,1.47,10.34-.71,13.26-2.17,2.9-6.21,4.34-12.35,4.39-3.32.03-6.64.05-9.96.05-3.91,0-7.36-.03-10.56-.11-7.85-.18-11.66-3.06-14.04-10.64-.48-1.52-.97-3.04-1.46-4.55-1.13-3.5-2.29-7.13-3.31-10.73-.83-2.96-2.32-4.11-5.31-4.11h-.17c-4.46.07-9.18.1-14.44.1s-10.38-.03-15.57-.07h0c-2.78,0-4.05.96-4.78,3.54-.91,3.24-1.97,6.48-3,9.62-.86,2.62-1.74,5.34-2.54,8.02-1.6,5.45-5.49,8.44-11.24,8.64-4.63.16-9.24.25-13.68.25-4.18,0-8.34-.07-12.36-.22-5.86-.21-9.58-4.27-9.72-10.59-.03-1.56.09-3.09.23-4.86.01-.17.03-.33.04-.5-.26.22-.53.43-.79.64-4.12,3.36-8.01,6.53-12.62,8.75-9.12,4.39-18.51,6.65-27.88,6.71-10.58.06-21.82.09-34.35.09-10.04,0-20.08-.02-30.13-.05-10.68-.03-13.45-2.47-14.81-13.07-.38-2.96-.57-6.01-.58-9.08-.02-22.09-.02-44.19-.03-66.28,0-16.21,0-32.42-.01-48.63,0-4.79.24-8.79.76-12.58C2.91,7.13,6.25,4.16,14.53,4.09c9.99-.08,19.16-.12,28.02-.12,6.67,0,13.22.02,19.48.07.73,0,1.46,0,2.19,0,1.31,0,2.63,0,3.94-.01,1.32,0,2.63-.01,3.95-.01,8.41,0,17.38.22,26.4,2.91,14.43,4.29,25.26,14.79,29.71,28.79,4.42,13.88,1.67,28.56-7.53,40.28l-.27.34c-1.46,1.84-2.01,2.53-.33,4.17,9.26,9.02,13.96,20.26,13.98,33.42,0,.07.01.15.03.24,1.14-1.79,1.73-3.68,2.31-5.52.2-.63.4-1.25.61-1.86,9.36-26.67,18.79-53.81,27.92-80.06l4.14-11.92c2.92-8.41,5.98-10.62,14.86-10.74,3.43-.05,6.98-.07,10.56-.07s7.3.02,10.96.07c8.61.1,11.95,2.54,14.88,10.84,9.22,26.06,18.45,52.11,27.69,78.16,0,0,0,.01,0,.02-1.29-25.84,4.26-46.58,16.96-63.38,13.35-17.66,32.12-27.26,55.79-28.54,1.9-.1,3.8-.16,5.64-.16,14.4,0,26.93,3.1,38.29,9.47,3.81,2.13,7.05,4.8,10.48,7.62,1.05.87,2.14,1.76,3.24,2.63.42-1,.4-2.04.37-3.13-.02-.64-.03-1.29.04-1.95.94-8.25,4.37-11.47,12.25-11.5,5.47-.02,10.94-.04,16.41-.06,12.8-.05,26.03-.11,39.05-.11,20.73,0,37.73.14,53.51.44,3.39.06,6.74.1,9.97.1s6.75-.04,10.05-.11c14.19-.3,29.51-.44,48.21-.44,11.5,0,23.2.05,34.51.1,5.42.02,10.83.05,16.25.07,7.69.03,10.84,2.5,12.05,9.7,1.22-7.52,5.17-9.77,14.96-9.79,4.5,0,9.01-.03,13.51-.04,7.08-.03,14.16-.05,21.23-.05,11.54,0,20.99.07,29.74.22,15.79.27,28.8,5.82,38.68,16.49,5.94,6.42,9.55,13.9,10.73,22.23,1.85,13.07,2.16,29.75-11.93,42.81-1.95,1.81-2.18,2.78-1,4.17,8.19,9.68,9.19,21.45,10.16,32.83.12,1.36.23,2.71.36,4.06.16,1.71.29,3.41.42,5.12.48,6.22.98,12.66,2.92,18.8,1.23,3.89.88,7.35-1,9.98-1.93,2.7-5.36,4.25-9.65,4.37-3.45.09-7.06.14-10.73.14s-7.41-.04-11.31-.13c-7.83-.18-11.77-3.4-13.61-11.14-1.81-7.63-2.32-15.53-2.81-23.17l-.11-1.75c-.24-3.65-.56-6.69-1.37-9.67-1.79-6.56-7.13-10.6-14.67-11.09-1.71-.11-3.42-.13-4.71-.13-.73,0-1.46,0-2.2.01-.74,0-1.48.01-2.21.01-1.54,0-2.72-.02-3.85-.08-.16,0-.31-.01-.46-.01-1.28,0-2.16.27-2.71.81-.65.65-.94,1.81-.92,3.66.11,11.45.07,22.62,0,34.99-.01,2.82-.2,5.08-.59,7.13-1.37,7.14-4.77,10.14-11.75,10.37-3.2.1-6.65.15-10.54.15-4.25,0-8.63-.06-12.49-.11-5.43-.08-9.34-2.5-11.66-7.21-2.89,6.72-9.07,7.33-15.23,7.33h-.21c-12.11-.02-24.22-.03-36.33-.03h-24.51c-10.71,0-21.41,0-32.12-.02-11.96-.02-15.42-3.53-15.44-15.66-.03-22.36-.03-44.73-.03-67.09,0-10.61,0-21.22,0-31.83q0-4.76-1.73-4.76c-.6,0-1.34.05-2.29.1l-1.17.07c-5.54.31-11.15.34-15.98.34h-5.52c-1.84,0-3.68,0-5.52.02q-5.79.06-5.79,5.89c0,12.03,0,24.07,0,36.1,0,18.61,0,37.22-.03,55.83,0,3.07-.24,6.3-.7,9.58-1.15,8.29-4.39,11.16-12.82,11.36-2.89.07-6.03.11-9.58.11-3.15,0-6.29-.03-9.44-.06-11.74-.11-15.32-3.69-15.34-15.3-.04-22.54-.04-45.09-.03-67.63v-26.8c0-4.59,0-7.12-.95-8.1-.96-.98-3.58-.98-7.92-.98h-.2c-1.77,0-3.55,0-5.32.02-1.78,0-3.55.02-5.33.02-2.12,0-4.24-.01-6.36-.05h-.19c-1.39,0-2.3.26-2.7.78-.41.53-.43,1.5-.06,2.88.4,1.51.66,3.06.78,4.61.29,3.73-.63,6.89-2.66,9.13-1.96,2.17-4.85,3.36-8.38,3.45-2.84.07-5.86.1-9.5.1-2.71,0-5.42-.02-8.13-.04-2.29-.02-4.59-.03-6.88-.04-5.34-.01-9.22-2.7-10.93-7.57-3.71-10.58-10.47-15.52-21.27-15.52h-.22c-11.46.08-19.94,5.74-24.5,16.39-7.86,18.34-7.05,35.98,2.41,52.42,4.6,8,13.23,12.97,22.5,12.97,5.17,0,10.08-1.55,14.19-4.49,3.35-2.39,5.64-5.87,7.21-10.93,1.96-6.32,6.26-9.39,13.16-9.39h.17c.95,0,1.9.01,2.85.01,1.76,0,3.53,0,5.29-.02,1.77,0,3.54-.02,5.3-.02,2.73,0,4.97.02,7.06.07,4.89.11,8.26,1.29,10.29,3.6,1.97,2.23,2.7,5.5,2.24,10-2.38,23.22-15,39.76-36.51,47.82-10.82,4.06-21.54,6.12-31.84,6.12Zm293.09-45.72c3.86,0,8.56.62,12.26,4.95l-.02-89.16c-1.46,5.46-4.74,7.38-11.83,7.5-5.52.1-11,.11-15.17.11-2.16,0-14.83-.01-14.83-.01-2.5,0-5.01.01-7.51.03-2.91.01-5.83.03-8.74.03-4.55,0-8.28-.03-11.75-.11h-.35c-1.89,0-3.11.33-3.83,1.05-.73.73-1.09,2.04-1.09,3.98v.54c0,4.22,0,6.54.92,7.41.93.89,3.39.89,7.86.89h23.28c6.4-.01,12.8,0,19.21.04,11.5.07,14.87,3.44,14.98,15.03.04,4.38.08,9.47-.05,14.52-.22,8.56-3.89,12.27-12.29,12.39-6.71.1-13.36.11-18.98.11h-13.05c-3.49,0-6.97,0-10.46.02h-1.08c-1.14,0-2.17,0-3.1-.02-.75,0-1.43-.01-2.05-.01-2.45,0-3.88.11-4.45.68-.72.72-.7,2.88-.66,6.45.01,1.18.02,2.52.01,4.06-.03,4.65-.05,7.45.99,8.49,1.03,1.04,3.73,1.04,8.62,1.04,5.26,0,10.5.01,15.75.02,5.99.01,11.98.02,17.96.02,6.43,0,12.85-.01,19.28-.05h.19ZM53.8,101.16q-4.84,0-4.84,7.31s0,.76,0,.98c.03,2.07.01,3.85,0,5.38-.03,4.19-.05,6.49.8,7.35.69.7,2.36.83,5.4.83.64,0,1.34,0,2.1-.01.91,0,1.91-.01,3-.01.85,0,1.75,0,2.71.02.79-.03,1.63-.03,2.49-.03h2.39c2.57,0,5.55-.05,8.43-.66,4.31-.92,9.47-3.38,9.58-9.91.09-5.39-2.89-8.76-9.11-10.32-3.66-.91-7.35-1.03-10.16-1.03-1.51,0-3.02.04-4.53.08-1.53.04-3.05.08-4.58.08-.47,0-.93,0-1.4-.01-.85-.02-1.62-.03-2.3-.03Zm142.05-7.29c.5,0,1.02.07,1.53.13.47.06.95.12,1.36.12.69,0,.83-.17.88-.23.09-.11.37-.61.06-2.24-.7-3.63-1.95-7.26-3.15-10.77-.49-1.44-.99-2.89-1.45-4.34l-.05-.16c-.3-.95-.42-1.05-.62-1.05-.04,0-.08,0-.12,0-.22.03-.35.34-.57,1.02l-.05.15c-.55,1.74-1.08,3.49-1.62,5.24-.68,2.22-1.36,4.44-2.07,6.65-.82,2.56-1.51,4.71-1.17,5.19.37.5,2.71.51,5.7.52.37-.16.81-.24,1.33-.24Zm496.78-26.83c.67,0,1.33,0,2,.01.66,0,1.32.01,1.98.01,3.69,0,6.76-.2,9.76-1.17,5.66-1.83,7.7-4.77,7.29-10.47-.35-4.9-3.66-8.35-8.63-9.02-5.7-.77-11.74-1.16-17.97-1.16-1.56,0-3.15.02-4.75.07-2.67.08-3.66,1.03-3.64,3.51.03,5.52.03,10.42-.01,14.97-.01,1.19.23,2.05.73,2.55.48.48,1.24.71,2.34.71h.11c1.31-.02,2.62-.03,3.93-.03,1.01,0,5.05.01,6.05.01h.79ZM50.89,61.04c.1.02.28.02.39.02,2.28,0,4.56.06,6.76.11,2.21.06,4.5.11,6.74.11,4.05,0,7.33-.2,10.32-.62,4.78-.67,7.7-3.44,7.6-7.23-.09-3.88-3.42-6.74-8.27-7.12-1.27-.1-2.64-.15-4.29-.15-1.18,0-2.35.02-3.53.05-1.19.02-2.38.05-3.57.05-.19,0-.36-.05-.51-.14h-5.83c-1.38.01-2.77,0-4.16-.01h-.12c-1.46,0-2.49.3-2.98.87-.37.42-.49,1.04-.38,1.9.2,1.5.02,3.02-.16,4.5-.36,3-.67,5.59,1.99,7.67Z"/>
        <path d="m326.44,2c13.25,0,25.93,2.68,37.8,9.34,5.25,2.94,9.59,7.07,14.5,10.87,1.63-2.18.89-4.43,1.12-6.46.85-7.47,3.74-10.58,11.26-10.61,18.49-.06,36.98-.17,55.47-.17s35.65.1,53.48.44c3.35.06,6.67.1,9.99.1s6.69-.03,10.07-.11c16.06-.34,32.13-.44,48.2-.44,16.92,0,33.83.11,50.75.17,7.6.03,10.23,2.42,11.22,9.93.87,6.61.83,13.33.04,19.93-.93,7.76-3.64,10.07-11.51,10.21-5.05.09-10.1.11-15.15.11-4.33,0-8.65-.02-12.98-.02-.62,0-1.24,0-1.86,0-5.42,0-10.85.05-16.27.05-3.91,0-7.81-.02-11.72-.11-.13,0-.25,0-.37,0-4.15,0-5.92,1.53-5.91,6.04.01,9.83-.18,9.83,9.78,9.83.62,0,1.25,0,1.88,0,7.14,0,14.28-.01,21.43-.01,6.39,0,12.79,0,19.18.05,10.97.06,13.88,3.04,13.99,14.04.05,4.83.08,9.66-.05,14.49-.2,7.91-3.35,11.3-11.31,11.42-6.33.09-12.67.11-19,.11-4.33,0-8.65,0-12.98,0-3.5,0-7,0-10.5.03-.37,0-.73,0-1.07,0-2.08,0-3.77-.03-5.15-.03-7.16,0-6.02.91-6.09,12.18-.07,10.54-.01,10.54,10.62,10.54,11.24,0,22.47.04,33.71.04,6.42,0,12.85-.01,19.27-.05.06,0,.12,0,.18,0,5.59,0,10.06,1.52,13.26,7.12,0-2.13,0-4.25,0-6.38,0-33.81-.02-67.62-.02-101.42,0-1.33-.01-2.67.02-4,.25-11.32,3.05-14.17,14.4-14.2,11.58-.03,23.16-.09,34.74-.09,9.91,0,19.82.05,29.73.22,14.67.25,27.66,5.04,37.96,16.17,5.78,6.24,9.32,13.51,10.47,21.69,2.19,15.54.88,30.36-11.62,41.94-1.73,1.6-2.99,3.3-1.08,5.55,8.94,10.56,9.09,23.63,10.28,36.34.76,8.1.89,16.21,3.38,24.13,2.37,7.53-1.75,12.84-9.72,13.05-3.57.09-7.14.14-10.71.14-3.76,0-7.52-.05-11.28-.13-7.35-.17-10.92-3.07-12.66-10.37-1.93-8.12-2.35-16.46-2.89-24.76-.22-3.34-.53-6.65-1.4-9.87-1.88-6.9-7.6-11.3-15.57-11.82-1.59-.1-3.18-.13-4.77-.13-1.47,0-2.94.02-4.41.02-1.27,0-2.54-.02-3.81-.07-.18,0-.35-.01-.51-.01-3.61,0-4.66,1.94-4.62,5.48.11,11.66.07,23.32,0,34.97-.01,2.32-.14,4.68-.58,6.95-1.26,6.61-4.18,9.34-10.8,9.56-3.5.11-7,.15-10.51.15-4.16,0-8.32-.06-12.48-.11-5.77-.08-9.74-2.87-11.76-9.1-2.15,8.58-8.39,9.23-15.15,9.23-.07,0-.14,0-.21,0-12.18-.02-24.37-.03-36.55-.03-8.02,0-16.05,0-24.07,0-10.78,0-21.55,0-32.33-.02-11.38-.02-14.42-3.11-14.44-14.66-.05-32.98-.02-65.95-.03-98.93,0-4.85,0-5.76-2.73-5.76-.87,0-2.01.09-3.52.18-5.29.3-10.6.34-15.92.34-1.85,0-3.69,0-5.54,0s-3.68,0-5.52.02c-6.33.06-6.78.48-6.78,6.89-.02,30.64,0,61.29-.04,91.93,0,3.15-.25,6.32-.69,9.44-1.08,7.74-3.95,10.31-11.85,10.5-3.19.08-6.38.11-9.58.11s-6.28-.03-9.42-.06c-11.16-.11-14.33-3.21-14.35-14.31-.05-31.48-.03-62.95-.03-94.43,0-10.02,0-10.08-9.92-10.08h-.16c-3.55,0-7.09.03-10.64.03-2.12,0-4.24-.01-6.35-.05-.07,0-.14,0-.21,0-3.44,0-4.64,1.5-3.73,4.93.38,1.44.64,2.94.75,4.43.52,6.83-3.26,11.33-10.07,11.5-3.16.08-6.32.1-9.48.1-5,0-10.01-.06-15.01-.07-4.91,0-8.41-2.41-9.99-6.91-3.73-10.64-10.77-16.18-22.22-16.18-.08,0-.15,0-.23,0-12.34.08-20.85,6.35-25.41,16.99-7.68,17.93-7.48,36.03,2.46,53.31,5.01,8.71,14.19,13.47,23.37,13.47,5.17,0,10.34-1.51,14.77-4.68,4.04-2.89,6.19-6.97,7.58-11.45,1.91-6.17,6.08-8.69,12.21-8.69.06,0,.11,0,.17,0,.95,0,1.91,0,2.86,0,3.53,0,7.06-.04,10.59-.04,2.35,0,4.69.02,7.03.07,8.72.21,12.45,3.81,11.56,12.5-2.34,22.85-14.74,39.07-35.87,46.99-10.61,3.98-21.14,6.05-31.49,6.05-15.59,0-30.76-4.7-45.19-14.68-5.11-3.54-9.26-8.09-13.28-12.77-.93-1.08-1.44-2.7-3.29-2.78-1.13,1.73.06,3.21.51,4.7.58,1.91,1.49,3.72,2.04,5.63,3.19,11.21-.56,16.28-12.11,16.38-3.32.03-6.64.05-9.95.05-3.51,0-7.03-.03-10.54-.11-7.54-.17-10.87-2.8-13.11-9.94-1.6-5.08-3.31-10.13-4.75-15.26-.94-3.35-2.78-4.84-6.27-4.84-.06,0-.12,0-.18,0-4.81.07-9.61.09-14.42.09-5.19,0-10.38-.03-15.57-.07-.03,0-.06,0-.09,0-3.06,0-4.79,1.17-5.66,4.27-1.67,5.93-3.79,11.72-5.53,17.63-1.54,5.23-5.27,7.75-10.31,7.92-4.54.16-9.1.25-13.65.25-4.11,0-8.22-.07-12.33-.22-5.48-.2-8.64-4-8.75-9.61-.05-2.26.25-4.53.43-7.56-5.17,4.14-9.58,8.11-15,10.72-8.71,4.2-17.83,6.55-27.46,6.61-11.45.07-22.91.09-34.37.09-10.04,0-20.07-.02-30.11-.05-10.16-.03-12.54-2.17-13.82-12.19-.38-2.96-.57-5.97-.57-8.95-.04-38.3-.02-76.61-.04-114.91,0-4.17.18-8.3.75-12.45,1.06-7.71,3.84-10.45,11.79-10.51,9.34-.07,18.68-.12,28.02-.12,6.49,0,12.97.02,19.46.07.73,0,1.46,0,2.2,0,2.63,0,5.26-.03,7.89-.03,8.75,0,17.48.3,26.11,2.87,29.41,8.75,40.67,43.32,21.68,67.49-1.55,1.98-2.98,3.44-.51,5.84,9.17,8.94,13.66,19.9,13.68,32.71,0,.6.31,1.2.65,2.42,2.59-2.98,3.21-6.26,4.25-9.24,10.75-30.64,21.4-61.31,32.07-91.98,2.77-7.96,5.4-9.95,13.93-10.07,3.51-.05,7.02-.07,10.53-.07s7.31.02,10.96.07c8.26.1,11.17,2.31,13.95,10.17,9.22,26.06,18.45,52.11,27.69,78.16.38,1.08.86,2.13,1.49,3.71,1.17-1.38.54-2.48.48-3.48-1.23-22.91,2.57-44.59,16.73-63.32,13.73-18.16,32.53-26.93,55.05-28.15,1.87-.1,3.74-.15,5.59-.15m355.29,66.06s.08,0,.12,0c1.31-.02,2.62-.02,3.93-.02,2.02,0,4.03.01,6.05.01.26,0,.53,0,.79,0,1.33,0,2.66.02,3.98.02,3.39,0,6.76-.15,10.07-1.22,6.11-1.98,8.43-5.28,7.98-11.49-.38-5.26-3.89-9.19-9.49-9.94-6-.81-12.04-1.17-18.1-1.17-1.59,0-3.19.02-4.78.07-3.06.09-4.63,1.38-4.61,4.52.03,4.99.04,9.97-.01,14.96-.03,2.84,1.22,4.27,4.07,4.27M51.26,62.05s.03,0,.04,0c0,0,0,0,0,0,4.48,0,8.98.23,13.46.23,3.5,0,6.98-.14,10.46-.63,5.54-.78,8.57-4.11,8.47-8.24-.1-4.31-3.68-7.66-9.19-8.1-1.45-.11-2.91-.15-4.38-.15-2.36,0-4.73.09-7.1.09v-.14c-2.1,0-4.21.01-6.31.01-1.39,0-2.78,0-4.17-.02-.04,0-.09,0-.13,0-2.64,0-4.76.89-4.35,3.9.58,4.32-2.38,9.3,2.27,12.87.22.17.6.17.92.17m143.49,33.05c.29-.18.67-.24,1.1-.24.88,0,1.96.25,2.89.25,1.43,0,2.51-.6,1.91-3.66-1-5.18-3.02-10.16-4.63-15.22-.27-.84-.53-1.9-1.62-1.9-.08,0-.17,0-.26.02-.95.13-1.19,1.09-1.43,1.86-1.25,3.95-2.42,7.93-3.69,11.88q-2.25,7.01,5.72,7.01m-137.25,5.09c-.46,0-.92,0-1.38-.01-.86-.02-1.63-.03-2.32-.03-5.83,0-5.84.88-5.85,8.31,0,.33,0,.67,0,1,.18,13.58-1.37,14.54,7.21,14.54,1.41,0,3.09-.03,5.09-.03.84,0,1.74,0,2.71.02.82-.03,1.66-.03,2.51-.03.78,0,1.57,0,2.37,0,2.82,0,5.74-.07,8.64-.69,6.6-1.41,10.27-5.15,10.37-10.87.1-5.86-3.18-9.64-9.87-11.31-3.44-.86-6.92-1.06-10.4-1.06-3.03,0-6.07.15-9.1.15M326.44,0c-1.86,0-3.78.05-5.7.16-23.98,1.3-43,11.03-56.54,28.94-11.79,15.59-17.49,34.51-17.35,57.67-8.53-24.06-17.06-48.13-25.57-72.19-3.08-8.71-6.78-11.39-15.81-11.5-3.73-.05-7.43-.07-10.98-.07s-7.12.02-10.56.07c-9.33.12-12.72,2.58-15.79,11.41l-4.17,12.01c-9.12,26.22-18.54,53.33-27.89,79.97-.22.62-.42,1.25-.62,1.89-.18.56-.35,1.11-.54,1.65-.87-11.75-5.61-21.9-14.14-30.2q-1.03-1.01.42-2.83l.27-.34c9.41-11.98,12.21-27,7.7-41.2-4.56-14.32-15.63-25.06-30.38-29.45-9.15-2.72-18.2-2.95-26.68-2.95-1.32,0-2.63,0-3.95.01-1.31,0-2.62.01-3.94.01-.73,0-1.46,0-2.18,0-6.25-.05-12.8-.07-19.48-.07-8.87,0-18.04.04-28.03.12C5.71,3.16,1.99,6.48.77,15.33.24,19.17,0,23.21,0,28.05c0,16.07.01,32.14.01,48.21,0,22.23,0,44.47.03,66.7,0,3.11.2,6.2.59,9.21,1.42,11.04,4.67,13.91,15.8,13.94,11.7.03,21.26.05,30.11.05,12.55,0,23.8-.03,34.38-.09,9.53-.06,19.05-2.35,28.31-6.81,4.33-2.09,8-4.96,11.8-8.05-.07,1.08-.12,2.09-.09,3.13.14,6.8,4.34,11.34,10.68,11.56,4.04.14,8.21.22,12.4.22,4.46,0,9.07-.08,13.72-.25,6.13-.22,10.45-3.54,12.16-9.36.79-2.67,1.67-5.38,2.53-7.99,1.03-3.15,2.09-6.4,3.01-9.66.61-2.16,1.48-2.81,3.73-2.81h.08c4.57.03,9.99.07,15.58.07,5.27,0,9.99-.03,14.45-.09h.15c2.54,0,3.63.85,4.34,3.38,1.02,3.63,2.19,7.26,3.32,10.77.49,1.52.98,3.03,1.46,4.55,2.54,8.08,6.6,11.15,14.98,11.34,3.2.07,6.67.11,10.58.11,3.38,0,6.79-.03,9.97-.05,6.47-.06,10.77-1.62,13.15-4.79,2.39-3.19,2.67-7.81.87-14.14-.31-1.09-.72-2.13-1.12-3.12-.18-.46-.36-.92-.53-1.36,3.64,4.19,7.65,8.46,12.61,11.9,14.43,9.98,30.01,15.03,46.32,15.03,10.43,0,21.26-2.08,32.19-6.18,21.89-8.21,34.74-25.03,37.16-48.66.49-4.79-.32-8.31-2.49-10.76-2.23-2.53-5.83-3.82-11.02-3.94-2.1-.05-4.35-.07-7.08-.07-1.77,0-3.54,0-5.31.02-1.76,0-3.52.02-5.29.02-.95,0-1.9,0-2.85,0h-.18c-7.29,0-12.04,3.4-14.12,10.1-1.5,4.85-3.67,8.16-6.83,10.41-3.94,2.82-8.65,4.3-13.61,4.3-8.92,0-17.21-4.78-21.64-12.47-9.3-16.15-10.09-33.49-2.36-51.53,4.39-10.25,12.55-15.71,23.59-15.78h.22c10.32,0,16.78,4.72,20.33,14.85,1.86,5.31,6.08,8.23,11.87,8.24,2.29,0,4.59.02,6.88.04,2.71.02,5.42.04,8.13.04,3.65,0,6.68-.03,9.53-.1,3.8-.1,6.95-1.4,9.09-3.77,2.21-2.45,3.22-5.87,2.92-9.88-.12-1.62-.4-3.23-.81-4.79-.34-1.27-.23-1.86-.11-2.02.11-.15.64-.4,1.91-.4h.18c1.91.03,3.94.05,6.39.05,1.78,0,3.56,0,5.34-.02,1.77,0,3.53-.02,5.3-.02h.16c3.68,0,6.58,0,7.25.68.67.68.67,3.5.67,7.4,0,8.87,0,17.75,0,26.62,0,22.23,0,45.21.03,67.81.02,12.22,3.99,16.18,16.33,16.3,3,.03,6.19.06,9.43.06,3.57,0,6.71-.03,9.62-.11,8.84-.22,12.58-3.53,13.79-12.23.46-3.32.7-6.59.71-9.71.03-18.73.03-37.77.03-56.18,0-11.92,0-23.84,0-35.75,0-1.29,0-3.97.44-4.41.43-.43,2.99-.46,4.36-.47,1.83-.02,3.67-.02,5.5-.02h2.77s2.77,0,2.77,0c4.84,0,10.46-.03,16.03-.34.42-.02.81-.05,1.18-.07.93-.06,1.66-.1,2.23-.1.28,0,.47.01.6.03.13.64.13,2.19.13,3.69,0,10.65,0,21.26,0,31.87,0,21.99,0,44.73.03,67.1.02,12.59,4.01,16.64,16.44,16.66,10.78.02,21.56.02,32.33.02h12.04s12.04,0,12.04,0c10.85,0,23.68,0,36.55.03h.21c4.49,0,11.5,0,15.27-6.23,2.55,3.98,6.44,6.03,11.61,6.1,3.87.05,8.25.12,12.5.12,3.9,0,7.36-.05,10.57-.16,7.45-.24,11.25-3.59,12.7-11.18.4-2.11.6-4.43.61-7.31.06-12.39.11-23.58,0-35-.02-1.52.2-2.51.63-2.94.34-.34,1.01-.52,1.99-.52.13,0,.27,0,.42.01,1.14.05,2.34.08,3.9.08.74,0,1.48,0,2.22-.01.73,0,1.46-.01,2.19-.01,1.28,0,2.96.01,4.64.12,7.08.46,12.1,4.23,13.77,10.35.79,2.89,1.1,5.88,1.34,9.47l.11,1.75c.49,7.68,1,15.63,2.83,23.34,1.94,8.16,6.29,11.72,14.56,11.9,3.9.09,7.71.13,11.33.13s7.3-.05,10.76-.14c4.62-.12,8.33-1.82,10.44-4.78,2.04-2.86,2.44-6.72,1.14-10.86-1.9-6.03-2.37-12.13-2.87-18.58-.13-1.68-.27-3.42-.43-5.13-.13-1.35-.24-2.7-.36-4.05-.98-11.54-1.99-23.48-10.39-33.4-.61-.72-.92-1.09.92-2.8,14.42-13.38,14.12-30.37,12.24-43.69-1.21-8.54-4.9-16.2-10.99-22.77-10.07-10.88-23.32-16.53-39.39-16.81-8.76-.15-18.21-.22-29.76-.22-7.08,0-14.28.03-21.25.05-4.5.02-9,.03-13.5.04-8.51.02-12.92,1.72-14.95,6.8-1.8-4.85-5.37-6.69-12.06-6.72-5.42-.02-10.83-.04-16.25-.07-11.31-.05-23.01-.1-34.51-.1-18.72,0-34.04.14-48.24.44-3.29.07-6.67.11-10.03.11s-6.57-.03-9.95-.1c-15.78-.3-32.79-.44-53.52-.44-13.03,0-26.27.05-39.08.11-5.47.02-10.93.05-16.4.06-8.3.03-12.26,3.73-13.24,12.38-.08.72-.07,1.42-.05,2.09.01.49.02.92,0,1.32-.67-.54-1.32-1.08-1.97-1.61-3.32-2.73-6.75-5.54-10.63-7.72-11.52-6.46-24.2-9.59-38.78-9.59h0Zm277.25,47.32c4.17,0,9.66-.01,15.19-.11,5.32-.1,8.72-1.25,10.81-4.02v47.67s.02,33.81.02,33.81v.78c-3.59-3.04-7.75-3.53-11.26-3.53h-.2c-5.8.03-11.92.05-19.25.05-5.98,0-11.97-.01-17.96-.02-5.25,0-10.5-.02-15.75-.02-4.18,0-7.18,0-7.92-.75-.74-.75-.72-3.85-.7-7.78,0-1.54,0-2.89-.01-4.08-.02-2.61-.05-5.31.37-5.74.38-.39,2.91-.39,3.73-.39.62,0,1.3,0,2.04.01.93,0,1.96.02,3.11.02.35,0,.71,0,1.09,0,3.5-.02,6.99-.03,10.49-.03,2.16,0,4.32,0,6.49,0,2.16,0,4.33,0,6.49,0,5.63,0,12.3-.01,19.03-.11,8.95-.13,13.05-4.26,13.28-13.37.13-5.09.09-10.18.05-14.56-.12-12.06-4-15.95-15.98-16.02-5.6-.03-11.52-.05-19.19-.05-3.57,0-7.14,0-10.71,0-3.57,0-7.14,0-10.71,0h-1.87c-3.65,0-6.53,0-7.17-.61-.6-.57-.6-3.27-.61-6.68v-.54c0-1.64.26-2.75.79-3.27.51-.51,1.53-.76,3.12-.76.11,0,.22,0,.33,0,3.48.07,7.21.11,11.76.11,2.91,0,5.83-.01,8.74-.03,2.51-.01,5.02-.02,7.53-.03h1.86c2.16,0,4.32,0,6.48,0,2.16,0,4.33,0,6.49,0h0Zm78.04,18.74c-.56,0-1.29-.07-1.63-.42-.29-.29-.45-.95-.44-1.84.04-4.56.05-9.46.01-14.99-.01-1.79.39-2.44,2.67-2.51,1.59-.05,3.18-.07,4.72-.07,6.18,0,12.18.39,17.83,1.15,4.54.61,7.44,3.64,7.76,8.11.38,5.27-1.35,7.75-6.6,9.45-2.88.93-5.86,1.12-9.45,1.12-.66,0-1.32,0-1.97-.01-.67,0-1.34-.01-2.01-.01-.27,0-.54,0-.81,0-.99,0-1.99,0-3,0-1.01,0-2.02,0-3.03,0-1.32,0-2.64,0-3.96.02h-.1ZM51.27,60.05c-1.86-1.61-1.74-3.49-1.37-6.57.18-1.54.38-3.13.16-4.75-.04-.31-.08-.86.14-1.1.22-.25.93-.53,2.23-.53h.11c1.4.02,2.79.02,4.19.02,1.05,0,2.11,0,3.16,0,.8,0,1.61,0,2.41,0,.23.09.48.14.74.14,1.2,0,2.41-.02,3.59-.05,1.15-.02,2.35-.05,3.51-.05,1.63,0,2.98.05,4.22.14,4.31.34,7.26,2.81,7.35,6.15.08,3.29-2.44,5.61-6.74,6.21-2.94.41-6.18.61-10.18.61-2.23,0-4.51-.06-6.72-.11-2.21-.06-4.49-.11-6.74-.11h-.05Zm138.48,32.87c.09-.79.64-2.5,1.17-4.16l.02-.06c.71-2.21,1.4-4.46,2.07-6.63.46-1.49.91-2.97,1.38-4.46.39,1.21.81,2.42,1.21,3.6,1.19,3.47,2.42,7.06,3.11,10.62.13.65.14,1.05.12,1.28-.02,0-.05,0-.08,0-.35,0-.78-.06-1.23-.11-.54-.07-1.1-.14-1.66-.14s-1.08.08-1.52.24c-1.97,0-3.79-.01-4.58-.18h0Zm-132.24,9.27c1.54,0,3.1-.04,4.6-.08,1.48-.04,3.01-.08,4.5-.08,2.75,0,6.37.11,9.92,1,5.79,1.44,8.44,4.41,8.35,9.33-.08,4.71-3.04,7.72-8.79,8.95-2.79.59-5.71.64-8.23.64h-1.19s-1.18,0-1.18,0c-.7,0-1.61,0-2.53.03-.95-.01-1.85-.02-2.69-.02-1.1,0-2.1,0-3.01.01-.75,0-1.45.01-2.08.01-1.46,0-4.17,0-4.7-.53-.56-.56-.54-3.38-.51-6.64.01-1.55.02-3.31,0-5.4,0-.21,0-.43,0-.65v-.32c0-2.91,0-5.21.43-5.87.19-.29,1.34-.44,3.42-.44.68,0,1.44.01,2.28.03.47,0,.95.01,1.42.01h0Z"/>
      </g>
      <g>
        <path class="cls-1" d="m820.86,165.33c-6.06,0-10.68-.58-14.96-1.87-.39-.12-.79-.18-1.21-.18-1.05,0-2.11.36-3.23.73-1.1.37-2.25.76-3.48.83-4.69.27-9.38.4-13.93.4s-9.19-.14-13.65-.41c-4.56-.28-7.67-2.94-9-7.7-.75-2.69-.82-5.38-.82-7.69v-29.56c0-32.94.01-65.88.03-98.81v-.49c0-2.02,0-4.1.31-6.14,1.08-7.16,4.45-10.15,11.61-10.32,3.5-.08,7.26-.12,11.51-.12,3.17,0,6.34.02,9.51.05,10.85.1,14.16,3.39,14.18,14.08.04,19.85.04,39.69.04,59.54,0,15.95,0,31.9.03,47.86,0,.49-.01.99-.03,1.49-.05,1.8-.1,3.64.56,5.73.56-1.55,1.11-3.06,1.65-4.54,1.64-4.53,3.19-8.81,4.68-13.09,13.11-37.67,23.95-68.85,34.09-98.13,3.88-11.2,6.22-12.9,17.88-12.96.78,0,1.56,0,2.35,0,2.16,0,4.32.01,6.48.03,2.16.01,4.31.03,6.47.03,1.73,0,3.46,0,5.18-.03h.28c6.38,0,10.7,3.04,12.82,9.05,2.13,6.02,4.27,12.03,6.41,18.04,2.6,7.32,5.21,14.64,7.79,21.97,10.58,29.99,21.13,59.98,31.69,89.97l.15.44c.61,1.73,1.24,3.53,1.7,5.36,1.27,5.07.81,9.07-1.36,11.9-2.16,2.81-5.88,4.27-11.05,4.34-3.4.04-6.81.07-10.22.07s-6.95-.02-10.3-.07c-8.71-.13-12.2-2.65-14.93-10.81-1.54-4.6-3.31-9.96-4.81-15.29-.8-2.84-2.18-3.95-4.94-3.95h-.11c-4.83.05-9.75.08-15.05.08s-10.3-.02-15.44-.06h0c-2.7,0-4.07,1.04-4.82,3.6-1.22,4.16-2.55,8.35-3.84,12.41-.46,1.43-.91,2.87-1.36,4.3-1.99,6.3-6.29,9.64-12.44,9.64h-.33c-.57-.01-1.14-.02-1.71-.02-2.38,0-4.81.09-7.16.17-2.37.08-4.82.17-7.23.17Zm52.96-87.54c-.92,2.88-1.83,5.77-2.77,8.64-1.13,3.45-2.01,6.37-1.37,7.25.32.44,1.3.65,3.01.65h0c1.29,0,2.97-.12,4.58-.25.19-.02.37-.02.56-.03.15,0,.29-.01.44-.03.63-.05,1.46-.21,1.81-.72.31-.45.2-1.14.05-1.65-1.25-4.29-2.6-8.65-3.9-12.85-.45-1.45-.9-2.9-1.34-4.35h-.03s-1.06,3.33-1.06,3.33Z"/>
        <path d="m784.03,5c3.17,0,6.34.02,9.51.05,10.24.1,13.17,2.93,13.19,13.09.07,35.8.03,71.6.07,107.4,0,2.94-.53,5.98,1.61,9.94,2.62-7.3,4.97-13.64,7.19-20.03,11.38-32.7,22.76-65.41,34.09-98.13,3.71-10.72,5.68-12.23,16.94-12.29.78,0,1.57,0,2.35,0,4.31,0,8.62.05,12.93.05,1.73,0,3.47,0,5.2-.03.09,0,.18,0,.27,0,5.96,0,9.88,2.72,11.88,8.39,4.72,13.34,9.49,26.66,14.2,40,10.58,29.99,21.14,59.98,31.69,89.97.66,1.88,1.34,3.77,1.83,5.71,2.39,9.52-1.67,14.87-11.46,14.99-3.4.04-6.81.07-10.21.07s-6.85-.02-10.27-.07c-8.28-.12-11.42-2.41-14-10.13-1.69-5.05-3.35-10.12-4.79-15.24-.89-3.16-2.56-4.68-5.9-4.68-.04,0-.08,0-.12,0-5.01.05-10.02.08-15.03.08s-10.3-.02-15.45-.06c-.03,0-.06,0-.09,0-3.1,0-4.83,1.35-5.7,4.32-1.64,5.59-3.45,11.13-5.2,16.69-1.79,5.66-5.62,8.94-11.49,8.94-.1,0-.21,0-.31,0-.57-.01-1.15-.02-1.72-.02-4.79,0-9.6.34-14.39.34s-9.82-.36-14.67-1.83c-.51-.15-1.01-.22-1.5-.22-2.32,0-4.46,1.43-6.77,1.56-4.62.26-9.24.4-13.87.4s-9.06-.13-13.59-.41c-4.3-.26-6.93-2.79-8.1-6.97-.69-2.45-.78-4.92-.78-7.42,0-42.79,0-85.58.02-128.38,0-2.16-.03-4.35.3-6.48,1.01-6.69,3.9-9.31,10.65-9.47,3.82-.09,7.65-.12,11.47-.12m88.65,90.34c1.24,0,2.78-.1,4.67-.26.33-.03.66-.03.99-.06,2.3-.17,3.41-1.4,2.76-3.64-1.75-6-3.63-11.97-5.47-17.95-.5.02-1,.04-1.5.06-1.35,4.21-2.67,8.43-4.04,12.63-2.42,7.41-2.59,9.21,2.59,9.21M784.03,3c-4.25,0-8.02.04-11.52.12-7.66.18-11.42,3.52-12.58,11.17-.32,2.12-.32,4.25-.32,6.3v.47c-.01,32.48-.02,64.95-.02,97.43v30.95c0,2.37.06,5.14.85,7.96,1.46,5.21,4.88,8.12,9.9,8.43,4.48.27,9.09.41,13.71.41s9.27-.14,13.98-.4c1.37-.08,2.63-.5,3.74-.88,1.04-.35,2.02-.68,2.91-.68.33,0,.63.04.93.13,4.38,1.32,9.08,1.91,15.25,1.91,2.43,0,4.89-.09,7.27-.17,2.34-.08,4.76-.17,7.12-.17.56,0,1.12,0,1.69.02.12,0,.23,0,.35,0,6.54,0,11.29-3.67,13.39-10.34.45-1.43.91-2.86,1.36-4.29,1.29-4.06,2.63-8.26,3.85-12.43.63-2.16,1.59-2.89,3.78-2.89h.07c5.55.04,10.61.07,15.47.07,5.29,0,10.22-.03,15.05-.08h.1c2.32,0,3.29.78,3.97,3.22,1.5,5.35,3.28,10.72,4.82,15.34,2.87,8.57,6.72,11.36,15.87,11.49,3.35.05,6.81.07,10.3.07s6.76-.02,10.24-.07c5.49-.07,9.47-1.66,11.83-4.73,2.37-3.08,2.89-7.37,1.54-12.75-.47-1.88-1.12-3.71-1.74-5.48l-.14-.41c-11.22-31.89-21.35-60.67-31.69-89.97-2.59-7.33-5.19-14.65-7.8-21.97-2.14-6.01-4.28-12.02-6.4-18.03-2.28-6.45-6.91-9.72-13.77-9.72h-.29c-1.57.02-3.27.03-5.18.03-2.15,0-4.3-.01-6.46-.03-2.16-.01-4.32-.03-6.48-.03-.79,0-1.57,0-2.36,0-12.01.06-14.82,2.1-18.82,13.63-9.97,28.78-20.8,59.96-34.09,98.13-1.5,4.3-3.06,8.61-4.71,13.17-.08.23-.17.47-.25.7,0-.54.01-1.07.03-1.61.01-.51.03-1.02.03-1.52-.02-15.91-.02-31.83-.03-47.74,0-19.55,0-39.77-.04-59.66-.02-11.17-3.85-14.98-15.17-15.08-3.85-.04-6.79-.05-9.53-.05h0Zm86.46,90.08c-.27-.89.93-4.56,1.51-6.33.95-2.9,1.89-5.85,2.79-8.71.03-.09.06-.18.08-.27.14.46.28.92.42,1.38,1.29,4.19,2.63,8.52,3.88,12.8.17.59.08.8.08.8-.04.05-.32.23-1.07.29-.14.01-.28.02-.42.02-.2,0-.4.02-.59.04-1.59.13-3.24.25-4.5.25-1.55,0-2.06-.19-2.2-.26h0Z"/>
      </g>
    </g>
  </g>
</svg>