<?xml version="1.0" encoding="UTF-8"?>
<svg id="Livello_2" data-name="Livello 2" xmlns="http://www.w3.org/2000/svg" viewBox="0 0 425.87 163.4">
  <defs>
    <style>
      .cls-1 {
        fill: #fff;
      }
    </style>
  </defs>
  <g id="Livello_1-2" data-name="Livello 1">
    <g>
      <g>
        <path class="cls-1" d="m315.85,162.4c-5.15,0-10.91-.57-14.96-6.9-2.85,5.95-7.74,6.83-12.66,6.83h-.36c-1.2-.01-2.4-.01-3.6-.01-1.44,0-2.89,0-4.33,0-1.45,0-2.89.01-4.34.01-2.08,0-4.15-.01-6.23-.04-9.35-.16-13.74-3.87-15.66-13.25-1.27-6.23-1.71-12.62-2.12-18.79-.19-2.82-.39-5.74-.67-8.6-1.05-10.84-6.47-16.03-17.06-16.32-1.01-.03-2.03-.04-3.05-.04-.83,0-1.67,0-2.5.01-.84,0-1.67.01-2.51.01-1.54,0-2.79-.02-3.94-.06-.13,0-.26,0-.39,0-1.29,0-2.18.26-2.71.8-.6.6-.88,1.67-.87,3.26.08,9.56.06,19.28.03,28.68l-.02,8.14c0,1.72,0,3.5-.22,5.26-.96,7.58-4.25,10.61-11.74,10.82-3.92.11-7.89.17-11.78.17s-7.54-.05-11.26-.16c-8.33-.23-12.05-3.96-12.07-12.09-.08-46.76-.08-92.8,0-136.87.02-8.12,3.89-11.93,12.18-11.96,5.82-.03,11.65-.09,17.47-.15,7.53-.08,15.31-.16,22.96-.16,11,0,20.07.17,28.56.53,13.05.55,24.42,4.65,32.86,11.85,7.92,6.75,13.03,16.18,14.97,27.51,0-7.15,0-14.3,0-21.44,0-15.67,2.58-18.23,18.37-18.23,14.34,0,28.68-.01,43.01-.01,15.48,0,30.95,0,46.43.03,13.08.02,16.1,3.08,16.15,16.4,0,.96.01,1.92.02,2.88.03,3.33.06,6.77-.1,10.15-.41,9.11-4.09,12.69-13.11,12.75-10.94.08-22.05.09-32.8.09-8.05,0-16.11,0-24.16.04h0c-.47,0-.92-.03-1.39-.06-.45-.03-.9-.06-1.35-.06-1.7,0-2.4.43-2.67,1.66-.8,3.66-1.38,7.9.38,11.57.21.44.61.73,1.88.73.37,0,.75-.02,1.13-.05.4-.02.79-.05,1.15-.05,10.02.02,20.03.03,30.04.03h15.45c3.02,0,6.17.16,9.21,1.35,3.47,1.37,5.55,3.82,6.16,7.27,1.51,8.47,1.61,16.05.31,23.19-1.3,7.15-4.73,10.09-11.83,10.16-10.66.1-21.49.1-31.97.1-5.34,0-10.67,0-16.01.01q-6.32.02-6.36,6.33c-.02,2.83-.02,5.65,0,8.48q.05,5.87,5.79,5.88c9.09.02,18.18.02,27.27.02,0,0,20.1,0,25.7,0h.53c2.14,0,4.35,0,6.53.16,5.56.41,9.07,3.53,10.16,9.04,1.48,7.49,1.45,15.4-.11,24.19-.78,4.43-3.62,7.34-7.97,8.18-2.74.53-5.52.6-7.63.6-6.32,0-12.64,0-18.96,0h-27.56c-13.56,0-29.56,0-45.41.08h-.29Zm-15.99-101.47c-1.6,8.39-5.37,15.62-11.28,21.57l-.35.35c-1.86,1.84-2.68,2.81-1.18,4.66,7.95,9.78,8.92,21.59,9.87,33.01.63,7.6,1.29,14.57,2.03,21.31.14,1.25.32,2.47.91,3.63.1-.78.06-1.57.03-2.39-.02-.42-.04-.84-.04-1.26.02-24.03.02-48.06.02-72.09,0-2.94,0-5.87,0-8.81Zm-76.68-18.52c-2.27,0-3.74.41-4.51,1.27-.71.79-.96,2.09-.75,3.99.09.81.06,1.61.04,2.38-.01.4-.02.8-.02,1.19.02,1.92,0,3.57,0,5-.03,4.13-.05,6.4.79,7.24.67.68,2.31.8,5.29.8.61,0,1.26,0,1.98-.01.85,0,1.78-.01,2.8-.01.7,0,1.43,0,2.21.01.48,0,.98,0,1.48,0h2.46c3.59,0,7.11-.08,10.59-1.1,5.67-1.67,8.57-5.39,8.14-10.48-.42-5.03-4.29-8.74-9.63-9.23-7.35-.67-14.15-1.01-20.77-1.04l-.09-1v1Z"/>
        <path d="m223.48,2c9.51,0,19.02.12,28.51.53,24.19,1.02,45.94,14.82,47.65,45.38.71,12.64-2.43,24.48-11.78,33.89-1.77,1.79-3.89,3.53-1.6,6.34,7.71,9.49,8.7,20.96,9.65,32.47.59,7.12,1.25,14.24,2.03,21.34.21,1.91.54,3.93,2.28,5.78.99-2.06.61-4.03.61-5.9.03-40.79.02-81.59.03-122.38,0-15.16,2.08-17.23,17.37-17.23,14.3,0,28.6-.01,42.9-.01,15.52,0,31.03,0,46.54.03,12.52.02,15.1,2.7,15.15,15.4.02,4.33.12,8.66-.08,12.99-.39,8.55-3.54,11.73-12.12,11.8-18.99.14-37.97.05-56.96.13h-.04c-.83,0-1.79-.11-2.7-.11-1.66,0-3.19.37-3.65,2.44-.88,4-1.41,8.33.45,12.21.52,1.08,1.61,1.3,2.78,1.3.77,0,1.57-.09,2.28-.09h.02c10.03.02,20.07.03,30.1.03,5.12,0,10.25,0,15.37,0h.05c3,0,5.94.17,8.78,1.29,3.04,1.2,4.97,3.29,5.55,6.52,1.35,7.59,1.7,15.22.32,22.84-1.2,6.59-4.14,9.27-10.86,9.34-15.99.15-31.98.08-47.97.12-7.01.02-7.32.34-7.36,7.32-.02,2.83-.02,5.66,0,8.49.05,6.41.45,6.86,6.78,6.88,9.03.02,18.06.02,27.09.02,3.01,0,6.01,0,9.02,0,5.62,0,11.23,0,16.85,0,2.33,0,4.67-.01,6.99.16,5.15.38,8.26,3.19,9.26,8.24,1.57,7.94,1.29,15.9-.11,23.83-.71,4.02-3.19,6.6-7.18,7.37-2.43.47-4.96.58-7.44.58-6.31,0-12.63,0-18.94,0-9.21,0-18.42,0-27.62,0-15.12,0-30.25.01-45.37.08-.09,0-.19,0-.28,0-6.09,0-11.45-.93-15.1-8.18-2.45,7.09-7.2,8.12-12.51,8.12-.12,0-.23,0-.35,0-1.21,0-2.41-.01-3.62-.01-2.88,0-5.75.02-8.63.02-2.08,0-4.16-.01-6.23-.04-8.97-.15-12.87-3.52-14.69-12.45-1.84-9-1.9-18.19-2.77-27.29-1.08-11.16-6.84-16.92-18.03-17.23-1.03-.03-2.06-.04-3.08-.04-1.67,0-3.34.02-5.01.02-1.3,0-2.6-.01-3.9-.06-.15,0-.29,0-.43,0-3.34,0-4.6,1.61-4.58,5.07.1,11.99.04,23.98.02,35.96,0,2,.04,4.01-.21,5.98-.88,6.99-3.72,9.75-10.78,9.95-3.91.11-7.83.17-11.75.17s-7.49-.05-11.23-.16c-7.71-.22-11.08-3.5-11.1-11.09-.08-45.62-.09-91.24,0-136.86.02-7.57,3.49-10.93,11.19-10.97,13.47-.06,26.96-.31,40.43-.31m.53,63.28c1.33,0,2.91-.02,4.78-.02.69,0,1.42,0,2.2.01.5,0,.99,0,1.49,0,.83,0,1.65,0,2.48,0,3.65,0,7.29-.1,10.87-1.15,6.05-1.78,9.32-5.94,8.86-11.52-.45-5.46-4.57-9.6-10.54-10.14-6.93-.63-13.88-1.01-20.86-1.05-.03,0-.07,0-.1,0-4.64,0-6.76,1.61-6.26,6.36.12,1.15,0,2.32.02,3.48.15,13.13-1.28,14.03,7.07,14.03m-.53-65.28c-7.66,0-15.44.08-22.97.16-5.73.06-11.65.12-17.47.15-8.85.04-13.16,4.28-13.18,12.96-.09,44.1-.09,90.15,0,136.87.02,8.68,4.16,12.84,13.04,13.08,3.72.1,7.52.16,11.29.16s7.87-.06,11.81-.17c8-.23,11.68-3.62,12.71-11.7.23-1.82.23-3.63.22-5.39v-.85s.02-7.2.02-7.2c.02-9.43.05-19.18-.03-28.78-.01-1.27.19-2.15.58-2.55.33-.34,1.01-.51,2-.51.11,0,.23,0,.35,0,1.16.04,2.42.07,3.97.07.84,0,1.68,0,2.52-.01.83,0,1.66-.01,2.49-.01,1.17,0,2.13.01,3.03.04,9.99.27,15.11,5.17,16.09,15.42.27,2.84.47,5.75.66,8.56.42,6.21.86,12.64,2.14,18.93,2.03,9.94,6.69,13.88,16.62,14.05,1.84.03,3.83.05,6.27.05,1.44,0,2.88,0,4.32,0,1.44,0,2.87,0,4.31,0,1.2,0,2.4,0,3.61.01h.37c4.61,0,9.58-.79,12.76-5.94,4.21,5.48,9.81,6,14.85,6h.29c15.84-.07,31.82-.08,45.36-.08h13.81s13.81,0,13.81,0c6.32,0,12.63,0,18.95,0,2.16,0,5-.08,7.82-.62,4.79-.93,7.91-4.12,8.77-8.99,1.58-8.91,1.61-16.95.1-24.56-1.19-6-5.02-9.4-11.07-9.85-2.22-.16-4.46-.16-6.62-.16h-.51c-5.62,0-11.24,0-16.85,0h-9.02c-9.03,0-18.06,0-27.09-.02-1.27,0-3.9,0-4.32-.44-.43-.44-.45-3.05-.47-4.45-.03-3.06-.02-6.13,0-8.46,0-1.76.02-4.42.48-4.87.46-.46,3.23-.46,4.88-.47,5.32-.01,10.65-.01,15.97-.01,10.49,0,21.34,0,32.01-.1,7.59-.07,11.42-3.36,12.81-10.98,1.32-7.26,1.22-14.96-.31-23.55-.68-3.82-2.96-6.52-6.78-8.03-3.19-1.26-6.46-1.43-9.52-1.43h-.05c-5.12,0-10.25,0-15.37,0-11.25,0-21.1-.01-30.1-.03-.43,0-.84.02-1.23.05-.38.02-.74.04-1.07.04-.78,0-.96-.13-.96-.13-1.64-3.43-1.08-7.46-.31-10.95.12-.54.19-.87,1.69-.87.41,0,.83.03,1.29.05.46.03.94.06,1.41.06h.05c8.04-.03,16.22-.04,24.12-.04,10.76,0,21.89,0,32.84-.09,9.58-.07,13.67-4.04,14.1-13.71.16-3.43.13-6.9.1-10.25,0-.95-.02-1.89-.02-2.84-.06-13.8-3.58-17.37-17.15-17.39-15.52-.02-31.03-.03-46.55-.03-14.3,0-28.6,0-42.9.01-16.46,0-19.36,2.89-19.37,19.23,0,4.42,0,8.85,0,13.28-2.67-8.04-7.16-14.86-13.32-20.1-8.62-7.35-20.19-11.53-33.47-12.09-8.5-.36-17.59-.53-28.6-.53h0Zm.53,63.28c-1.32,0-4.07,0-4.57-.51-.54-.54-.52-3.31-.5-6.53.01-1.45.02-3.09,0-5.02,0-.38,0-.77.02-1.16.02-.81.05-1.64-.05-2.51-.17-1.58,0-2.66.5-3.22.56-.62,1.82-.93,3.76-.93h.09c6.59.03,13.36.37,20.69,1.04,4.92.45,8.34,3.71,8.73,8.31.38,4.57-2.26,7.92-7.43,9.44-3.36.99-6.79,1.07-10.31,1.07h-1.23s-1.24,0-1.24,0c-.5,0-1.01,0-1.51,0-.74,0-1.47-.01-2.17-.01-1.02,0-1.96,0-2.81.01-.71,0-1.37.01-1.97.01h0Zm74.84,67.78c-.32-3.42-.64-6.94-.94-10.62-.96-11.57-1.94-23.54-10.09-33.56-.87-1.07-.86-1.35,1.11-3.31l.36-.36c4.3-4.33,7.5-9.32,9.57-14.91v.11c0,20.89,0,41.77-.01,62.66h0Z"/>
      </g>
      <g>
        <path class="cls-1" d="m24.04,162.37c-3.6,0-6.79-.04-9.74-.12-8.46-.23-12.39-3.95-13.16-12.44-.14-1.58-.14-3.17-.13-4.72v-6.07c0-39.89-.01-79.77,0-119.66C1.01,3.77,3.53,1.22,18.94,1.22c6.35,0,12.7,0,19.05,0h57.16s12.71.01,12.71.01c4.61,0,8.97.33,12.08,4.38.36.47.71.74.96.74.27,0,.67-.31,1.08-.84,2.92-3.75,6.96-4.27,10.88-4.27h.24c1.12,0,2.24,0,3.35,0,1.7,0,3.39,0,5.09-.01,1.7,0,3.4-.01,5.1-.01,2.32,0,4.63,0,6.95.04,9.51.14,13.24,3.93,13.31,13.52.08,11.53.07,23.25.06,34.58,0,4.79,0,9.58,0,14.37,0,5.99,0,11.99,0,17.98v19.16c.01,15.26.02,30.51-.01,45.77-.03,12.08-3.49,15.59-15.42,15.68h-.49c-2.96.02-5.92.04-8.87.04-3.43,0-6.42-.03-9.15-.09-9.51-.2-13.07-3.77-13.13-13.16-.1-14.36-.09-28.96-.08-43.08,0-5.45,0-10.9,0-16.35,0-4.98,0-9.96,0-14.94,0-9.83,0-19.67-.02-29.5,0-1.68-.01-3.78-.31-4.13-.61.03-1.94.58-3.62,1.27-4.08,1.69-8.41,1.92-12.1,1.92h-2.46c-4.24,0-8.48,0-12.72.02-4.24,0-8.49.02-12.73.02-8.5,0-15.37-.04-21.62-.12h-.24c-2.05,0-3.35.35-4.08,1.09-.75.76-1.07,2.1-1.03,4.22.02,1.04.03,1.99.04,2.85q.1,7.82,5.96,7.82c.53,0,1.1,0,1.72,0,.72,0,1.51,0,2.36,0,0,0,4.7,0,6.78,0h14.34c4.79,0,11.09,0,17.38.07,9.65.1,13.18,3.62,13.47,13.44.15,5.19.1,10.48.03,15.03-.15,10.3-4.15,14.37-14.27,14.51-5.3.08-10.93.11-18.23.11-3.36,0-6.71,0-10.06-.01-3.35,0-6.71-.01-10.06-.01h-2.63c-3.36,0-5.38,0-6.06.69-.68.68-.68,2.71-.69,6.08,0,4.03,0,8.07,0,12.1.01,8.15.02,16.57-.05,24.86-.1,11.15-4.05,15.14-15.08,15.26-3.26.04-6.52.07-9.78.07Z"/>
        <path d="m37.69,2.21c19.13,0,38.27.01,57.4.01,4.26,0,8.52,0,12.78,0h.04c4.24,0,8.35.22,11.24,3.99.59.77,1.17,1.13,1.75,1.13.63,0,1.25-.43,1.87-1.22,2.59-3.33,6.22-3.88,10.09-3.88.08,0,.15,0,.23,0,1.12,0,2.25,0,3.37,0,3.39,0,6.77-.02,10.16-.02,2.32,0,4.63,0,6.95.04,8.97.13,12.26,3.4,12.32,12.53.11,16.31.05,32.63.05,48.94,0,5.99,0,11.99,0,17.98,0,21.64.04,43.28-.01,64.93-.03,11.55-3.07,14.6-14.43,14.68-3.12.02-6.24.04-9.36.04s-6.08-.02-9.12-.09c-8.88-.19-12.09-3.27-12.16-12.16-.14-19.81-.07-39.62-.08-59.43,0-14.82.02-29.63-.02-44.45-.01-3.72-.06-5.1-1.34-5.1-.78,0-2.02.51-3.99,1.33-3.71,1.54-7.7,1.84-11.7,1.84h-.07c-.78,0-1.57,0-2.35,0-8.51,0-17.01.03-25.52.03-7.2,0-14.39-.02-21.59-.12-.09,0-.17,0-.25,0-4.57,0-6.2,1.62-6.11,6.33.22,10.93-.56,11.65,7,11.65,1.15,0,2.49-.02,4.06-.02.18,0,.35,0,.53,0,2.08,0,4.16,0,6.24,0,4.8,0,9.61,0,14.41,0,5.77,0,11.54.01,17.32.08,9.1.1,12.21,3.27,12.48,12.47.15,4.99.1,9.99.03,14.98-.14,9.67-3.63,13.39-13.29,13.52-6.06.09-12.13.11-18.2.11-6.69,0-13.38-.03-20.07-.03-.9,0-1.8,0-2.7,0q-7.73,0-7.75,7.77c-.01,12.32.07,24.64-.04,36.96-.1,10.64-3.62,14.15-14.09,14.27-3.25.04-6.51.07-9.76.07s-6.48-.03-9.72-.12c-8-.22-11.48-3.59-12.19-11.53-.16-1.82-.13-3.66-.13-5.49,0-41.62-.02-83.24,0-124.86,0-14.98,2.14-17.15,16.94-17.16,6.25,0,12.5,0,18.74,0m0-2c-6.25,0-12.5,0-18.74,0C3.02.22.01,3.27,0,19.38c-.01,39.15,0,78.29,0,117.44v7.42s0,.86,0,.86c0,1.56-.01,3.18.14,4.81.81,8.99,5.17,13.1,14.13,13.35,2.96.08,6.16.12,9.78.12,3.39,0,6.83-.03,9.78-.07,11.61-.13,15.96-4.53,16.07-16.25.07-8.28.06-16.69.05-24.83,0-4.05-.01-8.1,0-12.14,0-2.45,0-4.99.39-5.38.39-.39,2.91-.39,5.35-.39h2.7c3.34,0,6.69,0,10.03.01,3.35,0,6.69.01,10.04.01,7.3,0,12.92-.03,18.23-.11,10.68-.15,15.1-4.64,15.26-15.49.07-4.54.13-9.83-.03-15.07-.3-10.26-4.36-14.3-14.46-14.41-6.29-.07-12.57-.08-17.34-.08-2.4,0-4.81,0-7.21,0-2.4,0-4.8,0-7.2,0-2.08,0-4.16,0-6.23,0h-.54c-.85,0-1.63,0-2.36,0-.61,0-1.18,0-1.71,0-1.41,0-4.02,0-4.4-.51-.49-.66-.52-3.15-.56-6.32-.01-.87-.02-1.82-.04-2.86-.04-1.78.21-2.96.74-3.5.52-.53,1.62-.79,3.37-.79h.23c6.25.08,13.11.12,21.61.12,4.25,0,8.51,0,12.76-.02,4.25,0,8.5-.02,12.76-.02h2.35s.07,0,.07,0c3.79,0,8.24-.24,12.46-1.99.92-.38,1.85-.77,2.49-.99.06.79.06,1.97.07,2.92.03,9.83.02,19.83.02,29.5,0,4.98,0,9.97,0,14.95,0,5.45,0,10.9,0,16.35,0,14.12-.02,28.73.08,43.09.07,9.97,4.03,13.93,14.11,14.15,2.74.06,5.74.09,9.17.09,2.97,0,5.94-.02,8.91-.04h.46c12.55-.09,16.38-3.98,16.41-16.68.04-15.27.03-30.8.02-45.82,0-6.37,0-12.74,0-19.11,0-5.99.01-11.99,0-17.98,0-4.72,0-9.44,0-14.16,0-11.4.02-23.19-.06-34.8-.07-10.17-4.21-14.37-14.29-14.52-2.06-.03-4.28-.04-6.98-.04-1.69,0-3.39,0-5.09.01-1.69,0-3.38.01-5.07.01-1.12,0-2.24,0-3.36,0h-.24c-3.98,0-8.47.55-11.67,4.65-.11.14-.21.25-.28.32-.05-.05-.11-.13-.18-.22C117.36.59,112.74.22,107.91.22h-12.83c-9.57,0-19.13,0-28.7,0-9.57,0-19.13,0-28.7,0h0Z"/>
      </g>
    </g>
  </g>
</svg>