<?xml version="1.0" encoding="UTF-8"?>
<svg id="Livello_2" data-name="Livello 2" xmlns="http://www.w3.org/2000/svg" viewBox="0 0 794.43 169.38">
  <defs>
    <style>
      .cls-1 {
        fill: #fff;
      }
    </style>
  </defs>
  <g id="Livello_1-2" data-name="Livello 1">
    <g>
      <g>
        <path class="cls-1" d="m459.25,168.38c-5.43,0-11.19-.58-17.59-1.77-28.1-5.24-47.2-22.62-56.77-51.66l-.18-.54c-.26-.8-.51-1.58-.82-2.34,0,.77,0,1.55.01,2.32.02,4.59.05,9.33-.05,13.99-.05,2.68,0,5.42.04,8.06.11,6.06.21,12.33-.87,18.51-1.15,6.57-4.37,9.61-10.45,9.88-3.86.17-7.85.25-12.21.25-3.9,0-8.1-.07-12.84-.2-6.71-.19-10.27-5.06-13.07-9.6-12.07-19.55-24.15-39.09-36.25-58.62-.11-.18-.22-.38-.32-.58-.25-.48-.47-.89-.93-1.22v4.87c0,5.01,0,10.03.01,15.04.02,11.77.04,23.95-.08,35.92-.1,10.17-4.15,14.2-14.43,14.37-2.66.04-5.47.06-8.59.06s-5.95-.02-8.93-.05c-11.71-.1-14.94-3.29-15.04-14.85-.05-6.04-.04-12.17-.03-18.1v-6.88s0-14.84,0-14.84c0-29.53,0-59.05.01-88.58v-.88c0-2.37,0-4.82.32-7.23.84-6.17,4.27-9.38,10.19-9.54,3.82-.11,7.9-.16,12.47-.16,5.04,0,10.15.06,14.55.12,6.06.08,9.34,4.19,11.99,8.62,5.14,8.6,10.28,17.21,15.42,25.82,6.13,10.26,12.25,20.53,18.39,30.79.22.37.43.75.64,1.13.58,1.06,1.14,2.08,1.99,2.87.39-.6.34-1.33.23-2.4-.04-.42-.09-.86-.09-1.29.03-5.55,0-11.19-.02-16.65-.04-9.28-.08-18.89.13-28.33.39-17.7,2.89-20.81,16.7-20.81,1.25,0,2.61.02,4.07.07,1.78.05,3.57.06,5.08.06h3.27c2.28,0,4.73.01,7.16.13,5.9.28,9.26,3.2,10.57,9.17.67,3.03.97,6.25.96,10.14-.04,11.17-.02,22.15.57,33.18,0-.02.01-.04.02-.06C394.54,21.51,421.34,1.27,458.04,1.03h.92c18.84,0,33.19,3.95,45.18,12.43,12.77,9.04,20.93,21.45,24.25,36.88,1.21,5.62.72,9.71-1.51,12.49-2.25,2.81-6.2,4.21-12.07,4.27-2.83.03-5.66.05-8.49.05-3.77,0-7.22-.03-10.53-.1-6.79-.13-11.18-2.99-13.43-8.75-3.78-9.67-11.18-14.67-22-14.85-.2,0-.41,0-.61,0-10.77,0-19.36,4.97-24.17,13.98-9.63,18.04-9.69,36.24-.17,54.09,4.8,9,14.41,14.6,25.07,14.6,8.68,0,16.43-3.74,21.28-10.26.22-.29.47-.58.73-.88.91-1.05,1.43-1.73,1.13-2.46-.17-.42-.41-.63-1.23-.63-.34,0-.7.04-1.05.07-.41.04-.81.08-1.18.08h-.14c-1.45-.04-2.9-.04-4.35-.05-4.17-.01-8.49-.03-12.75-.83-6.4-1.21-9.41-4.28-9.77-9.97-.44-6.92-.44-13.68-.01-20.08.45-6.71,4.24-9.89,11.94-10.01,7.14-.11,14.25-.13,19.64-.13,2.81,0,17.35.02,17.35.02,1.39,0,2.77,0,4.16-.02,1.41,0,2.83-.02,4.24-.02,2.5,0,5.79.02,9.14.19,7.2.35,10.58,3.54,11.33,10.66,1.26,11.98,1.08,24.15.9,35.93-.1,6.74-.21,13.71-.04,20.54.16,6.46-.12,11.73-.87,16.61-1,6.43-4.29,9.59-10.36,9.96-2.45.15-5.08.22-8.05.22-3.34,0-6.73-.09-10.01-.18h-.5c-3.14-.1-5.97-1.45-8.18-3.93-.76-.86-1.47-1.25-2.23-1.25-.53,0-1.14.2-1.81.6-9.01,5.44-19.01,8.09-30.55,8.09Z"/>
        <path d="m458.96,2.03c16.02,0,31.23,2.79,44.6,12.25,12.63,8.94,20.6,21.15,23.85,36.27,2.29,10.63-1.73,15.44-12.61,15.55-2.83.03-5.66.05-8.48.05-3.5,0-7-.03-10.5-.1-5.79-.11-10.25-2.32-12.51-8.11-4.05-10.37-12.21-15.3-22.91-15.49-.21,0-.42,0-.62,0-10.87,0-19.91,4.87-25.06,14.51-9.67,18.1-9.85,36.88-.17,55.03,5.31,9.96,15.7,15.13,25.95,15.13,8.42,0,16.75-3.49,22.08-10.66.95-1.28,2.69-2.61,1.98-4.32-.42-1.02-1.24-1.25-2.15-1.25-.74,0-1.54.15-2.24.15-.04,0-.08,0-.11,0-5.65-.14-11.32.2-16.94-.86-5.63-1.06-8.61-3.52-8.96-9.05-.42-6.63-.45-13.33-.01-19.95.41-6.21,3.89-8.97,10.96-9.08,6.54-.1,13.08-.13,19.62-.13,5.64,0,11.28.02,16.91.02.15,0,.3,0,.45,0,2.8,0,5.61-.03,8.41-.03,3.03,0,6.06.04,9.08.18,6.69.33,9.7,3.21,10.39,9.77,1.97,18.77.4,37.6.86,56.39.13,5.5-.02,10.98-.86,16.43-.89,5.74-3.56,8.76-9.43,9.11-2.66.16-5.32.22-7.99.22-3.49,0-6.99-.1-10.48-.19-2.91-.08-5.48-1.36-7.46-3.59-.92-1.04-1.89-1.59-2.98-1.59-.72,0-1.49.24-2.32.75-9.57,5.78-19.69,7.94-30.04,7.94-5.75,0-11.57-.67-17.41-1.76-29.02-5.41-46.93-23.46-56.01-50.99-.71-2.16-1.34-4.35-2.95-6.43,0,6.72.11,13.45-.03,20.17-.18,8.81.72,17.65-.81,26.42-1.02,5.82-3.66,8.8-9.51,9.05-4.05.17-8.11.25-12.16.25-4.27,0-8.54-.08-12.81-.2-6.02-.17-9.36-4.45-12.25-9.12-12.07-19.55-24.15-39.09-36.25-58.62-.58-.94-.83-2.22-3.11-2.75,0,2.4,0,4.37,0,6.34,0,16.99.1,33.97-.07,50.96-.1,9.68-3.82,13.22-13.45,13.38-2.86.05-5.72.06-8.58.06s-5.94-.02-8.91-.05c-11.15-.1-13.96-2.85-14.05-13.86-.07-8.33-.03-16.65-.03-24.98,0-34.47,0-68.94.01-103.41,0-2.66-.05-5.35.31-7.98.75-5.53,3.73-8.53,9.23-8.68,4.14-.12,8.29-.16,12.44-.16,4.85,0,9.69.06,14.54.12,5.53.08,8.59,3.85,11.15,8.13,11.27,18.86,22.53,37.74,33.8,56.6,1.01,1.69,1.75,3.59,3.56,4.83,1.86-1.4,1.05-3.38,1.06-5.03.07-14.99-.22-29.98.11-44.96.37-16.95,2.2-19.84,15.7-19.84,1.25,0,2.59.02,4.04.07,1.7.05,3.4.06,5.11.06,1.09,0,2.18,0,3.27,0,2.37,0,4.75.02,7.12.13,5.52.27,8.46,2.99,9.65,8.38.72,3.27.95,6.57.94,9.92-.04,12.81-.02,25.61.91,38.66.55-1.75,1.13-3.49,1.64-5.26,9.99-34.88,36.2-54.58,72.59-54.81.3,0,.61,0,.92,0m0-2c-.31,0-.62,0-.93,0-18.56.12-34.51,5.11-47.38,14.82-11.58,8.73-20.12,20.87-25.43,36.11-.34-9.13-.35-18.25-.32-27.51.01-3.96-.3-7.25-.98-10.36-1.41-6.39-5.17-9.65-11.5-9.95-2.45-.12-4.92-.13-7.21-.13h-1.64s-1.63,0-1.63,0c-1.51,0-3.28,0-5.05-.06-1.59-.04-2.93-.07-4.1-.07-15.19,0-17.31,4.38-17.7,21.79-.21,9.46-.17,19.07-.13,28.36.02,5.45.05,11.09.02,16.64,0,.3.02.59.04.87-.1-.17-.19-.35-.29-.53-.21-.39-.43-.78-.66-1.16-6.09-10.19-12.18-20.39-18.27-30.59-5.18-8.67-10.35-17.34-15.53-26.01-2.66-4.45-6.27-9.02-12.83-9.11-4.4-.06-9.53-.12-14.56-.12-4.58,0-8.67.05-12.5.16-6.39.18-10.25,3.78-11.15,10.41-.34,2.46-.33,4.95-.33,7.35v.9c-.02,29.96-.01,59.92-.01,89.87v13.54c0,2.31,0,4.63,0,6.94,0,5.92-.02,12.03.03,18.05.1,12.03,3.84,15.73,16.03,15.84,3.57.03,6.32.05,8.93.05,3.12,0,5.94-.02,8.61-.06,10.84-.18,15.31-4.63,15.41-15.36.12-12,.1-24.2.08-36,0-4.99-.02-9.98-.01-14.97v-1.58c12.7,20.51,24.37,39.39,35.65,57.66,3.16,5.11,7.02,9.87,13.89,10.07,4.75.14,8.96.2,12.87.2,4.37,0,8.38-.08,12.25-.25,6.54-.28,10.16-3.68,11.39-10.7,1.1-6.27.99-12.59.88-18.7-.05-2.64-.09-5.37-.04-8.03.07-3.42.07-6.89.06-10.3,9.99,27.7,29,44.34,56.56,49.48,6.46,1.2,12.28,1.79,17.77,1.79,11.73,0,21.9-2.69,31.07-8.23.51-.31.94-.46,1.29-.46.16,0,.66,0,1.48.92,2.4,2.69,5.48,4.16,8.91,4.26h.49c3.29.1,6.69.19,10.04.19,2.99,0,5.64-.07,8.11-.22,6.53-.39,10.22-3.93,11.28-10.8.76-4.93,1.04-10.27.88-16.79-.17-6.82-.06-13.78.04-20.51.18-11.8.36-24.01-.9-36.04-.8-7.62-4.59-11.18-12.28-11.56-3.37-.17-6.67-.19-9.18-.19-1.42,0-2.83,0-4.25.02-1.39,0-2.77.02-4.16.02h-.44c-2.82,0-5.63,0-8.45,0-2.82,0-5.64,0-8.46,0-5.39,0-12.5.01-19.65.13-8.21.13-12.44,3.71-12.92,10.95-.43,6.45-.43,13.26.01,20.21.24,3.86,1.6,9.19,10.58,10.89,4.35.82,8.72.84,12.93.85,1.42,0,2.89,0,4.32.05h.16c.44,0,.87-.04,1.28-.08.35-.03.68-.07.95-.07.15,0,.25.01.3.02,0,.3-.63,1.02-.97,1.41-.26.3-.53.61-.77.94-4.66,6.26-12.12,9.86-20.48,9.86-10.29,0-19.56-5.39-24.18-14.07-9.35-17.54-9.3-35.42.17-53.15,4.63-8.68,12.91-13.45,23.29-13.45.2,0,.39,0,.59,0,10.37.18,17.47,4.96,21.08,14.21,2.38,6.09,7.2,9.24,14.34,9.38,3.32.07,6.77.1,10.54.1,2.63,0,5.41-.02,8.5-.05,6.19-.06,10.39-1.58,12.84-4.65,2.43-3.04,2.99-7.4,1.71-13.33-3.38-15.68-11.67-28.29-24.65-37.48C492.55,4.04,478.01.03,458.96.03h0Z"/>
      </g>
      <g>
        <path class="cls-1" d="m725.82,168.37c-12.38,0-23.34-1.94-33.5-5.92-16.9-6.62-27.37-17.47-32.03-33.17-.07-.22-.12-.46-.18-.7-.14-.59-.25-1.09-.56-1.49-2.13,7.43-4.54,12.9-7.75,17.61-7.37,10.83-18.43,17.5-34.81,21.01-6.65,1.42-13.47,2.15-20.28,2.15-7.48,0-15.14-.87-22.76-2.6-27.31-6.17-42.57-24.94-42.96-52.86-.36-25.35-.24-51.13-.14-76.06.03-6.13.05-12.26.07-18.39.03-10.16,3.7-13.81,14.02-13.94,3.29-.04,6.58-.07,9.88-.07,4.22,0,8.04.05,11.65.14,6.77.18,10.11,3.06,11.52,9.92.72,3.51.81,7,.81,9.64v5.95c-.01,25.89-.03,52.66.02,78.99.02,12.21,4.87,17.23,16.72,17.35h.34c11.65,0,17.84-6.06,17.88-17.53.07-18.95.07-38.21.06-56.84,0-10.03,0-20.06,0-30.09v-.77c0-2.09,0-4.24.31-6.35,1.06-7.03,4.31-9.99,11.23-10.21,3.85-.12,7.91-.19,12.07-.19s8.06.05,12.47.17c6.11.15,9.59,3.13,10.94,9.38.64,2.95.92,6.08.92,10.14,0,8.08,0,16.16,0,24.23.91-12.73,5.74-22.98,14.59-31.08,7.93-7.27,17.92-11.85,30.54-14,7.06-1.2,13.5-1.79,19.71-1.79,13.92,0,26.12,2.99,37.3,9.13,15.19,8.34,23.79,22.14,25.56,41,.36,3.82-.43,6.88-2.35,9.09-1.97,2.27-5.04,3.53-9.1,3.72-3.37.16-6.83.24-10.57.24s-7.62-.08-11.99-.24c-6.19-.23-10.3-3.43-12.2-9.52-2.28-7.3-7.51-11.11-15.53-11.32l-.59-.02c-1.08-.03-2.16-.06-3.23-.06-3.36,0-6.93.25-10.32,2.09-2.55,1.38-3.62,2.78-3.71,4.85-.09,2.1.92,3.49,3.49,4.81,4.72,2.42,9.96,3.65,15.03,4.84.78.18,1.56.37,2.34.56,1.82.44,3.64.86,5.47,1.29,12.78,2.99,25.99,6.07,37.66,13.4,9.74,6.11,15.83,14.94,18.09,26.22,4.33,21.6-.94,39.21-15.67,52.34-8.56,7.63-19.45,12.16-33.27,13.84-6.16.75-11.78,1.11-17.19,1.11Zm-46.32-65.82c5.05,0,9.99.33,15.46.73,4.58.33,7.89,3.15,9.08,7.72,1.57,6.08,3.97,11.95,10.81,13.73,4.42,1.15,8.45,1.71,12.32,1.71,4.78,0,9.31-.9,13.46-2.68,1.44-.62,4.79-2.47,4.69-6.35-.07-2.91-2.34-4.54-4.79-5.88-5.35-2.92-11.36-4.24-17.17-5.51-1.51-.33-3.01-.66-4.51-1.02l-1.85-.44c-12.07-2.86-24.55-5.82-35.54-12.58-10.96-6.73-17.38-16.47-19.07-28.95-.27-1.99-.47-3.94-.59-5.84,0,13.98,0,28.29-.06,42.38,0,1.66.03,3.2.59,3.76.29.29.84.43,1.67.43.62,0,1.38-.08,2.32-.24,3.97-.67,8.29-.99,13.19-.99Z"/>
        <path d="m726.62,2c12.68,0,25.04,2.53,36.81,9,15.75,8.65,23.4,22.74,25.04,40.22.69,7.29-3.08,11.36-10.5,11.72-3.5.17-7.02.24-10.53.24-3.99,0-7.97-.09-11.95-.24-5.68-.21-9.47-3.02-11.29-8.82-2.47-7.91-8.17-11.8-16.46-12.02-1.28-.03-2.57-.08-3.85-.08-3.7,0-7.36.34-10.8,2.21-2.33,1.26-4.11,2.83-4.24,5.69-.13,2.95,1.68,4.54,4.04,5.74,5.55,2.84,11.61,4.04,17.6,5.48,14.72,3.54,29.67,6.31,42.83,14.57,9.64,6.05,15.47,14.71,17.65,25.57,3.96,19.71.29,37.45-15.35,51.39-9.31,8.29-20.64,12.13-32.73,13.6-5.71.7-11.41,1.11-17.07,1.11-11.23,0-22.33-1.62-33.13-5.85-15.38-6.03-26.6-16.21-31.43-32.52-.35-1.19-.34-2.71-2.28-3.53-1.81,6.63-4.14,13.02-7.99,18.67-8.22,12.09-20.46,17.66-34.2,20.6-6.68,1.43-13.38,2.13-20.07,2.13-7.53,0-15.06-.88-22.54-2.57-26.86-6.07-41.79-24.06-42.18-51.9-.44-31.47-.17-62.95-.06-94.43.03-9.74,3.28-12.82,13.04-12.94,3.29-.04,6.57-.07,9.86-.07,3.88,0,7.75.04,11.63.14,6.4.17,9.28,2.86,10.57,9.13.64,3.12.79,6.26.79,9.44-.01,28.31-.03,56.63.02,84.94.02,12.75,5.38,18.23,17.71,18.35.12,0,.24,0,.35,0,12.19,0,18.83-6.36,18.88-18.53.1-28.98.04-57.96.07-86.94,0-2.33-.04-4.69.3-6.98.97-6.45,3.74-9.15,10.27-9.36,4.01-.13,8.02-.18,12.03-.18s8.3.06,12.45.17c5.83.15,8.76,2.92,9.99,8.59.71,3.27.9,6.58.89,9.93-.03,25.32.04,50.63-.07,75.95-.02,3.53.24,5.2,3.27,5.2.68,0,1.5-.08,2.49-.25,4.29-.72,8.65-.98,13.02-.98,5.13,0,10.28.35,15.39.73,4.12.3,7.08,2.73,8.18,6.97,1.69,6.54,4.27,12.56,11.52,14.44,4.18,1.09,8.39,1.74,12.57,1.74,4.67,0,9.32-.82,13.86-2.76,2.89-1.24,5.39-3.71,5.3-7.29-.08-3.36-2.59-5.25-5.31-6.73-6.84-3.74-14.49-4.85-21.93-6.62-12.81-3.05-25.7-5.89-37.11-12.89-10.57-6.49-16.94-15.99-18.6-28.23-2.31-17.1.21-33.04,13.68-45.38,8.46-7.75,18.79-11.84,30.03-13.75,6.58-1.12,13.1-1.78,19.54-1.78m0-2c-6.26,0-12.77.59-19.88,1.8-12.81,2.19-22.97,6.85-31.05,14.25-6.26,5.74-10.56,12.52-12.91,20.46,0-4.29,0-8.58,0-12.86,0-4.13-.28-7.33-.94-10.35-1.45-6.67-5.34-10-11.89-10.16-4.42-.11-8.51-.17-12.5-.17s-8.24.06-12.1.19c-7.41.24-11.05,3.54-12.19,11.06-.33,2.18-.33,4.38-.32,6.5v.78c0,10.09,0,20.17,0,30.26,0,18.58,0,37.78-.06,56.67-.04,10.97-5.72,16.54-16.88,16.54h-.33c-11.3-.11-15.71-4.7-15.73-16.35-.04-26.36-.03-53.16-.02-79.07v-5.86c0-2.69-.09-6.24-.83-9.84-1.51-7.32-5.24-10.53-12.48-10.72-3.62-.1-7.45-.14-11.68-.14-2.99,0-6.13.02-9.89.07-10.91.14-14.97,4.19-15.01,14.94-.02,6.13-.05,12.26-.07,18.39-.11,24.93-.22,50.72.14,76.08.2,14.27,4.11,26.16,11.62,35.35,7.46,9.12,18.26,15.34,32.12,18.47,7.69,1.74,15.43,2.62,22.98,2.62,6.87,0,13.77-.73,20.48-2.17,16.65-3.57,27.91-10.38,35.43-21.43,2.81-4.13,5.02-8.83,6.96-14.86,4.82,15.35,15.7,26.44,32.37,32.97,10.28,4.03,21.36,5.99,33.86,5.99,5.45,0,11.12-.37,17.32-1.12,14.03-1.71,25.09-6.32,33.82-14.09,15.02-13.39,20.4-31.31,15.98-53.28-2.32-11.57-8.56-20.61-18.54-26.87-6.83-4.28-14.15-7.13-21.59-9.35.83.15,1.71.25,2.62.28,4.38.16,8.32.24,12.02.24s7.24-.08,10.62-.24c4.35-.21,7.65-1.57,9.81-4.06,2.1-2.42,2.97-5.73,2.59-9.84-1.81-19.21-10.58-33.27-26.07-41.78-11.33-6.22-23.69-9.25-37.78-9.25h0Zm23.44,63.87c-4.54-1.26-9.11-2.33-13.63-3.39-1.82-.43-3.64-.85-5.46-1.29-.78-.19-1.56-.37-2.35-.56-5.24-1.23-10.2-2.4-14.81-4.76-2.54-1.3-3.01-2.45-2.95-3.88.07-1.71.94-2.79,3.19-4.01,3.19-1.73,6.62-1.97,9.85-1.97,1.06,0,2.15.03,3.21.06l.59.02c7.65.2,12.43,3.67,14.6,10.62,1.43,4.59,4.03,7.65,7.76,9.15h0Zm-86.07,38.92c-.76,0-.96-.14-.97-.14-.21-.23-.31-1.25-.3-3.05.04-9.9.06-19.89.06-29.81,2.84,9.66,8.92,17.4,18.14,23.06,11.13,6.84,23.69,9.81,35.83,12.7l1.86.44c1.51.36,3.04.7,4.53,1.02,6.01,1.32,11.69,2.56,16.91,5.41,3.02,1.65,4.22,3.06,4.27,5.02.08,3.27-2.83,4.87-4.08,5.4-4.08,1.75-8.36,2.6-13.07,2.6-3.78,0-7.73-.55-12.06-1.67-5.98-1.55-8.36-6.33-10.09-13.01-1.3-5.01-4.93-8.1-9.97-8.47-5.49-.4-10.45-.73-15.53-.73s-9.33.33-13.35,1.01c-.88.15-1.6.22-2.15.22h0Z"/>
      </g>
      <g>
        <path class="cls-1" d="m183.13,167.79c-8.57,0-17.14-1.11-25.47-3.29-24.49-6.42-39.29-25.23-39.6-50.33-.17-14.28-.15-28.79-.13-42.83.01-7.21.02-14.42,0-21.64,0-4.36-.17-4.36-.87-4.36-.74,0-1.95.27-3.64.64-3.31.73-6.67,1.1-10.01,1.1h-.13c-8.16-.02-16.31-.03-24.47-.03s-16.67,0-25,.02q-5.64,0-5.65,5.34c0,.94,0,1.8-.01,2.59-.03,4.14-.04,6.41.76,7.22.62.63,2.12.74,4.85.74.55,0,1.15,0,1.8,0,.77,0,1.61-.01,2.53-.01h.65c3.26.01,6.51.01,9.77.01h11.42c5.6,0,11.2,0,16.8.05,9.28.07,12.5,2.9,13.77,12.12,1.03,7.44.82,14.91-.62,22.2-1.06,5.37-5,8.26-11.71,8.6-3.19.16-6.32.18-8.68.18-1.38,0-2.75,0-4.13-.02-1.37,0-2.74-.02-4.12-.02h-5.22s-12.27,0-12.27,0c-3.37,0-6.73,0-10.1.02-5.42.03-5.47.08-5.49,5.67-.02,5.76-.02,11.52-.01,17.29,0,6.9,0,13.79-.03,20.69-.05,11.66-3.61,15.25-15.21,15.35-2.47.02-4.94.03-7.41.03s-4.73,0-7.1-.01c-14.46-.05-17.39-2.94-17.41-17.18-.02-17.33-.01-34.67,0-52v-11.46c0-6.36,0-12.72,0-19.07,0-15.2-.02-30.92.03-46.38.03-11.76,3.22-14.98,14.83-15,13.91-.02,27.83-.03,41.74-.03h48.72c4.28,0,8.71,0,12.53,3.01.43.34.87.52,1.22.52.26,0,.49-.09.71-.3,3.35-2.99,7.31-3.24,10.75-3.24.52,0,1.04,0,1.56.01.51,0,1.02.01,1.53.01h.61c2.45-.03,4.9-.05,7.36-.05,3.11,0,6.19.03,9.17.08,9.63.16,13.11,3.69,13.3,13.46.08,4.2.07,8.47.06,12.6,0,1.47,0,2.94,0,4.41v68.81c0,1.37,0,2.74.03,4.11.3,11.9,6.25,18.72,16.32,18.72,2.31,0,4.83-.37,7.46-1.1,6.29-1.73,9.95-5.64,11.18-11.94.56-2.85.82-5.94.82-9.74-.02-33.24-.01-58.67.02-82.44,0-2.92.04-5.54.49-8.13.92-5.3,4.35-8.42,9.43-8.56,4.51-.12,9.19-.18,13.89-.18,4.27,0,8.69.05,13.14.15,5.28.12,8.75,3.25,9.76,8.82.35,1.95.4,3.95.4,5.65,0,8.36.02,16.73.03,25.09.04,22.89.08,46.57-.15,69.85-.16,16.45-5.88,29.72-16.98,39.46-7.14,6.25-15.76,10.35-26.34,12.51-7.21,1.47-14.44,2.22-21.48,2.22Z"/>
        <path d="m142.6,4.95c3.05,0,6.1.02,9.14.08,9.09.15,12.14,3.23,12.32,12.48.11,5.66.05,11.32.05,16.99,0,22.48,0,44.97,0,67.45,0,1.83-.02,3.66.02,5.5.32,12.56,6.86,19.69,17.32,19.69,2.38,0,4.97-.37,7.73-1.13,6.56-1.81,10.58-5.96,11.9-12.72.65-3.29.84-6.59.83-9.93-.01-27.48-.02-54.96.02-82.44,0-2.66.02-5.35.47-7.96.8-4.65,3.71-7.6,8.47-7.73,4.62-.12,9.24-.18,13.86-.18,4.37,0,8.75.05,13.12.15,5,.11,7.92,3.14,8.8,8,.32,1.79.39,3.64.39,5.47,0,31.64.2,63.29-.11,94.93-.15,15.02-4.91,28.44-16.64,38.71-7.49,6.56-16.3,10.32-25.88,12.28-7.1,1.45-14.2,2.2-21.28,2.2-8.42,0-16.83-1.06-25.22-3.26-23.9-6.26-38.55-24.57-38.85-49.38-.26-21.48-.08-42.97-.12-64.45,0-4.08-.03-5.36-1.87-5.36-.85,0-2.07.27-3.87.67-3.22.71-6.47,1.07-9.79,1.07-.04,0-.08,0-.12,0-8.18-.02-16.35-.03-24.53-.03s-16.63,0-24.95.02c-6.32,0-6.64.3-6.64,6.34,0,10.79-.7,11.56,6.6,11.56,1.21,0,2.64-.02,4.33-.02.21,0,.42,0,.64,0,3.27.01,6.53.01,9.8.01,3.8,0,7.61,0,11.41,0,5.59,0,11.18,0,16.78.05,8.79.07,11.57,2.44,12.79,11.26,1,7.29.82,14.63-.61,21.87-.96,4.88-4.4,7.47-10.78,7.79-2.87.14-5.75.18-8.63.18s-5.5-.03-8.25-.03c-.2,0-.4,0-.61,0-1.55,0-3.1,0-4.65,0-4.08,0-8.17,0-12.25,0-3.36,0-6.73,0-10.09.02-5.99.03-6.46.52-6.48,6.67-.04,12.66.02,25.31-.04,37.97-.05,11.16-3.15,14.26-14.22,14.36-2.46.02-4.93.03-7.39.03s-4.73,0-7.1-.01c-13.89-.04-16.4-2.49-16.41-16.19-.03-21.15,0-42.3,0-63.45,0-21.82-.04-43.63.02-65.45.03-11.18,2.8-13.99,13.83-14.01,13.89-.02,27.79-.03,41.68-.03,16.26,0,32.52,0,48.78,0,4.19,0,8.37,0,11.91,2.79.57.45,1.21.74,1.84.74.48,0,.95-.16,1.38-.55,3.01-2.69,6.52-2.99,10.09-2.99,1.03,0,2.06.03,3.09.03.21,0,.41,0,.62,0,2.45-.03,4.9-.04,7.35-.04m0-2c-2.39,0-4.88.01-7.37.04-.2,0-.4,0-.6,0-.51,0-1.01,0-1.52-.01-.52,0-1.05-.01-1.57-.01-3.63,0-7.8.27-11.42,3.5-.04.04-.06.05-.06.05-.04,0-.26-.06-.59-.32-4.09-3.21-8.9-3.21-13.15-3.21-7.91,0-15.82,0-23.74,0-8.35,0-16.69,0-25.04,0-16.37,0-29.62,0-41.69.03C3.77,3.03.07,6.77.03,19.01,0,34.44,0,50.13,0,65.31c0,6.39,0,12.77,0,19.16v11.78c-.02,16.94-.03,34.45,0,51.67,0,6.86.61,11.69,3.6,14.64,2.97,2.92,7.87,3.53,14.81,3.55,2.37,0,4.74.01,7.11.01s4.94,0,7.41-.03c12.21-.11,16.14-4.08,16.2-16.35.03-6.87.03-13.86.03-20.61,0-5.79,0-11.57.01-17.36,0-1.14.01-3.8.44-4.24.41-.42,2.96-.43,4.06-.44,3.36-.02,6.72-.02,10.08-.02,2.04,0,4.08,0,6.12,0,2.04,0,4.08,0,6.13,0,1.55,0,3.1,0,4.65,0h.6c1.37,0,2.74,0,4.11.02,1.38,0,2.76.02,4.14.02,2.38,0,5.52-.02,8.73-.18,7.23-.36,11.48-3.52,12.64-9.4,1.46-7.4,1.67-14.98.63-22.53-1.34-9.75-4.93-12.91-14.75-12.98-5.93-.05-11.82-.05-16.79-.05h-5.71s-5.7,0-5.7,0c-3.26,0-6.53,0-9.79-.01h-.65c-.92,0-1.76,0-2.54.01-.65,0-1.24,0-1.79,0-1.11,0-3.7,0-4.14-.45-.51-.51-.49-3.29-.47-6.51,0-.79.01-1.66.01-2.59,0-1.17,0-3.61.33-3.99.39-.35,3.04-.35,4.32-.35,8.31-.01,16.63-.02,24.94-.02,8.96,0,16.98.01,24.53.03h.13c3.41,0,6.85-.38,10.22-1.12,1.39-.31,2.52-.56,3.19-.61.1.71.1,2.1.1,3.35.01,7.21,0,14.53,0,21.62-.02,14.04-.05,28.56.13,42.85.31,25.58,15.39,44.75,40.34,51.29,8.41,2.2,17.06,3.32,25.72,3.32,7.11,0,14.4-.75,21.68-2.24,10.76-2.2,19.53-6.36,26.8-12.73,11.33-9.93,17.16-23.45,17.33-40.2.23-23.28.19-46.95.15-69.84-.02-8.37-.03-16.74-.03-25.11,0-1.74-.05-3.8-.42-5.83-1.09-6-4.99-9.52-10.72-9.65-4.46-.1-8.89-.15-13.16-.15-4.71,0-9.39.06-13.91.18-5.52.15-9.4,3.66-10.39,9.39-.46,2.66-.5,5.33-.5,8.3-.04,29.51-.03,58.24-.02,82.44,0,3.73-.25,6.76-.8,9.55-1.16,5.89-4.58,9.55-10.47,11.17-2.55.7-4.97,1.06-7.2,1.06-9.45,0-15.03-6.47-15.32-17.75-.03-1.35-.03-2.74-.03-4.08v-1.37s0-25.29,0-25.29c0-14.05,0-28.1,0-42.16,0-1.47,0-2.94,0-4.4.01-4.13.02-8.41-.06-12.62-.2-10.36-4.08-14.27-14.29-14.44-2.97-.05-6.06-.08-9.18-.08h0Z"/>
      </g>
    </g>
  </g>
</svg>