<?xml version="1.0" encoding="UTF-8"?>
<svg id="Livello_2" data-name="Livello 2" xmlns="http://www.w3.org/2000/svg" viewBox="0 0 1055.54 169.83">
  <defs>
    <style>
      .cls-1 {
        fill: #fff;
      }
    </style>
  </defs>
  <g id="Livello_1-2" data-name="Livello 1">
    <g>
      <path class="cls-1" d="m723.66,168.83c-12.08,0-23.94-2.24-35.27-6.66-15.48-6.04-25.78-16.78-30.63-31.92-.07-.22-.14-.46-.2-.69-.2-.72-.36-1.32-.79-1.84-.49.75-.72,1.68-.96,2.65-.13.52-.25,1.04-.42,1.53-5.27,15.9-16.26,26.58-32.66,31.74-9.37,2.95-19.03,4.44-28.71,4.44-7.91,0-16.01-1-24.08-2.97-15.04-3.67-25.78-10.68-32.81-21.42l-.16-.25c-.34-.54-.53-.79-.87-.87-.38,1.99-.34,4.06-.29,6.24.03,1.29.05,2.63-.01,3.95-.44,8.45-4.4,12.4-12.48,12.43-12.12.05-24.01.06-35.06.06h-19.7c-10.93,0-22.69,0-34.69.05-2.49,0-4.57-1.12-6.4-2.11-1.5-.81-2.92-1.58-4.28-1.58-.07,0-.14,0-.21,0-1.34.08-2.73.81-4.19,1.58-1.85.97-3.94,2.08-6.41,2.08-9.29-.02-18.55-.03-27.82-.03h-23.48c-11.55,0-25.17,0-38.68-.06-8.21-.03-12.28-4.51-12.46-13.69-.14-7.49-.13-15.11-.12-22.47,0-4.5.01-9.01-.01-13.51,0-.41.02-.82.05-1.25.01-.18.02-.36.03-.53-11.71,35.28-35.66,53.61-71.23,54.5-1.01.03-2.01.04-3,.04-37.82,0-62.97-18.51-74.79-55.04,0,.28.03.56.05.85.03.42.06.83.05,1.24-.03,5.04-.03,10.08-.02,15.12,0,6.83.01,13.9-.07,20.85-.12,10.02-3.94,13.8-14.09,13.94-2.91.04-5.82.06-8.72.06s-5.53-.02-8.3-.06c-10.46-.16-13.85-3.52-13.96-13.83-.05-5.29-.05-10.67-.05-15.86,0-3.54,0-7.08-.01-10.62v-.7c0-1.66,0-3.26-.49-5.07l-.52,1.71c-.9,2.97-1.72,5.68-2.52,8.4-1.02,3.49-2.03,6.99-3.04,10.48-1.44,4.98-2.88,9.97-4.36,14.94-2.22,7.49-5.89,10.34-13.56,10.51-3.41.08-6.92.11-10.42.11-3.31,0-6.71-.03-10.11-.1-8.23-.16-11.97-3.04-14.28-11-1.81-6.22-3.57-12.45-5.33-18.68-1.09-3.86-2.19-7.73-3.29-11.59-.25-.87-.52-1.73-.92-2.57,0,.9,0,1.79,0,2.69.01,4.36.03,8.87-.03,13.31-.02,1.55,0,3.14.03,4.68.07,4.4.14,8.95-.84,13.44-1.38,6.3-4.54,9.23-10.26,9.5-3.96.19-7.96.28-11.9.28s-7.81-.09-11.66-.27c-6.11-.29-9.39-3.47-10.32-10-.62-4.36-.92-8.8-.91-13.58.05-41.31.05-78.73,0-114.41,0-3.98.32-8.25.99-13.07.83-5.94,4.37-9.41,9.72-9.52,6.24-.12,12.69-.19,19.17-.19s13.44.06,20.33.19c4.97.09,8.37,3.22,10.11,9.29,3.15,11.01,6.28,22.03,9.41,33.05l4.95,17.43c1.45,5.11,2.9,10.23,4.38,15.33.06.21.11.43.16.66.16.71.28,1.25.81,1.67.43-1.45.85-2.9,1.28-4.34,1.16-3.94,2.37-8.01,3.5-12.01,2.18-7.73,4.35-15.46,6.51-23.19,2.5-8.94,5.01-17.89,7.54-26.83,2.46-8.7,5.8-11.23,14.88-11.3,5.56-.04,11.13-.07,16.7-.07s10.43.02,15.31.07c10.47.1,14.05,3.71,14.15,14.32.07,7.02.06,14.16.06,21.07,0,4.8,0,9.61.01,14.41,0,.38-.01.76-.03,1.16-.02.37-.03.73-.03,1.1C173.18,19.78,197.97,1.28,234.62,1.28c3.1,0,6.33.14,9.6.41,32.98,2.72,55.06,21.19,65.67,54.91,0-.19-.02-.38-.03-.57-.02-.33-.04-.66-.04-.98.02-4.98.02-9.96.02-14.93,0-6.24,0-12.69.05-19.04.02-2.78.39-5.51.77-8.06.78-5.28,4.2-8.39,9.4-8.53,4.78-.13,9.64-.2,14.45-.2,4.17,0,8.4.05,12.58.15,4.63.11,8.02,2.9,9.54,7.85,1.05,3.41,1.19,6.9,1.19,10.18-.02,29.06-.02,58.11-.01,87.17v5.76c0,3.81,0,6.11.78,6.91.77.79,3,.79,6.69.79h17.49c8.83,0,17.66,0,26.49.05,0,0,1.92-.01,2.28-.01,1.86,0,3.82.1,5.5.83,1.15.5,2.04.75,2.66.75.47,0,.62-.15.67-.21.55-.56.55-2.5.54-3.92-.09-31.07-.06-62.67-.04-93.22v-4.21c0-2.61.04-5.16.45-7.62,1.35-8.21,4.77-11.16,13.05-11.28,3.04-.04,7.04-.09,11.02-.09,4.22,0,7.99.06,11.51.17,7.21.23,10.07,2.74,11.34,9.93.48,2.73.53,5.51.53,8.12.02,19.03.02,38.05.02,57.08,0,12.45,0,24.9,0,37.34,0,2.98.05,4.84.73,5.51.69.67,2.6.74,5.65.79,2.41.04,4.83.05,7.24.05,3.87,0,7.74-.04,11.62-.07,3.88-.04,7.76-.07,11.64-.07,8.84,0,15.62.2,22,.65.14,0,.26.01.38.01.46,0,.79-.08.91-.21.26-.28.17-1.37.14-1.78-1.82-22.18-1.57-44.74-1.33-66.55.12-10.61.24-21.58.12-32.37-.09-8.08,1.06-12.88,3.71-15.57,2.55-2.58,6.33-3.1,11.23-3.1,1.09,0,2.24.03,3.45.06,1.51.04,3.11.06,5.18.06.96,0,4.78-.02,5.74-.02,1.8,0,4.18.01,6.58.11,7.51.3,10.8,3.34,11.73,10.85.23,1.87.23,3.77.22,5.6v1.01c0,10.17,0,20.34,0,30.51,0,18.47,0,36.95.04,55.42.03,11.82,5.96,18.61,16.26,18.61,2.03,0,4.21-.27,6.49-.81,8.52-2.01,12.17-6.79,12.19-15.97.06-19.63.05-39.59.05-58.89,0-8.68,0-17.36,0-26.04,0-17.54,2.83-20.41,20.11-20.42,1.19,0,2.38,0,3.58-.01,1.27,0,2.53-.01,3.8-.01,2.22,0,5.16.01,8.15.13,7.99.3,11.4,3.54,12.15,11.56.17,1.78.16,3.59.15,5.33v1.25c0,8,0,16,0,24,.82-5.44,2.53-10.94,5.12-16.35,6.43-13.37,17.97-21.88,35.29-26,8.58-2.04,16.86-3.08,24.63-3.08,11.65,0,22.68,2.33,32.8,6.93,18.42,8.38,28.52,22.95,30.02,43.31.31,4.26-.43,7.34-2.27,9.42-1.9,2.15-4.88,3.25-9.38,3.48-3.01.15-6.27.22-9.96.22s-7.76-.08-11.54-.16h-.54c-5.82-.13-9.9-3.15-12.14-9-2.83-7.41-11.04-12.59-19.95-12.59-4.36,0-8.35,1.26-11.53,3.65-1.75,1.32-2.63,2.91-2.46,4.5.18,1.69,1.58,3.26,3.84,4.31,6.47,2.99,13.56,4.53,20.42,6.02,1.78.39,3.55.77,5.32,1.18,7.11,1.65,16.43,4.04,25.42,7.9,7.8,3.35,13.91,7.59,18.67,12.96.21.24.42.54.63.85.32.47.72,1.05,1,1.05.06,0,.14-.02.23-.06.35-.14.41-.46.32-1.67-.03-.37-.05-.72-.04-1.05.57-16.36,4.11-30.31,10.8-42.67,12.66-23.37,33.37-36.23,61.54-38.22,2.28-.16,4.55-.24,6.75-.24,12.32,0,23.8,2.57,34.1,7.63,11.84,5.81,20.71,14.7,27.12,27.15.17.34.29.68.4,1.02.31.91.44,1.11.78,1.16.04,0,.07,0,.11,0,.19,0,.34-.37.56-1.04l.08-.24c6.29-18.74,20.61-29.84,43.8-33.94,6.57-1.16,12.93-1.75,18.92-1.75,11.33,0,21.99,2.12,31.7,6.3,18.18,7.82,28.65,22.16,31.12,42.62.55,4.54-.18,7.91-2.22,10.29-2.11,2.46-5.49,3.74-10.36,3.9-2.62.09-5.46.13-8.67.13s-6.5-.04-9.75-.09l-2.1-.03c-6.04-.08-10.3-3.11-12.67-9-3.03-7.54-10.97-12.61-19.77-12.61-4.34,0-8.41,1.26-11.78,3.64-1.69,1.2-2.6,2.76-2.51,4.3.09,1.57,1.18,2.99,3.06,4.01,5.14,2.78,10.62,4.14,17.26,5.63l.53.12c12.47,2.8,25.37,5.69,37.37,11.3,19.03,8.89,28.01,26.24,25.29,48.87-2.89,24-17.69,40.13-41.66,45.42-8.32,1.84-16.6,2.77-24.61,2.77-11.48,0-22.77-1.91-33.55-5.69-13.6-4.76-23.52-13.2-29.48-25.07-.11-.22-.22-.44-.33-.67-.29-.6-.89-1.86-1.23-1.97,0,0-.48.1-1.46,1.76-10.3,17.48-26.38,27.73-47.81,30.44-4.7.6-9.29.9-13.67.9-18.2,0-33.62-5.02-47.15-15.36-8.57-6.55-15.58-15.01-20.82-25.15-.25-.48-.46-.98-.65-1.47-.45-1.1-.85-2.07-1.64-2.69-.12.14-.18.4-.27.89l-.02.13c-3.88,21.16-16.95,34.79-38.85,40.48-9.17,2.39-18.32,3.6-27.19,3.6Zm-46.29-65.93c4.51,0,9.3.21,15.06.65,4.3.33,7.4,2.95,8.74,7.39l.13.42c1.8,5.99,3.5,11.65,9.99,13.34,4.98,1.3,9.36,1.93,13.38,1.93,5.01,0,9.52-.96,13.78-2.95,2.76-1.29,4.12-3.36,4.03-6.17-.08-2.49-1.39-4.31-4.12-5.73-3.25-1.69-6.73-2.69-10.61-3.73-4.08-1.09-8.26-2.09-12.31-3.05-7.44-1.77-15.14-3.6-22.54-6.12-14.84-5.06-25.94-14.84-31.27-27.54-1.38-3.3-2.35-6.74-2.91-10.27,0,12.93,0,25.86.01,38.79,0,4.22.08,4.22,1.01,4.22.6,0,1.47-.11,2.58-.25l1-.13c4.4-.54,9-.8,14.06-.8Zm310.43,23.23c1.36.08,2.48.12,3.52.12,4.38,0,7.63-.7,10.54-2.28,2.86-1.55,4.48-3.64,4.56-5.89.08-2.2-1.34-4.33-3.99-6.02-2.97-1.89-6.29-2.78-9.81-3.73l-1.11-.3c-4.17-1.13-8.46-2.14-12.61-3.11-7.67-1.79-15.6-3.64-23.17-6.42-17.43-6.4-27-15.4-31.04-29.18-.56-1.9-1.2-2.58-2.47-2.58-.2,0-.4.02-.63.05-3.91.57-7.78.64-10.71.64-1.57,0-3.14-.02-4.71-.05-1.56-.02-3.12-.05-4.68-.05-2.08,0-3.8.04-5.42.13-.46.03-.92.04-1.36.04-7.17,0-11.7-3.39-14.27-10.68-2.74-7.78-8.78-11.98-17.94-12.49-.65-.04-1.3-.05-1.94-.05-11.87,0-20.88,6.15-25.37,17.33-6,14.96-6.14,30.13-.42,45.08,2.56,6.7,6.95,12,13.04,15.77,3.71,2.3,8.13,3.51,12.76,3.51,9.88,0,18.08-5.38,20.89-13.69,3.11-9.22,5.68-11.08,15.27-11.08h.83c1.43.02,2.86.02,4.29.02,7.89.02,16.06.03,24.2,1.6,2.48.48,5.19.7,8.54.7,2.35,0,4.77-.11,7.12-.22,2.37-.11,4.82-.22,7.22-.22h.36c11.92.06,13.36,1.08,17.12,12.16,2.2,6.5,6.64,9.93,13.98,10.81.78.09,1.63.14,2.66.14.77,0,1.55-.02,2.32-.05.8-.02,1.59-.05,2.38-.05.02,0,.04,0,.06,0ZM235.48,43.32c-11.37,0-21.35,7.47-26.06,19.49-5.2,13.27-5.51,27.37-.91,41.91,4.3,13.61,14.18,21.44,27.11,21.49h.13c12.36,0,21.61-6.99,26.06-19.67,4.99-14.23,5.01-28.82.05-43.36-2.11-6.21-5.29-10.82-9.71-14.09-5.09-3.77-10.86-5.77-16.67-5.77Z"/>
      <path d="m723.76,2c10.99,0,21.85,2.05,32.38,6.84,18,8.19,27.97,22.65,29.44,42.47.59,8.02-2.61,11.42-10.69,11.83-3.3.17-6.6.22-9.91.22-4.02,0-8.05-.09-12.07-.17-5.61-.11-9.21-3.1-11.22-8.35-3.16-8.27-12.12-13.23-20.88-13.23-4.34,0-8.62,1.22-12.13,3.85-4.33,3.25-3.75,8.06,1.56,10.51,8.23,3.8,17.18,5.24,25.93,7.26,8.62,2,17.1,4.34,25.25,7.84,6.98,3,13.23,6.98,18.31,12.7.69.78,1.26,2.23,2.38,2.23.19,0,.39-.04.61-.13,1.45-.59.86-2.35.91-3.61.52-14.85,3.56-29.08,10.68-42.23,13.05-24.09,33.93-35.81,60.73-37.7,2.24-.16,4.47-.24,6.68-.24,11.64,0,22.92,2.25,33.66,7.52,11.97,5.88,20.63,14.97,26.68,26.71.51,1,.54,2.49,1.91,2.71.09.02.18.02.27.02,1.04,0,1.3-1.12,1.59-1.97,6.93-20.67,22.98-29.73,43.03-33.28,6.27-1.11,12.54-1.74,18.75-1.74,10.64,0,21.13,1.83,31.3,6.21,18.3,7.88,28.16,22.29,30.52,41.82,1.05,8.64-2.8,12.77-11.62,13.08-2.88.1-5.76.13-8.64.13-3.95,0-7.9-.06-11.85-.12-5.8-.07-9.57-2.94-11.75-8.38-3.35-8.34-12.01-13.24-20.7-13.24-4.33,0-8.67,1.22-12.35,3.83-4.1,2.91-3.93,7.52.65,10,5.46,2.96,11.49,4.38,17.51,5.73,12.83,2.88,25.63,5.71,37.69,11.35,20.27,9.47,27.13,27.8,24.71,47.84-2.86,23.76-17.48,39.4-40.88,44.56-8.15,1.8-16.29,2.74-24.39,2.74-11.17,0-22.26-1.8-33.22-5.63-12.77-4.47-22.75-12.29-28.91-24.58-.71-1.41-1.37-3.19-2.43-3.19-.62,0-1.37.61-2.33,2.25-10.59,17.97-26.71,27.38-47.07,29.96-4.58.58-9.09.89-13.54.89-16.72,0-32.44-4.37-46.55-15.15-8.71-6.65-15.49-15.05-20.54-24.82-.88-1.71-1.24-3.83-3.12-4.86-1.1.32-1.2,1.2-1.35,2-3.97,21.62-17.59,34.36-38.12,39.7-8.99,2.34-17.99,3.57-26.94,3.57-11.75,0-23.42-2.11-34.9-6.59-14.79-5.77-25.13-15.96-30.04-31.3-.39-1.23-.52-2.64-2.05-3.63-1.54,1.41-1.63,3.5-2.22,5.27-5.28,15.93-16.28,26.15-32.01,31.1-9.39,2.96-18.88,4.4-28.41,4.4-7.92,0-15.87-.99-23.84-2.94-13.21-3.22-24.54-9.29-32.21-21-.46-.7-.86-1.6-2.17-1.6-.15,0-.32.01-.5.04-.9,3.59-.31,7.4-.5,11.13-.4,7.72-3.79,11.45-11.48,11.49-11.68.05-23.37.06-35.05.06-6.57,0-13.14,0-19.7,0-11.57,0-23.13,0-34.7.05h-.03c-4.19,0-7.25-3.69-10.64-3.69-.09,0-.18,0-.27,0-3.39.2-6.43,3.65-10.54,3.65h-.02c-9.29-.02-18.58-.03-27.86-.03-7.77,0-15.53,0-23.3,0-12.93,0-25.86,0-38.79-.06-7.61-.03-11.3-4.13-11.46-12.71-.23-11.99-.06-23.98-.13-35.97-.01-1.73.49-3.56-.74-5.66-10.71,35.79-33.5,56.44-71.43,57.39-1,.03-1.99.04-2.98.04-38.71,0-63.63-19.46-74.83-57.54-1.43,2.02-.85,3.88-.86,5.6-.07,11.99.05,23.98-.1,35.97-.12,9.57-3.5,12.82-13.1,12.95-2.9.04-5.8.06-8.7.06s-5.53-.02-8.29-.06c-9.87-.15-12.87-3.11-12.97-12.85-.09-8.83-.02-17.65-.06-26.48-.01-2.64.16-5.32-1.61-8.81-1.45,4.83-2.69,8.84-3.87,12.87-2.48,8.47-4.89,16.96-7.4,25.42-2.07,6.99-5.39,9.64-12.62,9.8-3.47.08-6.93.11-10.4.11s-6.72-.03-10.08-.1c-7.78-.15-11.17-2.8-13.34-10.28-2.93-10.07-5.74-20.18-8.62-30.26-.53-1.87-1.17-3.71-2.89-5.43,0,6.37.07,12.74-.02,19.11-.08,5.98.5,11.99-.79,17.93-1.22,5.59-3.76,8.45-9.33,8.72-3.94.19-7.9.28-11.85.28s-7.75-.09-11.62-.27c-5.85-.28-8.56-3.37-9.38-9.14-.63-4.46-.91-8.92-.9-13.44.04-38.14.05-76.27,0-114.41,0-4.35.38-8.65.98-12.93.72-5.18,3.7-8.56,8.75-8.66,6.38-.13,12.76-.19,19.15-.19,6.77,0,13.55.07,20.32.19,5.24.1,7.83,3.89,9.16,8.56,4.21,14.73,8.39,29.46,12.58,44.2,2.05,7.21,4.07,14.42,6.16,21.62.35,1.19.28,2.71,2.56,3.46,1.72-5.86,3.47-11.66,5.12-17.5,4.7-16.67,9.33-33.35,14.05-50.01,2.35-8.3,5.22-10.51,13.92-10.57,5.56-.04,11.12-.07,16.69-.07,5.1,0,10.2.02,15.3.07,9.96.09,13.06,3.21,13.16,13.33.12,11.82.02,23.65.07,35.47,0,1.78-.41,3.62.78,6.01C172.47,21.67,197.5,2.28,234.62,2.28c3.09,0,6.26.13,9.52.4,34.87,2.88,56.04,23.56,65.69,57.21,1.48-1.7.97-3.38.98-4.84.05-11.32-.01-22.65.07-33.97.02-2.64.37-5.3.76-7.92.71-4.81,3.71-7.55,8.43-7.68,4.8-.13,9.61-.2,14.41-.2,4.19,0,8.37.05,12.56.15,4.48.11,7.3,2.89,8.6,7.14.99,3.22,1.14,6.53,1.14,9.88-.02,30.98-.01,61.95,0,92.93q0,8.69,8.47,8.7c2.93,0,5.85,0,8.78,0s5.75,0,8.62,0c8.86,0,17.72,0,26.58.04.06,0,.13,0,.19,0,.69,0,1.39-.01,2.1-.01,1.79,0,3.59.09,5.11.75,1.32.58,2.31.84,3.06.84,2.14,0,2.23-2.15,2.22-5.13-.09-32.47-.06-64.95-.03-97.42,0-2.49.03-5.02.43-7.46,1.27-7.68,4.32-10.33,12.08-10.44,3.67-.05,7.34-.09,11.01-.09s7.65.04,11.48.17c6.83.22,9.2,2.39,10.39,9.11.46,2.6.51,5.3.51,7.95.03,31.47.01,62.95.03,94.42,0,6.98.3,7.18,7.37,7.29,2.42.04,4.84.05,7.26.05,7.75,0,15.5-.15,23.25-.15,7.31,0,14.62.13,21.93.65.16.01.31.02.45.02,2.08,0,2.2-1.21,2.05-3.06-2.71-32.92-.84-65.9-1.21-98.85-.17-15.64,4.25-17.66,13.95-17.66,1.08,0,2.22.02,3.42.06,1.74.05,3.48.06,5.21.06,1.91,0,3.82-.02,5.73-.02,2.18,0,4.37.02,6.55.11,7.05.28,9.91,3.02,10.78,9.98.27,2.14.21,4.32.21,6.48.02,28.64-.02,57.29.04,85.93.03,12.46,6.61,19.6,17.26,19.6,2.09,0,4.34-.27,6.72-.84,8.89-2.1,12.93-7.19,12.96-16.94.08-28.31.04-56.62.05-84.93,0-16.99,2.38-19.41,19.11-19.42,2.46,0,4.91-.02,7.37-.02,2.71,0,5.42.02,8.12.13,7.51.28,10.49,3.17,11.19,10.65.2,2.15.14,4.33.14,6.49.01,25.81,0,51.62.02,77.44,0,4.18,0,5.22,2.01,5.22.84,0,2.02-.18,3.7-.39,4.63-.57,9.28-.8,13.93-.8,5,0,10,.26,14.98.64,3.98.3,6.66,2.72,7.85,6.68,1.84,6.12,3.62,12.57,10.82,14.44,4.54,1.18,9.1,1.96,13.63,1.96,4.78,0,9.53-.87,14.2-3.04,2.93-1.36,4.71-3.73,4.61-7.11-.1-3.17-1.98-5.19-4.66-6.59-3.42-1.78-7.11-2.81-10.82-3.81-11.58-3.1-23.41-5.28-34.78-9.15-29.93-10.2-42.19-38.88-28.48-67.42,6.93-14.42,19.6-21.89,34.62-25.46,8.16-1.94,16.31-3.05,24.4-3.05M235.75,127.21c12.68,0,22.33-7.02,27-20.34,5.12-14.59,5.04-29.37.06-44.01-1.96-5.75-5.09-10.89-10.06-14.57-5.46-4.04-11.44-5.96-17.27-5.96-11.27,0-21.93,7.19-26.99,20.12-5.47,13.95-5.4,28.43-.93,42.58,4.56,14.42,14.95,22.14,28.06,22.19.04,0,.09,0,.13,0m624.84-.2c9.37,0,18.64-4.91,21.83-14.37,3.03-8.98,5.24-10.4,14.33-10.4.27,0,.54,0,.82,0,9.44.08,18.82-.23,28.31,1.6,2.85.55,5.77.72,8.73.72,4.75,0,9.58-.44,14.34-.44.12,0,.23,0,.35,0,11.43.05,12.51.66,16.18,11.48,2.46,7.26,7.63,10.62,14.81,11.48.92.11,1.84.14,2.77.14,1.57,0,3.14-.1,4.71-.1,1.2.07,2.39.12,3.58.12,3.79,0,7.51-.5,11.02-2.4,6.5-3.52,6.82-9.69.63-13.63-3.43-2.18-7.34-3.1-11.19-4.15-11.88-3.23-24.1-5.24-35.7-9.5-14.15-5.19-25.89-13.03-30.42-28.52-.54-1.84-1.35-3.3-3.43-3.3-.24,0-.5.02-.77.06-3.51.51-7.04.63-10.56.63-3.13,0-6.26-.09-9.39-.09-1.83,0-3.65.03-5.48.14-.45.03-.88.04-1.31.04-6.84,0-10.95-3.26-13.33-10.01-3.05-8.66-9.92-12.66-18.82-13.16-.67-.04-1.34-.06-2-.06-12.14,0-21.64,6.37-26.29,17.96-6.08,15.16-6.27,30.54-.43,45.81,2.62,6.84,7.14,12.37,13.45,16.27,3.97,2.46,8.64,3.66,13.29,3.66M723.76,0c-7.84,0-16.21,1.05-24.86,3.11-17.63,4.2-29.39,12.88-35.96,26.54-1.29,2.68-2.36,5.39-3.22,8.1,0-5.11,0-10.22,0-15.33,0-.41,0-.83,0-1.24,0-1.77.02-3.6-.15-5.43-.8-8.53-4.6-12.15-13.11-12.47-3.01-.11-5.96-.13-8.19-.13-1.27,0-2.55,0-3.82.01-1.18,0-2.37.01-3.55.01-8.68,0-14,.63-17.25,3.94-3.24,3.29-3.86,8.68-3.86,17.48,0,8.59,0,17.18,0,25.77,0,19.39,0,39.44-.05,59.15-.03,8.74-3.33,13.08-11.42,15-2.2.52-4.31.78-6.26.78-9.68,0-15.24-6.42-15.26-17.61-.04-18.5-.04-37.3-.04-55.49,0-10.14,0-20.29,0-30.43v-.99c0-1.87.02-3.81-.22-5.74-1-8.01-4.67-11.41-12.69-11.73-2.42-.1-4.81-.11-6.62-.11-.96,0-1.91,0-2.87,0-.95,0-1.9,0-2.86,0-2.07,0-3.66-.02-5.16-.06-1.05-.03-2.28-.06-3.48-.06-5.15,0-9.15.58-11.94,3.4-2.9,2.93-4.1,7.8-4,16.28.12,10.77,0,21.74-.12,32.35-.24,21.84-.5,44.42,1.33,66.64.04.43.04.71.04.9-.03,0-.06,0-.09,0-.1,0-.2,0-.31-.01-6.4-.45-13.21-.65-22.07-.65-3.88,0-7.83.04-11.64.07-3.81.04-7.74.07-11.6.07-2.63,0-4.99-.02-7.23-.05-1.91-.03-4.53-.07-4.97-.5-.43-.42-.43-3.16-.43-4.79,0-12.39,0-24.77,0-37.16,0-19.09,0-38.18-.02-57.26,0-2.66-.05-5.49-.54-8.3-1.36-7.7-4.57-10.51-12.29-10.76-3.53-.11-7.31-.17-11.54-.17-3.99,0-8,.05-11.04.09-8.67.13-12.61,3.52-14.03,12.12-.42,2.54-.46,5.13-.46,7.79v4.64c-.03,30.41-.06,61.86.03,92.79,0,.78,0,2.53-.22,3.12-.27,0-.92-.09-2.25-.67-1.85-.81-3.93-.92-5.9-.92-.36,0-.72,0-1.08,0-.34,0-.68,0-1.01,0h-.18c-9.17-.04-18.53-.04-26.59-.04h-4.31s-4.31,0-4.31,0c-2.93,0-5.85,0-8.78,0-2.83,0-5.5,0-5.97-.49-.5-.51-.5-3.15-.5-6.21v-10.53c0-27,0-54.93,0-82.39,0-3.35-.15-6.94-1.23-10.47-1.66-5.4-5.38-8.44-10.47-8.56-4.19-.1-8.43-.15-12.6-.15-4.81,0-9.68.07-14.47.2-5.73.16-9.5,3.58-10.36,9.38-.37,2.48-.76,5.35-.78,8.2-.05,6.37-.05,12.85-.05,19.11,0,3.38,0,6.83,0,10.29-5.01-13.35-12.07-24.15-21.05-32.2-11.4-10.22-26.02-16.13-43.47-17.57-3.3-.27-6.55-.41-9.68-.41-18.96,0-35,5.02-47.69,14.91-10.67,8.32-19.04,20.16-24.99,35.28,0-3.66,0-7.34,0-10.93,0-6.88.01-14-.06-21.01-.11-11.2-4.08-15.21-15.14-15.31-4.88-.05-10.04-.07-15.32-.07s-10.75.02-16.7.07c-9.54.07-13.24,2.88-15.83,12.03-2.53,8.93-5.07,18.02-7.53,26.81-2.17,7.74-4.33,15.47-6.51,23.2-1.13,3.99-2.33,8.05-3.49,11.98-.16.53-.31,1.06-.47,1.6-1.44-4.97-2.87-10.03-4.26-14.92-.59-2.08-1.18-4.16-1.77-6.24l-2.92-10.29c-3.21-11.31-6.42-22.61-9.65-33.91-2.33-8.15-7.29-9.94-11.05-10.01-6.9-.13-13.75-.19-20.36-.19s-12.94.06-19.19.19c-5.8.11-9.8,4-10.69,10.38C.32,18.71,0,23.03,0,27.05c.05,35.72.06,73.14,0,114.4,0,4.82.3,9.31.92,13.72.99,6.99,4.68,10.54,11.26,10.86,3.86.18,7.8.28,11.71.28s7.97-.1,11.95-.28c6.25-.3,9.7-3.47,11.19-10.29,1.01-4.61.94-9.21.87-13.67-.02-1.53-.05-3.11-.03-4.65.04-3.14.05-6.32.04-9.45.75,2.63,1.49,5.25,2.23,7.88,1.73,6.12,3.53,12.46,5.33,18.68,2.43,8.37,6.56,11.55,15.22,11.72,3.41.07,6.81.1,10.12.1,3.51,0,7.03-.04,10.45-.11,8.09-.18,12.15-3.33,14.5-11.23,1.48-5,2.95-10.08,4.37-15,1-3.48,2.01-6.95,3.03-10.42.5-1.72,1.03-3.46,1.56-5.25v.63c.02,3.55.01,7.1.01,10.66,0,5.19,0,10.55.05,15.83.11,10.78,4.02,14.66,14.94,14.82,2.71.04,5.51.06,8.32.06s5.77-.02,8.73-.06c10.72-.15,14.94-4.34,15.07-14.93.08-6.96.08-14.03.07-20.87,0-3.65,0-7.39,0-11.12,12.69,33.16,37.45,49.95,73.71,49.95,1,0,2.01-.01,3.03-.04,34.11-.86,57.67-17.53,70.14-49.59,0,3.15,0,6.3,0,9.38-.01,7.37-.02,15,.12,22.5.19,9.7,4.71,14.63,13.46,14.67,13.55.05,27.22.06,38.8.06h11.65s11.65,0,11.65,0c9.29,0,18.57,0,27.86.03,2.73,0,4.94-1.16,6.89-2.19,1.37-.72,2.66-1.4,3.79-1.47.05,0,.1,0,.16,0,1.1,0,2.41.71,3.8,1.46,1.94,1.04,4.13,2.23,6.84,2.23,12.09-.05,24.33-.05,34.73-.05h9.85s9.85,0,9.85,0c11.06,0,22.97,0,35.06-.06,8.6-.03,13.01-4.41,13.47-13.38.07-1.36.04-2.72.01-4.03-.03-1.3-.05-2.55.01-3.77,7.19,10.52,17.96,17.41,32.89,21.06,8.14,1.99,16.32,3,24.32,3,9.79,0,19.55-1.51,29.02-4.49,16.73-5.26,27.93-16.16,33.31-32.38.18-.54.31-1.08.44-1.6,0-.02.01-.04.02-.07,0,0,0,0,0,0,4.94,15.45,15.45,26.4,31.22,32.55,11.44,4.46,23.43,6.73,35.63,6.73,8.96,0,18.19-1.22,27.45-3.63,21.88-5.69,35.12-19.17,39.35-40.05.09.2.17.41.27.64.21.51.42,1.03.69,1.55,5.31,10.28,12.41,18.85,21.1,25.49,13.71,10.47,29.33,15.56,47.76,15.56,4.41,0,9.05-.3,13.79-.91,21.75-2.76,38.08-13.16,48.54-30.93.18-.31.34-.56.48-.75.16.3.32.63.44.88.11.23.22.46.33.69,6.08,12.11,16.18,20.72,30.04,25.57,10.89,3.81,22.29,5.74,33.88,5.74,8.08,0,16.43-.94,24.82-2.79,24.42-5.39,39.49-21.82,42.44-46.27,2.78-23.09-6.4-40.81-25.85-49.89-12.1-5.65-25.04-8.55-37.57-11.37l-.54-.12c-6.56-1.47-11.97-2.81-17-5.54-1.56-.85-2.46-1.98-2.54-3.19-.07-1.19.69-2.44,2.09-3.43,3.2-2.26,7.07-3.46,11.2-3.46,8.39,0,15.96,4.82,18.84,11.98,2.53,6.31,7.1,9.55,13.58,9.63l2.12.03c3.19.04,6.5.09,9.75.09s6.08-.04,8.71-.14c5.16-.18,8.79-1.57,11.08-4.25,2.21-2.58,3.03-6.3,2.45-11.06-2.52-20.83-13.19-35.44-31.72-43.42-9.83-4.23-20.63-6.38-32.09-6.38-6.04,0-12.47.59-19.09,1.77-23.38,4.14-37.92,15.3-44.41,34.13-.07-.19-.15-.38-.25-.57-6.43-12.48-15.7-21.76-27.57-27.59-10.44-5.13-22.06-7.73-34.54-7.73-2.23,0-4.52.08-6.82.24-28.53,2.01-49.51,15.04-62.34,38.74-1.94,3.58-3.61,7.28-5.03,11.14-1.76-20-12.3-34.93-30.53-43.22-10.25-4.66-21.42-7.02-33.21-7.02h0Zm23.3,63.96c-3.77-1.07-7.32-1.94-10.45-2.67-1.78-.41-3.58-.8-5.33-1.18-6.8-1.48-13.84-3-20.21-5.95-1.93-.89-3.12-2.17-3.26-3.51-.13-1.22.6-2.5,2.07-3.59,3.01-2.26,6.79-3.45,10.93-3.45,8.51,0,16.33,4.91,19.02,11.95,1.57,4.11,4,6.91,7.24,8.4h0Zm-511.31,61.25h-.13c-12.46-.05-22-7.63-26.16-20.79-4.53-14.32-4.23-28.19.89-41.24,4.56-11.63,14.19-18.85,25.13-18.85,5.6,0,11.15,1.93,16.08,5.57,4.25,3.15,7.31,7.6,9.36,13.61,4.88,14.33,4.86,28.69-.05,42.71-4.36,12.43-13.04,19-25.12,19h0Zm624.84-.2c-4.45,0-8.68-1.16-12.24-3.36-5.9-3.65-10.15-8.79-12.63-15.28-5.63-14.72-5.49-29.64.42-44.35,4.32-10.77,13-16.7,24.44-16.7.62,0,1.25.02,1.88.05,8.72.49,14.45,4.47,17.05,11.83,2.69,7.63,7.67,11.34,15.22,11.34.46,0,.94-.01,1.42-.04,1.6-.09,3.3-.13,5.37-.13,1.55,0,3.13.02,4.66.05,1.55.02,3.15.05,4.73.05,2.97,0,6.88-.07,10.85-.65.17-.03.34-.04.48-.04.52,0,.97,0,1.51,1.86,5.36,18.3,20.63,25.79,31.65,29.84,7.62,2.8,15.58,4.66,23.28,6.45,4.14.97,8.43,1.97,12.58,3.1l1.12.3c3.44.92,6.69,1.8,9.53,3.6,2.34,1.49,3.59,3.31,3.52,5.14-.07,1.85-1.54,3.69-4.03,5.04-2.76,1.49-5.86,2.16-10.06,2.16-1.02,0-2.12-.04-3.46-.12-.04,0-.08,0-.12,0-.81,0-1.63.03-2.42.05-.79.02-1.54.05-2.29.05-.99,0-1.8-.04-2.54-.13-6.91-.82-11.08-4.05-13.15-10.14-3.93-11.58-5.61-12.78-18.06-12.84h-.36c-2.42,0-4.88.11-7.26.22-2.33.11-4.75.22-7.07.22-3.28,0-5.94-.22-8.35-.68-8.23-1.59-16.44-1.61-24.38-1.62-1.43,0-2.86,0-4.29-.02-.29,0-.56,0-.84,0-10.08,0-12.96,2.09-16.22,11.76-2.67,7.91-10.49,13.01-19.94,13.01h0Zm-95.61-59.64c3.71,0,6.99-.07,10.01-.23,4.04-.2,6.95-1.1,9.01-2.79-1.35,6.22-2.14,12.82-2.39,19.86,0,.27,0,.52.02.78-.13-.18-.26-.35-.42-.52-4.86-5.48-11.08-9.8-19.02-13.21-3.89-1.67-7.84-3.07-11.65-4.25.74.12,1.52.19,2.33.2h.54c3.79.09,7.7.17,11.57.17h0Zm-105.16,37.71c-.08-.66-.08-1.95-.08-3.2,0-10.25,0-20.49-.01-30.72.3.86.63,1.72.98,2.56,5.44,12.97,16.76,22.95,31.87,28.1,7.45,2.54,15.16,4.37,22.63,6.15,4.04.96,8.22,1.95,12.28,3.04,3.83,1.03,7.26,2.01,10.41,3.65,2.41,1.25,3.51,2.76,3.58,4.87.07,2.4-1.06,4.12-3.45,5.23-4.12,1.92-8.49,2.85-13.36,2.85-3.93,0-8.23-.62-13.13-1.9-5.95-1.55-7.49-6.7-9.28-12.66l-.13-.43c-1.46-4.86-4.88-7.74-9.62-8.1-5.79-.44-10.6-.65-15.14-.65-5.1,0-9.74.27-14.18.81l-1,.13c-1.02.13-1.84.24-2.38.24h0Z"/>
    </g>
  </g>
</svg>