<?xml version="1.0" encoding="UTF-8"?>
<svg id="Livello_2" data-name="Livello 2" xmlns="http://www.w3.org/2000/svg" viewBox="0 0 401.71 169.6">
  <defs>
    <style>
      .cls-1 {
        fill: #fff;
      }
    </style>
  </defs>
  <g id="Livello_1-2" data-name="Livello 1">
    <g>
      <g>
        <path class="cls-1" d="m69.82,168.6c-11.97,0-22.61-1.73-32.52-5.27C15.92,155.67,3.76,140.22,1.15,117.41c-.51-4.46.32-7.96,2.47-10.41,2.16-2.46,5.55-3.74,10.08-3.82,2.34-.04,4.68-.05,7.03-.05s4.91.01,7.37.03c2.45.01,4.91.03,7.36.03h.25c6,0,9.95,2.89,12.06,8.83,4.25,11.96,7.5,14.23,20.43,14.27.76,0,1.53.02,2.3.03.82.01,1.64.03,2.47.03,2.97,0,6.13-.17,9.16-1.44,4.09-1.71,6.47-3.42,6.54-7.1.08-3.62-2.37-5.37-6.06-6.87-6.49-2.64-13.45-4.22-20.18-5.76-2.5-.57-5.09-1.16-7.62-1.79-6.65-1.67-15.36-4.07-23.84-7.86-13.69-6.12-29.24-19.67-25.59-49.5C7.89,25.22,19.88,11.54,40.98,5.34c9.8-2.88,19.39-4.34,28.53-4.34,11.41,0,22.44,2.28,32.8,6.76,17.88,7.75,28.11,22.07,30.41,42.58.49,4.34-.27,7.71-2.24,10.02-1.98,2.33-5.23,3.61-9.65,3.81-2.86.13-5.97.2-9.51.2s-6.93-.06-10.31-.12l-1.73-.03c-5.81-.1-9.95-3.05-12.29-8.79-3.12-7.66-11.06-12.81-19.75-12.81-4.24,0-8.3,1.23-11.72,3.56-1.83,1.24-2.77,2.8-2.66,4.39.12,1.69,1.47,3.29,3.71,4.39,5.93,2.91,12.47,4.35,18.8,5.75,2.1.46,4.26.94,6.39,1.47l1.24.31c5.33,1.32,10.85,2.69,16.18,4.4,13.22,4.25,28.79,11.44,35.59,29.46,0-11.4,0-22.81.01-34.21,0-13.79,0-27.57.02-41.36v-.5c0-2.17,0-4.42.33-6.62.9-5.88,4.32-9.08,9.91-9.25,4.41-.13,8.9-.2,13.35-.2s8.8.06,13.19.19c5.62.16,9.06,3.34,9.97,9.18.37,2.38.37,4.81.37,7.17v.46c.01,11.71.01,23.41.01,35.12,0,15.77,0,31.54.03,47.31,0,3.07.19,5.79.55,8.31,1.42,9.78,6.09,13.9,16.11,14.2.31,0,.61.01.92.01,9.84,0,15.93-4.78,17.63-13.81.48-2.56.52-5.24.52-7.77.02-15.58.02-31.16.03-46.75,0-12.06,0-24.12.02-36.18v-.67c0-2.45,0-4.98.38-7.45.89-5.81,4.36-8.97,10.01-9.13,4.02-.11,8.26-.17,12.62-.17s8.95.06,13.91.17c5.28.12,8.75,3.24,9.79,8.79.27,1.46.4,3.09.4,5.15,0,9,.03,18.01.05,27.01.07,22.92.13,46.61-.2,69.92-.28,19.38-8.58,34.05-24.67,43.62-6.46,3.84-14.07,6.34-23.95,7.84-5.69.87-11.29,1.31-16.65,1.31-11.57,0-22.66-2.05-32.97-6.1-15.39-6.04-25.38-17.44-29.68-33.89-.15-.58-.3-1.15-.46-1.73-2.06,6.69-5,14-10.21,20.55-9.78,12.28-23.52,19.14-42.01,20.98-5.06.5-9.73.75-14.29.75Z"/>
        <path d="m69.51,2c10.93,0,21.77,2.08,32.4,6.68,18.05,7.82,27.64,22.41,29.81,41.77.92,8.23-2.73,12.34-10.94,12.72-3.15.15-6.31.2-9.46.2-4.01,0-8.01-.08-12.02-.15-5.59-.09-9.25-2.95-11.38-8.17-3.46-8.49-12-13.43-20.67-13.43-4.25,0-8.54,1.19-12.28,3.73-4.52,3.07-4.08,7.92,1.18,10.5,8.01,3.93,16.83,5.17,25.39,7.29,5.81,1.44,11.65,2.86,17.35,4.69,17.49,5.63,31.84,14.7,36.68,34.4.08-1.68.22-3.35.22-5.03.02-25.48,0-50.96.03-76.44,0-2.33-.03-4.69.32-6.97.8-5.27,3.71-8.24,8.95-8.4,4.44-.13,8.88-.2,13.32-.2s8.77.06,13.16.19c5.26.15,8.2,3.08,9.01,8.33.38,2.45.36,4.98.36,7.47.02,27.48,0,54.95.04,82.43,0,2.82.16,5.67.56,8.45,1.5,10.33,6.57,14.74,17.07,15.05.32,0,.63.01.94.01,10.22,0,16.82-5.1,18.61-14.63.49-2.59.54-5.3.54-7.95.04-27.64.02-55.29.04-82.93,0-2.66-.03-5.36.37-7.97.8-5.24,3.76-8.13,9.05-8.28,4.19-.12,8.39-.17,12.59-.17,4.63,0,9.26.06,13.89.17,5,.12,7.92,3.11,8.83,7.97.3,1.62.38,3.31.38,4.97,0,32.31.32,64.62-.15,96.91-.27,18.32-8.01,33.16-24.18,42.78-7.25,4.31-15.28,6.45-23.59,7.71-5.54.84-11.04,1.3-16.5,1.3-11.08,0-21.97-1.85-32.6-6.03-15.35-6.02-24.91-17.3-29.07-33.21-.45-1.73-.92-3.46-1.38-5.19-2.44,8.72-5.52,16.71-11.04,23.64-10.57,13.28-25.2,19-41.33,20.61-4.73.47-9.47.74-14.19.74-10.85,0-21.64-1.44-32.19-5.22-21.36-7.65-32.95-22.81-35.5-45.09-.97-8.44,3.12-12.98,11.57-13.11,2.33-.04,4.67-.05,7-.05,4.91,0,9.83.06,14.74.06.08,0,.16,0,.24,0h0c5.72,0,9.17,2.72,11.11,8.17,4.44,12.49,8.04,14.89,21.37,14.93,1.59,0,3.18.06,4.77.06,3.23,0,6.44-.22,9.54-1.52,3.68-1.54,7.06-3.4,7.16-8,.09-4.47-3.28-6.43-6.69-7.82-8.99-3.65-18.57-5.24-27.93-7.59-8.08-2.03-16.02-4.38-23.67-7.8C9.92,85.03,3.89,66.29,6.35,46.14,8.91,25.18,21.33,12.15,41.26,6.3c9.42-2.77,18.87-4.3,28.25-4.3m0-2c-9.23,0-18.92,1.47-28.81,4.38-10.45,3.07-18.83,8.07-24.9,14.84-6.29,7.02-10.13,16-11.44,26.68-1.36,11.15-.11,21,3.71,29.28,4.33,9.38,11.89,16.53,22.47,21.26,8.54,3.82,17.32,6.24,24,7.92,2.54.64,5.13,1.23,7.64,1.8,6.69,1.52,13.61,3.1,20.03,5.71,4.02,1.63,5.5,3.24,5.44,5.92-.07,3.17-2.05,4.58-5.93,6.2-2.86,1.2-5.91,1.36-8.77,1.36-.82,0-1.63-.01-2.45-.03-.77-.01-1.54-.03-2.31-.03-12.62-.03-15.35-1.94-19.49-13.6-2.27-6.39-6.52-9.5-12.99-9.5h-.25c-2.45,0-4.91-.01-7.36-.03-2.46-.01-4.92-.03-7.38-.03-2.62,0-4.92.02-7.04.05-4.83.08-8.47,1.48-10.82,4.16-2.34,2.67-3.25,6.43-2.71,11.18,2.66,23.22,15.04,38.95,36.81,46.75,10.02,3.59,20.77,5.33,32.86,5.33,4.59,0,9.29-.25,14.38-.75,18.78-1.87,32.74-8.85,42.69-21.35,4.48-5.63,7.31-11.8,9.34-17.67,4.59,15.95,14.63,27.07,29.86,33.04,10.43,4.09,21.64,6.17,33.34,6.17,5.42,0,11.07-.44,16.81-1.32,10.01-1.53,17.74-4.06,24.31-7.97,16.18-9.62,24.88-25,25.16-44.47.34-23.29.27-46.97.2-69.86-.03-8.88-.05-18.05-.05-27.08,0-2.12-.13-3.81-.42-5.33-1.11-5.97-5.03-9.47-10.75-9.61-4.97-.11-9.52-.17-13.93-.17s-8.62.06-12.65.17c-6.11.17-10.01,3.72-10.97,9.98-.39,2.55-.39,5.13-.39,7.62v.65c-.01,12.12-.01,24.23-.02,36.35,0,15.53,0,31.05-.03,46.58,0,2.48-.05,5.11-.51,7.58-1.59,8.5-7.35,12.99-16.64,12.99-.29,0-.59,0-.89-.01-9.55-.29-13.8-4.03-15.15-13.34-.36-2.47-.54-5.15-.54-8.17-.02-15.86-.03-31.72-.03-47.58,0-11.62,0-23.23-.01-34.85v-.47c0-2.39,0-4.86-.38-7.3-.98-6.29-4.86-9.85-10.93-10.02-4.4-.13-8.85-.19-13.22-.19s-8.96.07-13.38.2c-6.04.18-9.9,3.77-10.86,10.1-.35,2.27-.35,4.54-.35,6.75v.52c0,10.15-.01,20.3-.02,30.45-.02-.33-.05-.66-.09-1-2.34-20.89-12.77-35.49-31-43.39C92.22,2.3,81.05,0,69.51,0h0Zm24.94,64.42c-3.74-1.05-7.5-1.99-11.18-2.9l-1.25-.31c-2.13-.53-4.31-1.01-6.41-1.48-6.56-1.45-12.76-2.82-18.58-5.67-1.91-.94-3.06-2.23-3.15-3.56-.09-1.22.7-2.45,2.22-3.49,3.26-2.22,7.11-3.39,11.16-3.39,8.28,0,15.85,4.9,18.82,12.19,1.8,4.42,4.61,7.3,8.38,8.61h0Zm16.87.95c3.55,0,6.68-.06,9.56-.2,4.7-.22,8.19-1.62,10.36-4.16,1.49-1.74,2.34-4,2.56-6.75,0,2.87,0,5.74,0,8.61,0,9.57,0,19.14,0,28.71-7.65-15.2-21.98-21.68-34.29-25.64-1.21-.39-2.43-.76-3.65-1.12,1.07.25,2.21.38,3.41.4l1.72.03c3.38.06,6.88.12,10.33.12h0Z"/>
      </g>
      <g>
        <path class="cls-1" d="m366.93,165.35c-6.33,0-11.1-2.74-14.58-8.38-9.15-14.86-18.5-29.95-27.55-44.53l-5.56-8.96c-1.33-2.15-2.7-4.28-4.11-6.49-.38-.59-.75-1.18-1.13-1.78-.33.95-.28,1.85-.22,2.78.02.38.04.75.04,1.12-.03,8.15-.03,16.3-.03,24.44,0,8.5,0,17-.03,25.5-.04,12.39-3.8,16.19-16.07,16.25h-1.9c-2.38.02-4.75.04-7.13.04-3.46,0-6.32-.03-8.99-.09-8.87-.21-12.84-4.23-12.89-13.04-.09-18.31-.09-36.92-.08-54.92v-16.5s0-13.06,0-13.06c0-16.02-.02-32.59.04-48.88.04-11.26,3.34-14.54,14.69-14.63.67,0,1.35,0,2.02,0,1.86,0,3.72.02,5.58.04,1.85.02,3.71.04,5.56.04,2.61,0,4.77-.04,6.79-.11.26-.01.52-.02.77-.02,5.96,0,10.53,2.8,13.94,8.55,10.11,17.02,20.43,34.3,30.42,51l3.6,6.03c.65,1.09,1.36,2.16,2.17,3.39.15.23.3.45.46.69.91-1.82.88-3.46.85-5.18,0-.33-.01-.66-.01-.99.02-6.97.02-13.93.02-20.9,0-9.36,0-19.03.05-28.55.06-10.47,3.4-13.86,13.77-13.98,3.22-.04,6.44-.06,9.66-.06,4.18,0,7.9.05,11.36.14,6.43.17,9.86,2.99,11.46,9.42.74,2.96.8,5.9.8,8.67,0,25.83,0,124.48,0,124.48,0,1.12,0,2.28-.07,3.44-.78,11.53-4.36,14.89-15.92,14.98-.56,0-1.13,0-1.69,0-1.59,0-3.19-.02-4.78-.03-1.59-.02-3.18-.03-4.76-.03-2.2,0-4.01.03-5.72.09-.28,0-.55.02-.82.02Z"/>
        <path d="m302.17,5.14c6.04,0,10.06,2.97,13.08,8.06,11.3,19.03,22.67,38.03,34.02,57.04,1,1.68,2.11,3.28,3.51,5.44,2.19-3.02,1.81-5.58,1.81-8.03.05-16.48-.02-32.96.07-49.44.05-9.94,2.98-12.87,12.78-12.98,3.22-.04,6.43-.06,9.65-.06,3.78,0,7.56.04,11.33.14,6.14.17,9.05,2.75,10.52,8.67.69,2.78.77,5.59.77,8.43,0,41.29,0,82.57,0,123.86,0,1.33.02,2.67-.07,3.99-.75,11.04-3.84,13.96-14.93,14.04-.56,0-1.13,0-1.69,0-3.18,0-6.36-.06-9.54-.06-1.92,0-3.83.02-5.75.09-.27,0-.53.01-.79.01-6.08,0-10.5-2.67-13.72-7.91-10.99-17.86-22.06-35.67-33.11-53.49-1.97-3.17-4-6.3-6.16-9.7-1.67,2.23-1.11,4.11-1.12,5.86-.05,16.65,0,33.3-.06,49.94-.04,11.89-3.35,15.19-15.07,15.25-3,.02-6.01.04-9.02.04s-5.98-.02-8.97-.09c-8.26-.2-11.87-3.72-11.91-12.05-.12-23.81-.08-47.61-.08-71.42,0-20.64-.04-41.29.04-61.93.04-10.75,2.92-13.55,13.69-13.63.67,0,1.34,0,2.01,0,3.71,0,7.43.07,11.14.07,2.28,0,4.56-.03,6.83-.11.25,0,.49-.01.73-.01m0-2c-.27,0-.54,0-.81.02-2.01.08-4.15.11-6.75.11-1.85,0-3.7-.02-5.55-.04-1.86-.02-3.73-.04-5.59-.04-.68,0-1.35,0-2.03,0-11.97.1-15.63,3.75-15.68,15.63-.06,16.32-.05,32.91-.04,48.95v12.99c0,5.57,0,11.13,0,16.7,0,17.94-.01,36.48.08,54.73.05,9.35,4.45,13.82,13.87,14.04,2.68.06,5.54.09,9.01.09,2.37,0,4.74-.01,7.1-.03h1.92c12.87-.08,17.01-4.27,17.06-17.26.03-8.52.03-17.18.03-25.55,0-8,0-16.26.03-24.39,0-.27,0-.54-.02-.8,1.24,1.94,2.43,3.8,3.6,5.69l5.5,8.87c9.06,14.61,18.44,29.72,27.6,44.62,3.67,5.96,8.72,8.86,15.43,8.86.28,0,.57,0,.86-.02,1.69-.06,3.49-.09,5.67-.09,1.58,0,3.17.01,4.75.03,1.6.02,3.2.03,4.79.03.57,0,1.14,0,1.71,0,12.14-.1,16.09-3.81,16.91-15.91.08-1.19.08-2.37.07-3.51v-.62s0-52,0-52c0-23.95,0-47.91,0-71.86,0-2.83-.06-5.84-.83-8.91-1.73-6.95-5.44-9.99-12.41-10.18-3.47-.09-7.2-.14-11.39-.14-2.79,0-5.78.02-9.67.06-10.98.12-14.7,3.9-14.76,14.97-.05,9.49-.05,19.14-.05,28.47,0,6.99,0,13.99-.02,20.98,0,.33,0,.67.01,1,.02,1.01.03,1.95-.14,2.9-.53-.81-1.02-1.57-1.47-2.33l-3.56-5.95c-10-16.73-20.34-34.03-30.46-51.08-3.61-6.08-8.45-9.04-14.8-9.04h0Z"/>
      </g>
    </g>
  </g>
</svg>